{
  "header": {
    "keySignatures": [
      {
        "key": "F",
        "scale": "major",
        "ticks": 0
      },
      {
        "key": "F",
        "scale": "major",
        "ticks": 0
      },
      {
        "key": "F",
        "scale": "major",
        "ticks": 0
      },
      {
        "key": "F",
        "scale": "major",
        "ticks": 0
      }
    ],
    "meta": [],
    "name": "Piano\u0000",
    "ppq": 480,
    "tempos": [
      {
        "bpm": 100.00016666694445,
        "ticks": 0
      }
    ],
    "timeSignatures": [
      {
        "ticks": 0,
        "timeSignature": [
          4,
          4
        ],
        "measures": 0
      }
    ]
  },
  "tracks": [
    {
      "channel": 0,
      "controlChanges": {
        "7": [
          {
            "number": 7,
            "ticks": 0,
            "time": 0,
            "value": 0.7874015748031497
          }
        ],
        "10": [
          {
            "number": 10,
            "ticks": 0,
            "time": 0,
            "value": 0.5039370078740157
          }
        ],
        "91": [
          {
            "number": 91,
            "ticks": 0,
            "time": 0,
            "value": 0
          }
        ],
        "93": [
          {
            "number": 93,
            "ticks": 0,
            "time": 0,
            "value": 0
          }
        ],
        "121": [
          {
            "number": 121,
            "ticks": 0,
            "time": 0,
            "value": 0
          }
        ]
      },
      "pitchBends": [],
      "instrument": {
        "family": "piano",
        "name": "acoustic grand piano",
        "number": 0
      },
      "name": "Piano\u0000",
      "regularStartNote": 72,
      "smallStartNote": 72,
      "notes": [
        {
          "duration": 0.2837495270833319,
          "durationTicks": 227,
          "midi": 89,
          "name": "F6",
          "ticks": 8160,
          "time": 10.199983,
          "velocity": 0.6299212598425197
        },
        {
          "duration": 0.2837495270833319,
          "durationTicks": 227,
          "midi": 86,
          "name": "D6",
          "ticks": 8400,
          "time": 10.4999825,
          "velocity": 0.6299212598425197
        },
        {
          "duration": 0.5687490520833336,
          "durationTicks": 455,
          "midi": 89,
          "name": "F6",
          "ticks": 8640,
          "time": 10.799982,
          "velocity": 0.6299212598425197
        },
        {
          "duration": 0.5687490520833336,
          "durationTicks": 455,
          "midi": 88,
          "name": "E6",
          "ticks": 9120,
          "time": 11.399980999999999,
          "velocity": 0.6299212598425197
        },
        {
          "duration": 0.5687490520833336,
          "durationTicks": 455,
          "midi": 85,
          "name": "C#6",
          "ticks": 9600,
          "time": 11.999979999999999,
          "velocity": 0.6299212598425197
        },
        {
          "duration": 0.5687490520833336,
          "durationTicks": 455,
          "midi": 86,
          "name": "D6",
          "ticks": 10080,
          "time": 12.599979,
          "velocity": 0.6299212598425197
        },
        {
          "duration": 0.2837495270833337,
          "durationTicks": 227,
          "midi": 84,
          "name": "C6",
          "ticks": 10560,
          "time": 13.199977999999998,
          "velocity": 0.6299212598425197
        },
        {
          "duration": 0.2837495270833337,
          "durationTicks": 227,
          "midi": 84,
          "name": "C6",
          "ticks": 10800,
          "time": 13.499977499999998,
          "velocity": 0.6299212598425197
        },
        {
          "duration": 0.5687490520833336,
          "durationTicks": 455,
          "midi": 84,
          "name": "C6",
          "ticks": 11040,
          "time": 13.799976999999998,
          "velocity": 0.6299212598425197
        },
        {
          "duration": 0.2837495270833337,
          "durationTicks": 227,
          "midi": 83,
          "name": "B5",
          "ticks": 11520,
          "time": 14.399975999999999,
          "velocity": 0.6299212598425197
        },
        {
          "duration": 0.2837495270833337,
          "durationTicks": 227,
          "midi": 83,
          "name": "B5",
          "ticks": 11760,
          "time": 14.699975499999999,
          "velocity": 0.6299212598425197
        },
        {
          "duration": 0.5687490520833336,
          "durationTicks": 455,
          "midi": 83,
          "name": "B5",
          "ticks": 12000,
          "time": 14.999975,
          "velocity": 0.6299212598425197
        },
        {
          "duration": 0.2837495270833319,
          "durationTicks": 227,
          "midi": 82,
          "name": "Bb5",
          "ticks": 12480,
          "time": 15.599974,
          "velocity": 0.6299212598425197
        },
        {
          "duration": 0.2837495270833337,
          "durationTicks": 227,
          "midi": 82,
          "name": "Bb5",
          "ticks": 12720,
          "time": 15.899973499999998,
          "velocity": 0.6299212598425197
        },
        {
          "duration": 0.5687490520833336,
          "durationTicks": 455,
          "midi": 82,
          "name": "Bb5",
          "ticks": 12960,
          "time": 16.199973,
          "velocity": 0.6299212598425197
        },
        {
          "duration": 0.2837495270833337,
          "durationTicks": 227,
          "midi": 81,
          "name": "A5",
          "ticks": 13440,
          "time": 16.799971999999997,
          "velocity": 0.6299212598425197
        },
        {
          "duration": 0.2837495270833337,
          "durationTicks": 227,
          "midi": 86,
          "name": "D6",
          "ticks": 13680,
          "time": 17.0999715,
          "velocity": 0.6299212598425197
        },
        {
          "duration": 0.2837495270833337,
          "durationTicks": 227,
          "midi": 82,
          "name": "Bb5",
          "ticks": 13920,
          "time": 17.399970999999997,
          "velocity": 0.6299212598425197
        },
        {
          "duration": 0.2837495270833337,
          "durationTicks": 227,
          "midi": 86,
          "name": "D6",
          "ticks": 14160,
          "time": 17.6999705,
          "velocity": 0.6299212598425197
        },
        {
          "duration": 0.5687490520833336,
          "durationTicks": 455,
          "midi": 81,
          "name": "A5",
          "ticks": 14400,
          "time": 17.999969999999998,
          "velocity": 0.6299212598425197
        },
        {
          "duration": 0.2837495270833337,
          "durationTicks": 227,
          "midi": 77,
          "name": "F5",
          "ticks": 15840,
          "time": 19.799967,
          "velocity": 0.6299212598425197
        },
        {
          "duration": 0.2837495270833372,
          "durationTicks": 227,
          "midi": 74,
          "name": "D5",
          "ticks": 16080,
          "time": 20.099966499999997,
          "velocity": 0.6299212598425197
        },
        {
          "duration": 0.56874905208333,
          "durationTicks": 455,
          "midi": 77,
          "name": "F5",
          "ticks": 16320,
          "time": 20.399966,
          "velocity": 0.6299212598425197
        },
        {
          "duration": 0.56874905208333,
          "durationTicks": 455,
          "midi": 76,
          "name": "E5",
          "ticks": 16800,
          "time": 20.999965,
          "velocity": 0.6299212598425197
        },
        {
          "duration": 0.56874905208333,
          "durationTicks": 455,
          "midi": 82,
          "name": "Bb5",
          "ticks": 17280,
          "time": 21.599964,
          "velocity": 0.6299212598425197
        },
        {
          "duration": 0.5687490520833336,
          "durationTicks": 455,
          "midi": 81,
          "name": "A5",
          "ticks": 17760,
          "time": 22.199962999999997,
          "velocity": 0.6299212598425197
        },
        {
          "duration": 0.2837495270833372,
          "durationTicks": 227,
          "midi": 89,
          "name": "F6",
          "ticks": 18240,
          "time": 22.799961999999997,
          "velocity": 0.6299212598425197
        },
        {
          "duration": 0.2837495270833337,
          "durationTicks": 227,
          "midi": 89,
          "name": "F6",
          "ticks": 18480,
          "time": 23.0999615,
          "velocity": 0.6299212598425197
        },
        {
          "duration": 0.5687490520833336,
          "durationTicks": 455,
          "midi": 89,
          "name": "F6",
          "ticks": 18720,
          "time": 23.399960999999998,
          "velocity": 0.6299212598425197
        },
        {
          "duration": 0.2837495270833337,
          "durationTicks": 227,
          "midi": 88,
          "name": "E6",
          "ticks": 19200,
          "time": 23.999959999999998,
          "velocity": 0.6299212598425197
        },
        {
          "duration": 0.2837495270833372,
          "durationTicks": 227,
          "midi": 88,
          "name": "E6",
          "ticks": 19440,
          "time": 24.299959499999996,
          "velocity": 0.6299212598425197
        },
        {
          "duration": 0.56874905208333,
          "durationTicks": 455,
          "midi": 88,
          "name": "E6",
          "ticks": 19680,
          "time": 24.599959,
          "velocity": 0.6299212598425197
        },
        {
          "duration": 0.2837495270833337,
          "durationTicks": 227,
          "midi": 86,
          "name": "D6",
          "ticks": 20160,
          "time": 25.199958,
          "velocity": 0.6299212598425197
        },
        {
          "duration": 0.2837495270833372,
          "durationTicks": 227,
          "midi": 86,
          "name": "D6",
          "ticks": 20400,
          "time": 25.499957499999997,
          "velocity": 0.6299212598425197
        },
        {
          "duration": 0.56874905208333,
          "durationTicks": 455,
          "midi": 86,
          "name": "D6",
          "ticks": 20640,
          "time": 25.799957,
          "velocity": 0.6299212598425197
        },
        {
          "duration": 0.2837495270833372,
          "durationTicks": 227,
          "midi": 85,
          "name": "C#6",
          "ticks": 21120,
          "time": 26.399955999999996,
          "velocity": 0.6299212598425197
        },
        {
          "duration": 0.2837495270833337,
          "durationTicks": 227,
          "midi": 88,
          "name": "E6",
          "ticks": 21360,
          "time": 26.699955499999998,
          "velocity": 0.6299212598425197
        },
        {
          "duration": 0.2837495270833372,
          "durationTicks": 227,
          "midi": 86,
          "name": "D6",
          "ticks": 21600,
          "time": 26.999954999999996,
          "velocity": 0.6299212598425197
        },
        {
          "duration": 0.2837495270833337,
          "durationTicks": 227,
          "midi": 88,
          "name": "E6",
          "ticks": 21840,
          "time": 27.2999545,
          "velocity": 0.6299212598425197
        },
        {
          "duration": 0.5687490520833336,
          "durationTicks": 455,
          "midi": 85,
          "name": "C#6",
          "ticks": 22080,
          "time": 27.599953999999997,
          "velocity": 0.6299212598425197
        },
        {
          "duration": 0.2837495270833337,
          "durationTicks": 227,
          "midi": 89,
          "name": "F6",
          "ticks": 23520,
          "time": 29.399950999999998,
          "velocity": 0.6299212598425197
        },
        {
          "duration": 0.2837495270833372,
          "durationTicks": 227,
          "midi": 86,
          "name": "D6",
          "ticks": 23760,
          "time": 29.699950499999996,
          "velocity": 0.6299212598425197
        },
        {
          "duration": 0.56874905208333,
          "durationTicks": 455,
          "midi": 89,
          "name": "F6",
          "ticks": 24000,
          "time": 29.99995,
          "velocity": 0.6299212598425197
        },
        {
          "duration": 0.56874905208333,
          "durationTicks": 455,
          "midi": 88,
          "name": "E6",
          "ticks": 24480,
          "time": 30.599949,
          "velocity": 0.6299212598425197
        },
        {
          "duration": 0.56874905208333,
          "durationTicks": 455,
          "midi": 85,
          "name": "C#6",
          "ticks": 24960,
          "time": 31.199948,
          "velocity": 0.6299212598425197
        },
        {
          "duration": 0.5687490520833336,
          "durationTicks": 455,
          "midi": 86,
          "name": "D6",
          "ticks": 25440,
          "time": 31.799946999999996,
          "velocity": 0.6299212598425197
        },
        {
          "duration": 0.2837495270833301,
          "durationTicks": 227,
          "midi": 84,
          "name": "C6",
          "ticks": 25920,
          "time": 32.399946,
          "velocity": 0.6299212598425197
        },
        {
          "duration": 0.2837495270833372,
          "durationTicks": 227,
          "midi": 84,
          "name": "C6",
          "ticks": 26160,
          "time": 32.6999455,
          "velocity": 0.6299212598425197
        },
        {
          "duration": 0.5687490520833336,
          "durationTicks": 455,
          "midi": 84,
          "name": "C6",
          "ticks": 26400,
          "time": 32.999945,
          "velocity": 0.6299212598425197
        },
        {
          "duration": 0.2837495270833372,
          "durationTicks": 227,
          "midi": 83,
          "name": "B5",
          "ticks": 26880,
          "time": 33.599943999999994,
          "velocity": 0.6299212598425197
        },
        {
          "duration": 0.2837495270833301,
          "durationTicks": 227,
          "midi": 83,
          "name": "B5",
          "ticks": 27120,
          "time": 33.8999435,
          "velocity": 0.6299212598425197
        },
        {
          "duration": 0.5687490520833336,
          "durationTicks": 455,
          "midi": 83,
          "name": "B5",
          "ticks": 27360,
          "time": 34.199943,
          "velocity": 0.6299212598425197
        },
        {
          "duration": 0.2837495270833372,
          "durationTicks": 227,
          "midi": 82,
          "name": "Bb5",
          "ticks": 27840,
          "time": 34.799941999999994,
          "velocity": 0.6299212598425197
        },
        {
          "duration": 0.2837495270833301,
          "durationTicks": 227,
          "midi": 82,
          "name": "Bb5",
          "ticks": 28080,
          "time": 35.0999415,
          "velocity": 0.6299212598425197
        },
        {
          "duration": 0.5687490520833336,
          "durationTicks": 455,
          "midi": 82,
          "name": "Bb5",
          "ticks": 28320,
          "time": 35.399941,
          "velocity": 0.6299212598425197
        },
        {
          "duration": 0.2837495270833372,
          "durationTicks": 227,
          "midi": 81,
          "name": "A5",
          "ticks": 28800,
          "time": 35.999939999999995,
          "velocity": 0.6299212598425197
        },
        {
          "duration": 0.2837495270833372,
          "durationTicks": 227,
          "midi": 86,
          "name": "D6",
          "ticks": 29040,
          "time": 36.299939499999994,
          "velocity": 0.6299212598425197
        },
        {
          "duration": 0.2837495270833301,
          "durationTicks": 227,
          "midi": 82,
          "name": "Bb5",
          "ticks": 29280,
          "time": 36.599939,
          "velocity": 0.6299212598425197
        },
        {
          "duration": 0.2837495270833372,
          "durationTicks": 227,
          "midi": 86,
          "name": "D6",
          "ticks": 29520,
          "time": 36.8999385,
          "velocity": 0.6299212598425197
        },
        {
          "duration": 0.5687490520833336,
          "durationTicks": 455,
          "midi": 81,
          "name": "A5",
          "ticks": 29760,
          "time": 37.199937999999996,
          "velocity": 0.6299212598425197
        },
        {
          "duration": 0.2837495270833372,
          "durationTicks": 227,
          "midi": 86,
          "name": "D6",
          "ticks": 31200,
          "time": 38.999934999999994,
          "velocity": 0.6299212598425197
        },
        {
          "duration": 0.2837495270833301,
          "durationTicks": 227,
          "midi": 82,
          "name": "Bb5",
          "ticks": 31440,
          "time": 39.2999345,
          "velocity": 0.6299212598425197
        },
        {
          "duration": 0.5687490520833336,
          "durationTicks": 455,
          "midi": 86,
          "name": "D6",
          "ticks": 31680,
          "time": 39.599934,
          "velocity": 0.6299212598425197
        },
        {
          "duration": 0.5687490520833407,
          "durationTicks": 455,
          "midi": 85,
          "name": "C#6",
          "ticks": 32160,
          "time": 40.199932999999994,
          "velocity": 0.6299212598425197
        },
        {
          "duration": 0.2837495270833301,
          "durationTicks": 227,
          "midi": 84,
          "name": "C6",
          "ticks": 33120,
          "time": 41.399930999999995,
          "velocity": 0.6299212598425197
        },
        {
          "duration": 0.2837495270833372,
          "durationTicks": 227,
          "midi": 81,
          "name": "A5",
          "ticks": 33360,
          "time": 41.699930499999994,
          "velocity": 0.6299212598425197
        },
        {
          "duration": 0.5687490520833336,
          "durationTicks": 455,
          "midi": 84,
          "name": "C6",
          "ticks": 33600,
          "time": 41.99993,
          "velocity": 0.6299212598425197
        },
        {
          "duration": 0.5687490520833336,
          "durationTicks": 455,
          "midi": 79,
          "name": "G5",
          "ticks": 34080,
          "time": 42.599928999999996,
          "velocity": 0.6299212598425197
        },
        {
          "duration": 0.5687490520833336,
          "durationTicks": 455,
          "midi": 83,
          "name": "B5",
          "ticks": 34080,
          "time": 42.599928999999996,
          "velocity": 0.6299212598425197
        },
        {
          "duration": 0.2837495270833301,
          "durationTicks": 227,
          "midi": 76,
          "name": "E5",
          "ticks": 35040,
          "time": 43.799927,
          "velocity": 0.6299212598425197
        },
        {
          "duration": 0.2837495270833301,
          "durationTicks": 227,
          "midi": 82,
          "name": "Bb5",
          "ticks": 35040,
          "time": 43.799927,
          "velocity": 0.6299212598425197
        },
        {
          "duration": 0.2837495270833301,
          "durationTicks": 227,
          "midi": 79,
          "name": "G5",
          "ticks": 35280,
          "time": 44.099926499999995,
          "velocity": 0.6299212598425197
        },
        {
          "duration": 0.5687490520833407,
          "durationTicks": 455,
          "midi": 76,
          "name": "E5",
          "ticks": 35520,
          "time": 44.399925999999994,
          "velocity": 0.6299212598425197
        },
        {
          "duration": 0.5687490520833407,
          "durationTicks": 455,
          "midi": 82,
          "name": "Bb5",
          "ticks": 35520,
          "time": 44.399925999999994,
          "velocity": 0.6299212598425197
        },
        {
          "duration": 0.5687490520833336,
          "durationTicks": 455,
          "midi": 77,
          "name": "F5",
          "ticks": 36000,
          "time": 44.999925,
          "velocity": 0.6299212598425197
        },
        {
          "duration": 0.5687490520833336,
          "durationTicks": 455,
          "midi": 81,
          "name": "A5",
          "ticks": 36000,
          "time": 44.999925,
          "velocity": 0.6299212598425197
        },
        {
          "duration": 0.5687490520833336,
          "durationTicks": 455,
          "midi": 93,
          "name": "A6",
          "ticks": 36960,
          "time": 46.199923,
          "velocity": 0.6299212598425197
        },
        {
          "duration": 0.5687490520833336,
          "durationTicks": 455,
          "midi": 86,
          "name": "D6",
          "ticks": 37440,
          "time": 46.799921999999995,
          "velocity": 0.6299212598425197
        },
        {
          "duration": 0.2837495270833301,
          "durationTicks": 227,
          "midi": 83,
          "name": "B5",
          "ticks": 38640,
          "time": 48.299919499999994,
          "velocity": 0.6299212598425197
        },
        {
          "duration": 0.2837495270833301,
          "durationTicks": 227,
          "midi": 85,
          "name": "C#6",
          "ticks": 39120,
          "time": 48.8999185,
          "velocity": 0.6299212598425197
        },
        {
          "duration": 0.2837495270833301,
          "durationTicks": 227,
          "midi": 86,
          "name": "D6",
          "ticks": 39600,
          "time": 49.499917499999995,
          "velocity": 0.6299212598425197
        },
        {
          "duration": 0.2837495270833301,
          "durationTicks": 227,
          "midi": 88,
          "name": "E6",
          "ticks": 40080,
          "time": 50.0999165,
          "velocity": 0.6299212598425197
        },
        {
          "duration": 0.2837495270833301,
          "durationTicks": 227,
          "midi": 86,
          "name": "D6",
          "ticks": 40560,
          "time": 50.699915499999996,
          "velocity": 0.6299212598425197
        },
        {
          "duration": 0.2837495270833301,
          "durationTicks": 227,
          "midi": 89,
          "name": "F6",
          "ticks": 40560,
          "time": 50.699915499999996,
          "velocity": 0.6299212598425197
        },
        {
          "duration": 0.2837495270833372,
          "durationTicks": 227,
          "midi": 86,
          "name": "D6",
          "ticks": 41040,
          "time": 51.29991449999999,
          "velocity": 0.6299212598425197
        },
        {
          "duration": 0.5687490520833336,
          "durationTicks": 455,
          "midi": 85,
          "name": "C#6",
          "ticks": 41280,
          "time": 51.599914,
          "velocity": 0.6299212598425197
        },
        {
          "duration": 0.2837495270833301,
          "durationTicks": 227,
          "midi": 83,
          "name": "B5",
          "ticks": 46320,
          "time": 57.89990349999999,
          "velocity": 0.6299212598425197
        },
        {
          "duration": 0.2837495270833301,
          "durationTicks": 227,
          "midi": 85,
          "name": "C#6",
          "ticks": 46800,
          "time": 58.4999025,
          "velocity": 0.6299212598425197
        },
        {
          "duration": 0.2837495270833301,
          "durationTicks": 227,
          "midi": 86,
          "name": "D6",
          "ticks": 47280,
          "time": 59.099901499999994,
          "velocity": 0.6299212598425197
        },
        {
          "duration": 0.2837495270833301,
          "durationTicks": 227,
          "midi": 88,
          "name": "E6",
          "ticks": 47760,
          "time": 59.6999005,
          "velocity": 0.6299212598425197
        },
        {
          "duration": 0.2837495270833301,
          "durationTicks": 227,
          "midi": 86,
          "name": "D6",
          "ticks": 48240,
          "time": 60.299899499999995,
          "velocity": 0.6299212598425197
        },
        {
          "duration": 0.2837495270833301,
          "durationTicks": 227,
          "midi": 89,
          "name": "F6",
          "ticks": 48240,
          "time": 60.299899499999995,
          "velocity": 0.6299212598425197
        },
        {
          "duration": 0.2837495270833372,
          "durationTicks": 227,
          "midi": 86,
          "name": "D6",
          "ticks": 48720,
          "time": 60.89989849999999,
          "velocity": 0.6299212598425197
        },
        {
          "duration": 0.5687490520833336,
          "durationTicks": 455,
          "midi": 85,
          "name": "C#6",
          "ticks": 48960,
          "time": 61.199898,
          "velocity": 0.6299212598425197
        },
        {
          "duration": 0.2837495270833301,
          "durationTicks": 227,
          "midi": 83,
          "name": "B5",
          "ticks": 54000,
          "time": 67.4998875,
          "velocity": 0.6299212598425197
        },
        {
          "duration": 0.2837495270833301,
          "durationTicks": 227,
          "midi": 85,
          "name": "C#6",
          "ticks": 54480,
          "time": 68.0998865,
          "velocity": 0.6299212598425197
        },
        {
          "duration": 0.2837495270833301,
          "durationTicks": 227,
          "midi": 86,
          "name": "D6",
          "ticks": 54960,
          "time": 68.6998855,
          "velocity": 0.6299212598425197
        },
        {
          "duration": 0.28374952708334433,
          "durationTicks": 227,
          "midi": 85,
          "name": "C#6",
          "ticks": 55920,
          "time": 69.89988349999999,
          "velocity": 0.6299212598425197
        },
        {
          "duration": 0.2837495270833301,
          "durationTicks": 227,
          "midi": 86,
          "name": "D6",
          "ticks": 56400,
          "time": 70.4998825,
          "velocity": 0.6299212598425197
        },
        {
          "duration": 0.2837495270833301,
          "durationTicks": 227,
          "midi": 85,
          "name": "C#6",
          "ticks": 56880,
          "time": 71.0998815,
          "velocity": 0.6299212598425197
        },
        {
          "duration": 0.2837495270833301,
          "durationTicks": 227,
          "midi": 88,
          "name": "E6",
          "ticks": 56880,
          "time": 71.0998815,
          "velocity": 0.6299212598425197
        },
        {
          "duration": 0.2837495270833301,
          "durationTicks": 227,
          "midi": 86,
          "name": "D6",
          "ticks": 57840,
          "time": 72.29987949999999,
          "velocity": 0.6299212598425197
        },
        {
          "duration": 0.2837495270833301,
          "durationTicks": 227,
          "midi": 85,
          "name": "C#6",
          "ticks": 58320,
          "time": 72.8998785,
          "velocity": 0.6299212598425197
        },
        {
          "duration": 0.2837495270833301,
          "durationTicks": 227,
          "midi": 88,
          "name": "E6",
          "ticks": 58320,
          "time": 72.8998785,
          "velocity": 0.6299212598425197
        },
        {
          "duration": 0.2837495270833301,
          "durationTicks": 227,
          "midi": 86,
          "name": "D6",
          "ticks": 58800,
          "time": 73.4998775,
          "velocity": 0.6299212598425197
        },
        {
          "duration": 0.2837495270833301,
          "durationTicks": 227,
          "midi": 89,
          "name": "F6",
          "ticks": 58800,
          "time": 73.4998775,
          "velocity": 0.6299212598425197
        },
        {
          "duration": 0.2837495270833301,
          "durationTicks": 227,
          "midi": 86,
          "name": "D6",
          "ticks": 59280,
          "time": 74.0998765,
          "velocity": 0.6299212598425197
        },
        {
          "duration": 0.2837495270833301,
          "durationTicks": 227,
          "midi": 89,
          "name": "F6",
          "ticks": 59280,
          "time": 74.0998765,
          "velocity": 0.6299212598425197
        },
        {
          "duration": 0.2837495270833301,
          "durationTicks": 227,
          "midi": 86,
          "name": "D6",
          "ticks": 59760,
          "time": 74.69987549999999,
          "velocity": 0.6299212598425197
        },
        {
          "duration": 0.2837495270833301,
          "durationTicks": 227,
          "midi": 91,
          "name": "G6",
          "ticks": 59760,
          "time": 74.69987549999999,
          "velocity": 0.6299212598425197
        },
        {
          "duration": 0.28374952708334433,
          "durationTicks": 227,
          "midi": 86,
          "name": "D6",
          "ticks": 60240,
          "time": 75.29987449999999,
          "velocity": 0.6299212598425197
        },
        {
          "duration": 0.28374952708334433,
          "durationTicks": 227,
          "midi": 91,
          "name": "G6",
          "ticks": 60240,
          "time": 75.29987449999999,
          "velocity": 0.6299212598425197
        },
        {
          "duration": 0.5687490520833336,
          "durationTicks": 455,
          "midi": 88,
          "name": "E6",
          "ticks": 60480,
          "time": 75.599874,
          "velocity": 0.6299212598425197
        },
        {
          "duration": 0.5687490520833336,
          "durationTicks": 455,
          "midi": 93,
          "name": "A6",
          "ticks": 60480,
          "time": 75.599874,
          "velocity": 0.6299212598425197
        },
        {
          "duration": 0.2837495270833301,
          "durationTicks": 227,
          "midi": 89,
          "name": "F6",
          "ticks": 61440,
          "time": 76.799872,
          "velocity": 0.6299212598425197
        },
        {
          "duration": 0.2837495270833301,
          "durationTicks": 227,
          "midi": 86,
          "name": "D6",
          "ticks": 61680,
          "time": 77.09987149999999,
          "velocity": 0.6299212598425197
        },
        {
          "duration": 0.5687490520833336,
          "durationTicks": 455,
          "midi": 89,
          "name": "F6",
          "ticks": 61920,
          "time": 77.39987099999999,
          "velocity": 0.6299212598425197
        },
        {
          "duration": 0.5687490520833336,
          "durationTicks": 455,
          "midi": 88,
          "name": "E6",
          "ticks": 62400,
          "time": 77.99986999999999,
          "velocity": 0.6299212598425197
        },
        {
          "duration": 0.5687490520833194,
          "durationTicks": 455,
          "midi": 85,
          "name": "C#6",
          "ticks": 62880,
          "time": 78.599869,
          "velocity": 0.6299212598425197
        },
        {
          "duration": 0.5687490520833194,
          "durationTicks": 455,
          "midi": 86,
          "name": "D6",
          "ticks": 63360,
          "time": 79.199868,
          "velocity": 0.6299212598425197
        },
        {
          "duration": 0.2837495270833301,
          "durationTicks": 227,
          "midi": 84,
          "name": "C6",
          "ticks": 63840,
          "time": 79.79986699999999,
          "velocity": 0.6299212598425197
        },
        {
          "duration": 0.2837495270833301,
          "durationTicks": 227,
          "midi": 84,
          "name": "C6",
          "ticks": 64080,
          "time": 80.09986649999999,
          "velocity": 0.6299212598425197
        },
        {
          "duration": 0.5687490520833336,
          "durationTicks": 455,
          "midi": 84,
          "name": "C6",
          "ticks": 64320,
          "time": 80.39986599999999,
          "velocity": 0.6299212598425197
        },
        {
          "duration": 0.2837495270833301,
          "durationTicks": 227,
          "midi": 83,
          "name": "B5",
          "ticks": 64800,
          "time": 80.999865,
          "velocity": 0.6299212598425197
        },
        {
          "duration": 0.2837495270833301,
          "durationTicks": 227,
          "midi": 83,
          "name": "B5",
          "ticks": 65040,
          "time": 81.2998645,
          "velocity": 0.6299212598425197
        },
        {
          "duration": 0.5687490520833194,
          "durationTicks": 455,
          "midi": 83,
          "name": "B5",
          "ticks": 65280,
          "time": 81.599864,
          "velocity": 0.6299212598425197
        },
        {
          "duration": 0.2837495270833301,
          "durationTicks": 227,
          "midi": 82,
          "name": "Bb5",
          "ticks": 65760,
          "time": 82.199863,
          "velocity": 0.6299212598425197
        },
        {
          "duration": 0.2837495270833301,
          "durationTicks": 227,
          "midi": 82,
          "name": "Bb5",
          "ticks": 66000,
          "time": 82.49986249999999,
          "velocity": 0.6299212598425197
        },
        {
          "duration": 0.5687490520833336,
          "durationTicks": 455,
          "midi": 82,
          "name": "Bb5",
          "ticks": 66240,
          "time": 82.79986199999999,
          "velocity": 0.6299212598425197
        },
        {
          "duration": 0.2837495270833301,
          "durationTicks": 227,
          "midi": 81,
          "name": "A5",
          "ticks": 67200,
          "time": 83.99986,
          "velocity": 0.6299212598425197
        },
        {
          "duration": 0.2837495270833301,
          "durationTicks": 227,
          "midi": 86,
          "name": "D6",
          "ticks": 67440,
          "time": 84.2998595,
          "velocity": 0.6299212598425197
        },
        {
          "duration": 0.2837495270833301,
          "durationTicks": 227,
          "midi": 82,
          "name": "Bb5",
          "ticks": 67680,
          "time": 84.599859,
          "velocity": 0.6299212598425197
        },
        {
          "duration": 0.2837495270833301,
          "durationTicks": 227,
          "midi": 86,
          "name": "D6",
          "ticks": 67920,
          "time": 84.8998585,
          "velocity": 0.6299212598425197
        },
        {
          "duration": 0.5687490520833336,
          "durationTicks": 455,
          "midi": 81,
          "name": "A5",
          "ticks": 68160,
          "time": 85.19985799999999,
          "velocity": 0.6299212598425197
        },
        {
          "duration": 0.2837495270833301,
          "durationTicks": 227,
          "midi": 77,
          "name": "F5",
          "ticks": 69600,
          "time": 86.999855,
          "velocity": 0.6299212598425197
        },
        {
          "duration": 0.2837495270833301,
          "durationTicks": 227,
          "midi": 74,
          "name": "D5",
          "ticks": 69840,
          "time": 87.2998545,
          "velocity": 0.6299212598425197
        },
        {
          "duration": 0.5687490520833336,
          "durationTicks": 455,
          "midi": 77,
          "name": "F5",
          "ticks": 70080,
          "time": 87.599854,
          "velocity": 0.6299212598425197
        },
        {
          "duration": 0.5687490520833336,
          "durationTicks": 455,
          "midi": 76,
          "name": "E5",
          "ticks": 70560,
          "time": 88.19985299999999,
          "velocity": 0.6299212598425197
        },
        {
          "duration": 0.5687490520833336,
          "durationTicks": 455,
          "midi": 82,
          "name": "Bb5",
          "ticks": 71040,
          "time": 88.79985199999999,
          "velocity": 0.6299212598425197
        },
        {
          "duration": 0.5687490520833194,
          "durationTicks": 455,
          "midi": 81,
          "name": "A5",
          "ticks": 71520,
          "time": 89.399851,
          "velocity": 0.6299212598425197
        },
        {
          "duration": 0.2837495270833301,
          "durationTicks": 227,
          "midi": 89,
          "name": "F6",
          "ticks": 72000,
          "time": 89.99985,
          "velocity": 0.6299212598425197
        },
        {
          "duration": 0.2837495270833301,
          "durationTicks": 227,
          "midi": 89,
          "name": "F6",
          "ticks": 72240,
          "time": 90.2998495,
          "velocity": 0.6299212598425197
        },
        {
          "duration": 0.5687490520833336,
          "durationTicks": 455,
          "midi": 89,
          "name": "F6",
          "ticks": 72480,
          "time": 90.59984899999999,
          "velocity": 0.6299212598425197
        },
        {
          "duration": 0.2837495270833301,
          "durationTicks": 227,
          "midi": 88,
          "name": "E6",
          "ticks": 72960,
          "time": 91.19984799999999,
          "velocity": 0.6299212598425197
        },
        {
          "duration": 0.2837495270833301,
          "durationTicks": 227,
          "midi": 88,
          "name": "E6",
          "ticks": 73200,
          "time": 91.49984749999999,
          "velocity": 0.6299212598425197
        },
        {
          "duration": 0.5687490520833336,
          "durationTicks": 455,
          "midi": 88,
          "name": "E6",
          "ticks": 73440,
          "time": 91.79984699999999,
          "velocity": 0.6299212598425197
        },
        {
          "duration": 0.2837495270833301,
          "durationTicks": 227,
          "midi": 86,
          "name": "D6",
          "ticks": 73920,
          "time": 92.399846,
          "velocity": 0.6299212598425197
        },
        {
          "duration": 0.2837495270833301,
          "durationTicks": 227,
          "midi": 86,
          "name": "D6",
          "ticks": 74160,
          "time": 92.6998455,
          "velocity": 0.6299212598425197
        },
        {
          "duration": 0.5687490520833194,
          "durationTicks": 455,
          "midi": 86,
          "name": "D6",
          "ticks": 74400,
          "time": 92.999845,
          "velocity": 0.6299212598425197
        },
        {
          "duration": 0.2837495270833301,
          "durationTicks": 227,
          "midi": 85,
          "name": "C#6",
          "ticks": 74880,
          "time": 93.59984399999999,
          "velocity": 0.6299212598425197
        },
        {
          "duration": 0.2837495270833301,
          "durationTicks": 227,
          "midi": 88,
          "name": "E6",
          "ticks": 75120,
          "time": 93.89984349999999,
          "velocity": 0.6299212598425197
        },
        {
          "duration": 0.2837495270833301,
          "durationTicks": 227,
          "midi": 86,
          "name": "D6",
          "ticks": 75360,
          "time": 94.19984299999999,
          "velocity": 0.6299212598425197
        },
        {
          "duration": 0.28374952708334433,
          "durationTicks": 227,
          "midi": 88,
          "name": "E6",
          "ticks": 75600,
          "time": 94.49984249999999,
          "velocity": 0.6299212598425197
        },
        {
          "duration": 0.5687490520833194,
          "durationTicks": 455,
          "midi": 85,
          "name": "C#6",
          "ticks": 75840,
          "time": 94.799842,
          "velocity": 0.6299212598425197
        },
        {
          "duration": 0.2837495270833301,
          "durationTicks": 227,
          "midi": 89,
          "name": "F6",
          "ticks": 77280,
          "time": 96.59983899999999,
          "velocity": 0.6299212598425197
        },
        {
          "duration": 0.2837495270833301,
          "durationTicks": 227,
          "midi": 86,
          "name": "D6",
          "ticks": 77520,
          "time": 96.89983849999999,
          "velocity": 0.6299212598425197
        },
        {
          "duration": 0.5687490520833336,
          "durationTicks": 455,
          "midi": 89,
          "name": "F6",
          "ticks": 77760,
          "time": 97.19983799999999,
          "velocity": 0.6299212598425197
        },
        {
          "duration": 0.5687490520833194,
          "durationTicks": 455,
          "midi": 88,
          "name": "E6",
          "ticks": 78240,
          "time": 97.799837,
          "velocity": 0.6299212598425197
        },
        {
          "duration": 0.5687490520833194,
          "durationTicks": 455,
          "midi": 85,
          "name": "C#6",
          "ticks": 78720,
          "time": 98.399836,
          "velocity": 0.6299212598425197
        },
        {
          "duration": 0.5687490520833336,
          "durationTicks": 455,
          "midi": 86,
          "name": "D6",
          "ticks": 79200,
          "time": 98.99983499999999,
          "velocity": 0.6299212598425197
        },
        {
          "duration": 0.2837495270833301,
          "durationTicks": 227,
          "midi": 84,
          "name": "C6",
          "ticks": 79680,
          "time": 99.59983399999999,
          "velocity": 0.6299212598425197
        },
        {
          "duration": 0.2837495270833301,
          "durationTicks": 227,
          "midi": 84,
          "name": "C6",
          "ticks": 79920,
          "time": 99.89983349999999,
          "velocity": 0.6299212598425197
        },
        {
          "duration": 0.5687490520833194,
          "durationTicks": 455,
          "midi": 84,
          "name": "C6",
          "ticks": 80160,
          "time": 100.199833,
          "velocity": 0.6299212598425197
        },
        {
          "duration": 0.2837495270833301,
          "durationTicks": 227,
          "midi": 83,
          "name": "B5",
          "ticks": 80640,
          "time": 100.799832,
          "velocity": 0.6299212598425197
        },
        {
          "duration": 0.2837495270833301,
          "durationTicks": 227,
          "midi": 83,
          "name": "B5",
          "ticks": 80880,
          "time": 101.0998315,
          "velocity": 0.6299212598425197
        },
        {
          "duration": 0.5687490520833336,
          "durationTicks": 455,
          "midi": 83,
          "name": "B5",
          "ticks": 81120,
          "time": 101.39983099999999,
          "velocity": 0.6299212598425197
        },
        {
          "duration": 0.2837495270833301,
          "durationTicks": 227,
          "midi": 82,
          "name": "Bb5",
          "ticks": 81600,
          "time": 101.99982999999999,
          "velocity": 0.6299212598425197
        },
        {
          "duration": 0.2837495270833301,
          "durationTicks": 227,
          "midi": 82,
          "name": "Bb5",
          "ticks": 81840,
          "time": 102.29982949999999,
          "velocity": 0.6299212598425197
        },
        {
          "duration": 0.5687490520833336,
          "durationTicks": 455,
          "midi": 82,
          "name": "Bb5",
          "ticks": 82080,
          "time": 102.59982899999999,
          "velocity": 0.6299212598425197
        },
        {
          "duration": 0.2837495270833301,
          "durationTicks": 227,
          "midi": 81,
          "name": "A5",
          "ticks": 82560,
          "time": 103.199828,
          "velocity": 0.6299212598425197
        },
        {
          "duration": 0.2837495270833301,
          "durationTicks": 227,
          "midi": 86,
          "name": "D6",
          "ticks": 82800,
          "time": 103.4998275,
          "velocity": 0.6299212598425197
        },
        {
          "duration": 0.2837495270833301,
          "durationTicks": 227,
          "midi": 82,
          "name": "Bb5",
          "ticks": 83040,
          "time": 103.799827,
          "velocity": 0.6299212598425197
        },
        {
          "duration": 0.2837495270833301,
          "durationTicks": 227,
          "midi": 86,
          "name": "D6",
          "ticks": 83280,
          "time": 104.09982649999999,
          "velocity": 0.6299212598425197
        },
        {
          "duration": 0.5687490520833336,
          "durationTicks": 455,
          "midi": 81,
          "name": "A5",
          "ticks": 83520,
          "time": 104.39982599999999,
          "velocity": 0.6299212598425197
        },
        {
          "duration": 0.2837495270833301,
          "durationTicks": 227,
          "midi": 86,
          "name": "D6",
          "ticks": 84960,
          "time": 106.199823,
          "velocity": 0.6299212598425197
        },
        {
          "duration": 0.2837495270833301,
          "durationTicks": 227,
          "midi": 82,
          "name": "Bb5",
          "ticks": 85200,
          "time": 106.4998225,
          "velocity": 0.6299212598425197
        },
        {
          "duration": 0.5687490520833336,
          "durationTicks": 455,
          "midi": 86,
          "name": "D6",
          "ticks": 85440,
          "time": 106.79982199999999,
          "velocity": 0.6299212598425197
        },
        {
          "duration": 0.5687490520833336,
          "durationTicks": 455,
          "midi": 85,
          "name": "C#6",
          "ticks": 85920,
          "time": 107.39982099999999,
          "velocity": 0.6299212598425197
        },
        {
          "duration": 0.2837495270833301,
          "durationTicks": 227,
          "midi": 84,
          "name": "C6",
          "ticks": 86880,
          "time": 108.599819,
          "velocity": 0.6299212598425197
        },
        {
          "duration": 0.2837495270833301,
          "durationTicks": 227,
          "midi": 81,
          "name": "A5",
          "ticks": 87120,
          "time": 108.8998185,
          "velocity": 0.6299212598425197
        },
        {
          "duration": 0.5687490520833194,
          "durationTicks": 455,
          "midi": 84,
          "name": "C6",
          "ticks": 87360,
          "time": 109.199818,
          "velocity": 0.6299212598425197
        },
        {
          "duration": 0.5687490520833336,
          "durationTicks": 455,
          "midi": 79,
          "name": "G5",
          "ticks": 87840,
          "time": 109.79981699999999,
          "velocity": 0.6299212598425197
        },
        {
          "duration": 0.5687490520833336,
          "durationTicks": 455,
          "midi": 83,
          "name": "B5",
          "ticks": 87840,
          "time": 109.79981699999999,
          "velocity": 0.6299212598425197
        },
        {
          "duration": 0.28374952708334433,
          "durationTicks": 227,
          "midi": 76,
          "name": "E5",
          "ticks": 88800,
          "time": 110.99981499999998,
          "velocity": 0.6299212598425197
        },
        {
          "duration": 0.28374952708334433,
          "durationTicks": 227,
          "midi": 82,
          "name": "Bb5",
          "ticks": 88800,
          "time": 110.99981499999998,
          "velocity": 0.6299212598425197
        },
        {
          "duration": 0.2837495270833301,
          "durationTicks": 227,
          "midi": 79,
          "name": "G5",
          "ticks": 89040,
          "time": 111.2998145,
          "velocity": 0.6299212598425197
        },
        {
          "duration": 0.5687490520833194,
          "durationTicks": 455,
          "midi": 76,
          "name": "E5",
          "ticks": 89280,
          "time": 111.599814,
          "velocity": 0.6299212598425197
        },
        {
          "duration": 0.5687490520833194,
          "durationTicks": 455,
          "midi": 82,
          "name": "Bb5",
          "ticks": 89280,
          "time": 111.599814,
          "velocity": 0.6299212598425197
        },
        {
          "duration": 0.5687490520833194,
          "durationTicks": 455,
          "midi": 77,
          "name": "F5",
          "ticks": 89760,
          "time": 112.19981299999999,
          "velocity": 0.6299212598425197
        },
        {
          "duration": 0.5687490520833194,
          "durationTicks": 455,
          "midi": 81,
          "name": "A5",
          "ticks": 89760,
          "time": 112.19981299999999,
          "velocity": 0.6299212598425197
        },
        {
          "duration": 0.5687490520833336,
          "durationTicks": 455,
          "midi": 93,
          "name": "A6",
          "ticks": 90720,
          "time": 113.39981099999999,
          "velocity": 0.6299212598425197
        },
        {
          "duration": 0.5687490520833194,
          "durationTicks": 455,
          "midi": 86,
          "name": "D6",
          "ticks": 91200,
          "time": 113.99981,
          "velocity": 0.6299212598425197
        }
      ]
    },
    {
      "channel": 1,
      "controlChanges": {
        "7": [
          {
            "number": 7,
            "ticks": 0,
            "time": 0,
            "value": 0.7874015748031497
          }
        ],
        "10": [
          {
            "number": 10,
            "ticks": 0,
            "time": 0,
            "value": 0.5039370078740157
          }
        ],
        "91": [
          {
            "number": 91,
            "ticks": 0,
            "time": 0,
            "value": 0
          }
        ],
        "93": [
          {
            "number": 93,
            "ticks": 0,
            "time": 0,
            "value": 0
          }
        ],
        "121": [
          {
            "number": 121,
            "ticks": 0,
            "time": 0,
            "value": 0
          }
        ]
      },
      "pitchBends": [],
      "instrument": {
        "family": "piano",
        "name": "acoustic grand piano",
        "number": 0
      },
      "name": "Piano\u0000",
      "regularStartNote": 48,
      "smallStartNote": 50,
      "notes": [
        {
          "duration": 0.5687490520833334,
          "durationTicks": 455,
          "midi": 62,
          "name": "D4",
          "ticks": 480,
          "time": 0.599999,
          "velocity": 0.6299212598425197
        },
        {
          "duration": 0.5687490520833332,
          "durationTicks": 455,
          "midi": 64,
          "name": "E4",
          "ticks": 1440,
          "time": 1.7999969999999998,
          "velocity": 0.6299212598425197
        },
        {
          "duration": 0.5687490520833336,
          "durationTicks": 455,
          "midi": 65,
          "name": "F4",
          "ticks": 2400,
          "time": 2.9999949999999997,
          "velocity": 0.6299212598425197
        },
        {
          "duration": 0.5687490520833336,
          "durationTicks": 455,
          "midi": 61,
          "name": "C#4",
          "ticks": 3360,
          "time": 4.199992999999999,
          "velocity": 0.6299212598425197
        },
        {
          "duration": 0.5687490520833327,
          "durationTicks": 455,
          "midi": 62,
          "name": "D4",
          "ticks": 4320,
          "time": 5.399991,
          "velocity": 0.6299212598425197
        },
        {
          "duration": 0.5687490520833336,
          "durationTicks": 455,
          "midi": 64,
          "name": "E4",
          "ticks": 5280,
          "time": 6.599988999999999,
          "velocity": 0.6299212598425197
        },
        {
          "duration": 0.5687490520833318,
          "durationTicks": 455,
          "midi": 65,
          "name": "F4",
          "ticks": 6240,
          "time": 7.799987,
          "velocity": 0.6299212598425197
        },
        {
          "duration": 0.5687490520833336,
          "durationTicks": 455,
          "midi": 61,
          "name": "C#4",
          "ticks": 7200,
          "time": 8.999984999999999,
          "velocity": 0.6299212598425197
        },
        {
          "duration": 0.5687490520833336,
          "durationTicks": 455,
          "midi": 62,
          "name": "D4",
          "ticks": 8160,
          "time": 10.199983,
          "velocity": 0.6299212598425197
        },
        {
          "duration": 0.5687490520833336,
          "durationTicks": 455,
          "midi": 62,
          "name": "D4",
          "ticks": 9120,
          "time": 11.399980999999999,
          "velocity": 0.6299212598425197
        },
        {
          "duration": 0.5687490520833336,
          "durationTicks": 455,
          "midi": 62,
          "name": "D4",
          "ticks": 10080,
          "time": 12.599979,
          "velocity": 0.6299212598425197
        },
        {
          "duration": 0.5687490520833336,
          "durationTicks": 455,
          "midi": 63,
          "name": "Eb4",
          "ticks": 11040,
          "time": 13.799976999999998,
          "velocity": 0.6299212598425197
        },
        {
          "duration": 0.5687490520833336,
          "durationTicks": 455,
          "midi": 62,
          "name": "D4",
          "ticks": 12000,
          "time": 14.999975,
          "velocity": 0.6299212598425197
        },
        {
          "duration": 0.5687490520833336,
          "durationTicks": 455,
          "midi": 62,
          "name": "D4",
          "ticks": 12960,
          "time": 16.199973,
          "velocity": 0.6299212598425197
        },
        {
          "duration": 0.5687490520833336,
          "durationTicks": 455,
          "midi": 74,
          "name": "D5",
          "ticks": 13920,
          "time": 17.399970999999997,
          "velocity": 0.6299212598425197
        },
        {
          "duration": 0.5687490520833336,
          "durationTicks": 455,
          "midi": 74,
          "name": "D5",
          "ticks": 14400,
          "time": 17.999969999999998,
          "velocity": 0.6299212598425197
        },
        {
          "duration": 0.14124976458333194,
          "durationTicks": 113,
          "midi": 74,
          "name": "D5",
          "ticks": 14880,
          "time": 18.599968999999998,
          "velocity": 0.6299212598425197
        },
        {
          "duration": 0.1412497645833355,
          "durationTicks": 113,
          "midi": 72,
          "name": "C5",
          "ticks": 15000,
          "time": 18.749968749999997,
          "velocity": 0.6299212598425197
        },
        {
          "duration": 0.14124976458333194,
          "durationTicks": 113,
          "midi": 70,
          "name": "Bb4",
          "ticks": 15120,
          "time": 18.8999685,
          "velocity": 0.6299212598425197
        },
        {
          "duration": 0.14124976458333194,
          "durationTicks": 113,
          "midi": 69,
          "name": "A4",
          "ticks": 15240,
          "time": 19.04996825,
          "velocity": 0.6299212598425197
        },
        {
          "duration": 0.5687490520833336,
          "durationTicks": 455,
          "midi": 68,
          "name": "G#4",
          "ticks": 15360,
          "time": 19.199968,
          "velocity": 0.6299212598425197
        },
        {
          "duration": 0.56874905208333,
          "durationTicks": 455,
          "midi": 65,
          "name": "F4",
          "ticks": 15840,
          "time": 19.799967,
          "velocity": 0.6299212598425197
        },
        {
          "duration": 0.56874905208333,
          "durationTicks": 455,
          "midi": 68,
          "name": "G#4",
          "ticks": 15840,
          "time": 19.799967,
          "velocity": 0.6299212598425197
        },
        {
          "duration": 0.56874905208333,
          "durationTicks": 455,
          "midi": 64,
          "name": "E4",
          "ticks": 16800,
          "time": 20.999965,
          "velocity": 0.6299212598425197
        },
        {
          "duration": 0.56874905208333,
          "durationTicks": 455,
          "midi": 67,
          "name": "G4",
          "ticks": 16800,
          "time": 20.999965,
          "velocity": 0.6299212598425197
        },
        {
          "duration": 0.5687490520833336,
          "durationTicks": 455,
          "midi": 65,
          "name": "F4",
          "ticks": 17760,
          "time": 22.199962999999997,
          "velocity": 0.6299212598425197
        },
        {
          "duration": 0.5687490520833336,
          "durationTicks": 455,
          "midi": 64,
          "name": "E4",
          "ticks": 18720,
          "time": 23.399960999999998,
          "velocity": 0.6299212598425197
        },
        {
          "duration": 0.56874905208333,
          "durationTicks": 455,
          "midi": 67,
          "name": "G4",
          "ticks": 19680,
          "time": 24.599959,
          "velocity": 0.6299212598425197
        },
        {
          "duration": 0.56874905208333,
          "durationTicks": 455,
          "midi": 64,
          "name": "E4",
          "ticks": 20640,
          "time": 25.799957,
          "velocity": 0.6299212598425197
        },
        {
          "duration": 0.5687490520833336,
          "durationTicks": 455,
          "midi": 64,
          "name": "E4",
          "ticks": 21120,
          "time": 26.399955999999996,
          "velocity": 0.6299212598425197
        },
        {
          "duration": 0.5687490520833336,
          "durationTicks": 455,
          "midi": 62,
          "name": "D4",
          "ticks": 21600,
          "time": 26.999954999999996,
          "velocity": 0.6299212598425197
        },
        {
          "duration": 0.5687490520833336,
          "durationTicks": 455,
          "midi": 64,
          "name": "E4",
          "ticks": 21600,
          "time": 26.999954999999996,
          "velocity": 0.6299212598425197
        },
        {
          "duration": 0.5687490520833336,
          "durationTicks": 455,
          "midi": 64,
          "name": "E4",
          "ticks": 22080,
          "time": 27.599953999999997,
          "velocity": 0.6299212598425197
        },
        {
          "duration": 0.5687490520833336,
          "durationTicks": 455,
          "midi": 62,
          "name": "D4",
          "ticks": 23040,
          "time": 28.799951999999998,
          "velocity": 0.6299212598425197
        },
        {
          "duration": 0.56874905208333,
          "durationTicks": 455,
          "midi": 62,
          "name": "D4",
          "ticks": 23520,
          "time": 29.399950999999998,
          "velocity": 0.6299212598425197
        },
        {
          "duration": 0.56874905208333,
          "durationTicks": 455,
          "midi": 62,
          "name": "D4",
          "ticks": 24480,
          "time": 30.599949,
          "velocity": 0.6299212598425197
        },
        {
          "duration": 0.5687490520833336,
          "durationTicks": 455,
          "midi": 62,
          "name": "D4",
          "ticks": 25440,
          "time": 31.799946999999996,
          "velocity": 0.6299212598425197
        },
        {
          "duration": 0.5687490520833336,
          "durationTicks": 455,
          "midi": 62,
          "name": "D4",
          "ticks": 26400,
          "time": 32.999945,
          "velocity": 0.6299212598425197
        },
        {
          "duration": 0.5687490520833336,
          "durationTicks": 455,
          "midi": 62,
          "name": "D4",
          "ticks": 27360,
          "time": 34.199943,
          "velocity": 0.6299212598425197
        },
        {
          "duration": 0.5687490520833336,
          "durationTicks": 455,
          "midi": 62,
          "name": "D4",
          "ticks": 28320,
          "time": 35.399941,
          "velocity": 0.6299212598425197
        },
        {
          "duration": 0.5687490520833265,
          "durationTicks": 455,
          "midi": 64,
          "name": "E4",
          "ticks": 29280,
          "time": 36.599939,
          "velocity": 0.6299212598425197
        },
        {
          "duration": 0.5687490520833265,
          "durationTicks": 455,
          "midi": 67,
          "name": "G4",
          "ticks": 29280,
          "time": 36.599939,
          "velocity": 0.6299212598425197
        },
        {
          "duration": 0.5687490520833336,
          "durationTicks": 455,
          "midi": 65,
          "name": "F4",
          "ticks": 29760,
          "time": 37.199937999999996,
          "velocity": 0.6299212598425197
        },
        {
          "duration": 0.5687490520833336,
          "durationTicks": 455,
          "midi": 69,
          "name": "A4",
          "ticks": 29760,
          "time": 37.199937999999996,
          "velocity": 0.6299212598425197
        },
        {
          "duration": 0.14124976458332839,
          "durationTicks": 113,
          "midi": 65,
          "name": "F4",
          "ticks": 30240,
          "time": 37.799937,
          "velocity": 0.6299212598425197
        },
        {
          "duration": 0.14124976458332839,
          "durationTicks": 113,
          "midi": 64,
          "name": "E4",
          "ticks": 30360,
          "time": 37.94993675,
          "velocity": 0.6299212598425197
        },
        {
          "duration": 0.14124976458332839,
          "durationTicks": 113,
          "midi": 62,
          "name": "D4",
          "ticks": 30480,
          "time": 38.0999365,
          "velocity": 0.6299212598425197
        },
        {
          "duration": 0.1412497645833355,
          "durationTicks": 113,
          "midi": 60,
          "name": "C4",
          "ticks": 30600,
          "time": 38.24993625,
          "velocity": 0.6299212598425197
        },
        {
          "duration": 0.5687490520833336,
          "durationTicks": 455,
          "midi": 59,
          "name": "B3",
          "ticks": 30720,
          "time": 38.399936,
          "velocity": 0.6299212598425197
        },
        {
          "duration": 1.1387481020833334,
          "durationTicks": 911,
          "midi": 68,
          "name": "G#4",
          "ticks": 31200,
          "time": 38.999934999999994,
          "velocity": 0.6299212598425197
        },
        {
          "duration": 0.5687490520833407,
          "durationTicks": 455,
          "midi": 67,
          "name": "G4",
          "ticks": 32160,
          "time": 40.199932999999994,
          "velocity": 0.6299212598425197
        },
        {
          "duration": 0.5687490520833407,
          "durationTicks": 455,
          "midi": 69,
          "name": "A4",
          "ticks": 32160,
          "time": 40.199932999999994,
          "velocity": 0.6299212598425197
        },
        {
          "duration": 1.1387481020833334,
          "durationTicks": 911,
          "midi": 66,
          "name": "F#4",
          "ticks": 33120,
          "time": 41.399930999999995,
          "velocity": 0.6299212598425197
        },
        {
          "duration": 0.5687490520833336,
          "durationTicks": 455,
          "midi": 65,
          "name": "F4",
          "ticks": 34080,
          "time": 42.599928999999996,
          "velocity": 0.6299212598425197
        },
        {
          "duration": 0.5687490520833336,
          "durationTicks": 455,
          "midi": 67,
          "name": "G4",
          "ticks": 34080,
          "time": 42.599928999999996,
          "velocity": 0.6299212598425197
        },
        {
          "duration": 1.1387481020833263,
          "durationTicks": 911,
          "midi": 64,
          "name": "E4",
          "ticks": 35040,
          "time": 43.799927,
          "velocity": 0.6299212598425197
        },
        {
          "duration": 0.5687490520833336,
          "durationTicks": 455,
          "midi": 65,
          "name": "F4",
          "ticks": 36000,
          "time": 44.999925,
          "velocity": 0.6299212598425197
        },
        {
          "duration": 0.5687490520833336,
          "durationTicks": 455,
          "midi": 64,
          "name": "E4",
          "ticks": 36960,
          "time": 46.199923,
          "velocity": 0.6299212598425197
        },
        {
          "duration": 0.5687490520833336,
          "durationTicks": 455,
          "midi": 62,
          "name": "D4",
          "ticks": 37440,
          "time": 46.799921999999995,
          "velocity": 0.6299212598425197
        },
        {
          "duration": 0.5687490520833336,
          "durationTicks": 455,
          "midi": 53,
          "name": "F3",
          "ticks": 38400,
          "time": 47.999919999999996,
          "velocity": 0.6299212598425197
        },
        {
          "duration": 0.5687490520833407,
          "durationTicks": 455,
          "midi": 55,
          "name": "G3",
          "ticks": 38880,
          "time": 48.59991899999999,
          "velocity": 0.6299212598425197
        },
        {
          "duration": 1.1387481020833263,
          "durationTicks": 911,
          "midi": 57,
          "name": "A3",
          "ticks": 39360,
          "time": 49.199918,
          "velocity": 0.6299212598425197
        },
        {
          "duration": 1.7087471520833262,
          "durationTicks": 1367,
          "midi": 57,
          "name": "A3",
          "ticks": 40320,
          "time": 50.399916,
          "velocity": 0.6299212598425197
        },
        {
          "duration": 0.18874968541666703,
          "durationTicks": 151,
          "midi": 57,
          "name": "A3",
          "ticks": 41760,
          "time": 52.199912999999995,
          "velocity": 0.6299212598425197
        },
        {
          "duration": 0.18874968541666703,
          "durationTicks": 151,
          "midi": 58,
          "name": "Bb3",
          "ticks": 41920,
          "time": 52.39991266666666,
          "velocity": 0.6299212598425197
        },
        {
          "duration": 0.18874968541666703,
          "durationTicks": 151,
          "midi": 57,
          "name": "A3",
          "ticks": 42080,
          "time": 52.59991233333333,
          "velocity": 0.6299212598425197
        },
        {
          "duration": 0.2837495270833372,
          "durationTicks": 227,
          "midi": 55,
          "name": "G3",
          "ticks": 42240,
          "time": 52.79991199999999,
          "velocity": 0.6299212598425197
        },
        {
          "duration": 0.2837495270833301,
          "durationTicks": 227,
          "midi": 53,
          "name": "F3",
          "ticks": 42480,
          "time": 53.0999115,
          "velocity": 0.6299212598425197
        },
        {
          "duration": 0.2837495270833301,
          "durationTicks": 227,
          "midi": 53,
          "name": "F3",
          "ticks": 42720,
          "time": 53.399910999999996,
          "velocity": 0.6299212598425197
        },
        {
          "duration": 0.2837495270833301,
          "durationTicks": 227,
          "midi": 53,
          "name": "F3",
          "ticks": 42960,
          "time": 53.699910499999994,
          "velocity": 0.6299212598425197
        },
        {
          "duration": 0.2837495270833372,
          "durationTicks": 227,
          "midi": 53,
          "name": "F3",
          "ticks": 43200,
          "time": 53.99990999999999,
          "velocity": 0.6299212598425197
        },
        {
          "duration": 0.2837495270833301,
          "durationTicks": 227,
          "midi": 53,
          "name": "F3",
          "ticks": 43440,
          "time": 54.2999095,
          "velocity": 0.6299212598425197
        },
        {
          "duration": 0.18874968541666703,
          "durationTicks": 151,
          "midi": 53,
          "name": "F3",
          "ticks": 43680,
          "time": 54.599909,
          "velocity": 0.6299212598425197
        },
        {
          "duration": 0.18874968541666703,
          "durationTicks": 151,
          "midi": 57,
          "name": "A3",
          "ticks": 43840,
          "time": 54.79990866666666,
          "velocity": 0.6299212598425197
        },
        {
          "duration": 0.18874968541666703,
          "durationTicks": 151,
          "midi": 55,
          "name": "G3",
          "ticks": 44000,
          "time": 54.99990833333333,
          "velocity": 0.6299212598425197
        },
        {
          "duration": 0.2837495270833301,
          "durationTicks": 227,
          "midi": 53,
          "name": "F3",
          "ticks": 44160,
          "time": 55.19990799999999,
          "velocity": 0.6299212598425197
        },
        {
          "duration": 0.2837495270833372,
          "durationTicks": 227,
          "midi": 52,
          "name": "E3",
          "ticks": 44400,
          "time": 55.49990749999999,
          "velocity": 0.6299212598425197
        },
        {
          "duration": 0.2837495270833301,
          "durationTicks": 227,
          "midi": 52,
          "name": "E3",
          "ticks": 44640,
          "time": 55.799907,
          "velocity": 0.6299212598425197
        },
        {
          "duration": 0.2837495270833301,
          "durationTicks": 227,
          "midi": 52,
          "name": "E3",
          "ticks": 44880,
          "time": 56.099906499999996,
          "velocity": 0.6299212598425197
        },
        {
          "duration": 0.2837495270833301,
          "durationTicks": 227,
          "midi": 52,
          "name": "E3",
          "ticks": 45120,
          "time": 56.399905999999994,
          "velocity": 0.6299212598425197
        },
        {
          "duration": 0.2837495270833301,
          "durationTicks": 227,
          "midi": 52,
          "name": "E3",
          "ticks": 45360,
          "time": 56.69990549999999,
          "velocity": 0.6299212598425197
        },
        {
          "duration": 0.5687490520833336,
          "durationTicks": 455,
          "midi": 53,
          "name": "F3",
          "ticks": 46080,
          "time": 57.599903999999995,
          "velocity": 0.6299212598425197
        },
        {
          "duration": 0.5687490520833407,
          "durationTicks": 455,
          "midi": 55,
          "name": "G3",
          "ticks": 46560,
          "time": 58.19990299999999,
          "velocity": 0.6299212598425197
        },
        {
          "duration": 1.1387481020833263,
          "durationTicks": 911,
          "midi": 57,
          "name": "A3",
          "ticks": 47040,
          "time": 58.799901999999996,
          "velocity": 0.6299212598425197
        },
        {
          "duration": 1.7087471520833262,
          "durationTicks": 1367,
          "midi": 57,
          "name": "A3",
          "ticks": 48000,
          "time": 59.9999,
          "velocity": 0.6299212598425197
        },
        {
          "duration": 0.18874968541666703,
          "durationTicks": 151,
          "midi": 57,
          "name": "A3",
          "ticks": 49440,
          "time": 61.799896999999994,
          "velocity": 0.6299212598425197
        },
        {
          "duration": 0.18874968541666703,
          "durationTicks": 151,
          "midi": 58,
          "name": "Bb3",
          "ticks": 49600,
          "time": 61.99989666666666,
          "velocity": 0.6299212598425197
        },
        {
          "duration": 0.18874968541666703,
          "durationTicks": 151,
          "midi": 57,
          "name": "A3",
          "ticks": 49760,
          "time": 62.19989633333333,
          "velocity": 0.6299212598425197
        },
        {
          "duration": 0.2837495270833301,
          "durationTicks": 227,
          "midi": 55,
          "name": "G3",
          "ticks": 49920,
          "time": 62.399896,
          "velocity": 0.6299212598425197
        },
        {
          "duration": 0.2837495270833301,
          "durationTicks": 227,
          "midi": 53,
          "name": "F3",
          "ticks": 50160,
          "time": 62.6998955,
          "velocity": 0.6299212598425197
        },
        {
          "duration": 0.2837495270833301,
          "durationTicks": 227,
          "midi": 53,
          "name": "F3",
          "ticks": 50400,
          "time": 62.999894999999995,
          "velocity": 0.6299212598425197
        },
        {
          "duration": 0.2837495270833301,
          "durationTicks": 227,
          "midi": 53,
          "name": "F3",
          "ticks": 50640,
          "time": 63.29989449999999,
          "velocity": 0.6299212598425197
        },
        {
          "duration": 0.2837495270833372,
          "durationTicks": 227,
          "midi": 53,
          "name": "F3",
          "ticks": 50880,
          "time": 63.59989399999999,
          "velocity": 0.6299212598425197
        },
        {
          "duration": 0.283749527083323,
          "durationTicks": 227,
          "midi": 53,
          "name": "F3",
          "ticks": 51120,
          "time": 63.8998935,
          "velocity": 0.6299212598425197
        },
        {
          "duration": 0.18874968541666703,
          "durationTicks": 151,
          "midi": 53,
          "name": "F3",
          "ticks": 51360,
          "time": 64.19989299999999,
          "velocity": 0.6299212598425197
        },
        {
          "duration": 0.18874968541666703,
          "durationTicks": 151,
          "midi": 57,
          "name": "A3",
          "ticks": 51520,
          "time": 64.39989266666666,
          "velocity": 0.6299212598425197
        },
        {
          "duration": 0.18874968541666703,
          "durationTicks": 151,
          "midi": 55,
          "name": "G3",
          "ticks": 51680,
          "time": 64.59989233333333,
          "velocity": 0.6299212598425197
        },
        {
          "duration": 0.2837495270833301,
          "durationTicks": 227,
          "midi": 53,
          "name": "F3",
          "ticks": 51840,
          "time": 64.799892,
          "velocity": 0.6299212598425197
        },
        {
          "duration": 0.2837495270833301,
          "durationTicks": 227,
          "midi": 52,
          "name": "E3",
          "ticks": 52080,
          "time": 65.0998915,
          "velocity": 0.6299212598425197
        },
        {
          "duration": 0.2837495270833301,
          "durationTicks": 227,
          "midi": 52,
          "name": "E3",
          "ticks": 52320,
          "time": 65.399891,
          "velocity": 0.6299212598425197
        },
        {
          "duration": 0.2837495270833301,
          "durationTicks": 227,
          "midi": 52,
          "name": "E3",
          "ticks": 52560,
          "time": 65.6998905,
          "velocity": 0.6299212598425197
        },
        {
          "duration": 0.2837495270833301,
          "durationTicks": 227,
          "midi": 52,
          "name": "E3",
          "ticks": 52800,
          "time": 65.99989,
          "velocity": 0.6299212598425197
        },
        {
          "duration": 0.2837495270833301,
          "durationTicks": 227,
          "midi": 52,
          "name": "E3",
          "ticks": 53040,
          "time": 66.29988949999999,
          "velocity": 0.6299212598425197
        },
        {
          "duration": 2.2787462020833402,
          "durationTicks": 1823,
          "midi": 69,
          "name": "A4",
          "ticks": 55200,
          "time": 68.99988499999999,
          "velocity": 0.6299212598425197
        },
        {
          "duration": 2.848745252083333,
          "durationTicks": 2279,
          "midi": 69,
          "name": "A4",
          "ticks": 57120,
          "time": 71.399881,
          "velocity": 0.6299212598425197
        },
        {
          "duration": 0.5687490520833336,
          "durationTicks": 455,
          "midi": 67,
          "name": "G4",
          "ticks": 59520,
          "time": 74.39987599999999,
          "velocity": 0.6299212598425197
        },
        {
          "duration": 0.5687490520833478,
          "durationTicks": 455,
          "midi": 67,
          "name": "G4",
          "ticks": 60000,
          "time": 74.99987499999999,
          "velocity": 0.6299212598425197
        },
        {
          "duration": 0.5687490520833336,
          "durationTicks": 455,
          "midi": 67,
          "name": "G4",
          "ticks": 60480,
          "time": 75.599874,
          "velocity": 0.6299212598425197
        },
        {
          "duration": 0.5687490520833336,
          "durationTicks": 455,
          "midi": 62,
          "name": "D4",
          "ticks": 61440,
          "time": 76.799872,
          "velocity": 0.6299212598425197
        },
        {
          "duration": 0.5687490520833336,
          "durationTicks": 455,
          "midi": 62,
          "name": "D4",
          "ticks": 62400,
          "time": 77.99986999999999,
          "velocity": 0.6299212598425197
        },
        {
          "duration": 0.5687490520833194,
          "durationTicks": 455,
          "midi": 62,
          "name": "D4",
          "ticks": 63360,
          "time": 79.199868,
          "velocity": 0.6299212598425197
        },
        {
          "duration": 0.5687490520833336,
          "durationTicks": 455,
          "midi": 60,
          "name": "C4",
          "ticks": 64320,
          "time": 80.39986599999999,
          "velocity": 0.6299212598425197
        },
        {
          "duration": 0.5687490520833336,
          "durationTicks": 455,
          "midi": 63,
          "name": "Eb4",
          "ticks": 64320,
          "time": 80.39986599999999,
          "velocity": 0.6299212598425197
        },
        {
          "duration": 0.5687490520833194,
          "durationTicks": 455,
          "midi": 62,
          "name": "D4",
          "ticks": 65280,
          "time": 81.599864,
          "velocity": 0.6299212598425197
        },
        {
          "duration": 0.5687490520833336,
          "durationTicks": 455,
          "midi": 62,
          "name": "D4",
          "ticks": 66240,
          "time": 82.79986199999999,
          "velocity": 0.6299212598425197
        },
        {
          "duration": 0.5687490520833194,
          "durationTicks": 455,
          "midi": 74,
          "name": "D5",
          "ticks": 67680,
          "time": 84.599859,
          "velocity": 0.6299212598425197
        },
        {
          "duration": 0.5687490520833336,
          "durationTicks": 455,
          "midi": 74,
          "name": "D5",
          "ticks": 68160,
          "time": 85.19985799999999,
          "velocity": 0.6299212598425197
        },
        {
          "duration": 0.1412497645833497,
          "durationTicks": 113,
          "midi": 74,
          "name": "D5",
          "ticks": 68640,
          "time": 85.79985699999999,
          "velocity": 0.6299212598425197
        },
        {
          "duration": 0.1412497645833355,
          "durationTicks": 113,
          "midi": 72,
          "name": "C5",
          "ticks": 68760,
          "time": 85.94985675,
          "velocity": 0.6299212598425197
        },
        {
          "duration": 0.1412497645833497,
          "durationTicks": 113,
          "midi": 70,
          "name": "Bb4",
          "ticks": 68880,
          "time": 86.09985649999999,
          "velocity": 0.6299212598425197
        },
        {
          "duration": 0.1412497645833355,
          "durationTicks": 113,
          "midi": 69,
          "name": "A4",
          "ticks": 69000,
          "time": 86.24985625,
          "velocity": 0.6299212598425197
        },
        {
          "duration": 0.5687490520833194,
          "durationTicks": 455,
          "midi": 68,
          "name": "G#4",
          "ticks": 69120,
          "time": 86.399856,
          "velocity": 0.6299212598425197
        },
        {
          "duration": 0.5687490520833194,
          "durationTicks": 455,
          "midi": 65,
          "name": "F4",
          "ticks": 69600,
          "time": 86.999855,
          "velocity": 0.6299212598425197
        },
        {
          "duration": 0.5687490520833194,
          "durationTicks": 455,
          "midi": 68,
          "name": "G#4",
          "ticks": 69600,
          "time": 86.999855,
          "velocity": 0.6299212598425197
        },
        {
          "duration": 0.5687490520833336,
          "durationTicks": 455,
          "midi": 64,
          "name": "E4",
          "ticks": 70560,
          "time": 88.19985299999999,
          "velocity": 0.6299212598425197
        },
        {
          "duration": 0.5687490520833336,
          "durationTicks": 455,
          "midi": 67,
          "name": "G4",
          "ticks": 70560,
          "time": 88.19985299999999,
          "velocity": 0.6299212598425197
        },
        {
          "duration": 0.5687490520833194,
          "durationTicks": 455,
          "midi": 62,
          "name": "D4",
          "ticks": 71520,
          "time": 89.399851,
          "velocity": 0.6299212598425197
        },
        {
          "duration": 0.5687490520833194,
          "durationTicks": 455,
          "midi": 65,
          "name": "F4",
          "ticks": 71520,
          "time": 89.399851,
          "velocity": 0.6299212598425197
        },
        {
          "duration": 0.5687490520833336,
          "durationTicks": 455,
          "midi": 62,
          "name": "D4",
          "ticks": 72480,
          "time": 90.59984899999999,
          "velocity": 0.6299212598425197
        },
        {
          "duration": 0.5687490520833336,
          "durationTicks": 455,
          "midi": 64,
          "name": "E4",
          "ticks": 72480,
          "time": 90.59984899999999,
          "velocity": 0.6299212598425197
        },
        {
          "duration": 0.5687490520833336,
          "durationTicks": 455,
          "midi": 67,
          "name": "G4",
          "ticks": 73440,
          "time": 91.79984699999999,
          "velocity": 0.6299212598425197
        },
        {
          "duration": 0.5687490520833194,
          "durationTicks": 455,
          "midi": 64,
          "name": "E4",
          "ticks": 74400,
          "time": 92.999845,
          "velocity": 0.6299212598425197
        },
        {
          "duration": 0.5687490520833336,
          "durationTicks": 455,
          "midi": 61,
          "name": "C#4",
          "ticks": 74880,
          "time": 93.59984399999999,
          "velocity": 0.6299212598425197
        },
        {
          "duration": 0.5687490520833336,
          "durationTicks": 455,
          "midi": 64,
          "name": "E4",
          "ticks": 74880,
          "time": 93.59984399999999,
          "velocity": 0.6299212598425197
        },
        {
          "duration": 0.5687490520833336,
          "durationTicks": 455,
          "midi": 62,
          "name": "D4",
          "ticks": 75360,
          "time": 94.19984299999999,
          "velocity": 0.6299212598425197
        },
        {
          "duration": 0.5687490520833336,
          "durationTicks": 455,
          "midi": 64,
          "name": "E4",
          "ticks": 75360,
          "time": 94.19984299999999,
          "velocity": 0.6299212598425197
        },
        {
          "duration": 0.5687490520833194,
          "durationTicks": 455,
          "midi": 61,
          "name": "C#4",
          "ticks": 75840,
          "time": 94.799842,
          "velocity": 0.6299212598425197
        },
        {
          "duration": 0.5687490520833194,
          "durationTicks": 455,
          "midi": 64,
          "name": "E4",
          "ticks": 75840,
          "time": 94.799842,
          "velocity": 0.6299212598425197
        },
        {
          "duration": 0.5687490520833336,
          "durationTicks": 455,
          "midi": 62,
          "name": "D4",
          "ticks": 76800,
          "time": 95.99983999999999,
          "velocity": 0.6299212598425197
        },
        {
          "duration": 0.5687490520833336,
          "durationTicks": 455,
          "midi": 62,
          "name": "D4",
          "ticks": 77280,
          "time": 96.59983899999999,
          "velocity": 0.6299212598425197
        },
        {
          "duration": 0.5687490520833194,
          "durationTicks": 455,
          "midi": 62,
          "name": "D4",
          "ticks": 78240,
          "time": 97.799837,
          "velocity": 0.6299212598425197
        },
        {
          "duration": 0.5687490520833336,
          "durationTicks": 455,
          "midi": 62,
          "name": "D4",
          "ticks": 79200,
          "time": 98.99983499999999,
          "velocity": 0.6299212598425197
        },
        {
          "duration": 0.5687490520833194,
          "durationTicks": 455,
          "midi": 60,
          "name": "C4",
          "ticks": 80160,
          "time": 100.199833,
          "velocity": 0.6299212598425197
        },
        {
          "duration": 0.5687490520833194,
          "durationTicks": 455,
          "midi": 62,
          "name": "D4",
          "ticks": 80160,
          "time": 100.199833,
          "velocity": 0.6299212598425197
        },
        {
          "duration": 0.5687490520833336,
          "durationTicks": 455,
          "midi": 62,
          "name": "D4",
          "ticks": 81120,
          "time": 101.39983099999999,
          "velocity": 0.6299212598425197
        },
        {
          "duration": 0.5687490520833336,
          "durationTicks": 455,
          "midi": 62,
          "name": "D4",
          "ticks": 82080,
          "time": 102.59982899999999,
          "velocity": 0.6299212598425197
        },
        {
          "duration": 0.5687490520833194,
          "durationTicks": 455,
          "midi": 64,
          "name": "E4",
          "ticks": 83040,
          "time": 103.799827,
          "velocity": 0.6299212598425197
        },
        {
          "duration": 0.5687490520833194,
          "durationTicks": 455,
          "midi": 67,
          "name": "G4",
          "ticks": 83040,
          "time": 103.799827,
          "velocity": 0.6299212598425197
        },
        {
          "duration": 0.5687490520833336,
          "durationTicks": 455,
          "midi": 65,
          "name": "F4",
          "ticks": 83520,
          "time": 104.39982599999999,
          "velocity": 0.6299212598425197
        },
        {
          "duration": 0.5687490520833336,
          "durationTicks": 455,
          "midi": 69,
          "name": "A4",
          "ticks": 83520,
          "time": 104.39982599999999,
          "velocity": 0.6299212598425197
        },
        {
          "duration": 0.1412497645833497,
          "durationTicks": 113,
          "midi": 65,
          "name": "F4",
          "ticks": 84000,
          "time": 104.99982499999999,
          "velocity": 0.6299212598425197
        },
        {
          "duration": 0.1412497645833355,
          "durationTicks": 113,
          "midi": 64,
          "name": "E4",
          "ticks": 84120,
          "time": 105.14982475,
          "velocity": 0.6299212598425197
        },
        {
          "duration": 0.1412497645833497,
          "durationTicks": 113,
          "midi": 62,
          "name": "D4",
          "ticks": 84240,
          "time": 105.29982449999999,
          "velocity": 0.6299212598425197
        },
        {
          "duration": 0.1412497645833355,
          "durationTicks": 113,
          "midi": 60,
          "name": "C4",
          "ticks": 84360,
          "time": 105.44982424999999,
          "velocity": 0.6299212598425197
        },
        {
          "duration": 1.1387481020833405,
          "durationTicks": 911,
          "midi": 68,
          "name": "G#4",
          "ticks": 84960,
          "time": 106.199823,
          "velocity": 0.6299212598425197
        },
        {
          "duration": 0.5687490520833336,
          "durationTicks": 455,
          "midi": 67,
          "name": "G4",
          "ticks": 85920,
          "time": 107.39982099999999,
          "velocity": 0.6299212598425197
        },
        {
          "duration": 0.5687490520833336,
          "durationTicks": 455,
          "midi": 69,
          "name": "A4",
          "ticks": 85920,
          "time": 107.39982099999999,
          "velocity": 0.6299212598425197
        },
        {
          "duration": 1.1387481020833263,
          "durationTicks": 911,
          "midi": 66,
          "name": "F#4",
          "ticks": 86880,
          "time": 108.599819,
          "velocity": 0.6299212598425197
        },
        {
          "duration": 0.5687490520833336,
          "durationTicks": 455,
          "midi": 65,
          "name": "F4",
          "ticks": 87840,
          "time": 109.79981699999999,
          "velocity": 0.6299212598425197
        },
        {
          "duration": 0.5687490520833336,
          "durationTicks": 455,
          "midi": 67,
          "name": "G4",
          "ticks": 87840,
          "time": 109.79981699999999,
          "velocity": 0.6299212598425197
        },
        {
          "duration": 1.1387481020833405,
          "durationTicks": 911,
          "midi": 64,
          "name": "E4",
          "ticks": 88800,
          "time": 110.99981499999998,
          "velocity": 0.6299212598425197
        },
        {
          "duration": 0.5687490520833194,
          "durationTicks": 455,
          "midi": 65,
          "name": "F4",
          "ticks": 89760,
          "time": 112.19981299999999,
          "velocity": 0.6299212598425197
        },
        {
          "duration": 0.5987490020833377,
          "durationTicks": 479,
          "midi": 61,
          "name": "C#4",
          "ticks": 90720,
          "time": 113.39981099999999,
          "velocity": 0.6299212598425197
        },
        {
          "duration": 0.5324991125000196,
          "durationTicks": 426,
          "midi": 64,
          "name": "E4",
          "ticks": 90772,
          "time": 113.46481089166664,
          "velocity": 0.6299212598425197
        },
        {
          "duration": 0.5687490520833194,
          "durationTicks": 455,
          "midi": 62,
          "name": "D4",
          "ticks": 91200,
          "time": 113.99981,
          "velocity": 0.6299212598425197
        }
      ]
    },
    {
      "channel": 2,
      "controlChanges": {
        "7": [
          {
            "number": 7,
            "ticks": 0,
            "time": 0,
            "value": 0.7874015748031497
          }
        ],
        "10": [
          {
            "number": 10,
            "ticks": 0,
            "time": 0,
            "value": 0.5039370078740157
          }
        ],
        "91": [
          {
            "number": 91,
            "ticks": 0,
            "time": 0,
            "value": 0
          }
        ],
        "93": [
          {
            "number": 93,
            "ticks": 0,
            "time": 0,
            "value": 0
          }
        ],
        "121": [
          {
            "number": 121,
            "ticks": 0,
            "time": 0,
            "value": 0
          }
        ]
      },
      "pitchBends": [],
      "instrument": {
        "family": "piano",
        "name": "acoustic grand piano",
        "number": 0
      },
      "name": "Piano\u0000",
      "notes": [
        {
          "duration": 0.2837495270833319,
          "durationTicks": 227,
          "midi": 81,
          "name": "A5",
          "ticks": 8160,
          "time": 10.199983,
          "velocity": 0.6299212598425197
        },
        {
          "duration": 0.5687490520833336,
          "durationTicks": 455,
          "midi": 81,
          "name": "A5",
          "ticks": 8640,
          "time": 10.799982,
          "velocity": 0.6299212598425197
        },
        {
          "duration": 0.5687490520833336,
          "durationTicks": 455,
          "midi": 79,
          "name": "G5",
          "ticks": 9120,
          "time": 11.399980999999999,
          "velocity": 0.6299212598425197
        },
        {
          "duration": 0.5687490520833336,
          "durationTicks": 455,
          "midi": 76,
          "name": "E5",
          "ticks": 9600,
          "time": 11.999979999999999,
          "velocity": 0.6299212598425197
        },
        {
          "duration": 0.5687490520833336,
          "durationTicks": 455,
          "midi": 77,
          "name": "F5",
          "ticks": 10080,
          "time": 12.599979,
          "velocity": 0.6299212598425197
        },
        {
          "duration": 0.2837495270833337,
          "durationTicks": 227,
          "midi": 75,
          "name": "D#5",
          "ticks": 10560,
          "time": 13.199977999999998,
          "velocity": 0.6299212598425197
        },
        {
          "duration": 0.2837495270833337,
          "durationTicks": 227,
          "midi": 78,
          "name": "F#5",
          "ticks": 10560,
          "time": 13.199977999999998,
          "velocity": 0.6299212598425197
        },
        {
          "duration": 0.2837495270833337,
          "durationTicks": 227,
          "midi": 75,
          "name": "D#5",
          "ticks": 10800,
          "time": 13.499977499999998,
          "velocity": 0.6299212598425197
        },
        {
          "duration": 0.2837495270833337,
          "durationTicks": 227,
          "midi": 78,
          "name": "F#5",
          "ticks": 10800,
          "time": 13.499977499999998,
          "velocity": 0.6299212598425197
        },
        {
          "duration": 0.5687490520833336,
          "durationTicks": 455,
          "midi": 75,
          "name": "D#5",
          "ticks": 11040,
          "time": 13.799976999999998,
          "velocity": 0.6299212598425197
        },
        {
          "duration": 0.5687490520833336,
          "durationTicks": 455,
          "midi": 78,
          "name": "F#5",
          "ticks": 11040,
          "time": 13.799976999999998,
          "velocity": 0.6299212598425197
        },
        {
          "duration": 0.2837495270833337,
          "durationTicks": 227,
          "midi": 74,
          "name": "D5",
          "ticks": 11520,
          "time": 14.399975999999999,
          "velocity": 0.6299212598425197
        },
        {
          "duration": 0.2837495270833337,
          "durationTicks": 227,
          "midi": 77,
          "name": "F5",
          "ticks": 11520,
          "time": 14.399975999999999,
          "velocity": 0.6299212598425197
        },
        {
          "duration": 0.2837495270833337,
          "durationTicks": 227,
          "midi": 74,
          "name": "D5",
          "ticks": 11760,
          "time": 14.699975499999999,
          "velocity": 0.6299212598425197
        },
        {
          "duration": 0.2837495270833337,
          "durationTicks": 227,
          "midi": 77,
          "name": "F5",
          "ticks": 11760,
          "time": 14.699975499999999,
          "velocity": 0.6299212598425197
        },
        {
          "duration": 0.5687490520833336,
          "durationTicks": 455,
          "midi": 74,
          "name": "D5",
          "ticks": 12000,
          "time": 14.999975,
          "velocity": 0.6299212598425197
        },
        {
          "duration": 0.5687490520833336,
          "durationTicks": 455,
          "midi": 77,
          "name": "F5",
          "ticks": 12000,
          "time": 14.999975,
          "velocity": 0.6299212598425197
        },
        {
          "duration": 0.2837495270833319,
          "durationTicks": 227,
          "midi": 73,
          "name": "C#5",
          "ticks": 12480,
          "time": 15.599974,
          "velocity": 0.6299212598425197
        },
        {
          "duration": 0.2837495270833319,
          "durationTicks": 227,
          "midi": 76,
          "name": "E5",
          "ticks": 12480,
          "time": 15.599974,
          "velocity": 0.6299212598425197
        },
        {
          "duration": 0.2837495270833337,
          "durationTicks": 227,
          "midi": 73,
          "name": "C#5",
          "ticks": 12720,
          "time": 15.899973499999998,
          "velocity": 0.6299212598425197
        },
        {
          "duration": 0.2837495270833337,
          "durationTicks": 227,
          "midi": 76,
          "name": "E5",
          "ticks": 12720,
          "time": 15.899973499999998,
          "velocity": 0.6299212598425197
        },
        {
          "duration": 0.5687490520833336,
          "durationTicks": 455,
          "midi": 73,
          "name": "C#5",
          "ticks": 12960,
          "time": 16.199973,
          "velocity": 0.6299212598425197
        },
        {
          "duration": 0.5687490520833336,
          "durationTicks": 455,
          "midi": 76,
          "name": "E5",
          "ticks": 12960,
          "time": 16.199973,
          "velocity": 0.6299212598425197
        },
        {
          "duration": 0.2837495270833337,
          "durationTicks": 227,
          "midi": 77,
          "name": "F5",
          "ticks": 13440,
          "time": 16.799971999999997,
          "velocity": 0.6299212598425197
        },
        {
          "duration": 0.2837495270833337,
          "durationTicks": 227,
          "midi": 79,
          "name": "G5",
          "ticks": 13920,
          "time": 17.399970999999997,
          "velocity": 0.6299212598425197
        },
        {
          "duration": 0.5687490520833336,
          "durationTicks": 455,
          "midi": 67,
          "name": "G4",
          "ticks": 13920,
          "time": 17.399970999999997,
          "velocity": 0.6299212598425197
        },
        {
          "duration": 0.5687490520833336,
          "durationTicks": 455,
          "midi": 77,
          "name": "F5",
          "ticks": 14400,
          "time": 17.999969999999998,
          "velocity": 0.6299212598425197
        },
        {
          "duration": 0.5687490520833336,
          "durationTicks": 455,
          "midi": 65,
          "name": "F4",
          "ticks": 14400,
          "time": 17.999969999999998,
          "velocity": 0.6299212598425197
        },
        {
          "duration": 0.2837495270833337,
          "durationTicks": 227,
          "midi": 62,
          "name": "D4",
          "ticks": 15840,
          "time": 19.799967,
          "velocity": 0.6299212598425197
        },
        {
          "duration": 0.2837495270833337,
          "durationTicks": 227,
          "midi": 70,
          "name": "Bb4",
          "ticks": 15840,
          "time": 19.799967,
          "velocity": 0.6299212598425197
        },
        {
          "duration": 0.2837495270833372,
          "durationTicks": 227,
          "midi": 74,
          "name": "D5",
          "ticks": 16080,
          "time": 20.099966499999997,
          "velocity": 0.6299212598425197
        },
        {
          "duration": 0.56874905208333,
          "durationTicks": 455,
          "midi": 70,
          "name": "Bb4",
          "ticks": 16320,
          "time": 20.399966,
          "velocity": 0.6299212598425197
        },
        {
          "duration": 0.56874905208333,
          "durationTicks": 455,
          "midi": 61,
          "name": "C#4",
          "ticks": 16800,
          "time": 20.999965,
          "velocity": 0.6299212598425197
        },
        {
          "duration": 0.56874905208333,
          "durationTicks": 455,
          "midi": 70,
          "name": "Bb4",
          "ticks": 16800,
          "time": 20.999965,
          "velocity": 0.6299212598425197
        },
        {
          "duration": 0.56874905208333,
          "durationTicks": 455,
          "midi": 73,
          "name": "C#5",
          "ticks": 17280,
          "time": 21.599964,
          "velocity": 0.6299212598425197
        },
        {
          "duration": 0.56874905208333,
          "durationTicks": 455,
          "midi": 76,
          "name": "E5",
          "ticks": 17280,
          "time": 21.599964,
          "velocity": 0.6299212598425197
        },
        {
          "duration": 0.5687490520833336,
          "durationTicks": 455,
          "midi": 62,
          "name": "D4",
          "ticks": 17760,
          "time": 22.199962999999997,
          "velocity": 0.6299212598425197
        },
        {
          "duration": 0.5687490520833336,
          "durationTicks": 455,
          "midi": 74,
          "name": "D5",
          "ticks": 17760,
          "time": 22.199962999999997,
          "velocity": 0.6299212598425197
        },
        {
          "duration": 0.5687490520833336,
          "durationTicks": 455,
          "midi": 77,
          "name": "F5",
          "ticks": 17760,
          "time": 22.199962999999997,
          "velocity": 0.6299212598425197
        },
        {
          "duration": 0.2837495270833372,
          "durationTicks": 227,
          "midi": 80,
          "name": "G#5",
          "ticks": 18240,
          "time": 22.799961999999997,
          "velocity": 0.6299212598425197
        },
        {
          "duration": 0.2837495270833337,
          "durationTicks": 227,
          "midi": 80,
          "name": "G#5",
          "ticks": 18480,
          "time": 23.0999615,
          "velocity": 0.6299212598425197
        },
        {
          "duration": 0.5687490520833336,
          "durationTicks": 455,
          "midi": 67,
          "name": "G4",
          "ticks": 18720,
          "time": 23.399960999999998,
          "velocity": 0.6299212598425197
        },
        {
          "duration": 0.5687490520833336,
          "durationTicks": 455,
          "midi": 80,
          "name": "G#5",
          "ticks": 18720,
          "time": 23.399960999999998,
          "velocity": 0.6299212598425197
        },
        {
          "duration": 0.2837495270833337,
          "durationTicks": 227,
          "midi": 81,
          "name": "A5",
          "ticks": 19200,
          "time": 23.999959999999998,
          "velocity": 0.6299212598425197
        },
        {
          "duration": 0.2837495270833337,
          "durationTicks": 227,
          "midi": 84,
          "name": "C6",
          "ticks": 19200,
          "time": 23.999959999999998,
          "velocity": 0.6299212598425197
        },
        {
          "duration": 0.2837495270833372,
          "durationTicks": 227,
          "midi": 81,
          "name": "A5",
          "ticks": 19440,
          "time": 24.299959499999996,
          "velocity": 0.6299212598425197
        },
        {
          "duration": 0.2837495270833372,
          "durationTicks": 227,
          "midi": 84,
          "name": "C6",
          "ticks": 19440,
          "time": 24.299959499999996,
          "velocity": 0.6299212598425197
        },
        {
          "duration": 0.56874905208333,
          "durationTicks": 455,
          "midi": 81,
          "name": "A5",
          "ticks": 19680,
          "time": 24.599959,
          "velocity": 0.6299212598425197
        },
        {
          "duration": 0.56874905208333,
          "durationTicks": 455,
          "midi": 84,
          "name": "C6",
          "ticks": 19680,
          "time": 24.599959,
          "velocity": 0.6299212598425197
        },
        {
          "duration": 0.2837495270833337,
          "durationTicks": 227,
          "midi": 80,
          "name": "G#5",
          "ticks": 20160,
          "time": 25.199958,
          "velocity": 0.6299212598425197
        },
        {
          "duration": 0.2837495270833337,
          "durationTicks": 227,
          "midi": 83,
          "name": "B5",
          "ticks": 20160,
          "time": 25.199958,
          "velocity": 0.6299212598425197
        },
        {
          "duration": 0.2837495270833372,
          "durationTicks": 227,
          "midi": 80,
          "name": "G#5",
          "ticks": 20400,
          "time": 25.499957499999997,
          "velocity": 0.6299212598425197
        },
        {
          "duration": 0.2837495270833372,
          "durationTicks": 227,
          "midi": 83,
          "name": "B5",
          "ticks": 20400,
          "time": 25.499957499999997,
          "velocity": 0.6299212598425197
        },
        {
          "duration": 0.56874905208333,
          "durationTicks": 455,
          "midi": 80,
          "name": "G#5",
          "ticks": 20640,
          "time": 25.799957,
          "velocity": 0.6299212598425197
        },
        {
          "duration": 0.56874905208333,
          "durationTicks": 455,
          "midi": 83,
          "name": "B5",
          "ticks": 20640,
          "time": 25.799957,
          "velocity": 0.6299212598425197
        },
        {
          "duration": 0.2837495270833372,
          "durationTicks": 227,
          "midi": 81,
          "name": "A5",
          "ticks": 21120,
          "time": 26.399955999999996,
          "velocity": 0.6299212598425197
        },
        {
          "duration": 0.2837495270833372,
          "durationTicks": 227,
          "midi": 80,
          "name": "G#5",
          "ticks": 21600,
          "time": 26.999954999999996,
          "velocity": 0.6299212598425197
        },
        {
          "duration": 0.5687490520833336,
          "durationTicks": 455,
          "midi": 81,
          "name": "A5",
          "ticks": 22080,
          "time": 27.599953999999997,
          "velocity": 0.6299212598425197
        },
        {
          "duration": 0.14124976458333194,
          "durationTicks": 113,
          "midi": 69,
          "name": "A4",
          "ticks": 22560,
          "time": 28.199952999999997,
          "velocity": 0.6299212598425197
        },
        {
          "duration": 0.1412497645833355,
          "durationTicks": 113,
          "midi": 67,
          "name": "G4",
          "ticks": 22680,
          "time": 28.349952749999996,
          "velocity": 0.6299212598425197
        },
        {
          "duration": 0.14124976458333194,
          "durationTicks": 113,
          "midi": 65,
          "name": "F4",
          "ticks": 22800,
          "time": 28.4999525,
          "velocity": 0.6299212598425197
        },
        {
          "duration": 0.14124976458333194,
          "durationTicks": 113,
          "midi": 64,
          "name": "E4",
          "ticks": 22920,
          "time": 28.64995225,
          "velocity": 0.6299212598425197
        },
        {
          "duration": 0.2837495270833337,
          "durationTicks": 227,
          "midi": 81,
          "name": "A5",
          "ticks": 23520,
          "time": 29.399950999999998,
          "velocity": 0.6299212598425197
        },
        {
          "duration": 0.56874905208333,
          "durationTicks": 455,
          "midi": 81,
          "name": "A5",
          "ticks": 24000,
          "time": 29.99995,
          "velocity": 0.6299212598425197
        },
        {
          "duration": 0.56874905208333,
          "durationTicks": 455,
          "midi": 79,
          "name": "G5",
          "ticks": 24480,
          "time": 30.599949,
          "velocity": 0.6299212598425197
        },
        {
          "duration": 0.56874905208333,
          "durationTicks": 455,
          "midi": 76,
          "name": "E5",
          "ticks": 24960,
          "time": 31.199948,
          "velocity": 0.6299212598425197
        },
        {
          "duration": 0.5687490520833336,
          "durationTicks": 455,
          "midi": 77,
          "name": "F5",
          "ticks": 25440,
          "time": 31.799946999999996,
          "velocity": 0.6299212598425197
        },
        {
          "duration": 0.2837495270833301,
          "durationTicks": 227,
          "midi": 75,
          "name": "D#5",
          "ticks": 25920,
          "time": 32.399946,
          "velocity": 0.6299212598425197
        },
        {
          "duration": 0.2837495270833301,
          "durationTicks": 227,
          "midi": 78,
          "name": "F#5",
          "ticks": 25920,
          "time": 32.399946,
          "velocity": 0.6299212598425197
        },
        {
          "duration": 0.2837495270833372,
          "durationTicks": 227,
          "midi": 75,
          "name": "D#5",
          "ticks": 26160,
          "time": 32.6999455,
          "velocity": 0.6299212598425197
        },
        {
          "duration": 0.2837495270833372,
          "durationTicks": 227,
          "midi": 78,
          "name": "F#5",
          "ticks": 26160,
          "time": 32.6999455,
          "velocity": 0.6299212598425197
        },
        {
          "duration": 0.5687490520833336,
          "durationTicks": 455,
          "midi": 75,
          "name": "D#5",
          "ticks": 26400,
          "time": 32.999945,
          "velocity": 0.6299212598425197
        },
        {
          "duration": 0.5687490520833336,
          "durationTicks": 455,
          "midi": 78,
          "name": "F#5",
          "ticks": 26400,
          "time": 32.999945,
          "velocity": 0.6299212598425197
        },
        {
          "duration": 0.2837495270833372,
          "durationTicks": 227,
          "midi": 74,
          "name": "D5",
          "ticks": 26880,
          "time": 33.599943999999994,
          "velocity": 0.6299212598425197
        },
        {
          "duration": 0.2837495270833372,
          "durationTicks": 227,
          "midi": 77,
          "name": "F5",
          "ticks": 26880,
          "time": 33.599943999999994,
          "velocity": 0.6299212598425197
        },
        {
          "duration": 0.2837495270833301,
          "durationTicks": 227,
          "midi": 74,
          "name": "D5",
          "ticks": 27120,
          "time": 33.8999435,
          "velocity": 0.6299212598425197
        },
        {
          "duration": 0.2837495270833301,
          "durationTicks": 227,
          "midi": 77,
          "name": "F5",
          "ticks": 27120,
          "time": 33.8999435,
          "velocity": 0.6299212598425197
        },
        {
          "duration": 0.5687490520833336,
          "durationTicks": 455,
          "midi": 74,
          "name": "D5",
          "ticks": 27360,
          "time": 34.199943,
          "velocity": 0.6299212598425197
        },
        {
          "duration": 0.5687490520833336,
          "durationTicks": 455,
          "midi": 77,
          "name": "F5",
          "ticks": 27360,
          "time": 34.199943,
          "velocity": 0.6299212598425197
        },
        {
          "duration": 0.2837495270833372,
          "durationTicks": 227,
          "midi": 73,
          "name": "C#5",
          "ticks": 27840,
          "time": 34.799941999999994,
          "velocity": 0.6299212598425197
        },
        {
          "duration": 0.2837495270833372,
          "durationTicks": 227,
          "midi": 76,
          "name": "E5",
          "ticks": 27840,
          "time": 34.799941999999994,
          "velocity": 0.6299212598425197
        },
        {
          "duration": 0.2837495270833301,
          "durationTicks": 227,
          "midi": 73,
          "name": "C#5",
          "ticks": 28080,
          "time": 35.0999415,
          "velocity": 0.6299212598425197
        },
        {
          "duration": 0.2837495270833301,
          "durationTicks": 227,
          "midi": 76,
          "name": "E5",
          "ticks": 28080,
          "time": 35.0999415,
          "velocity": 0.6299212598425197
        },
        {
          "duration": 0.5687490520833336,
          "durationTicks": 455,
          "midi": 73,
          "name": "C#5",
          "ticks": 28320,
          "time": 35.399941,
          "velocity": 0.6299212598425197
        },
        {
          "duration": 0.5687490520833336,
          "durationTicks": 455,
          "midi": 76,
          "name": "E5",
          "ticks": 28320,
          "time": 35.399941,
          "velocity": 0.6299212598425197
        },
        {
          "duration": 0.2837495270833372,
          "durationTicks": 227,
          "midi": 77,
          "name": "F5",
          "ticks": 28800,
          "time": 35.999939999999995,
          "velocity": 0.6299212598425197
        },
        {
          "duration": 0.2837495270833301,
          "durationTicks": 227,
          "midi": 79,
          "name": "G5",
          "ticks": 29280,
          "time": 36.599939,
          "velocity": 0.6299212598425197
        },
        {
          "duration": 0.5687490520833336,
          "durationTicks": 455,
          "midi": 77,
          "name": "F5",
          "ticks": 29760,
          "time": 37.199937999999996,
          "velocity": 0.6299212598425197
        },
        {
          "duration": 0.2837495270833372,
          "durationTicks": 227,
          "midi": 74,
          "name": "D5",
          "ticks": 31200,
          "time": 38.999934999999994,
          "velocity": 0.6299212598425197
        },
        {
          "duration": 0.2837495270833372,
          "durationTicks": 227,
          "midi": 80,
          "name": "G#5",
          "ticks": 31200,
          "time": 38.999934999999994,
          "velocity": 0.6299212598425197
        },
        {
          "duration": 0.2837495270833301,
          "durationTicks": 227,
          "midi": 71,
          "name": "B4",
          "ticks": 31440,
          "time": 39.2999345,
          "velocity": 0.6299212598425197
        },
        {
          "duration": 0.5687490520833336,
          "durationTicks": 455,
          "midi": 74,
          "name": "D5",
          "ticks": 31680,
          "time": 39.599934,
          "velocity": 0.6299212598425197
        },
        {
          "duration": 0.5687490520833336,
          "durationTicks": 455,
          "midi": 80,
          "name": "G#5",
          "ticks": 31680,
          "time": 39.599934,
          "velocity": 0.6299212598425197
        },
        {
          "duration": 0.5687490520833407,
          "durationTicks": 455,
          "midi": 73,
          "name": "C#5",
          "ticks": 32160,
          "time": 40.199932999999994,
          "velocity": 0.6299212598425197
        },
        {
          "duration": 0.5687490520833407,
          "durationTicks": 455,
          "midi": 79,
          "name": "G5",
          "ticks": 32160,
          "time": 40.199932999999994,
          "velocity": 0.6299212598425197
        },
        {
          "duration": 0.5687490520833407,
          "durationTicks": 455,
          "midi": 81,
          "name": "A5",
          "ticks": 32160,
          "time": 40.199932999999994,
          "velocity": 0.6299212598425197
        },
        {
          "duration": 0.2837495270833301,
          "durationTicks": 227,
          "midi": 72,
          "name": "C5",
          "ticks": 33120,
          "time": 41.399930999999995,
          "velocity": 0.6299212598425197
        },
        {
          "duration": 0.2837495270833301,
          "durationTicks": 227,
          "midi": 78,
          "name": "F#5",
          "ticks": 33120,
          "time": 41.399930999999995,
          "velocity": 0.6299212598425197
        },
        {
          "duration": 0.2837495270833372,
          "durationTicks": 227,
          "midi": 69,
          "name": "A4",
          "ticks": 33360,
          "time": 41.699930499999994,
          "velocity": 0.6299212598425197
        },
        {
          "duration": 0.5687490520833336,
          "durationTicks": 455,
          "midi": 72,
          "name": "C5",
          "ticks": 33600,
          "time": 41.99993,
          "velocity": 0.6299212598425197
        },
        {
          "duration": 0.5687490520833336,
          "durationTicks": 455,
          "midi": 78,
          "name": "F#5",
          "ticks": 33600,
          "time": 41.99993,
          "velocity": 0.6299212598425197
        },
        {
          "duration": 0.5687490520833336,
          "durationTicks": 455,
          "midi": 71,
          "name": "B4",
          "ticks": 34080,
          "time": 42.599928999999996,
          "velocity": 0.6299212598425197
        },
        {
          "duration": 0.5687490520833336,
          "durationTicks": 455,
          "midi": 77,
          "name": "F5",
          "ticks": 34080,
          "time": 42.599928999999996,
          "velocity": 0.6299212598425197
        },
        {
          "duration": 0.2837495270833301,
          "durationTicks": 227,
          "midi": 70,
          "name": "Bb4",
          "ticks": 35040,
          "time": 43.799927,
          "velocity": 0.6299212598425197
        },
        {
          "duration": 0.2837495270833301,
          "durationTicks": 227,
          "midi": 67,
          "name": "G4",
          "ticks": 35280,
          "time": 44.099926499999995,
          "velocity": 0.6299212598425197
        },
        {
          "duration": 0.5687490520833407,
          "durationTicks": 455,
          "midi": 70,
          "name": "Bb4",
          "ticks": 35520,
          "time": 44.399925999999994,
          "velocity": 0.6299212598425197
        },
        {
          "duration": 0.5687490520833336,
          "durationTicks": 455,
          "midi": 69,
          "name": "A4",
          "ticks": 36000,
          "time": 44.999925,
          "velocity": 0.6299212598425197
        },
        {
          "duration": 0.5987490020833306,
          "durationTicks": 479,
          "midi": 69,
          "name": "A4",
          "ticks": 36960,
          "time": 46.199923,
          "velocity": 0.6299212598425197
        },
        {
          "duration": 0.5324991124999983,
          "durationTicks": 426,
          "midi": 73,
          "name": "C#5",
          "ticks": 37012,
          "time": 46.264922891666664,
          "velocity": 0.6299212598425197
        },
        {
          "duration": 0.4649992249999997,
          "durationTicks": 372,
          "midi": 76,
          "name": "E5",
          "ticks": 37066,
          "time": 46.33242277916666,
          "velocity": 0.6299212598425197
        },
        {
          "duration": 0.39874933541666735,
          "durationTicks": 319,
          "midi": 81,
          "name": "A5",
          "ticks": 37119,
          "time": 46.398672668749995,
          "velocity": 0.6299212598425197
        },
        {
          "duration": 0.5687490520833336,
          "durationTicks": 455,
          "midi": 74,
          "name": "D5",
          "ticks": 37440,
          "time": 46.799921999999995,
          "velocity": 0.6299212598425197
        },
        {
          "duration": 0.5687490520833336,
          "durationTicks": 455,
          "midi": 77,
          "name": "F5",
          "ticks": 37440,
          "time": 46.799921999999995,
          "velocity": 0.6299212598425197
        },
        {
          "duration": 0.5687490520833336,
          "durationTicks": 455,
          "midi": 81,
          "name": "A5",
          "ticks": 37440,
          "time": 46.799921999999995,
          "velocity": 0.6299212598425197
        },
        {
          "duration": 0.2837495270833301,
          "durationTicks": 227,
          "midi": 71,
          "name": "B4",
          "ticks": 38640,
          "time": 48.299919499999994,
          "velocity": 0.6299212598425197
        },
        {
          "duration": 0.2837495270833301,
          "durationTicks": 227,
          "midi": 73,
          "name": "C#5",
          "ticks": 39120,
          "time": 48.8999185,
          "velocity": 0.6299212598425197
        },
        {
          "duration": 0.2837495270833301,
          "durationTicks": 227,
          "midi": 74,
          "name": "D5",
          "ticks": 39600,
          "time": 49.499917499999995,
          "velocity": 0.6299212598425197
        },
        {
          "duration": 0.2837495270833301,
          "durationTicks": 227,
          "midi": 81,
          "name": "A5",
          "ticks": 39600,
          "time": 49.499917499999995,
          "velocity": 0.6299212598425197
        },
        {
          "duration": 0.2837495270833301,
          "durationTicks": 227,
          "midi": 76,
          "name": "E5",
          "ticks": 40080,
          "time": 50.0999165,
          "velocity": 0.6299212598425197
        },
        {
          "duration": 0.2837495270833301,
          "durationTicks": 227,
          "midi": 81,
          "name": "A5",
          "ticks": 40080,
          "time": 50.0999165,
          "velocity": 0.6299212598425197
        },
        {
          "duration": 0.2837495270833301,
          "durationTicks": 227,
          "midi": 74,
          "name": "D5",
          "ticks": 40560,
          "time": 50.699915499999996,
          "velocity": 0.6299212598425197
        },
        {
          "duration": 0.2837495270833301,
          "durationTicks": 227,
          "midi": 77,
          "name": "F5",
          "ticks": 40560,
          "time": 50.699915499999996,
          "velocity": 0.6299212598425197
        },
        {
          "duration": 0.2837495270833372,
          "durationTicks": 227,
          "midi": 71,
          "name": "B4",
          "ticks": 41040,
          "time": 51.29991449999999,
          "velocity": 0.6299212598425197
        },
        {
          "duration": 0.2837495270833372,
          "durationTicks": 227,
          "midi": 74,
          "name": "D5",
          "ticks": 41040,
          "time": 51.29991449999999,
          "velocity": 0.6299212598425197
        },
        {
          "duration": 0.2837495270833372,
          "durationTicks": 227,
          "midi": 83,
          "name": "B5",
          "ticks": 41040,
          "time": 51.29991449999999,
          "velocity": 0.6299212598425197
        },
        {
          "duration": 0.5687490520833336,
          "durationTicks": 455,
          "midi": 69,
          "name": "A4",
          "ticks": 41280,
          "time": 51.599914,
          "velocity": 0.6299212598425197
        },
        {
          "duration": 0.5687490520833336,
          "durationTicks": 455,
          "midi": 73,
          "name": "C#5",
          "ticks": 41280,
          "time": 51.599914,
          "velocity": 0.6299212598425197
        },
        {
          "duration": 0.5687490520833336,
          "durationTicks": 455,
          "midi": 81,
          "name": "A5",
          "ticks": 41280,
          "time": 51.599914,
          "velocity": 0.6299212598425197
        },
        {
          "duration": 0.2837495270833301,
          "durationTicks": 227,
          "midi": 71,
          "name": "B4",
          "ticks": 46320,
          "time": 57.89990349999999,
          "velocity": 0.6299212598425197
        },
        {
          "duration": 0.2837495270833301,
          "durationTicks": 227,
          "midi": 73,
          "name": "C#5",
          "ticks": 46800,
          "time": 58.4999025,
          "velocity": 0.6299212598425197
        },
        {
          "duration": 0.2837495270833301,
          "durationTicks": 227,
          "midi": 74,
          "name": "D5",
          "ticks": 47280,
          "time": 59.099901499999994,
          "velocity": 0.6299212598425197
        },
        {
          "duration": 0.2837495270833301,
          "durationTicks": 227,
          "midi": 81,
          "name": "A5",
          "ticks": 47280,
          "time": 59.099901499999994,
          "velocity": 0.6299212598425197
        },
        {
          "duration": 0.2837495270833301,
          "durationTicks": 227,
          "midi": 76,
          "name": "E5",
          "ticks": 47760,
          "time": 59.6999005,
          "velocity": 0.6299212598425197
        },
        {
          "duration": 0.2837495270833301,
          "durationTicks": 227,
          "midi": 81,
          "name": "A5",
          "ticks": 47760,
          "time": 59.6999005,
          "velocity": 0.6299212598425197
        },
        {
          "duration": 0.2837495270833301,
          "durationTicks": 227,
          "midi": 74,
          "name": "D5",
          "ticks": 48240,
          "time": 60.299899499999995,
          "velocity": 0.6299212598425197
        },
        {
          "duration": 0.2837495270833301,
          "durationTicks": 227,
          "midi": 77,
          "name": "F5",
          "ticks": 48240,
          "time": 60.299899499999995,
          "velocity": 0.6299212598425197
        },
        {
          "duration": 0.2837495270833372,
          "durationTicks": 227,
          "midi": 71,
          "name": "B4",
          "ticks": 48720,
          "time": 60.89989849999999,
          "velocity": 0.6299212598425197
        },
        {
          "duration": 0.2837495270833372,
          "durationTicks": 227,
          "midi": 74,
          "name": "D5",
          "ticks": 48720,
          "time": 60.89989849999999,
          "velocity": 0.6299212598425197
        },
        {
          "duration": 0.2837495270833372,
          "durationTicks": 227,
          "midi": 83,
          "name": "B5",
          "ticks": 48720,
          "time": 60.89989849999999,
          "velocity": 0.6299212598425197
        },
        {
          "duration": 0.5687490520833336,
          "durationTicks": 455,
          "midi": 69,
          "name": "A4",
          "ticks": 48960,
          "time": 61.199898,
          "velocity": 0.6299212598425197
        },
        {
          "duration": 0.5687490520833336,
          "durationTicks": 455,
          "midi": 73,
          "name": "C#5",
          "ticks": 48960,
          "time": 61.199898,
          "velocity": 0.6299212598425197
        },
        {
          "duration": 0.5687490520833336,
          "durationTicks": 455,
          "midi": 81,
          "name": "A5",
          "ticks": 48960,
          "time": 61.199898,
          "velocity": 0.6299212598425197
        },
        {
          "duration": 0.2837495270833301,
          "durationTicks": 227,
          "midi": 71,
          "name": "B4",
          "ticks": 54000,
          "time": 67.4998875,
          "velocity": 0.6299212598425197
        },
        {
          "duration": 0.2837495270833301,
          "durationTicks": 227,
          "midi": 74,
          "name": "D5",
          "ticks": 54000,
          "time": 67.4998875,
          "velocity": 0.6299212598425197
        },
        {
          "duration": 0.2837495270833301,
          "durationTicks": 227,
          "midi": 77,
          "name": "F5",
          "ticks": 54000,
          "time": 67.4998875,
          "velocity": 0.6299212598425197
        },
        {
          "duration": 0.2837495270833301,
          "durationTicks": 227,
          "midi": 73,
          "name": "C#5",
          "ticks": 54480,
          "time": 68.0998865,
          "velocity": 0.6299212598425197
        },
        {
          "duration": 0.2837495270833301,
          "durationTicks": 227,
          "midi": 76,
          "name": "E5",
          "ticks": 54480,
          "time": 68.0998865,
          "velocity": 0.6299212598425197
        },
        {
          "duration": 0.2837495270833301,
          "durationTicks": 227,
          "midi": 79,
          "name": "G5",
          "ticks": 54480,
          "time": 68.0998865,
          "velocity": 0.6299212598425197
        },
        {
          "duration": 0.2837495270833301,
          "durationTicks": 227,
          "midi": 74,
          "name": "D5",
          "ticks": 54960,
          "time": 68.6998855,
          "velocity": 0.6299212598425197
        },
        {
          "duration": 0.2837495270833301,
          "durationTicks": 227,
          "midi": 77,
          "name": "F5",
          "ticks": 54960,
          "time": 68.6998855,
          "velocity": 0.6299212598425197
        },
        {
          "duration": 0.2837495270833301,
          "durationTicks": 227,
          "midi": 81,
          "name": "A5",
          "ticks": 54960,
          "time": 68.6998855,
          "velocity": 0.6299212598425197
        },
        {
          "duration": 0.28374952708334433,
          "durationTicks": 227,
          "midi": 73,
          "name": "C#5",
          "ticks": 55920,
          "time": 69.89988349999999,
          "velocity": 0.6299212598425197
        },
        {
          "duration": 0.28374952708334433,
          "durationTicks": 227,
          "midi": 76,
          "name": "E5",
          "ticks": 55920,
          "time": 69.89988349999999,
          "velocity": 0.6299212598425197
        },
        {
          "duration": 0.28374952708334433,
          "durationTicks": 227,
          "midi": 79,
          "name": "G5",
          "ticks": 55920,
          "time": 69.89988349999999,
          "velocity": 0.6299212598425197
        },
        {
          "duration": 0.2837495270833301,
          "durationTicks": 227,
          "midi": 74,
          "name": "D5",
          "ticks": 56400,
          "time": 70.4998825,
          "velocity": 0.6299212598425197
        },
        {
          "duration": 0.2837495270833301,
          "durationTicks": 227,
          "midi": 77,
          "name": "F5",
          "ticks": 56400,
          "time": 70.4998825,
          "velocity": 0.6299212598425197
        },
        {
          "duration": 0.2837495270833301,
          "durationTicks": 227,
          "midi": 81,
          "name": "A5",
          "ticks": 56400,
          "time": 70.4998825,
          "velocity": 0.6299212598425197
        },
        {
          "duration": 0.2837495270833301,
          "durationTicks": 227,
          "midi": 76,
          "name": "E5",
          "ticks": 56880,
          "time": 71.0998815,
          "velocity": 0.6299212598425197
        },
        {
          "duration": 0.2837495270833301,
          "durationTicks": 227,
          "midi": 79,
          "name": "G5",
          "ticks": 56880,
          "time": 71.0998815,
          "velocity": 0.6299212598425197
        },
        {
          "duration": 0.2837495270833301,
          "durationTicks": 227,
          "midi": 74,
          "name": "D5",
          "ticks": 57840,
          "time": 72.29987949999999,
          "velocity": 0.6299212598425197
        },
        {
          "duration": 0.2837495270833301,
          "durationTicks": 227,
          "midi": 77,
          "name": "F5",
          "ticks": 57840,
          "time": 72.29987949999999,
          "velocity": 0.6299212598425197
        },
        {
          "duration": 0.2837495270833301,
          "durationTicks": 227,
          "midi": 81,
          "name": "A5",
          "ticks": 57840,
          "time": 72.29987949999999,
          "velocity": 0.6299212598425197
        },
        {
          "duration": 0.2837495270833301,
          "durationTicks": 227,
          "midi": 76,
          "name": "E5",
          "ticks": 58320,
          "time": 72.8998785,
          "velocity": 0.6299212598425197
        },
        {
          "duration": 0.2837495270833301,
          "durationTicks": 227,
          "midi": 79,
          "name": "G5",
          "ticks": 58320,
          "time": 72.8998785,
          "velocity": 0.6299212598425197
        },
        {
          "duration": 0.2837495270833301,
          "durationTicks": 227,
          "midi": 77,
          "name": "F5",
          "ticks": 58800,
          "time": 73.4998775,
          "velocity": 0.6299212598425197
        },
        {
          "duration": 0.2837495270833301,
          "durationTicks": 227,
          "midi": 81,
          "name": "A5",
          "ticks": 58800,
          "time": 73.4998775,
          "velocity": 0.6299212598425197
        },
        {
          "duration": 0.2837495270833301,
          "durationTicks": 227,
          "midi": 77,
          "name": "F5",
          "ticks": 59280,
          "time": 74.0998765,
          "velocity": 0.6299212598425197
        },
        {
          "duration": 0.2837495270833301,
          "durationTicks": 227,
          "midi": 81,
          "name": "A5",
          "ticks": 59280,
          "time": 74.0998765,
          "velocity": 0.6299212598425197
        },
        {
          "duration": 0.2837495270833301,
          "durationTicks": 227,
          "midi": 79,
          "name": "G5",
          "ticks": 59760,
          "time": 74.69987549999999,
          "velocity": 0.6299212598425197
        },
        {
          "duration": 0.2837495270833301,
          "durationTicks": 227,
          "midi": 82,
          "name": "Bb5",
          "ticks": 59760,
          "time": 74.69987549999999,
          "velocity": 0.6299212598425197
        },
        {
          "duration": 0.28374952708334433,
          "durationTicks": 227,
          "midi": 79,
          "name": "G5",
          "ticks": 60240,
          "time": 75.29987449999999,
          "velocity": 0.6299212598425197
        },
        {
          "duration": 0.28374952708334433,
          "durationTicks": 227,
          "midi": 82,
          "name": "Bb5",
          "ticks": 60240,
          "time": 75.29987449999999,
          "velocity": 0.6299212598425197
        },
        {
          "duration": 0.5687490520833336,
          "durationTicks": 455,
          "midi": 81,
          "name": "A5",
          "ticks": 60480,
          "time": 75.599874,
          "velocity": 0.6299212598425197
        },
        {
          "duration": 0.5687490520833336,
          "durationTicks": 455,
          "midi": 85,
          "name": "C#6",
          "ticks": 60480,
          "time": 75.599874,
          "velocity": 0.6299212598425197
        },
        {
          "duration": 0.2837495270833301,
          "durationTicks": 227,
          "midi": 81,
          "name": "A5",
          "ticks": 61440,
          "time": 76.799872,
          "velocity": 0.6299212598425197
        },
        {
          "duration": 0.5687490520833336,
          "durationTicks": 455,
          "midi": 81,
          "name": "A5",
          "ticks": 61920,
          "time": 77.39987099999999,
          "velocity": 0.6299212598425197
        },
        {
          "duration": 0.5687490520833336,
          "durationTicks": 455,
          "midi": 79,
          "name": "G5",
          "ticks": 62400,
          "time": 77.99986999999999,
          "velocity": 0.6299212598425197
        },
        {
          "duration": 0.5687490520833194,
          "durationTicks": 455,
          "midi": 76,
          "name": "E5",
          "ticks": 62880,
          "time": 78.599869,
          "velocity": 0.6299212598425197
        },
        {
          "duration": 0.5687490520833194,
          "durationTicks": 455,
          "midi": 77,
          "name": "F5",
          "ticks": 63360,
          "time": 79.199868,
          "velocity": 0.6299212598425197
        },
        {
          "duration": 0.2837495270833301,
          "durationTicks": 227,
          "midi": 75,
          "name": "D#5",
          "ticks": 63840,
          "time": 79.79986699999999,
          "velocity": 0.6299212598425197
        },
        {
          "duration": 0.2837495270833301,
          "durationTicks": 227,
          "midi": 78,
          "name": "F#5",
          "ticks": 63840,
          "time": 79.79986699999999,
          "velocity": 0.6299212598425197
        },
        {
          "duration": 0.2837495270833301,
          "durationTicks": 227,
          "midi": 75,
          "name": "D#5",
          "ticks": 64080,
          "time": 80.09986649999999,
          "velocity": 0.6299212598425197
        },
        {
          "duration": 0.2837495270833301,
          "durationTicks": 227,
          "midi": 78,
          "name": "F#5",
          "ticks": 64080,
          "time": 80.09986649999999,
          "velocity": 0.6299212598425197
        },
        {
          "duration": 0.5687490520833336,
          "durationTicks": 455,
          "midi": 75,
          "name": "D#5",
          "ticks": 64320,
          "time": 80.39986599999999,
          "velocity": 0.6299212598425197
        },
        {
          "duration": 0.5687490520833336,
          "durationTicks": 455,
          "midi": 78,
          "name": "F#5",
          "ticks": 64320,
          "time": 80.39986599999999,
          "velocity": 0.6299212598425197
        },
        {
          "duration": 0.2837495270833301,
          "durationTicks": 227,
          "midi": 74,
          "name": "D5",
          "ticks": 64800,
          "time": 80.999865,
          "velocity": 0.6299212598425197
        },
        {
          "duration": 0.2837495270833301,
          "durationTicks": 227,
          "midi": 77,
          "name": "F5",
          "ticks": 64800,
          "time": 80.999865,
          "velocity": 0.6299212598425197
        },
        {
          "duration": 0.2837495270833301,
          "durationTicks": 227,
          "midi": 74,
          "name": "D5",
          "ticks": 65040,
          "time": 81.2998645,
          "velocity": 0.6299212598425197
        },
        {
          "duration": 0.2837495270833301,
          "durationTicks": 227,
          "midi": 77,
          "name": "F5",
          "ticks": 65040,
          "time": 81.2998645,
          "velocity": 0.6299212598425197
        },
        {
          "duration": 0.5687490520833194,
          "durationTicks": 455,
          "midi": 74,
          "name": "D5",
          "ticks": 65280,
          "time": 81.599864,
          "velocity": 0.6299212598425197
        },
        {
          "duration": 0.5687490520833194,
          "durationTicks": 455,
          "midi": 77,
          "name": "F5",
          "ticks": 65280,
          "time": 81.599864,
          "velocity": 0.6299212598425197
        },
        {
          "duration": 0.2837495270833301,
          "durationTicks": 227,
          "midi": 73,
          "name": "C#5",
          "ticks": 65760,
          "time": 82.199863,
          "velocity": 0.6299212598425197
        },
        {
          "duration": 0.2837495270833301,
          "durationTicks": 227,
          "midi": 76,
          "name": "E5",
          "ticks": 65760,
          "time": 82.199863,
          "velocity": 0.6299212598425197
        },
        {
          "duration": 0.2837495270833301,
          "durationTicks": 227,
          "midi": 73,
          "name": "C#5",
          "ticks": 66000,
          "time": 82.49986249999999,
          "velocity": 0.6299212598425197
        },
        {
          "duration": 0.2837495270833301,
          "durationTicks": 227,
          "midi": 76,
          "name": "E5",
          "ticks": 66000,
          "time": 82.49986249999999,
          "velocity": 0.6299212598425197
        },
        {
          "duration": 0.5687490520833336,
          "durationTicks": 455,
          "midi": 73,
          "name": "C#5",
          "ticks": 66240,
          "time": 82.79986199999999,
          "velocity": 0.6299212598425197
        },
        {
          "duration": 0.5687490520833336,
          "durationTicks": 455,
          "midi": 76,
          "name": "E5",
          "ticks": 66240,
          "time": 82.79986199999999,
          "velocity": 0.6299212598425197
        },
        {
          "duration": 0.2837495270833301,
          "durationTicks": 227,
          "midi": 77,
          "name": "F5",
          "ticks": 67200,
          "time": 83.99986,
          "velocity": 0.6299212598425197
        },
        {
          "duration": 0.2837495270833301,
          "durationTicks": 227,
          "midi": 67,
          "name": "G4",
          "ticks": 67680,
          "time": 84.599859,
          "velocity": 0.6299212598425197
        },
        {
          "duration": 0.2837495270833301,
          "durationTicks": 227,
          "midi": 79,
          "name": "G5",
          "ticks": 67680,
          "time": 84.599859,
          "velocity": 0.6299212598425197
        },
        {
          "duration": 0.5687490520833336,
          "durationTicks": 455,
          "midi": 65,
          "name": "F4",
          "ticks": 68160,
          "time": 85.19985799999999,
          "velocity": 0.6299212598425197
        },
        {
          "duration": 0.5687490520833336,
          "durationTicks": 455,
          "midi": 77,
          "name": "F5",
          "ticks": 68160,
          "time": 85.19985799999999,
          "velocity": 0.6299212598425197
        },
        {
          "duration": 0.2837495270833301,
          "durationTicks": 227,
          "midi": 70,
          "name": "Bb4",
          "ticks": 69600,
          "time": 86.999855,
          "velocity": 0.6299212598425197
        },
        {
          "duration": 0.2837495270833301,
          "durationTicks": 227,
          "midi": 74,
          "name": "D5",
          "ticks": 69840,
          "time": 87.2998545,
          "velocity": 0.6299212598425197
        },
        {
          "duration": 0.5687490520833336,
          "durationTicks": 455,
          "midi": 70,
          "name": "Bb4",
          "ticks": 70080,
          "time": 87.599854,
          "velocity": 0.6299212598425197
        },
        {
          "duration": 0.5687490520833336,
          "durationTicks": 455,
          "midi": 70,
          "name": "Bb4",
          "ticks": 70560,
          "time": 88.19985299999999,
          "velocity": 0.6299212598425197
        },
        {
          "duration": 0.5687490520833336,
          "durationTicks": 455,
          "midi": 73,
          "name": "C#5",
          "ticks": 71040,
          "time": 88.79985199999999,
          "velocity": 0.6299212598425197
        },
        {
          "duration": 0.5687490520833336,
          "durationTicks": 455,
          "midi": 76,
          "name": "E5",
          "ticks": 71040,
          "time": 88.79985199999999,
          "velocity": 0.6299212598425197
        },
        {
          "duration": 0.5687490520833194,
          "durationTicks": 455,
          "midi": 74,
          "name": "D5",
          "ticks": 71520,
          "time": 89.399851,
          "velocity": 0.6299212598425197
        },
        {
          "duration": 0.5687490520833194,
          "durationTicks": 455,
          "midi": 77,
          "name": "F5",
          "ticks": 71520,
          "time": 89.399851,
          "velocity": 0.6299212598425197
        },
        {
          "duration": 0.2837495270833301,
          "durationTicks": 227,
          "midi": 80,
          "name": "G#5",
          "ticks": 72000,
          "time": 89.99985,
          "velocity": 0.6299212598425197
        },
        {
          "duration": 0.2837495270833301,
          "durationTicks": 227,
          "midi": 80,
          "name": "G#5",
          "ticks": 72240,
          "time": 90.2998495,
          "velocity": 0.6299212598425197
        },
        {
          "duration": 0.5687490520833336,
          "durationTicks": 455,
          "midi": 80,
          "name": "G#5",
          "ticks": 72480,
          "time": 90.59984899999999,
          "velocity": 0.6299212598425197
        },
        {
          "duration": 0.2837495270833301,
          "durationTicks": 227,
          "midi": 81,
          "name": "A5",
          "ticks": 72960,
          "time": 91.19984799999999,
          "velocity": 0.6299212598425197
        },
        {
          "duration": 0.2837495270833301,
          "durationTicks": 227,
          "midi": 84,
          "name": "C6",
          "ticks": 72960,
          "time": 91.19984799999999,
          "velocity": 0.6299212598425197
        },
        {
          "duration": 0.2837495270833301,
          "durationTicks": 227,
          "midi": 81,
          "name": "A5",
          "ticks": 73200,
          "time": 91.49984749999999,
          "velocity": 0.6299212598425197
        },
        {
          "duration": 0.2837495270833301,
          "durationTicks": 227,
          "midi": 84,
          "name": "C6",
          "ticks": 73200,
          "time": 91.49984749999999,
          "velocity": 0.6299212598425197
        },
        {
          "duration": 0.5687490520833336,
          "durationTicks": 455,
          "midi": 81,
          "name": "A5",
          "ticks": 73440,
          "time": 91.79984699999999,
          "velocity": 0.6299212598425197
        },
        {
          "duration": 0.5687490520833336,
          "durationTicks": 455,
          "midi": 84,
          "name": "C6",
          "ticks": 73440,
          "time": 91.79984699999999,
          "velocity": 0.6299212598425197
        },
        {
          "duration": 0.2837495270833301,
          "durationTicks": 227,
          "midi": 80,
          "name": "G#5",
          "ticks": 73920,
          "time": 92.399846,
          "velocity": 0.6299212598425197
        },
        {
          "duration": 0.2837495270833301,
          "durationTicks": 227,
          "midi": 83,
          "name": "B5",
          "ticks": 73920,
          "time": 92.399846,
          "velocity": 0.6299212598425197
        },
        {
          "duration": 0.2837495270833301,
          "durationTicks": 227,
          "midi": 80,
          "name": "G#5",
          "ticks": 74160,
          "time": 92.6998455,
          "velocity": 0.6299212598425197
        },
        {
          "duration": 0.2837495270833301,
          "durationTicks": 227,
          "midi": 83,
          "name": "B5",
          "ticks": 74160,
          "time": 92.6998455,
          "velocity": 0.6299212598425197
        },
        {
          "duration": 0.5687490520833194,
          "durationTicks": 455,
          "midi": 80,
          "name": "G#5",
          "ticks": 74400,
          "time": 92.999845,
          "velocity": 0.6299212598425197
        },
        {
          "duration": 0.5687490520833194,
          "durationTicks": 455,
          "midi": 83,
          "name": "B5",
          "ticks": 74400,
          "time": 92.999845,
          "velocity": 0.6299212598425197
        },
        {
          "duration": 0.2837495270833301,
          "durationTicks": 227,
          "midi": 81,
          "name": "A5",
          "ticks": 74880,
          "time": 93.59984399999999,
          "velocity": 0.6299212598425197
        },
        {
          "duration": 0.2837495270833301,
          "durationTicks": 227,
          "midi": 80,
          "name": "G#5",
          "ticks": 75360,
          "time": 94.19984299999999,
          "velocity": 0.6299212598425197
        },
        {
          "duration": 0.5687490520833194,
          "durationTicks": 455,
          "midi": 81,
          "name": "A5",
          "ticks": 75840,
          "time": 94.799842,
          "velocity": 0.6299212598425197
        },
        {
          "duration": 0.1412497645833355,
          "durationTicks": 113,
          "midi": 69,
          "name": "A4",
          "ticks": 76320,
          "time": 95.399841,
          "velocity": 0.6299212598425197
        },
        {
          "duration": 0.1412497645833497,
          "durationTicks": 113,
          "midi": 67,
          "name": "G4",
          "ticks": 76440,
          "time": 95.54984074999999,
          "velocity": 0.6299212598425197
        },
        {
          "duration": 0.1412497645833355,
          "durationTicks": 113,
          "midi": 65,
          "name": "F4",
          "ticks": 76560,
          "time": 95.6998405,
          "velocity": 0.6299212598425197
        },
        {
          "duration": 0.1412497645833497,
          "durationTicks": 113,
          "midi": 64,
          "name": "E4",
          "ticks": 76680,
          "time": 95.84984024999999,
          "velocity": 0.6299212598425197
        },
        {
          "duration": 0.2837495270833301,
          "durationTicks": 227,
          "midi": 81,
          "name": "A5",
          "ticks": 77280,
          "time": 96.59983899999999,
          "velocity": 0.6299212598425197
        },
        {
          "duration": 0.5687490520833336,
          "durationTicks": 455,
          "midi": 81,
          "name": "A5",
          "ticks": 77760,
          "time": 97.19983799999999,
          "velocity": 0.6299212598425197
        },
        {
          "duration": 0.5687490520833194,
          "durationTicks": 455,
          "midi": 79,
          "name": "G5",
          "ticks": 78240,
          "time": 97.799837,
          "velocity": 0.6299212598425197
        },
        {
          "duration": 0.5687490520833194,
          "durationTicks": 455,
          "midi": 76,
          "name": "E5",
          "ticks": 78720,
          "time": 98.399836,
          "velocity": 0.6299212598425197
        },
        {
          "duration": 0.5687490520833336,
          "durationTicks": 455,
          "midi": 77,
          "name": "F5",
          "ticks": 79200,
          "time": 98.99983499999999,
          "velocity": 0.6299212598425197
        },
        {
          "duration": 0.2837495270833301,
          "durationTicks": 227,
          "midi": 75,
          "name": "D#5",
          "ticks": 79680,
          "time": 99.59983399999999,
          "velocity": 0.6299212598425197
        },
        {
          "duration": 0.2837495270833301,
          "durationTicks": 227,
          "midi": 78,
          "name": "F#5",
          "ticks": 79680,
          "time": 99.59983399999999,
          "velocity": 0.6299212598425197
        },
        {
          "duration": 0.2837495270833301,
          "durationTicks": 227,
          "midi": 75,
          "name": "D#5",
          "ticks": 79920,
          "time": 99.89983349999999,
          "velocity": 0.6299212598425197
        },
        {
          "duration": 0.2837495270833301,
          "durationTicks": 227,
          "midi": 78,
          "name": "F#5",
          "ticks": 79920,
          "time": 99.89983349999999,
          "velocity": 0.6299212598425197
        },
        {
          "duration": 0.5687490520833194,
          "durationTicks": 455,
          "midi": 75,
          "name": "D#5",
          "ticks": 80160,
          "time": 100.199833,
          "velocity": 0.6299212598425197
        },
        {
          "duration": 0.5687490520833194,
          "durationTicks": 455,
          "midi": 78,
          "name": "F#5",
          "ticks": 80160,
          "time": 100.199833,
          "velocity": 0.6299212598425197
        },
        {
          "duration": 0.2837495270833301,
          "durationTicks": 227,
          "midi": 74,
          "name": "D5",
          "ticks": 80640,
          "time": 100.799832,
          "velocity": 0.6299212598425197
        },
        {
          "duration": 0.2837495270833301,
          "durationTicks": 227,
          "midi": 77,
          "name": "F5",
          "ticks": 80640,
          "time": 100.799832,
          "velocity": 0.6299212598425197
        },
        {
          "duration": 0.2837495270833301,
          "durationTicks": 227,
          "midi": 74,
          "name": "D5",
          "ticks": 80880,
          "time": 101.0998315,
          "velocity": 0.6299212598425197
        },
        {
          "duration": 0.2837495270833301,
          "durationTicks": 227,
          "midi": 77,
          "name": "F5",
          "ticks": 80880,
          "time": 101.0998315,
          "velocity": 0.6299212598425197
        },
        {
          "duration": 0.5687490520833336,
          "durationTicks": 455,
          "midi": 74,
          "name": "D5",
          "ticks": 81120,
          "time": 101.39983099999999,
          "velocity": 0.6299212598425197
        },
        {
          "duration": 0.5687490520833336,
          "durationTicks": 455,
          "midi": 77,
          "name": "F5",
          "ticks": 81120,
          "time": 101.39983099999999,
          "velocity": 0.6299212598425197
        },
        {
          "duration": 0.2837495270833301,
          "durationTicks": 227,
          "midi": 73,
          "name": "C#5",
          "ticks": 81600,
          "time": 101.99982999999999,
          "velocity": 0.6299212598425197
        },
        {
          "duration": 0.2837495270833301,
          "durationTicks": 227,
          "midi": 76,
          "name": "E5",
          "ticks": 81600,
          "time": 101.99982999999999,
          "velocity": 0.6299212598425197
        },
        {
          "duration": 0.2837495270833301,
          "durationTicks": 227,
          "midi": 73,
          "name": "C#5",
          "ticks": 81840,
          "time": 102.29982949999999,
          "velocity": 0.6299212598425197
        },
        {
          "duration": 0.2837495270833301,
          "durationTicks": 227,
          "midi": 76,
          "name": "E5",
          "ticks": 81840,
          "time": 102.29982949999999,
          "velocity": 0.6299212598425197
        },
        {
          "duration": 0.5687490520833336,
          "durationTicks": 455,
          "midi": 73,
          "name": "C#5",
          "ticks": 82080,
          "time": 102.59982899999999,
          "velocity": 0.6299212598425197
        },
        {
          "duration": 0.5687490520833336,
          "durationTicks": 455,
          "midi": 76,
          "name": "E5",
          "ticks": 82080,
          "time": 102.59982899999999,
          "velocity": 0.6299212598425197
        },
        {
          "duration": 0.2837495270833301,
          "durationTicks": 227,
          "midi": 77,
          "name": "F5",
          "ticks": 82560,
          "time": 103.199828,
          "velocity": 0.6299212598425197
        },
        {
          "duration": 0.2837495270833301,
          "durationTicks": 227,
          "midi": 79,
          "name": "G5",
          "ticks": 83040,
          "time": 103.799827,
          "velocity": 0.6299212598425197
        },
        {
          "duration": 0.5687490520833336,
          "durationTicks": 455,
          "midi": 77,
          "name": "F5",
          "ticks": 83520,
          "time": 104.39982599999999,
          "velocity": 0.6299212598425197
        },
        {
          "duration": 0.2837495270833301,
          "durationTicks": 227,
          "midi": 74,
          "name": "D5",
          "ticks": 84960,
          "time": 106.199823,
          "velocity": 0.6299212598425197
        },
        {
          "duration": 0.2837495270833301,
          "durationTicks": 227,
          "midi": 80,
          "name": "G#5",
          "ticks": 84960,
          "time": 106.199823,
          "velocity": 0.6299212598425197
        },
        {
          "duration": 0.2837495270833301,
          "durationTicks": 227,
          "midi": 71,
          "name": "B4",
          "ticks": 85200,
          "time": 106.4998225,
          "velocity": 0.6299212598425197
        },
        {
          "duration": 0.5687490520833336,
          "durationTicks": 455,
          "midi": 74,
          "name": "D5",
          "ticks": 85440,
          "time": 106.79982199999999,
          "velocity": 0.6299212598425197
        },
        {
          "duration": 0.5687490520833336,
          "durationTicks": 455,
          "midi": 80,
          "name": "G#5",
          "ticks": 85440,
          "time": 106.79982199999999,
          "velocity": 0.6299212598425197
        },
        {
          "duration": 0.5687490520833336,
          "durationTicks": 455,
          "midi": 73,
          "name": "C#5",
          "ticks": 85920,
          "time": 107.39982099999999,
          "velocity": 0.6299212598425197
        },
        {
          "duration": 0.5687490520833336,
          "durationTicks": 455,
          "midi": 79,
          "name": "G5",
          "ticks": 85920,
          "time": 107.39982099999999,
          "velocity": 0.6299212598425197
        },
        {
          "duration": 0.5687490520833336,
          "durationTicks": 455,
          "midi": 81,
          "name": "A5",
          "ticks": 85920,
          "time": 107.39982099999999,
          "velocity": 0.6299212598425197
        },
        {
          "duration": 0.2837495270833301,
          "durationTicks": 227,
          "midi": 72,
          "name": "C5",
          "ticks": 86880,
          "time": 108.599819,
          "velocity": 0.6299212598425197
        },
        {
          "duration": 0.2837495270833301,
          "durationTicks": 227,
          "midi": 78,
          "name": "F#5",
          "ticks": 86880,
          "time": 108.599819,
          "velocity": 0.6299212598425197
        },
        {
          "duration": 0.2837495270833301,
          "durationTicks": 227,
          "midi": 69,
          "name": "A4",
          "ticks": 87120,
          "time": 108.8998185,
          "velocity": 0.6299212598425197
        },
        {
          "duration": 0.5687490520833194,
          "durationTicks": 455,
          "midi": 72,
          "name": "C5",
          "ticks": 87360,
          "time": 109.199818,
          "velocity": 0.6299212598425197
        },
        {
          "duration": 0.5687490520833194,
          "durationTicks": 455,
          "midi": 78,
          "name": "F#5",
          "ticks": 87360,
          "time": 109.199818,
          "velocity": 0.6299212598425197
        },
        {
          "duration": 0.5687490520833336,
          "durationTicks": 455,
          "midi": 71,
          "name": "B4",
          "ticks": 87840,
          "time": 109.79981699999999,
          "velocity": 0.6299212598425197
        },
        {
          "duration": 0.5687490520833336,
          "durationTicks": 455,
          "midi": 77,
          "name": "F5",
          "ticks": 87840,
          "time": 109.79981699999999,
          "velocity": 0.6299212598425197
        },
        {
          "duration": 0.28374952708334433,
          "durationTicks": 227,
          "midi": 70,
          "name": "Bb4",
          "ticks": 88800,
          "time": 110.99981499999998,
          "velocity": 0.6299212598425197
        },
        {
          "duration": 0.2837495270833301,
          "durationTicks": 227,
          "midi": 67,
          "name": "G4",
          "ticks": 89040,
          "time": 111.2998145,
          "velocity": 0.6299212598425197
        },
        {
          "duration": 0.5687490520833194,
          "durationTicks": 455,
          "midi": 70,
          "name": "Bb4",
          "ticks": 89280,
          "time": 111.599814,
          "velocity": 0.6299212598425197
        },
        {
          "duration": 0.5687490520833194,
          "durationTicks": 455,
          "midi": 69,
          "name": "A4",
          "ticks": 89760,
          "time": 112.19981299999999,
          "velocity": 0.6299212598425197
        },
        {
          "duration": 0.5987490020833377,
          "durationTicks": 479,
          "midi": 69,
          "name": "A4",
          "ticks": 90720,
          "time": 113.39981099999999,
          "velocity": 0.6299212598425197
        },
        {
          "duration": 0.5324991125000196,
          "durationTicks": 426,
          "midi": 73,
          "name": "C#5",
          "ticks": 90772,
          "time": 113.46481089166664,
          "velocity": 0.6299212598425197
        },
        {
          "duration": 0.4649992250000139,
          "durationTicks": 372,
          "midi": 76,
          "name": "E5",
          "ticks": 90826,
          "time": 113.53231077916665,
          "velocity": 0.6299212598425197
        },
        {
          "duration": 0.39874933541666735,
          "durationTicks": 319,
          "midi": 81,
          "name": "A5",
          "ticks": 90879,
          "time": 113.59856066875,
          "velocity": 0.6299212598425197
        },
        {
          "duration": 0.5687490520833194,
          "durationTicks": 455,
          "midi": 74,
          "name": "D5",
          "ticks": 91200,
          "time": 113.99981,
          "velocity": 0.6299212598425197
        },
        {
          "duration": 0.5687490520833194,
          "durationTicks": 455,
          "midi": 77,
          "name": "F5",
          "ticks": 91200,
          "time": 113.99981,
          "velocity": 0.6299212598425197
        },
        {
          "duration": 0.5687490520833194,
          "durationTicks": 455,
          "midi": 81,
          "name": "A5",
          "ticks": 91200,
          "time": 113.99981,
          "velocity": 0.6299212598425197
        }
      ]
    },
    {
      "channel": 2,
      "controlChanges": {},
      "pitchBends": [],
      "instrument": {
        "family": "piano",
        "name": "acoustic grand piano",
        "number": 0
      },
      "name": "Piano\u0000",
      "notes": [
        {
          "duration": 0.5687490520833333,
          "durationTicks": 455,
          "midi": 50,
          "name": "D3",
          "ticks": 0,
          "time": 0,
          "velocity": 0.6299212598425197
        },
        {
          "duration": 0.5687490520833334,
          "durationTicks": 455,
          "midi": 53,
          "name": "F3",
          "ticks": 480,
          "time": 0.599999,
          "velocity": 0.6299212598425197
        },
        {
          "duration": 0.5687490520833334,
          "durationTicks": 455,
          "midi": 57,
          "name": "A3",
          "ticks": 480,
          "time": 0.599999,
          "velocity": 0.6299212598425197
        },
        {
          "duration": 0.5687490520833332,
          "durationTicks": 455,
          "midi": 50,
          "name": "D3",
          "ticks": 960,
          "time": 1.199998,
          "velocity": 0.6299212598425197
        },
        {
          "duration": 0.5687490520833332,
          "durationTicks": 455,
          "midi": 55,
          "name": "G3",
          "ticks": 1440,
          "time": 1.7999969999999998,
          "velocity": 0.6299212598425197
        },
        {
          "duration": 0.5687490520833332,
          "durationTicks": 455,
          "midi": 58,
          "name": "Bb3",
          "ticks": 1440,
          "time": 1.7999969999999998,
          "velocity": 0.6299212598425197
        },
        {
          "duration": 0.5687490520833336,
          "durationTicks": 455,
          "midi": 50,
          "name": "D3",
          "ticks": 1920,
          "time": 2.399996,
          "velocity": 0.6299212598425197
        },
        {
          "duration": 0.5687490520833336,
          "durationTicks": 455,
          "midi": 56,
          "name": "G#3",
          "ticks": 2400,
          "time": 2.9999949999999997,
          "velocity": 0.6299212598425197
        },
        {
          "duration": 0.5687490520833336,
          "durationTicks": 455,
          "midi": 59,
          "name": "B3",
          "ticks": 2400,
          "time": 2.9999949999999997,
          "velocity": 0.6299212598425197
        },
        {
          "duration": 0.5687490520833336,
          "durationTicks": 455,
          "midi": 50,
          "name": "D3",
          "ticks": 2880,
          "time": 3.5999939999999997,
          "velocity": 0.6299212598425197
        },
        {
          "duration": 0.5687490520833336,
          "durationTicks": 455,
          "midi": 58,
          "name": "Bb3",
          "ticks": 3360,
          "time": 4.199992999999999,
          "velocity": 0.6299212598425197
        },
        {
          "duration": 0.5687490520833327,
          "durationTicks": 455,
          "midi": 50,
          "name": "D3",
          "ticks": 3840,
          "time": 4.799992,
          "velocity": 0.6299212598425197
        },
        {
          "duration": 0.5687490520833327,
          "durationTicks": 455,
          "midi": 53,
          "name": "F3",
          "ticks": 4320,
          "time": 5.399991,
          "velocity": 0.6299212598425197
        },
        {
          "duration": 0.5687490520833327,
          "durationTicks": 455,
          "midi": 57,
          "name": "A3",
          "ticks": 4320,
          "time": 5.399991,
          "velocity": 0.6299212598425197
        },
        {
          "duration": 0.5687490520833327,
          "durationTicks": 455,
          "midi": 50,
          "name": "D3",
          "ticks": 4800,
          "time": 5.9999899999999995,
          "velocity": 0.6299212598425197
        },
        {
          "duration": 0.5687490520833336,
          "durationTicks": 455,
          "midi": 55,
          "name": "G3",
          "ticks": 5280,
          "time": 6.599988999999999,
          "velocity": 0.6299212598425197
        },
        {
          "duration": 0.5687490520833336,
          "durationTicks": 455,
          "midi": 58,
          "name": "Bb3",
          "ticks": 5280,
          "time": 6.599988999999999,
          "velocity": 0.6299212598425197
        },
        {
          "duration": 0.5687490520833327,
          "durationTicks": 455,
          "midi": 50,
          "name": "D3",
          "ticks": 5760,
          "time": 7.199987999999999,
          "velocity": 0.6299212598425197
        },
        {
          "duration": 0.5687490520833318,
          "durationTicks": 455,
          "midi": 56,
          "name": "G#3",
          "ticks": 6240,
          "time": 7.799987,
          "velocity": 0.6299212598425197
        },
        {
          "duration": 0.5687490520833318,
          "durationTicks": 455,
          "midi": 59,
          "name": "B3",
          "ticks": 6240,
          "time": 7.799987,
          "velocity": 0.6299212598425197
        },
        {
          "duration": 0.5687490520833336,
          "durationTicks": 455,
          "midi": 50,
          "name": "D3",
          "ticks": 6720,
          "time": 8.399985999999998,
          "velocity": 0.6299212598425197
        },
        {
          "duration": 0.5687490520833336,
          "durationTicks": 455,
          "midi": 58,
          "name": "Bb3",
          "ticks": 7200,
          "time": 8.999984999999999,
          "velocity": 0.6299212598425197
        },
        {
          "duration": 0.5687490520833336,
          "durationTicks": 455,
          "midi": 50,
          "name": "D3",
          "ticks": 7680,
          "time": 9.599984,
          "velocity": 0.6299212598425197
        },
        {
          "duration": 0.5687490520833336,
          "durationTicks": 455,
          "midi": 53,
          "name": "F3",
          "ticks": 8160,
          "time": 10.199983,
          "velocity": 0.6299212598425197
        },
        {
          "duration": 0.5687490520833336,
          "durationTicks": 455,
          "midi": 57,
          "name": "A3",
          "ticks": 8160,
          "time": 10.199983,
          "velocity": 0.6299212598425197
        },
        {
          "duration": 0.5687490520833336,
          "durationTicks": 455,
          "midi": 50,
          "name": "D3",
          "ticks": 8640,
          "time": 10.799982,
          "velocity": 0.6299212598425197
        },
        {
          "duration": 0.5687490520833336,
          "durationTicks": 455,
          "midi": 55,
          "name": "G3",
          "ticks": 9120,
          "time": 11.399980999999999,
          "velocity": 0.6299212598425197
        },
        {
          "duration": 0.5687490520833336,
          "durationTicks": 455,
          "midi": 58,
          "name": "Bb3",
          "ticks": 9120,
          "time": 11.399980999999999,
          "velocity": 0.6299212598425197
        },
        {
          "duration": 0.5687490520833336,
          "durationTicks": 455,
          "midi": 50,
          "name": "D3",
          "ticks": 9600,
          "time": 11.999979999999999,
          "velocity": 0.6299212598425197
        },
        {
          "duration": 0.5687490520833336,
          "durationTicks": 455,
          "midi": 56,
          "name": "G#3",
          "ticks": 10080,
          "time": 12.599979,
          "velocity": 0.6299212598425197
        },
        {
          "duration": 0.5687490520833336,
          "durationTicks": 455,
          "midi": 59,
          "name": "B3",
          "ticks": 10080,
          "time": 12.599979,
          "velocity": 0.6299212598425197
        },
        {
          "duration": 0.5687490520833354,
          "durationTicks": 455,
          "midi": 50,
          "name": "D3",
          "ticks": 10560,
          "time": 13.199977999999998,
          "velocity": 0.6299212598425197
        },
        {
          "duration": 0.5687490520833336,
          "durationTicks": 455,
          "midi": 57,
          "name": "A3",
          "ticks": 11040,
          "time": 13.799976999999998,
          "velocity": 0.6299212598425197
        },
        {
          "duration": 0.5687490520833336,
          "durationTicks": 455,
          "midi": 60,
          "name": "C4",
          "ticks": 11040,
          "time": 13.799976999999998,
          "velocity": 0.6299212598425197
        },
        {
          "duration": 0.5687490520833336,
          "durationTicks": 455,
          "midi": 50,
          "name": "D3",
          "ticks": 11520,
          "time": 14.399975999999999,
          "velocity": 0.6299212598425197
        },
        {
          "duration": 0.5687490520833336,
          "durationTicks": 455,
          "midi": 56,
          "name": "G#3",
          "ticks": 12000,
          "time": 14.999975,
          "velocity": 0.6299212598425197
        },
        {
          "duration": 0.5687490520833336,
          "durationTicks": 455,
          "midi": 59,
          "name": "B3",
          "ticks": 12000,
          "time": 14.999975,
          "velocity": 0.6299212598425197
        },
        {
          "duration": 0.5687490520833336,
          "durationTicks": 455,
          "midi": 50,
          "name": "D3",
          "ticks": 12480,
          "time": 15.599974,
          "velocity": 0.6299212598425197
        },
        {
          "duration": 0.5687490520833336,
          "durationTicks": 455,
          "midi": 55,
          "name": "G3",
          "ticks": 12960,
          "time": 16.199973,
          "velocity": 0.6299212598425197
        },
        {
          "duration": 0.5687490520833336,
          "durationTicks": 455,
          "midi": 58,
          "name": "Bb3",
          "ticks": 12960,
          "time": 16.199973,
          "velocity": 0.6299212598425197
        },
        {
          "duration": 0.5687490520833371,
          "durationTicks": 455,
          "midi": 50,
          "name": "D3",
          "ticks": 13440,
          "time": 16.799971999999997,
          "velocity": 0.6299212598425197
        },
        {
          "duration": 0.5687490520833336,
          "durationTicks": 455,
          "midi": 62,
          "name": "D4",
          "ticks": 13920,
          "time": 17.399970999999997,
          "velocity": 0.6299212598425197
        },
        {
          "duration": 0.5687490520833336,
          "durationTicks": 455,
          "midi": 70,
          "name": "Bb4",
          "ticks": 13920,
          "time": 17.399970999999997,
          "velocity": 0.6299212598425197
        },
        {
          "duration": 0.5687490520833336,
          "durationTicks": 455,
          "midi": 62,
          "name": "D4",
          "ticks": 14400,
          "time": 17.999969999999998,
          "velocity": 0.6299212598425197
        },
        {
          "duration": 0.5687490520833336,
          "durationTicks": 455,
          "midi": 69,
          "name": "A4",
          "ticks": 14400,
          "time": 17.999969999999998,
          "velocity": 0.6299212598425197
        },
        {
          "duration": 0.14124976458333194,
          "durationTicks": 113,
          "midi": 62,
          "name": "D4",
          "ticks": 14880,
          "time": 18.599968999999998,
          "velocity": 0.6299212598425197
        },
        {
          "duration": 0.1412497645833355,
          "durationTicks": 113,
          "midi": 60,
          "name": "C4",
          "ticks": 15000,
          "time": 18.749968749999997,
          "velocity": 0.6299212598425197
        },
        {
          "duration": 0.14124976458333194,
          "durationTicks": 113,
          "midi": 58,
          "name": "Bb3",
          "ticks": 15120,
          "time": 18.8999685,
          "velocity": 0.6299212598425197
        },
        {
          "duration": 0.14124976458333194,
          "durationTicks": 113,
          "midi": 57,
          "name": "A3",
          "ticks": 15240,
          "time": 19.04996825,
          "velocity": 0.6299212598425197
        },
        {
          "duration": 0.5687490520833336,
          "durationTicks": 455,
          "midi": 56,
          "name": "G#3",
          "ticks": 15360,
          "time": 19.199968,
          "velocity": 0.6299212598425197
        },
        {
          "duration": 0.56874905208333,
          "durationTicks": 455,
          "midi": 55,
          "name": "G3",
          "ticks": 16320,
          "time": 20.399966,
          "velocity": 0.6299212598425197
        },
        {
          "duration": 0.56874905208333,
          "durationTicks": 455,
          "midi": 64,
          "name": "E4",
          "ticks": 16800,
          "time": 20.999965,
          "velocity": 0.6299212598425197
        },
        {
          "duration": 0.56874905208333,
          "durationTicks": 455,
          "midi": 53,
          "name": "F3",
          "ticks": 17280,
          "time": 21.599964,
          "velocity": 0.6299212598425197
        },
        {
          "duration": 0.5687490520833336,
          "durationTicks": 455,
          "midi": 57,
          "name": "A3",
          "ticks": 17760,
          "time": 22.199962999999997,
          "velocity": 0.6299212598425197
        },
        {
          "duration": 0.5687490520833336,
          "durationTicks": 455,
          "midi": 50,
          "name": "D3",
          "ticks": 18240,
          "time": 22.799961999999997,
          "velocity": 0.6299212598425197
        },
        {
          "duration": 0.5687490520833336,
          "durationTicks": 455,
          "midi": 62,
          "name": "D4",
          "ticks": 18720,
          "time": 23.399960999999998,
          "velocity": 0.6299212598425197
        },
        {
          "duration": 0.5687490520833336,
          "durationTicks": 455,
          "midi": 52,
          "name": "E3",
          "ticks": 19200,
          "time": 23.999959999999998,
          "velocity": 0.6299212598425197
        },
        {
          "duration": 0.56874905208333,
          "durationTicks": 455,
          "midi": 64,
          "name": "E4",
          "ticks": 19680,
          "time": 24.599959,
          "velocity": 0.6299212598425197
        },
        {
          "duration": 0.56874905208333,
          "durationTicks": 455,
          "midi": 52,
          "name": "E3",
          "ticks": 20160,
          "time": 25.199958,
          "velocity": 0.6299212598425197
        },
        {
          "duration": 0.56874905208333,
          "durationTicks": 455,
          "midi": 56,
          "name": "G#3",
          "ticks": 20640,
          "time": 25.799957,
          "velocity": 0.6299212598425197
        },
        {
          "duration": 0.56874905208333,
          "durationTicks": 455,
          "midi": 59,
          "name": "B3",
          "ticks": 20640,
          "time": 25.799957,
          "velocity": 0.6299212598425197
        },
        {
          "duration": 0.5687490520833336,
          "durationTicks": 455,
          "midi": 57,
          "name": "A3",
          "ticks": 21120,
          "time": 26.399955999999996,
          "velocity": 0.6299212598425197
        },
        {
          "duration": 0.5687490520833336,
          "durationTicks": 455,
          "midi": 61,
          "name": "C#4",
          "ticks": 21120,
          "time": 26.399955999999996,
          "velocity": 0.6299212598425197
        },
        {
          "duration": 0.5687490520833336,
          "durationTicks": 455,
          "midi": 58,
          "name": "Bb3",
          "ticks": 21600,
          "time": 26.999954999999996,
          "velocity": 0.6299212598425197
        },
        {
          "duration": 0.5687490520833336,
          "durationTicks": 455,
          "midi": 57,
          "name": "A3",
          "ticks": 22080,
          "time": 27.599953999999997,
          "velocity": 0.6299212598425197
        },
        {
          "duration": 0.5687490520833336,
          "durationTicks": 455,
          "midi": 61,
          "name": "C#4",
          "ticks": 22080,
          "time": 27.599953999999997,
          "velocity": 0.6299212598425197
        },
        {
          "duration": 0.14124976458333194,
          "durationTicks": 113,
          "midi": 57,
          "name": "A3",
          "ticks": 22560,
          "time": 28.199952999999997,
          "velocity": 0.6299212598425197
        },
        {
          "duration": 0.1412497645833355,
          "durationTicks": 113,
          "midi": 55,
          "name": "G3",
          "ticks": 22680,
          "time": 28.349952749999996,
          "velocity": 0.6299212598425197
        },
        {
          "duration": 0.14124976458333194,
          "durationTicks": 113,
          "midi": 53,
          "name": "F3",
          "ticks": 22800,
          "time": 28.4999525,
          "velocity": 0.6299212598425197
        },
        {
          "duration": 0.14124976458333194,
          "durationTicks": 113,
          "midi": 52,
          "name": "E3",
          "ticks": 22920,
          "time": 28.64995225,
          "velocity": 0.6299212598425197
        },
        {
          "duration": 0.5687490520833336,
          "durationTicks": 455,
          "midi": 50,
          "name": "D3",
          "ticks": 23040,
          "time": 28.799951999999998,
          "velocity": 0.6299212598425197
        },
        {
          "duration": 0.56874905208333,
          "durationTicks": 455,
          "midi": 53,
          "name": "F3",
          "ticks": 23520,
          "time": 29.399950999999998,
          "velocity": 0.6299212598425197
        },
        {
          "duration": 0.56874905208333,
          "durationTicks": 455,
          "midi": 57,
          "name": "A3",
          "ticks": 23520,
          "time": 29.399950999999998,
          "velocity": 0.6299212598425197
        },
        {
          "duration": 0.56874905208333,
          "durationTicks": 455,
          "midi": 50,
          "name": "D3",
          "ticks": 24000,
          "time": 29.99995,
          "velocity": 0.6299212598425197
        },
        {
          "duration": 0.56874905208333,
          "durationTicks": 455,
          "midi": 55,
          "name": "G3",
          "ticks": 24480,
          "time": 30.599949,
          "velocity": 0.6299212598425197
        },
        {
          "duration": 0.56874905208333,
          "durationTicks": 455,
          "midi": 58,
          "name": "Bb3",
          "ticks": 24480,
          "time": 30.599949,
          "velocity": 0.6299212598425197
        },
        {
          "duration": 0.56874905208333,
          "durationTicks": 455,
          "midi": 50,
          "name": "D3",
          "ticks": 24960,
          "time": 31.199948,
          "velocity": 0.6299212598425197
        },
        {
          "duration": 0.5687490520833336,
          "durationTicks": 455,
          "midi": 56,
          "name": "G#3",
          "ticks": 25440,
          "time": 31.799946999999996,
          "velocity": 0.6299212598425197
        },
        {
          "duration": 0.5687490520833336,
          "durationTicks": 455,
          "midi": 59,
          "name": "B3",
          "ticks": 25440,
          "time": 31.799946999999996,
          "velocity": 0.6299212598425197
        },
        {
          "duration": 0.5687490520833265,
          "durationTicks": 455,
          "midi": 50,
          "name": "D3",
          "ticks": 25920,
          "time": 32.399946,
          "velocity": 0.6299212598425197
        },
        {
          "duration": 0.5687490520833336,
          "durationTicks": 455,
          "midi": 57,
          "name": "A3",
          "ticks": 26400,
          "time": 32.999945,
          "velocity": 0.6299212598425197
        },
        {
          "duration": 0.5687490520833336,
          "durationTicks": 455,
          "midi": 60,
          "name": "C4",
          "ticks": 26400,
          "time": 32.999945,
          "velocity": 0.6299212598425197
        },
        {
          "duration": 0.5687490520833336,
          "durationTicks": 455,
          "midi": 50,
          "name": "D3",
          "ticks": 26880,
          "time": 33.599943999999994,
          "velocity": 0.6299212598425197
        },
        {
          "duration": 0.5687490520833336,
          "durationTicks": 455,
          "midi": 56,
          "name": "G#3",
          "ticks": 27360,
          "time": 34.199943,
          "velocity": 0.6299212598425197
        },
        {
          "duration": 0.5687490520833336,
          "durationTicks": 455,
          "midi": 59,
          "name": "B3",
          "ticks": 27360,
          "time": 34.199943,
          "velocity": 0.6299212598425197
        },
        {
          "duration": 0.5687490520833336,
          "durationTicks": 455,
          "midi": 50,
          "name": "D3",
          "ticks": 27840,
          "time": 34.799941999999994,
          "velocity": 0.6299212598425197
        },
        {
          "duration": 0.5687490520833336,
          "durationTicks": 455,
          "midi": 55,
          "name": "G3",
          "ticks": 28320,
          "time": 35.399941,
          "velocity": 0.6299212598425197
        },
        {
          "duration": 0.5687490520833336,
          "durationTicks": 455,
          "midi": 58,
          "name": "Bb3",
          "ticks": 28320,
          "time": 35.399941,
          "velocity": 0.6299212598425197
        },
        {
          "duration": 0.5687490520833336,
          "durationTicks": 455,
          "midi": 50,
          "name": "D3",
          "ticks": 28800,
          "time": 35.999939999999995,
          "velocity": 0.6299212598425197
        },
        {
          "duration": 0.5687490520833265,
          "durationTicks": 455,
          "midi": 62,
          "name": "D4",
          "ticks": 29280,
          "time": 36.599939,
          "velocity": 0.6299212598425197
        },
        {
          "duration": 0.5687490520833336,
          "durationTicks": 455,
          "midi": 62,
          "name": "D4",
          "ticks": 29760,
          "time": 37.199937999999996,
          "velocity": 0.6299212598425197
        },
        {
          "duration": 0.14124976458332839,
          "durationTicks": 113,
          "midi": 53,
          "name": "F3",
          "ticks": 30240,
          "time": 37.799937,
          "velocity": 0.6299212598425197
        },
        {
          "duration": 0.14124976458332839,
          "durationTicks": 113,
          "midi": 52,
          "name": "E3",
          "ticks": 30360,
          "time": 37.94993675,
          "velocity": 0.6299212598425197
        },
        {
          "duration": 0.14124976458332839,
          "durationTicks": 113,
          "midi": 50,
          "name": "D3",
          "ticks": 30480,
          "time": 38.0999365,
          "velocity": 0.6299212598425197
        },
        {
          "duration": 0.1412497645833355,
          "durationTicks": 113,
          "midi": 48,
          "name": "C3",
          "ticks": 30600,
          "time": 38.24993625,
          "velocity": 0.6299212598425197
        },
        {
          "duration": 0.5687490520833336,
          "durationTicks": 455,
          "midi": 47,
          "name": "B2",
          "ticks": 30720,
          "time": 38.399936,
          "velocity": 0.6299212598425197
        },
        {
          "duration": 1.1387481020833334,
          "durationTicks": 911,
          "midi": 64,
          "name": "E4",
          "ticks": 31200,
          "time": 38.999934999999994,
          "velocity": 0.6299212598425197
        },
        {
          "duration": 0.5687490520833407,
          "durationTicks": 455,
          "midi": 57,
          "name": "A3",
          "ticks": 32160,
          "time": 40.199932999999994,
          "velocity": 0.6299212598425197
        },
        {
          "duration": 0.5687490520833407,
          "durationTicks": 455,
          "midi": 61,
          "name": "C#4",
          "ticks": 32160,
          "time": 40.199932999999994,
          "velocity": 0.6299212598425197
        },
        {
          "duration": 0.5687490520833336,
          "durationTicks": 455,
          "midi": 50,
          "name": "D3",
          "ticks": 32640,
          "time": 40.799932,
          "velocity": 0.6299212598425197
        },
        {
          "duration": 1.1387481020833334,
          "durationTicks": 911,
          "midi": 62,
          "name": "D4",
          "ticks": 33120,
          "time": 41.399930999999995,
          "velocity": 0.6299212598425197
        },
        {
          "duration": 0.5687490520833336,
          "durationTicks": 455,
          "midi": 55,
          "name": "G3",
          "ticks": 34080,
          "time": 42.599928999999996,
          "velocity": 0.6299212598425197
        },
        {
          "duration": 0.5687490520833336,
          "durationTicks": 455,
          "midi": 59,
          "name": "B3",
          "ticks": 34080,
          "time": 42.599928999999996,
          "velocity": 0.6299212598425197
        },
        {
          "duration": 0.5687490520833336,
          "durationTicks": 455,
          "midi": 48,
          "name": "C3",
          "ticks": 34560,
          "time": 43.199928,
          "velocity": 0.6299212598425197
        },
        {
          "duration": 1.1387481020833263,
          "durationTicks": 911,
          "midi": 60,
          "name": "C4",
          "ticks": 35040,
          "time": 43.799927,
          "velocity": 0.6299212598425197
        },
        {
          "duration": 0.5687490520833336,
          "durationTicks": 455,
          "midi": 53,
          "name": "F3",
          "ticks": 36000,
          "time": 44.999925,
          "velocity": 0.6299212598425197
        },
        {
          "duration": 0.5687490520833336,
          "durationTicks": 455,
          "midi": 57,
          "name": "A3",
          "ticks": 36000,
          "time": 44.999925,
          "velocity": 0.6299212598425197
        },
        {
          "duration": 0.5687490520833407,
          "durationTicks": 455,
          "midi": 57,
          "name": "A3",
          "ticks": 36480,
          "time": 45.599923999999994,
          "velocity": 0.6299212598425197
        },
        {
          "duration": 0.5687490520833336,
          "durationTicks": 455,
          "midi": 52,
          "name": "E3",
          "ticks": 36960,
          "time": 46.199923,
          "velocity": 0.6299212598425197
        },
        {
          "duration": 0.5687490520833336,
          "durationTicks": 455,
          "midi": 55,
          "name": "G3",
          "ticks": 36960,
          "time": 46.199923,
          "velocity": 0.6299212598425197
        },
        {
          "duration": 0.5687490520833336,
          "durationTicks": 455,
          "midi": 61,
          "name": "C#4",
          "ticks": 36960,
          "time": 46.199923,
          "velocity": 0.6299212598425197
        },
        {
          "duration": 0.5687490520833336,
          "durationTicks": 455,
          "midi": 50,
          "name": "D3",
          "ticks": 37440,
          "time": 46.799921999999995,
          "velocity": 0.6299212598425197
        },
        {
          "duration": 0.5687490520833336,
          "durationTicks": 455,
          "midi": 53,
          "name": "F3",
          "ticks": 37440,
          "time": 46.799921999999995,
          "velocity": 0.6299212598425197
        },
        {
          "duration": 0.5687490520833336,
          "durationTicks": 455,
          "midi": 57,
          "name": "A3",
          "ticks": 37440,
          "time": 46.799921999999995,
          "velocity": 0.6299212598425197
        },
        {
          "duration": 0.5987490020833306,
          "durationTicks": 479,
          "midi": 45,
          "name": "A2",
          "ticks": 37920,
          "time": 47.399921,
          "velocity": 0.6299212598425197
        },
        {
          "duration": 0.5987490020833377,
          "durationTicks": 479,
          "midi": 45,
          "name": "A2",
          "ticks": 38400,
          "time": 47.999919999999996,
          "velocity": 0.6299212598425197
        },
        {
          "duration": 0.5987490020833377,
          "durationTicks": 479,
          "midi": 50,
          "name": "D3",
          "ticks": 38400,
          "time": 47.999919999999996,
          "velocity": 0.6299212598425197
        },
        {
          "duration": 0.5987490020833377,
          "durationTicks": 479,
          "midi": 45,
          "name": "A2",
          "ticks": 38880,
          "time": 48.59991899999999,
          "velocity": 0.6299212598425197
        },
        {
          "duration": 0.5987490020833377,
          "durationTicks": 479,
          "midi": 52,
          "name": "E3",
          "ticks": 38880,
          "time": 48.59991899999999,
          "velocity": 0.6299212598425197
        },
        {
          "duration": 2.848745252083333,
          "durationTicks": 2279,
          "midi": 45,
          "name": "A2",
          "ticks": 39360,
          "time": 49.199918,
          "velocity": 0.6299212598425197
        },
        {
          "duration": 0.5687490520833336,
          "durationTicks": 455,
          "midi": 53,
          "name": "F3",
          "ticks": 39360,
          "time": 49.199918,
          "velocity": 0.6299212598425197
        },
        {
          "duration": 0.5687490520833407,
          "durationTicks": 455,
          "midi": 55,
          "name": "G3",
          "ticks": 39840,
          "time": 49.79991699999999,
          "velocity": 0.6299212598425197
        },
        {
          "duration": 0.5687490520833336,
          "durationTicks": 455,
          "midi": 53,
          "name": "F3",
          "ticks": 40320,
          "time": 50.399916,
          "velocity": 0.6299212598425197
        },
        {
          "duration": 0.5687490520833407,
          "durationTicks": 455,
          "midi": 53,
          "name": "F3",
          "ticks": 40800,
          "time": 50.999914999999994,
          "velocity": 0.6299212598425197
        },
        {
          "duration": 0.5687490520833336,
          "durationTicks": 455,
          "midi": 52,
          "name": "E3",
          "ticks": 41280,
          "time": 51.599914,
          "velocity": 0.6299212598425197
        },
        {
          "duration": 0.5687490520833336,
          "durationTicks": 455,
          "midi": 45,
          "name": "A2",
          "ticks": 41760,
          "time": 52.199912999999995,
          "velocity": 0.6299212598425197
        },
        {
          "duration": 0.5687490520833336,
          "durationTicks": 455,
          "midi": 49,
          "name": "C#3",
          "ticks": 41760,
          "time": 52.199912999999995,
          "velocity": 0.6299212598425197
        },
        {
          "duration": 1.7087471520833333,
          "durationTicks": 1367,
          "midi": 50,
          "name": "D3",
          "ticks": 42240,
          "time": 52.79991199999999,
          "velocity": 0.6299212598425197
        },
        {
          "duration": 0.5687490520833336,
          "durationTicks": 455,
          "midi": 43,
          "name": "G2",
          "ticks": 43680,
          "time": 54.599909,
          "velocity": 0.6299212598425197
        },
        {
          "duration": 0.5687490520833336,
          "durationTicks": 455,
          "midi": 47,
          "name": "B2",
          "ticks": 43680,
          "time": 54.599909,
          "velocity": 0.6299212598425197
        },
        {
          "duration": 1.7087471520833333,
          "durationTicks": 1367,
          "midi": 48,
          "name": "C3",
          "ticks": 44160,
          "time": 55.19990799999999,
          "velocity": 0.6299212598425197
        },
        {
          "duration": 0.5987490020833306,
          "durationTicks": 479,
          "midi": 45,
          "name": "A2",
          "ticks": 45600,
          "time": 56.999905,
          "velocity": 0.6299212598425197
        },
        {
          "duration": 0.5987490020833377,
          "durationTicks": 479,
          "midi": 45,
          "name": "A2",
          "ticks": 46080,
          "time": 57.599903999999995,
          "velocity": 0.6299212598425197
        },
        {
          "duration": 0.5987490020833377,
          "durationTicks": 479,
          "midi": 50,
          "name": "D3",
          "ticks": 46080,
          "time": 57.599903999999995,
          "velocity": 0.6299212598425197
        },
        {
          "duration": 0.5987490020833377,
          "durationTicks": 479,
          "midi": 45,
          "name": "A2",
          "ticks": 46560,
          "time": 58.19990299999999,
          "velocity": 0.6299212598425197
        },
        {
          "duration": 0.5987490020833377,
          "durationTicks": 479,
          "midi": 52,
          "name": "E3",
          "ticks": 46560,
          "time": 58.19990299999999,
          "velocity": 0.6299212598425197
        },
        {
          "duration": 1.7387471020833303,
          "durationTicks": 1391,
          "midi": 45,
          "name": "A2",
          "ticks": 47040,
          "time": 58.799901999999996,
          "velocity": 0.6299212598425197
        },
        {
          "duration": 0.5687490520833336,
          "durationTicks": 455,
          "midi": 53,
          "name": "F3",
          "ticks": 47040,
          "time": 58.799901999999996,
          "velocity": 0.6299212598425197
        },
        {
          "duration": 0.5687490520833407,
          "durationTicks": 455,
          "midi": 55,
          "name": "G3",
          "ticks": 47520,
          "time": 59.39990099999999,
          "velocity": 0.6299212598425197
        },
        {
          "duration": 0.5987490020833306,
          "durationTicks": 479,
          "midi": 53,
          "name": "F3",
          "ticks": 48000,
          "time": 59.9999,
          "velocity": 0.6299212598425197
        },
        {
          "duration": 0.5987490020833377,
          "durationTicks": 479,
          "midi": 45,
          "name": "A2",
          "ticks": 48480,
          "time": 60.59989899999999,
          "velocity": 0.6299212598425197
        },
        {
          "duration": 0.5987490020833377,
          "durationTicks": 479,
          "midi": 53,
          "name": "F3",
          "ticks": 48480,
          "time": 60.59989899999999,
          "velocity": 0.6299212598425197
        },
        {
          "duration": 0.5687490520833336,
          "durationTicks": 455,
          "midi": 45,
          "name": "A2",
          "ticks": 48960,
          "time": 61.199898,
          "velocity": 0.6299212598425197
        },
        {
          "duration": 0.5687490520833336,
          "durationTicks": 455,
          "midi": 52,
          "name": "E3",
          "ticks": 48960,
          "time": 61.199898,
          "velocity": 0.6299212598425197
        },
        {
          "duration": 0.5687490520833336,
          "durationTicks": 455,
          "midi": 45,
          "name": "A2",
          "ticks": 49440,
          "time": 61.799896999999994,
          "velocity": 0.6299212598425197
        },
        {
          "duration": 0.5687490520833336,
          "durationTicks": 455,
          "midi": 49,
          "name": "C#3",
          "ticks": 49440,
          "time": 61.799896999999994,
          "velocity": 0.6299212598425197
        },
        {
          "duration": 1.7087471520833333,
          "durationTicks": 1367,
          "midi": 50,
          "name": "D3",
          "ticks": 49920,
          "time": 62.399896,
          "velocity": 0.6299212598425197
        },
        {
          "duration": 0.5687490520833478,
          "durationTicks": 455,
          "midi": 43,
          "name": "G2",
          "ticks": 51360,
          "time": 64.19989299999999,
          "velocity": 0.6299212598425197
        },
        {
          "duration": 0.5687490520833478,
          "durationTicks": 455,
          "midi": 47,
          "name": "B2",
          "ticks": 51360,
          "time": 64.19989299999999,
          "velocity": 0.6299212598425197
        },
        {
          "duration": 1.708747152083319,
          "durationTicks": 1367,
          "midi": 48,
          "name": "C3",
          "ticks": 51840,
          "time": 64.799892,
          "velocity": 0.6299212598425197
        },
        {
          "duration": 0.5987490020833377,
          "durationTicks": 479,
          "midi": 45,
          "name": "A2",
          "ticks": 53280,
          "time": 66.59988899999999,
          "velocity": 0.6299212598425197
        },
        {
          "duration": 0.5987490020833377,
          "durationTicks": 479,
          "midi": 45,
          "name": "A2",
          "ticks": 53760,
          "time": 67.19988799999999,
          "velocity": 0.6299212598425197
        },
        {
          "duration": 0.5987490020833377,
          "durationTicks": 479,
          "midi": 50,
          "name": "D3",
          "ticks": 53760,
          "time": 67.19988799999999,
          "velocity": 0.6299212598425197
        },
        {
          "duration": 0.5987490020833235,
          "durationTicks": 479,
          "midi": 45,
          "name": "A2",
          "ticks": 54240,
          "time": 67.799887,
          "velocity": 0.6299212598425197
        },
        {
          "duration": 0.5987490020833235,
          "durationTicks": 479,
          "midi": 52,
          "name": "E3",
          "ticks": 54240,
          "time": 67.799887,
          "velocity": 0.6299212598425197
        },
        {
          "duration": 0.5687490520833336,
          "durationTicks": 455,
          "midi": 45,
          "name": "A2",
          "ticks": 54720,
          "time": 68.399886,
          "velocity": 0.6299212598425197
        },
        {
          "duration": 0.5687490520833336,
          "durationTicks": 455,
          "midi": 53,
          "name": "F3",
          "ticks": 54720,
          "time": 68.399886,
          "velocity": 0.6299212598425197
        },
        {
          "duration": 1.1687480520833446,
          "durationTicks": 935,
          "midi": 45,
          "name": "A2",
          "ticks": 55200,
          "time": 68.99988499999999,
          "velocity": 0.6299212598425197
        },
        {
          "duration": 0.5687490520833336,
          "durationTicks": 455,
          "midi": 57,
          "name": "A3",
          "ticks": 55200,
          "time": 68.99988499999999,
          "velocity": 0.6299212598425197
        },
        {
          "duration": 0.5987490020833377,
          "durationTicks": 479,
          "midi": 52,
          "name": "E3",
          "ticks": 55680,
          "time": 69.59988399999999,
          "velocity": 0.6299212598425197
        },
        {
          "duration": 1.1387481020833263,
          "durationTicks": 911,
          "midi": 45,
          "name": "A2",
          "ticks": 56160,
          "time": 70.199883,
          "velocity": 0.6299212598425197
        },
        {
          "duration": 0.5687490520833336,
          "durationTicks": 455,
          "midi": 53,
          "name": "F3",
          "ticks": 56160,
          "time": 70.199883,
          "velocity": 0.6299212598425197
        },
        {
          "duration": 0.5687490520833336,
          "durationTicks": 455,
          "midi": 55,
          "name": "G3",
          "ticks": 56640,
          "time": 70.799882,
          "velocity": 0.6299212598425197
        },
        {
          "duration": 2.848745252083333,
          "durationTicks": 2279,
          "midi": 45,
          "name": "A2",
          "ticks": 57120,
          "time": 71.399881,
          "velocity": 0.6299212598425197
        },
        {
          "duration": 1.1387481020833263,
          "durationTicks": 911,
          "midi": 57,
          "name": "A3",
          "ticks": 57120,
          "time": 71.399881,
          "velocity": 0.6299212598425197
        },
        {
          "duration": 0.5687490520833336,
          "durationTicks": 455,
          "midi": 53,
          "name": "F3",
          "ticks": 57600,
          "time": 71.99987999999999,
          "velocity": 0.6299212598425197
        },
        {
          "duration": 0.5687490520833478,
          "durationTicks": 455,
          "midi": 55,
          "name": "G3",
          "ticks": 58080,
          "time": 72.59987899999999,
          "velocity": 0.6299212598425197
        },
        {
          "duration": 0.5687490520833336,
          "durationTicks": 455,
          "midi": 57,
          "name": "A3",
          "ticks": 58560,
          "time": 73.199878,
          "velocity": 0.6299212598425197
        },
        {
          "duration": 0.5687490520833336,
          "durationTicks": 455,
          "midi": 57,
          "name": "A3",
          "ticks": 59040,
          "time": 73.799877,
          "velocity": 0.6299212598425197
        },
        {
          "duration": 0.5687490520833336,
          "durationTicks": 455,
          "midi": 57,
          "name": "A3",
          "ticks": 59520,
          "time": 74.39987599999999,
          "velocity": 0.6299212598425197
        },
        {
          "duration": 0.5687490520833336,
          "durationTicks": 455,
          "midi": 62,
          "name": "D4",
          "ticks": 59520,
          "time": 74.39987599999999,
          "velocity": 0.6299212598425197
        },
        {
          "duration": 0.5687490520833478,
          "durationTicks": 455,
          "midi": 57,
          "name": "A3",
          "ticks": 60000,
          "time": 74.99987499999999,
          "velocity": 0.6299212598425197
        },
        {
          "duration": 0.5687490520833478,
          "durationTicks": 455,
          "midi": 62,
          "name": "D4",
          "ticks": 60000,
          "time": 74.99987499999999,
          "velocity": 0.6299212598425197
        },
        {
          "duration": 0.5687490520833336,
          "durationTicks": 455,
          "midi": 57,
          "name": "A3",
          "ticks": 60480,
          "time": 75.599874,
          "velocity": 0.6299212598425197
        },
        {
          "duration": 0.5687490520833336,
          "durationTicks": 455,
          "midi": 64,
          "name": "E4",
          "ticks": 60480,
          "time": 75.599874,
          "velocity": 0.6299212598425197
        },
        {
          "duration": 0.1412497645833355,
          "durationTicks": 113,
          "midi": 57,
          "name": "A3",
          "ticks": 60960,
          "time": 76.199873,
          "velocity": 0.6299212598425197
        },
        {
          "duration": 0.1412497645833355,
          "durationTicks": 113,
          "midi": 55,
          "name": "G3",
          "ticks": 61080,
          "time": 76.34987274999999,
          "velocity": 0.6299212598425197
        },
        {
          "duration": 0.1412497645833355,
          "durationTicks": 113,
          "midi": 53,
          "name": "F3",
          "ticks": 61200,
          "time": 76.4998725,
          "velocity": 0.6299212598425197
        },
        {
          "duration": 0.1412497645833355,
          "durationTicks": 113,
          "midi": 52,
          "name": "E3",
          "ticks": 61320,
          "time": 76.64987224999999,
          "velocity": 0.6299212598425197
        },
        {
          "duration": 0.5687490520833336,
          "durationTicks": 455,
          "midi": 53,
          "name": "F3",
          "ticks": 61440,
          "time": 76.799872,
          "velocity": 0.6299212598425197
        },
        {
          "duration": 0.5687490520833336,
          "durationTicks": 455,
          "midi": 57,
          "name": "A3",
          "ticks": 61440,
          "time": 76.799872,
          "velocity": 0.6299212598425197
        },
        {
          "duration": 0.5687490520833336,
          "durationTicks": 455,
          "midi": 50,
          "name": "D3",
          "ticks": 61920,
          "time": 77.39987099999999,
          "velocity": 0.6299212598425197
        },
        {
          "duration": 0.5687490520833336,
          "durationTicks": 455,
          "midi": 55,
          "name": "G3",
          "ticks": 62400,
          "time": 77.99986999999999,
          "velocity": 0.6299212598425197
        },
        {
          "duration": 0.5687490520833336,
          "durationTicks": 455,
          "midi": 58,
          "name": "Bb3",
          "ticks": 62400,
          "time": 77.99986999999999,
          "velocity": 0.6299212598425197
        },
        {
          "duration": 0.5687490520833194,
          "durationTicks": 455,
          "midi": 50,
          "name": "D3",
          "ticks": 62880,
          "time": 78.599869,
          "velocity": 0.6299212598425197
        },
        {
          "duration": 0.5687490520833194,
          "durationTicks": 455,
          "midi": 56,
          "name": "G#3",
          "ticks": 63360,
          "time": 79.199868,
          "velocity": 0.6299212598425197
        },
        {
          "duration": 0.5687490520833194,
          "durationTicks": 455,
          "midi": 59,
          "name": "B3",
          "ticks": 63360,
          "time": 79.199868,
          "velocity": 0.6299212598425197
        },
        {
          "duration": 0.5687490520833336,
          "durationTicks": 455,
          "midi": 50,
          "name": "D3",
          "ticks": 63840,
          "time": 79.79986699999999,
          "velocity": 0.6299212598425197
        },
        {
          "duration": 0.5687490520833336,
          "durationTicks": 455,
          "midi": 53,
          "name": "F3",
          "ticks": 64320,
          "time": 80.39986599999999,
          "velocity": 0.6299212598425197
        },
        {
          "duration": 0.5687490520833194,
          "durationTicks": 455,
          "midi": 50,
          "name": "D3",
          "ticks": 64800,
          "time": 80.999865,
          "velocity": 0.6299212598425197
        },
        {
          "duration": 0.5687490520833194,
          "durationTicks": 455,
          "midi": 56,
          "name": "G#3",
          "ticks": 65280,
          "time": 81.599864,
          "velocity": 0.6299212598425197
        },
        {
          "duration": 0.5687490520833194,
          "durationTicks": 455,
          "midi": 59,
          "name": "B3",
          "ticks": 65280,
          "time": 81.599864,
          "velocity": 0.6299212598425197
        },
        {
          "duration": 0.5687490520833336,
          "durationTicks": 455,
          "midi": 50,
          "name": "D3",
          "ticks": 65760,
          "time": 82.199863,
          "velocity": 0.6299212598425197
        },
        {
          "duration": 0.5687490520833336,
          "durationTicks": 455,
          "midi": 55,
          "name": "G3",
          "ticks": 66240,
          "time": 82.79986199999999,
          "velocity": 0.6299212598425197
        },
        {
          "duration": 0.5687490520833336,
          "durationTicks": 455,
          "midi": 58,
          "name": "Bb3",
          "ticks": 66240,
          "time": 82.79986199999999,
          "velocity": 0.6299212598425197
        },
        {
          "duration": 0.5687490520833194,
          "durationTicks": 455,
          "midi": 50,
          "name": "D3",
          "ticks": 67200,
          "time": 83.99986,
          "velocity": 0.6299212598425197
        },
        {
          "duration": 0.5687490520833194,
          "durationTicks": 455,
          "midi": 62,
          "name": "D4",
          "ticks": 67680,
          "time": 84.599859,
          "velocity": 0.6299212598425197
        },
        {
          "duration": 0.5687490520833194,
          "durationTicks": 455,
          "midi": 70,
          "name": "Bb4",
          "ticks": 67680,
          "time": 84.599859,
          "velocity": 0.6299212598425197
        },
        {
          "duration": 0.5687490520833336,
          "durationTicks": 455,
          "midi": 62,
          "name": "D4",
          "ticks": 68160,
          "time": 85.19985799999999,
          "velocity": 0.6299212598425197
        },
        {
          "duration": 0.5687490520833336,
          "durationTicks": 455,
          "midi": 69,
          "name": "A4",
          "ticks": 68160,
          "time": 85.19985799999999,
          "velocity": 0.6299212598425197
        },
        {
          "duration": 0.1412497645833497,
          "durationTicks": 113,
          "midi": 62,
          "name": "D4",
          "ticks": 68640,
          "time": 85.79985699999999,
          "velocity": 0.6299212598425197
        },
        {
          "duration": 0.1412497645833355,
          "durationTicks": 113,
          "midi": 60,
          "name": "C4",
          "ticks": 68760,
          "time": 85.94985675,
          "velocity": 0.6299212598425197
        },
        {
          "duration": 0.1412497645833497,
          "durationTicks": 113,
          "midi": 58,
          "name": "Bb3",
          "ticks": 68880,
          "time": 86.09985649999999,
          "velocity": 0.6299212598425197
        },
        {
          "duration": 0.1412497645833355,
          "durationTicks": 113,
          "midi": 57,
          "name": "A3",
          "ticks": 69000,
          "time": 86.24985625,
          "velocity": 0.6299212598425197
        },
        {
          "duration": 0.5687490520833194,
          "durationTicks": 455,
          "midi": 56,
          "name": "G#3",
          "ticks": 69120,
          "time": 86.399856,
          "velocity": 0.6299212598425197
        },
        {
          "duration": 0.5687490520833194,
          "durationTicks": 455,
          "midi": 62,
          "name": "D4",
          "ticks": 69600,
          "time": 86.999855,
          "velocity": 0.6299212598425197
        },
        {
          "duration": 0.5687490520833336,
          "durationTicks": 455,
          "midi": 55,
          "name": "G3",
          "ticks": 70080,
          "time": 87.599854,
          "velocity": 0.6299212598425197
        },
        {
          "duration": 0.5687490520833336,
          "durationTicks": 455,
          "midi": 61,
          "name": "C#4",
          "ticks": 70560,
          "time": 88.19985299999999,
          "velocity": 0.6299212598425197
        },
        {
          "duration": 0.5687490520833336,
          "durationTicks": 455,
          "midi": 53,
          "name": "F3",
          "ticks": 71040,
          "time": 88.79985199999999,
          "velocity": 0.6299212598425197
        },
        {
          "duration": 0.5687490520833194,
          "durationTicks": 455,
          "midi": 57,
          "name": "A3",
          "ticks": 71520,
          "time": 89.399851,
          "velocity": 0.6299212598425197
        },
        {
          "duration": 0.5687490520833194,
          "durationTicks": 455,
          "midi": 50,
          "name": "D3",
          "ticks": 72000,
          "time": 89.99985,
          "velocity": 0.6299212598425197
        },
        {
          "duration": 0.5687490520833336,
          "durationTicks": 455,
          "midi": 56,
          "name": "G#3",
          "ticks": 72480,
          "time": 90.59984899999999,
          "velocity": 0.6299212598425197
        },
        {
          "duration": 0.5687490520833336,
          "durationTicks": 455,
          "midi": 52,
          "name": "E3",
          "ticks": 72960,
          "time": 91.19984799999999,
          "velocity": 0.6299212598425197
        },
        {
          "duration": 0.5687490520833336,
          "durationTicks": 455,
          "midi": 60,
          "name": "C4",
          "ticks": 73440,
          "time": 91.79984699999999,
          "velocity": 0.6299212598425197
        },
        {
          "duration": 0.5687490520833336,
          "durationTicks": 455,
          "midi": 64,
          "name": "E4",
          "ticks": 73440,
          "time": 91.79984699999999,
          "velocity": 0.6299212598425197
        },
        {
          "duration": 0.5687490520833194,
          "durationTicks": 455,
          "midi": 52,
          "name": "E3",
          "ticks": 73920,
          "time": 92.399846,
          "velocity": 0.6299212598425197
        },
        {
          "duration": 0.5687490520833194,
          "durationTicks": 455,
          "midi": 56,
          "name": "G#3",
          "ticks": 74400,
          "time": 92.999845,
          "velocity": 0.6299212598425197
        },
        {
          "duration": 0.5687490520833194,
          "durationTicks": 455,
          "midi": 59,
          "name": "B3",
          "ticks": 74400,
          "time": 92.999845,
          "velocity": 0.6299212598425197
        },
        {
          "duration": 0.5687490520833336,
          "durationTicks": 455,
          "midi": 57,
          "name": "A3",
          "ticks": 74880,
          "time": 93.59984399999999,
          "velocity": 0.6299212598425197
        },
        {
          "duration": 0.5687490520833336,
          "durationTicks": 455,
          "midi": 58,
          "name": "Bb3",
          "ticks": 75360,
          "time": 94.19984299999999,
          "velocity": 0.6299212598425197
        },
        {
          "duration": 0.5687490520833194,
          "durationTicks": 455,
          "midi": 57,
          "name": "A3",
          "ticks": 75840,
          "time": 94.799842,
          "velocity": 0.6299212598425197
        },
        {
          "duration": 0.1412497645833355,
          "durationTicks": 113,
          "midi": 57,
          "name": "A3",
          "ticks": 76320,
          "time": 95.399841,
          "velocity": 0.6299212598425197
        },
        {
          "duration": 0.1412497645833497,
          "durationTicks": 113,
          "midi": 55,
          "name": "G3",
          "ticks": 76440,
          "time": 95.54984074999999,
          "velocity": 0.6299212598425197
        },
        {
          "duration": 0.1412497645833355,
          "durationTicks": 113,
          "midi": 53,
          "name": "F3",
          "ticks": 76560,
          "time": 95.6998405,
          "velocity": 0.6299212598425197
        },
        {
          "duration": 0.1412497645833497,
          "durationTicks": 113,
          "midi": 52,
          "name": "E3",
          "ticks": 76680,
          "time": 95.84984024999999,
          "velocity": 0.6299212598425197
        },
        {
          "duration": 0.5687490520833336,
          "durationTicks": 455,
          "midi": 50,
          "name": "D3",
          "ticks": 76800,
          "time": 95.99983999999999,
          "velocity": 0.6299212598425197
        },
        {
          "duration": 0.5687490520833336,
          "durationTicks": 455,
          "midi": 53,
          "name": "F3",
          "ticks": 77280,
          "time": 96.59983899999999,
          "velocity": 0.6299212598425197
        },
        {
          "duration": 0.5687490520833336,
          "durationTicks": 455,
          "midi": 57,
          "name": "A3",
          "ticks": 77280,
          "time": 96.59983899999999,
          "velocity": 0.6299212598425197
        },
        {
          "duration": 0.5687490520833336,
          "durationTicks": 455,
          "midi": 50,
          "name": "D3",
          "ticks": 77760,
          "time": 97.19983799999999,
          "velocity": 0.6299212598425197
        },
        {
          "duration": 0.5687490520833194,
          "durationTicks": 455,
          "midi": 55,
          "name": "G3",
          "ticks": 78240,
          "time": 97.799837,
          "velocity": 0.6299212598425197
        },
        {
          "duration": 0.5687490520833194,
          "durationTicks": 455,
          "midi": 58,
          "name": "Bb3",
          "ticks": 78240,
          "time": 97.799837,
          "velocity": 0.6299212598425197
        },
        {
          "duration": 0.5687490520833194,
          "durationTicks": 455,
          "midi": 50,
          "name": "D3",
          "ticks": 78720,
          "time": 98.399836,
          "velocity": 0.6299212598425197
        },
        {
          "duration": 0.5687490520833336,
          "durationTicks": 455,
          "midi": 56,
          "name": "G#3",
          "ticks": 79200,
          "time": 98.99983499999999,
          "velocity": 0.6299212598425197
        },
        {
          "duration": 0.5687490520833336,
          "durationTicks": 455,
          "midi": 59,
          "name": "B3",
          "ticks": 79200,
          "time": 98.99983499999999,
          "velocity": 0.6299212598425197
        },
        {
          "duration": 0.5687490520833336,
          "durationTicks": 455,
          "midi": 50,
          "name": "D3",
          "ticks": 79680,
          "time": 99.59983399999999,
          "velocity": 0.6299212598425197
        },
        {
          "duration": 0.5687490520833194,
          "durationTicks": 455,
          "midi": 45,
          "name": "A2",
          "ticks": 80160,
          "time": 100.199833,
          "velocity": 0.6299212598425197
        },
        {
          "duration": 0.5687490520833194,
          "durationTicks": 455,
          "midi": 50,
          "name": "D3",
          "ticks": 80640,
          "time": 100.799832,
          "velocity": 0.6299212598425197
        },
        {
          "duration": 0.5687490520833336,
          "durationTicks": 455,
          "midi": 56,
          "name": "G#3",
          "ticks": 81120,
          "time": 101.39983099999999,
          "velocity": 0.6299212598425197
        },
        {
          "duration": 0.5687490520833336,
          "durationTicks": 455,
          "midi": 59,
          "name": "B3",
          "ticks": 81120,
          "time": 101.39983099999999,
          "velocity": 0.6299212598425197
        },
        {
          "duration": 0.5687490520833336,
          "durationTicks": 455,
          "midi": 50,
          "name": "D3",
          "ticks": 81600,
          "time": 101.99982999999999,
          "velocity": 0.6299212598425197
        },
        {
          "duration": 0.5687490520833336,
          "durationTicks": 455,
          "midi": 55,
          "name": "G3",
          "ticks": 82080,
          "time": 102.59982899999999,
          "velocity": 0.6299212598425197
        },
        {
          "duration": 0.5687490520833336,
          "durationTicks": 455,
          "midi": 58,
          "name": "Bb3",
          "ticks": 82080,
          "time": 102.59982899999999,
          "velocity": 0.6299212598425197
        },
        {
          "duration": 0.5687490520833194,
          "durationTicks": 455,
          "midi": 50,
          "name": "D3",
          "ticks": 82560,
          "time": 103.199828,
          "velocity": 0.6299212598425197
        },
        {
          "duration": 0.5687490520833194,
          "durationTicks": 455,
          "midi": 62,
          "name": "D4",
          "ticks": 83040,
          "time": 103.799827,
          "velocity": 0.6299212598425197
        },
        {
          "duration": 0.5687490520833336,
          "durationTicks": 455,
          "midi": 62,
          "name": "D4",
          "ticks": 83520,
          "time": 104.39982599999999,
          "velocity": 0.6299212598425197
        },
        {
          "duration": 0.1412497645833497,
          "durationTicks": 113,
          "midi": 53,
          "name": "F3",
          "ticks": 84000,
          "time": 104.99982499999999,
          "velocity": 0.6299212598425197
        },
        {
          "duration": 0.1412497645833355,
          "durationTicks": 113,
          "midi": 52,
          "name": "E3",
          "ticks": 84120,
          "time": 105.14982475,
          "velocity": 0.6299212598425197
        },
        {
          "duration": 0.1412497645833497,
          "durationTicks": 113,
          "midi": 50,
          "name": "D3",
          "ticks": 84240,
          "time": 105.29982449999999,
          "velocity": 0.6299212598425197
        },
        {
          "duration": 0.1412497645833355,
          "durationTicks": 113,
          "midi": 48,
          "name": "C3",
          "ticks": 84360,
          "time": 105.44982424999999,
          "velocity": 0.6299212598425197
        },
        {
          "duration": 0.5687490520833336,
          "durationTicks": 455,
          "midi": 47,
          "name": "B2",
          "ticks": 84480,
          "time": 105.59982399999998,
          "velocity": 0.6299212598425197
        },
        {
          "duration": 0.5687490520833336,
          "durationTicks": 455,
          "midi": 59,
          "name": "B3",
          "ticks": 84480,
          "time": 105.59982399999998,
          "velocity": 0.6299212598425197
        },
        {
          "duration": 1.1387481020833405,
          "durationTicks": 911,
          "midi": 64,
          "name": "E4",
          "ticks": 84960,
          "time": 106.199823,
          "velocity": 0.6299212598425197
        },
        {
          "duration": 0.5687490520833336,
          "durationTicks": 455,
          "midi": 57,
          "name": "A3",
          "ticks": 85920,
          "time": 107.39982099999999,
          "velocity": 0.6299212598425197
        },
        {
          "duration": 0.5687490520833336,
          "durationTicks": 455,
          "midi": 61,
          "name": "C#4",
          "ticks": 85920,
          "time": 107.39982099999999,
          "velocity": 0.6299212598425197
        },
        {
          "duration": 0.5687490520833336,
          "durationTicks": 455,
          "midi": 50,
          "name": "D3",
          "ticks": 86400,
          "time": 107.99981999999999,
          "velocity": 0.6299212598425197
        },
        {
          "duration": 1.1387481020833263,
          "durationTicks": 911,
          "midi": 62,
          "name": "D4",
          "ticks": 86880,
          "time": 108.599819,
          "velocity": 0.6299212598425197
        },
        {
          "duration": 0.5687490520833336,
          "durationTicks": 455,
          "midi": 55,
          "name": "G3",
          "ticks": 87840,
          "time": 109.79981699999999,
          "velocity": 0.6299212598425197
        },
        {
          "duration": 0.5687490520833336,
          "durationTicks": 455,
          "midi": 59,
          "name": "B3",
          "ticks": 87840,
          "time": 109.79981699999999,
          "velocity": 0.6299212598425197
        },
        {
          "duration": 0.5687490520833336,
          "durationTicks": 455,
          "midi": 48,
          "name": "C3",
          "ticks": 88320,
          "time": 110.39981599999999,
          "velocity": 0.6299212598425197
        },
        {
          "duration": 1.1387481020833405,
          "durationTicks": 911,
          "midi": 60,
          "name": "C4",
          "ticks": 88800,
          "time": 110.99981499999998,
          "velocity": 0.6299212598425197
        },
        {
          "duration": 0.5687490520833194,
          "durationTicks": 455,
          "midi": 53,
          "name": "F3",
          "ticks": 89760,
          "time": 112.19981299999999,
          "velocity": 0.6299212598425197
        },
        {
          "duration": 0.5687490520833194,
          "durationTicks": 455,
          "midi": 57,
          "name": "A3",
          "ticks": 89760,
          "time": 112.19981299999999,
          "velocity": 0.6299212598425197
        },
        {
          "duration": 0.5687490520833336,
          "durationTicks": 455,
          "midi": 57,
          "name": "A3",
          "ticks": 90240,
          "time": 112.79981199999999,
          "velocity": 0.6299212598425197
        },
        {
          "duration": 0.5687490520833336,
          "durationTicks": 455,
          "midi": 52,
          "name": "E3",
          "ticks": 90720,
          "time": 113.39981099999999,
          "velocity": 0.6299212598425197
        },
        {
          "duration": 0.5687490520833336,
          "durationTicks": 455,
          "midi": 55,
          "name": "G3",
          "ticks": 90720,
          "time": 113.39981099999999,
          "velocity": 0.6299212598425197
        },
        {
          "duration": 0.5687490520833194,
          "durationTicks": 455,
          "midi": 50,
          "name": "D3",
          "ticks": 91200,
          "time": 113.99981,
          "velocity": 0.6299212598425197
        },
        {
          "duration": 0.5687490520833194,
          "durationTicks": 455,
          "midi": 53,
          "name": "F3",
          "ticks": 91200,
          "time": 113.99981,
          "velocity": 0.6299212598425197
        },
        {
          "duration": 0.5687490520833194,
          "durationTicks": 455,
          "midi": 57,
          "name": "A3",
          "ticks": 91200,
          "time": 113.99981,
          "velocity": 0.6299212598425197
        }
      ]
    }
  ]
}