{
  "header": {
    "keySignatures": [
      {
        "key": "C",
        "scale": "major",
        "ticks": 0
      },
      {
        "key": "C",
        "scale": "major",
        "ticks": 0
      },
      {
        "key": "C",
        "scale": "major",
        "ticks": 0
      },
      {
        "key": "C",
        "scale": "major",
        "ticks": 0
      }
    ],
    "meta": [],
    "name": "Piano\u0000",
    "ppq": 480,
    "tempos": [
      {
        "bpm": 120,
        "ticks": 0
      }
    ],
    "timeSignatures": [
      {
        "ticks": 0,
        "timeSignature": [
          4,
          4
        ],
        "measures": 0
      }
    ]
  },
  "tracks": [
    {
      "channel": 0,
      "controlChanges": {
        "7": [
          {
            "number": 7,
            "ticks": 0,
            "time": 0,
            "value": 0.7874015748031497
          }
        ],
        "10": [
          {
            "number": 10,
            "ticks": 0,
            "time": 0,
            "value": 0.5039370078740157
          }
        ],
        "91": [
          {
            "number": 91,
            "ticks": 0,
            "time": 0,
            "value": 0
          }
        ],
        "93": [
          {
            "number": 93,
            "ticks": 0,
            "time": 0,
            "value": 0
          }
        ],
        "121": [
          {
            "number": 121,
            "ticks": 0,
            "time": 0,
            "value": 0
          }
        ]
      },
      "pitchBends": [],
      "instrument": {
        "family": "piano",
        "name": "acoustic grand piano",
        "number": 0
      },
      "name": "Piano\u0000",
      "regularStartNote": 60,
      "smallStartNote": 71,
      "notes": [
        {
          "duration": 0.7114583333333337,
          "durationTicks": 683,
          "midi": 79,
          "name": "G5",
          "ticks": 3840,
          "time": 4,
          "velocity": 0.6299212598425197
        },
        {
          "duration": 0.23645833333333321,
          "durationTicks": 227,
          "midi": 77,
          "name": "F5",
          "ticks": 4560,
          "time": 4.75,
          "velocity": 0.6299212598425197
        },
        {
          "duration": 0.47395833333333304,
          "durationTicks": 455,
          "midi": 76,
          "name": "E5",
          "ticks": 4800,
          "time": 5,
          "velocity": 0.6299212598425197
        },
        {
          "duration": 0.47395833333333304,
          "durationTicks": 455,
          "midi": 74,
          "name": "D5",
          "ticks": 5280,
          "time": 5.5,
          "velocity": 0.6299212598425197
        },
        {
          "duration": 0.47395833333333304,
          "durationTicks": 455,
          "midi": 72,
          "name": "C5",
          "ticks": 5760,
          "time": 6,
          "velocity": 0.6299212598425197
        },
        {
          "duration": 0.47395833333333304,
          "durationTicks": 455,
          "midi": 74,
          "name": "D5",
          "ticks": 6240,
          "time": 6.5,
          "velocity": 0.6299212598425197
        },
        {
          "duration": 0.47395833333333304,
          "durationTicks": 455,
          "midi": 76,
          "name": "E5",
          "ticks": 6720,
          "time": 7,
          "velocity": 0.6299212598425197
        },
        {
          "duration": 0.47395833333333304,
          "durationTicks": 455,
          "midi": 72,
          "name": "C5",
          "ticks": 7200,
          "time": 7.5,
          "velocity": 0.6299212598425197
        },
        {
          "duration": 0.23645833333333321,
          "durationTicks": 227,
          "midi": 74,
          "name": "D5",
          "ticks": 7680,
          "time": 8,
          "velocity": 0.6299212598425197
        },
        {
          "duration": 0.23645833333333321,
          "durationTicks": 227,
          "midi": 76,
          "name": "E5",
          "ticks": 7920,
          "time": 8.25,
          "velocity": 0.6299212598425197
        },
        {
          "duration": 0.23645833333333321,
          "durationTicks": 227,
          "midi": 77,
          "name": "F5",
          "ticks": 8160,
          "time": 8.5,
          "velocity": 0.6299212598425197
        },
        {
          "duration": 0.23645833333333321,
          "durationTicks": 227,
          "midi": 74,
          "name": "D5",
          "ticks": 8400,
          "time": 8.75,
          "velocity": 0.6299212598425197
        },
        {
          "duration": 0.7114583333333329,
          "durationTicks": 683,
          "midi": 76,
          "name": "E5",
          "ticks": 8640,
          "time": 9,
          "velocity": 0.6299212598425197
        },
        {
          "duration": 0.23645833333333321,
          "durationTicks": 227,
          "midi": 74,
          "name": "D5",
          "ticks": 9360,
          "time": 9.75,
          "velocity": 0.6299212598425197
        },
        {
          "duration": 0.4739583333333339,
          "durationTicks": 455,
          "midi": 72,
          "name": "C5",
          "ticks": 9600,
          "time": 10,
          "velocity": 0.6299212598425197
        },
        {
          "duration": 0.4739583333333339,
          "durationTicks": 455,
          "midi": 71,
          "name": "B4",
          "ticks": 10080,
          "time": 10.5,
          "velocity": 0.6299212598425197
        },
        {
          "duration": 0.9489583333333336,
          "durationTicks": 911,
          "midi": 72,
          "name": "C5",
          "ticks": 10560,
          "time": 11,
          "velocity": 0.6299212598425197
        },
        {
          "duration": 0.7114583333333329,
          "durationTicks": 683,
          "midi": 79,
          "name": "G5",
          "ticks": 11520,
          "time": 12,
          "velocity": 0.6299212598425197
        },
        {
          "duration": 0.23645833333333321,
          "durationTicks": 227,
          "midi": 77,
          "name": "F5",
          "ticks": 12240,
          "time": 12.75,
          "velocity": 0.6299212598425197
        },
        {
          "duration": 0.4739583333333339,
          "durationTicks": 455,
          "midi": 76,
          "name": "E5",
          "ticks": 12480,
          "time": 13,
          "velocity": 0.6299212598425197
        },
        {
          "duration": 0.4739583333333339,
          "durationTicks": 455,
          "midi": 74,
          "name": "D5",
          "ticks": 12960,
          "time": 13.5,
          "velocity": 0.6299212598425197
        },
        {
          "duration": 0.4739583333333339,
          "durationTicks": 455,
          "midi": 72,
          "name": "C5",
          "ticks": 13440,
          "time": 14,
          "velocity": 0.6299212598425197
        },
        {
          "duration": 0.4739583333333339,
          "durationTicks": 455,
          "midi": 74,
          "name": "D5",
          "ticks": 13920,
          "time": 14.5,
          "velocity": 0.6299212598425197
        },
        {
          "duration": 0.4739583333333339,
          "durationTicks": 455,
          "midi": 76,
          "name": "E5",
          "ticks": 14400,
          "time": 15,
          "velocity": 0.6299212598425197
        },
        {
          "duration": 0.4739583333333339,
          "durationTicks": 455,
          "midi": 72,
          "name": "C5",
          "ticks": 14880,
          "time": 15.5,
          "velocity": 0.6299212598425197
        },
        {
          "duration": 0.236458333333335,
          "durationTicks": 227,
          "midi": 74,
          "name": "D5",
          "ticks": 15360,
          "time": 16,
          "velocity": 0.6299212598425197
        },
        {
          "duration": 0.236458333333335,
          "durationTicks": 227,
          "midi": 76,
          "name": "E5",
          "ticks": 15600,
          "time": 16.25,
          "velocity": 0.6299212598425197
        },
        {
          "duration": 0.236458333333335,
          "durationTicks": 227,
          "midi": 77,
          "name": "F5",
          "ticks": 15840,
          "time": 16.5,
          "velocity": 0.6299212598425197
        },
        {
          "duration": 0.236458333333335,
          "durationTicks": 227,
          "midi": 74,
          "name": "D5",
          "ticks": 16080,
          "time": 16.75,
          "velocity": 0.6299212598425197
        },
        {
          "duration": 0.7114583333333329,
          "durationTicks": 683,
          "midi": 76,
          "name": "E5",
          "ticks": 16320,
          "time": 17,
          "velocity": 0.6299212598425197
        },
        {
          "duration": 0.236458333333335,
          "durationTicks": 227,
          "midi": 74,
          "name": "D5",
          "ticks": 17040,
          "time": 17.75,
          "velocity": 0.6299212598425197
        },
        {
          "duration": 0.47395833333333215,
          "durationTicks": 455,
          "midi": 72,
          "name": "C5",
          "ticks": 17280,
          "time": 18,
          "velocity": 0.6299212598425197
        },
        {
          "duration": 0.47395833333333215,
          "durationTicks": 455,
          "midi": 71,
          "name": "B4",
          "ticks": 17760,
          "time": 18.5,
          "velocity": 0.6299212598425197
        },
        {
          "duration": 0.9489583333333336,
          "durationTicks": 911,
          "midi": 72,
          "name": "C5",
          "ticks": 18240,
          "time": 19,
          "velocity": 0.6299212598425197
        },
        {
          "duration": 0.47395833333333215,
          "durationTicks": 455,
          "midi": 74,
          "name": "D5",
          "ticks": 19200,
          "time": 20,
          "velocity": 0.6299212598425197
        },
        {
          "duration": 0.47395833333333215,
          "durationTicks": 455,
          "midi": 76,
          "name": "E5",
          "ticks": 19680,
          "time": 20.5,
          "velocity": 0.6299212598425197
        },
        {
          "duration": 0.47395833333333215,
          "durationTicks": 455,
          "midi": 77,
          "name": "F5",
          "ticks": 20160,
          "time": 21,
          "velocity": 0.6299212598425197
        },
        {
          "duration": 0.47395833333333215,
          "durationTicks": 455,
          "midi": 74,
          "name": "D5",
          "ticks": 20640,
          "time": 21.5,
          "velocity": 0.6299212598425197
        },
        {
          "duration": 0.47395833333333215,
          "durationTicks": 455,
          "midi": 76,
          "name": "E5",
          "ticks": 21120,
          "time": 22,
          "velocity": 0.6299212598425197
        },
        {
          "duration": 0.47395833333333215,
          "durationTicks": 455,
          "midi": 77,
          "name": "F5",
          "ticks": 21600,
          "time": 22.5,
          "velocity": 0.6299212598425197
        },
        {
          "duration": 0.47395833333333215,
          "durationTicks": 455,
          "midi": 79,
          "name": "G5",
          "ticks": 22080,
          "time": 23,
          "velocity": 0.6299212598425197
        },
        {
          "duration": 0.47395833333333215,
          "durationTicks": 455,
          "midi": 76,
          "name": "E5",
          "ticks": 22560,
          "time": 23.5,
          "velocity": 0.6299212598425197
        },
        {
          "duration": 0.236458333333335,
          "durationTicks": 227,
          "midi": 76,
          "name": "E5",
          "ticks": 23040,
          "time": 24,
          "velocity": 0.6299212598425197
        },
        {
          "duration": 0.236458333333335,
          "durationTicks": 227,
          "midi": 78,
          "name": "F#5",
          "ticks": 23280,
          "time": 24.25,
          "velocity": 0.6299212598425197
        },
        {
          "duration": 0.47395833333333215,
          "durationTicks": 455,
          "midi": 79,
          "name": "G5",
          "ticks": 23520,
          "time": 24.5,
          "velocity": 0.6299212598425197
        },
        {
          "duration": 0.236458333333335,
          "durationTicks": 227,
          "midi": 81,
          "name": "A5",
          "ticks": 24000,
          "time": 25,
          "velocity": 0.6299212598425197
        },
        {
          "duration": 0.236458333333335,
          "durationTicks": 227,
          "midi": 83,
          "name": "B5",
          "ticks": 24240,
          "time": 25.25,
          "velocity": 0.6299212598425197
        },
        {
          "duration": 0.47395833333333215,
          "durationTicks": 455,
          "midi": 84,
          "name": "C6",
          "ticks": 24480,
          "time": 25.5,
          "velocity": 0.6299212598425197
        },
        {
          "duration": 0.47395833333333215,
          "durationTicks": 455,
          "midi": 83,
          "name": "B5",
          "ticks": 24960,
          "time": 26,
          "velocity": 0.6299212598425197
        },
        {
          "duration": 0.47395833333333215,
          "durationTicks": 455,
          "midi": 81,
          "name": "A5",
          "ticks": 25440,
          "time": 26.5,
          "velocity": 0.6299212598425197
        },
        {
          "duration": 0.9489583333333336,
          "durationTicks": 911,
          "midi": 79,
          "name": "G5",
          "ticks": 25920,
          "time": 27,
          "velocity": 0.6299212598425197
        },
        {
          "duration": 0.7114583333333329,
          "durationTicks": 683,
          "midi": 79,
          "name": "G5",
          "ticks": 26880,
          "time": 28,
          "velocity": 0.6299212598425197
        },
        {
          "duration": 0.236458333333335,
          "durationTicks": 227,
          "midi": 77,
          "name": "F5",
          "ticks": 27600,
          "time": 28.75,
          "velocity": 0.6299212598425197
        },
        {
          "duration": 0.47395833333333215,
          "durationTicks": 455,
          "midi": 76,
          "name": "E5",
          "ticks": 27840,
          "time": 29,
          "velocity": 0.6299212598425197
        },
        {
          "duration": 0.47395833333333215,
          "durationTicks": 455,
          "midi": 74,
          "name": "D5",
          "ticks": 28320,
          "time": 29.5,
          "velocity": 0.6299212598425197
        },
        {
          "duration": 0.47395833333333215,
          "durationTicks": 455,
          "midi": 72,
          "name": "C5",
          "ticks": 28800,
          "time": 30,
          "velocity": 0.6299212598425197
        },
        {
          "duration": 0.47395833333333215,
          "durationTicks": 455,
          "midi": 74,
          "name": "D5",
          "ticks": 29280,
          "time": 30.5,
          "velocity": 0.6299212598425197
        },
        {
          "duration": 0.47395833333333215,
          "durationTicks": 455,
          "midi": 76,
          "name": "E5",
          "ticks": 29760,
          "time": 31,
          "velocity": 0.6299212598425197
        },
        {
          "duration": 0.47395833333333215,
          "durationTicks": 455,
          "midi": 72,
          "name": "C5",
          "ticks": 30240,
          "time": 31.5,
          "velocity": 0.6299212598425197
        },
        {
          "duration": 0.23645833333333144,
          "durationTicks": 227,
          "midi": 81,
          "name": "A5",
          "ticks": 30720,
          "time": 32,
          "velocity": 0.6299212598425197
        },
        {
          "duration": 0.23645833333333144,
          "durationTicks": 227,
          "midi": 81,
          "name": "A5",
          "ticks": 30960,
          "time": 32.25,
          "velocity": 0.6299212598425197
        },
        {
          "duration": 0.23645833333333144,
          "durationTicks": 227,
          "midi": 81,
          "name": "A5",
          "ticks": 31200,
          "time": 32.5,
          "velocity": 0.6299212598425197
        },
        {
          "duration": 0.23645833333333144,
          "durationTicks": 227,
          "midi": 81,
          "name": "A5",
          "ticks": 31440,
          "time": 32.75,
          "velocity": 0.6299212598425197
        },
        {
          "duration": 0.7114583333333329,
          "durationTicks": 683,
          "midi": 79,
          "name": "G5",
          "ticks": 31680,
          "time": 33,
          "velocity": 0.6299212598425197
        },
        {
          "duration": 0.23645833333333144,
          "durationTicks": 227,
          "midi": 77,
          "name": "F5",
          "ticks": 32400,
          "time": 33.75,
          "velocity": 0.6299212598425197
        },
        {
          "duration": 0.4739583333333357,
          "durationTicks": 455,
          "midi": 76,
          "name": "E5",
          "ticks": 32640,
          "time": 34,
          "velocity": 0.6299212598425197
        },
        {
          "duration": 0.4739583333333357,
          "durationTicks": 455,
          "midi": 74,
          "name": "D5",
          "ticks": 33120,
          "time": 34.5,
          "velocity": 0.6299212598425197
        },
        {
          "duration": 0.94895833333333,
          "durationTicks": 911,
          "midi": 72,
          "name": "C5",
          "ticks": 33600,
          "time": 35,
          "velocity": 0.6299212598425197
        }
      ]
    },
    {
      "channel": 1,
      "controlChanges": {
        "7": [
          {
            "number": 7,
            "ticks": 0,
            "time": 0,
            "value": 0.7874015748031497
          }
        ],
        "10": [
          {
            "number": 10,
            "ticks": 0,
            "time": 0,
            "value": 0.5039370078740157
          }
        ],
        "91": [
          {
            "number": 91,
            "ticks": 0,
            "time": 0,
            "value": 0
          }
        ],
        "93": [
          {
            "number": 93,
            "ticks": 0,
            "time": 0,
            "value": 0
          }
        ],
        "121": [
          {
            "number": 121,
            "ticks": 0,
            "time": 0,
            "value": 0
          }
        ]
      },
      "pitchBends": [],
      "instrument": {
        "family": "piano",
        "name": "acoustic grand piano",
        "number": 0
      },
      "name": "Piano\u0000",
      "regularStartNote": 48,
      "smallStartNote": 59,
      "notes": [
        {
          "duration": 0.7114583333333337,
          "durationTicks": 683,
          "midi": 60,
          "name": "C4",
          "ticks": 3840,
          "time": 4,
          "velocity": 0.6299212598425197
        },
        {
          "duration": 0.23645833333333321,
          "durationTicks": 227,
          "midi": 62,
          "name": "D4",
          "ticks": 4560,
          "time": 4.75,
          "velocity": 0.6299212598425197
        },
        {
          "duration": 0.47395833333333304,
          "durationTicks": 455,
          "midi": 64,
          "name": "E4",
          "ticks": 4800,
          "time": 5,
          "velocity": 0.6299212598425197
        },
        {
          "duration": 0.47395833333333304,
          "durationTicks": 455,
          "midi": 65,
          "name": "F4",
          "ticks": 5280,
          "time": 5.5,
          "velocity": 0.6299212598425197
        },
        {
          "duration": 1.8989583333333337,
          "durationTicks": 1823,
          "midi": 67,
          "name": "G4",
          "ticks": 5760,
          "time": 6,
          "velocity": 0.6299212598425197
        },
        {
          "duration": 0.23645833333333321,
          "durationTicks": 227,
          "midi": 65,
          "name": "F4",
          "ticks": 7680,
          "time": 8,
          "velocity": 0.6299212598425197
        },
        {
          "duration": 0.23645833333333321,
          "durationTicks": 227,
          "midi": 67,
          "name": "G4",
          "ticks": 7920,
          "time": 8.25,
          "velocity": 0.6299212598425197
        },
        {
          "duration": 0.23645833333333321,
          "durationTicks": 227,
          "midi": 69,
          "name": "A4",
          "ticks": 8160,
          "time": 8.5,
          "velocity": 0.6299212598425197
        },
        {
          "duration": 0.23645833333333321,
          "durationTicks": 227,
          "midi": 65,
          "name": "F4",
          "ticks": 8400,
          "time": 8.75,
          "velocity": 0.6299212598425197
        },
        {
          "duration": 0.7114583333333329,
          "durationTicks": 683,
          "midi": 67,
          "name": "G4",
          "ticks": 8640,
          "time": 9,
          "velocity": 0.6299212598425197
        },
        {
          "duration": 0.23645833333333321,
          "durationTicks": 227,
          "midi": 65,
          "name": "F4",
          "ticks": 9360,
          "time": 9.75,
          "velocity": 0.6299212598425197
        },
        {
          "duration": 0.4739583333333339,
          "durationTicks": 455,
          "midi": 64,
          "name": "E4",
          "ticks": 9600,
          "time": 10,
          "velocity": 0.6299212598425197
        },
        {
          "duration": 0.4739583333333339,
          "durationTicks": 455,
          "midi": 62,
          "name": "D4",
          "ticks": 10080,
          "time": 10.5,
          "velocity": 0.6299212598425197
        },
        {
          "duration": 0.9489583333333336,
          "durationTicks": 911,
          "midi": 64,
          "name": "E4",
          "ticks": 10560,
          "time": 11,
          "velocity": 0.6299212598425197
        },
        {
          "duration": 0.7114583333333329,
          "durationTicks": 683,
          "midi": 60,
          "name": "C4",
          "ticks": 11520,
          "time": 12,
          "velocity": 0.6299212598425197
        },
        {
          "duration": 0.23645833333333321,
          "durationTicks": 227,
          "midi": 62,
          "name": "D4",
          "ticks": 12240,
          "time": 12.75,
          "velocity": 0.6299212598425197
        },
        {
          "duration": 0.4739583333333339,
          "durationTicks": 455,
          "midi": 64,
          "name": "E4",
          "ticks": 12480,
          "time": 13,
          "velocity": 0.6299212598425197
        },
        {
          "duration": 0.4739583333333339,
          "durationTicks": 455,
          "midi": 65,
          "name": "F4",
          "ticks": 12960,
          "time": 13.5,
          "velocity": 0.6299212598425197
        },
        {
          "duration": 1.8989583333333329,
          "durationTicks": 1823,
          "midi": 67,
          "name": "G4",
          "ticks": 13440,
          "time": 14,
          "velocity": 0.6299212598425197
        },
        {
          "duration": 0.236458333333335,
          "durationTicks": 227,
          "midi": 65,
          "name": "F4",
          "ticks": 15360,
          "time": 16,
          "velocity": 0.6299212598425197
        },
        {
          "duration": 0.236458333333335,
          "durationTicks": 227,
          "midi": 67,
          "name": "G4",
          "ticks": 15600,
          "time": 16.25,
          "velocity": 0.6299212598425197
        },
        {
          "duration": 0.236458333333335,
          "durationTicks": 227,
          "midi": 69,
          "name": "A4",
          "ticks": 15840,
          "time": 16.5,
          "velocity": 0.6299212598425197
        },
        {
          "duration": 0.236458333333335,
          "durationTicks": 227,
          "midi": 65,
          "name": "F4",
          "ticks": 16080,
          "time": 16.75,
          "velocity": 0.6299212598425197
        },
        {
          "duration": 0.7114583333333329,
          "durationTicks": 683,
          "midi": 67,
          "name": "G4",
          "ticks": 16320,
          "time": 17,
          "velocity": 0.6299212598425197
        },
        {
          "duration": 0.236458333333335,
          "durationTicks": 227,
          "midi": 65,
          "name": "F4",
          "ticks": 17040,
          "time": 17.75,
          "velocity": 0.6299212598425197
        },
        {
          "duration": 0.47395833333333215,
          "durationTicks": 455,
          "midi": 64,
          "name": "E4",
          "ticks": 17280,
          "time": 18,
          "velocity": 0.6299212598425197
        },
        {
          "duration": 0.47395833333333215,
          "durationTicks": 455,
          "midi": 62,
          "name": "D4",
          "ticks": 17760,
          "time": 18.5,
          "velocity": 0.6299212598425197
        },
        {
          "duration": 0.9489583333333336,
          "durationTicks": 911,
          "midi": 64,
          "name": "E4",
          "ticks": 18240,
          "time": 19,
          "velocity": 0.6299212598425197
        },
        {
          "duration": 0.47395833333333215,
          "durationTicks": 455,
          "midi": 71,
          "name": "B4",
          "ticks": 19200,
          "time": 20,
          "velocity": 0.6299212598425197
        },
        {
          "duration": 0.47395833333333215,
          "durationTicks": 455,
          "midi": 69,
          "name": "A4",
          "ticks": 19680,
          "time": 20.5,
          "velocity": 0.6299212598425197
        },
        {
          "duration": 0.47395833333333215,
          "durationTicks": 455,
          "midi": 67,
          "name": "G4",
          "ticks": 20160,
          "time": 21,
          "velocity": 0.6299212598425197
        },
        {
          "duration": 0.47395833333333215,
          "durationTicks": 455,
          "midi": 71,
          "name": "B4",
          "ticks": 20640,
          "time": 21.5,
          "velocity": 0.6299212598425197
        },
        {
          "duration": 0.47395833333333215,
          "durationTicks": 455,
          "midi": 72,
          "name": "C5",
          "ticks": 21120,
          "time": 22,
          "velocity": 0.6299212598425197
        },
        {
          "duration": 0.47395833333333215,
          "durationTicks": 455,
          "midi": 69,
          "name": "A4",
          "ticks": 21600,
          "time": 22.5,
          "velocity": 0.6299212598425197
        },
        {
          "duration": 0.9489583333333336,
          "durationTicks": 911,
          "midi": 67,
          "name": "G4",
          "ticks": 22080,
          "time": 23,
          "velocity": 0.6299212598425197
        },
        {
          "duration": 0.236458333333335,
          "durationTicks": 227,
          "midi": 67,
          "name": "G4",
          "ticks": 23040,
          "time": 24,
          "velocity": 0.6299212598425197
        },
        {
          "duration": 0.236458333333335,
          "durationTicks": 227,
          "midi": 69,
          "name": "A4",
          "ticks": 23280,
          "time": 24.25,
          "velocity": 0.6299212598425197
        },
        {
          "duration": 0.47395833333333215,
          "durationTicks": 455,
          "midi": 71,
          "name": "B4",
          "ticks": 23520,
          "time": 24.5,
          "velocity": 0.6299212598425197
        },
        {
          "duration": 0.236458333333335,
          "durationTicks": 227,
          "midi": 72,
          "name": "C5",
          "ticks": 24000,
          "time": 25,
          "velocity": 0.6299212598425197
        },
        {
          "duration": 0.236458333333335,
          "durationTicks": 227,
          "midi": 74,
          "name": "D5",
          "ticks": 24240,
          "time": 25.25,
          "velocity": 0.6299212598425197
        },
        {
          "duration": 0.47395833333333215,
          "durationTicks": 455,
          "midi": 76,
          "name": "E5",
          "ticks": 24480,
          "time": 25.5,
          "velocity": 0.6299212598425197
        },
        {
          "duration": 0.47395833333333215,
          "durationTicks": 455,
          "midi": 74,
          "name": "D5",
          "ticks": 24960,
          "time": 26,
          "velocity": 0.6299212598425197
        },
        {
          "duration": 0.47395833333333215,
          "durationTicks": 455,
          "midi": 72,
          "name": "C5",
          "ticks": 25440,
          "time": 26.5,
          "velocity": 0.6299212598425197
        },
        {
          "duration": 0.47395833333333215,
          "durationTicks": 455,
          "midi": 71,
          "name": "B4",
          "ticks": 25920,
          "time": 27,
          "velocity": 0.6299212598425197
        },
        {
          "duration": 0.236458333333335,
          "durationTicks": 227,
          "midi": 69,
          "name": "A4",
          "ticks": 26400,
          "time": 27.5,
          "velocity": 0.6299212598425197
        },
        {
          "duration": 0.236458333333335,
          "durationTicks": 227,
          "midi": 67,
          "name": "G4",
          "ticks": 26640,
          "time": 27.75,
          "velocity": 0.6299212598425197
        },
        {
          "duration": 0.7114583333333329,
          "durationTicks": 683,
          "midi": 60,
          "name": "C4",
          "ticks": 26880,
          "time": 28,
          "velocity": 0.6299212598425197
        },
        {
          "duration": 0.236458333333335,
          "durationTicks": 227,
          "midi": 62,
          "name": "D4",
          "ticks": 27600,
          "time": 28.75,
          "velocity": 0.6299212598425197
        },
        {
          "duration": 0.47395833333333215,
          "durationTicks": 455,
          "midi": 64,
          "name": "E4",
          "ticks": 27840,
          "time": 29,
          "velocity": 0.6299212598425197
        },
        {
          "duration": 0.47395833333333215,
          "durationTicks": 455,
          "midi": 65,
          "name": "F4",
          "ticks": 28320,
          "time": 29.5,
          "velocity": 0.6299212598425197
        },
        {
          "duration": 1.8989583333333329,
          "durationTicks": 1823,
          "midi": 67,
          "name": "G4",
          "ticks": 28800,
          "time": 30,
          "velocity": 0.6299212598425197
        },
        {
          "duration": 0.23645833333333144,
          "durationTicks": 227,
          "midi": 65,
          "name": "F4",
          "ticks": 30720,
          "time": 32,
          "velocity": 0.6299212598425197
        },
        {
          "duration": 0.23645833333333144,
          "durationTicks": 227,
          "midi": 65,
          "name": "F4",
          "ticks": 30960,
          "time": 32.25,
          "velocity": 0.6299212598425197
        },
        {
          "duration": 0.23645833333333144,
          "durationTicks": 227,
          "midi": 65,
          "name": "F4",
          "ticks": 31200,
          "time": 32.5,
          "velocity": 0.6299212598425197
        },
        {
          "duration": 0.23645833333333144,
          "durationTicks": 227,
          "midi": 65,
          "name": "F4",
          "ticks": 31440,
          "time": 32.75,
          "velocity": 0.6299212598425197
        },
        {
          "duration": 0.7114583333333329,
          "durationTicks": 683,
          "midi": 64,
          "name": "E4",
          "ticks": 31680,
          "time": 33,
          "velocity": 0.6299212598425197
        },
        {
          "duration": 0.23645833333333144,
          "durationTicks": 227,
          "midi": 62,
          "name": "D4",
          "ticks": 32400,
          "time": 33.75,
          "velocity": 0.6299212598425197
        },
        {
          "duration": 0.4739583333333357,
          "durationTicks": 455,
          "midi": 60,
          "name": "C4",
          "ticks": 32640,
          "time": 34,
          "velocity": 0.6299212598425197
        },
        {
          "duration": 0.4739583333333357,
          "durationTicks": 455,
          "midi": 59,
          "name": "B3",
          "ticks": 33120,
          "time": 34.5,
          "velocity": 0.6299212598425197
        },
        {
          "duration": 0.94895833333333,
          "durationTicks": 911,
          "midi": 60,
          "name": "C4",
          "ticks": 33600,
          "time": 35,
          "velocity": 0.6299212598425197
        }
      ]
    },
    {
      "channel": 2,
      "controlChanges": {
        "7": [
          {
            "number": 7,
            "ticks": 0,
            "time": 0,
            "value": 0.7874015748031497
          }
        ],
        "10": [
          {
            "number": 10,
            "ticks": 0,
            "time": 0,
            "value": 0.5039370078740157
          }
        ],
        "91": [
          {
            "number": 91,
            "ticks": 0,
            "time": 0,
            "value": 0
          }
        ],
        "93": [
          {
            "number": 93,
            "ticks": 0,
            "time": 0,
            "value": 0
          }
        ],
        "121": [
          {
            "number": 121,
            "ticks": 0,
            "time": 0,
            "value": 0
          }
        ]
      },
      "pitchBends": [],
      "instrument": {
        "family": "piano",
        "name": "acoustic grand piano",
        "number": 0
      },
      "name": "Piano\u0000",
      "notes": [
        {
          "duration": 1.8989583333333333,
          "durationTicks": 1823,
          "midi": 84,
          "name": "C6",
          "ticks": 960,
          "time": 1,
          "velocity": 0.3858267716535433
        },
        {
          "duration": 1.8989583333333333,
          "durationTicks": 1823,
          "midi": 91,
          "name": "G6",
          "ticks": 960,
          "time": 1,
          "velocity": 0.3858267716535433
        },
        {
          "duration": 1.8989583333333337,
          "durationTicks": 1823,
          "midi": 84,
          "name": "C6",
          "ticks": 2880,
          "time": 3,
          "velocity": 0.3858267716535433
        },
        {
          "duration": 1.8989583333333337,
          "durationTicks": 1823,
          "midi": 91,
          "name": "G6",
          "ticks": 2880,
          "time": 3,
          "velocity": 0.3858267716535433
        },
        {
          "duration": 1.8989583333333337,
          "durationTicks": 1823,
          "midi": 84,
          "name": "C6",
          "ticks": 4800,
          "time": 5,
          "velocity": 0.3858267716535433
        },
        {
          "duration": 1.8989583333333337,
          "durationTicks": 1823,
          "midi": 91,
          "name": "G6",
          "ticks": 4800,
          "time": 5,
          "velocity": 0.3858267716535433
        },
        {
          "duration": 1.8989583333333329,
          "durationTicks": 1823,
          "midi": 84,
          "name": "C6",
          "ticks": 6720,
          "time": 7,
          "velocity": 0.3858267716535433
        },
        {
          "duration": 1.8989583333333329,
          "durationTicks": 1823,
          "midi": 91,
          "name": "G6",
          "ticks": 6720,
          "time": 7,
          "velocity": 0.3858267716535433
        },
        {
          "duration": 1.8989583333333329,
          "durationTicks": 1823,
          "midi": 84,
          "name": "C6",
          "ticks": 8640,
          "time": 9,
          "velocity": 0.3858267716535433
        },
        {
          "duration": 1.8989583333333329,
          "durationTicks": 1823,
          "midi": 91,
          "name": "G6",
          "ticks": 8640,
          "time": 9,
          "velocity": 0.3858267716535433
        },
        {
          "duration": 1.8989583333333329,
          "durationTicks": 1823,
          "midi": 84,
          "name": "C6",
          "ticks": 10560,
          "time": 11,
          "velocity": 0.3858267716535433
        },
        {
          "duration": 1.8989583333333329,
          "durationTicks": 1823,
          "midi": 91,
          "name": "G6",
          "ticks": 10560,
          "time": 11,
          "velocity": 0.3858267716535433
        },
        {
          "duration": 1.8989583333333329,
          "durationTicks": 1823,
          "midi": 84,
          "name": "C6",
          "ticks": 12480,
          "time": 13,
          "velocity": 0.3858267716535433
        },
        {
          "duration": 1.8989583333333329,
          "durationTicks": 1823,
          "midi": 91,
          "name": "G6",
          "ticks": 12480,
          "time": 13,
          "velocity": 0.3858267716535433
        },
        {
          "duration": 1.8989583333333329,
          "durationTicks": 1823,
          "midi": 84,
          "name": "C6",
          "ticks": 14400,
          "time": 15,
          "velocity": 0.3858267716535433
        },
        {
          "duration": 1.8989583333333329,
          "durationTicks": 1823,
          "midi": 91,
          "name": "G6",
          "ticks": 14400,
          "time": 15,
          "velocity": 0.3858267716535433
        },
        {
          "duration": 1.8989583333333329,
          "durationTicks": 1823,
          "midi": 84,
          "name": "C6",
          "ticks": 16320,
          "time": 17,
          "velocity": 0.3858267716535433
        },
        {
          "duration": 1.8989583333333329,
          "durationTicks": 1823,
          "midi": 91,
          "name": "G6",
          "ticks": 16320,
          "time": 17,
          "velocity": 0.3858267716535433
        },
        {
          "duration": 1.8989583333333329,
          "durationTicks": 1823,
          "midi": 84,
          "name": "C6",
          "ticks": 18240,
          "time": 19,
          "velocity": 0.3858267716535433
        },
        {
          "duration": 1.8989583333333329,
          "durationTicks": 1823,
          "midi": 91,
          "name": "G6",
          "ticks": 18240,
          "time": 19,
          "velocity": 0.3858267716535433
        },
        {
          "duration": 1.8989583333333329,
          "durationTicks": 1823,
          "midi": 79,
          "name": "G5",
          "ticks": 20160,
          "time": 21,
          "velocity": 0.3858267716535433
        },
        {
          "duration": 1.8989583333333329,
          "durationTicks": 1823,
          "midi": 86,
          "name": "D6",
          "ticks": 20160,
          "time": 21,
          "velocity": 0.3858267716535433
        },
        {
          "duration": 1.8989583333333329,
          "durationTicks": 1823,
          "midi": 84,
          "name": "C6",
          "ticks": 22080,
          "time": 23,
          "velocity": 0.3858267716535433
        },
        {
          "duration": 1.8989583333333329,
          "durationTicks": 1823,
          "midi": 91,
          "name": "G6",
          "ticks": 22080,
          "time": 23,
          "velocity": 0.3858267716535433
        },
        {
          "duration": 1.423958333333335,
          "durationTicks": 1367,
          "midi": 88,
          "name": "E6",
          "ticks": 24000,
          "time": 25,
          "velocity": 0.3858267716535433
        },
        {
          "duration": 1.423958333333335,
          "durationTicks": 1367,
          "midi": 91,
          "name": "G6",
          "ticks": 24000,
          "time": 25,
          "velocity": 0.3858267716535433
        },
        {
          "duration": 0.47395833333333215,
          "durationTicks": 455,
          "midi": 86,
          "name": "D6",
          "ticks": 25440,
          "time": 26.5,
          "velocity": 0.3858267716535433
        },
        {
          "duration": 0.47395833333333215,
          "durationTicks": 455,
          "midi": 90,
          "name": "F#6",
          "ticks": 25440,
          "time": 26.5,
          "velocity": 0.3858267716535433
        },
        {
          "duration": 0.9489583333333336,
          "durationTicks": 911,
          "midi": 86,
          "name": "D6",
          "ticks": 25920,
          "time": 27,
          "velocity": 0.3858267716535433
        },
        {
          "duration": 0.9489583333333336,
          "durationTicks": 911,
          "midi": 91,
          "name": "G6",
          "ticks": 25920,
          "time": 27,
          "velocity": 0.3858267716535433
        },
        {
          "duration": 1.8989583333333329,
          "durationTicks": 1823,
          "midi": 84,
          "name": "C6",
          "ticks": 27840,
          "time": 29,
          "velocity": 0.3858267716535433
        },
        {
          "duration": 1.8989583333333329,
          "durationTicks": 1823,
          "midi": 91,
          "name": "G6",
          "ticks": 27840,
          "time": 29,
          "velocity": 0.3858267716535433
        },
        {
          "duration": 1.8989583333333329,
          "durationTicks": 1823,
          "midi": 84,
          "name": "C6",
          "ticks": 29760,
          "time": 31,
          "velocity": 0.3858267716535433
        },
        {
          "duration": 1.8989583333333329,
          "durationTicks": 1823,
          "midi": 91,
          "name": "G6",
          "ticks": 29760,
          "time": 31,
          "velocity": 0.3858267716535433
        },
        {
          "duration": 1.8989583333333329,
          "durationTicks": 1823,
          "midi": 84,
          "name": "C6",
          "ticks": 31680,
          "time": 33,
          "velocity": 0.3858267716535433
        },
        {
          "duration": 1.8989583333333329,
          "durationTicks": 1823,
          "midi": 91,
          "name": "G6",
          "ticks": 31680,
          "time": 33,
          "velocity": 0.3858267716535433
        },
        {
          "duration": 0.94895833333333,
          "durationTicks": 911,
          "midi": 84,
          "name": "C6",
          "ticks": 33600,
          "time": 35,
          "velocity": 0.3858267716535433
        },
        {
          "duration": 0.94895833333333,
          "durationTicks": 911,
          "midi": 91,
          "name": "G6",
          "ticks": 33600,
          "time": 35,
          "velocity": 0.3858267716535433
        }
      ]
    },
    {
      "channel": 2,
      "controlChanges": {},
      "pitchBends": [],
      "instrument": {
        "family": "piano",
        "name": "acoustic grand piano",
        "number": 0
      },
      "name": "Piano\u0000",
      "notes": [
        {
          "duration": 1.8989583333333333,
          "durationTicks": 1823,
          "midi": 36,
          "name": "C2",
          "ticks": 0,
          "time": 0,
          "velocity": 0.3858267716535433
        },
        {
          "duration": 1.8989583333333333,
          "durationTicks": 1823,
          "midi": 43,
          "name": "G2",
          "ticks": 0,
          "time": 0,
          "velocity": 0.3858267716535433
        },
        {
          "duration": 1.8989583333333333,
          "durationTicks": 1823,
          "midi": 48,
          "name": "C3",
          "ticks": 0,
          "time": 0,
          "velocity": 0.3858267716535433
        },
        {
          "duration": 1.8989583333333333,
          "durationTicks": 1823,
          "midi": 36,
          "name": "C2",
          "ticks": 1920,
          "time": 2,
          "velocity": 0.3858267716535433
        },
        {
          "duration": 1.8989583333333333,
          "durationTicks": 1823,
          "midi": 43,
          "name": "G2",
          "ticks": 1920,
          "time": 2,
          "velocity": 0.3858267716535433
        },
        {
          "duration": 1.8989583333333333,
          "durationTicks": 1823,
          "midi": 48,
          "name": "C3",
          "ticks": 1920,
          "time": 2,
          "velocity": 0.3858267716535433
        },
        {
          "duration": 1.8989583333333337,
          "durationTicks": 1823,
          "midi": 36,
          "name": "C2",
          "ticks": 3840,
          "time": 4,
          "velocity": 0.3858267716535433
        },
        {
          "duration": 1.8989583333333337,
          "durationTicks": 1823,
          "midi": 43,
          "name": "G2",
          "ticks": 3840,
          "time": 4,
          "velocity": 0.3858267716535433
        },
        {
          "duration": 1.8989583333333337,
          "durationTicks": 1823,
          "midi": 48,
          "name": "C3",
          "ticks": 3840,
          "time": 4,
          "velocity": 0.3858267716535433
        },
        {
          "duration": 1.8989583333333337,
          "durationTicks": 1823,
          "midi": 36,
          "name": "C2",
          "ticks": 5760,
          "time": 6,
          "velocity": 0.3858267716535433
        },
        {
          "duration": 1.8989583333333337,
          "durationTicks": 1823,
          "midi": 43,
          "name": "G2",
          "ticks": 5760,
          "time": 6,
          "velocity": 0.3858267716535433
        },
        {
          "duration": 1.8989583333333337,
          "durationTicks": 1823,
          "midi": 48,
          "name": "C3",
          "ticks": 5760,
          "time": 6,
          "velocity": 0.3858267716535433
        },
        {
          "duration": 1.8989583333333329,
          "durationTicks": 1823,
          "midi": 36,
          "name": "C2",
          "ticks": 7680,
          "time": 8,
          "velocity": 0.3858267716535433
        },
        {
          "duration": 1.8989583333333329,
          "durationTicks": 1823,
          "midi": 43,
          "name": "G2",
          "ticks": 7680,
          "time": 8,
          "velocity": 0.3858267716535433
        },
        {
          "duration": 1.8989583333333329,
          "durationTicks": 1823,
          "midi": 48,
          "name": "C3",
          "ticks": 7680,
          "time": 8,
          "velocity": 0.3858267716535433
        },
        {
          "duration": 1.8989583333333329,
          "durationTicks": 1823,
          "midi": 36,
          "name": "C2",
          "ticks": 9600,
          "time": 10,
          "velocity": 0.3858267716535433
        },
        {
          "duration": 1.8989583333333329,
          "durationTicks": 1823,
          "midi": 43,
          "name": "G2",
          "ticks": 9600,
          "time": 10,
          "velocity": 0.3858267716535433
        },
        {
          "duration": 1.8989583333333329,
          "durationTicks": 1823,
          "midi": 48,
          "name": "C3",
          "ticks": 9600,
          "time": 10,
          "velocity": 0.3858267716535433
        },
        {
          "duration": 1.8989583333333329,
          "durationTicks": 1823,
          "midi": 36,
          "name": "C2",
          "ticks": 11520,
          "time": 12,
          "velocity": 0.3858267716535433
        },
        {
          "duration": 1.8989583333333329,
          "durationTicks": 1823,
          "midi": 43,
          "name": "G2",
          "ticks": 11520,
          "time": 12,
          "velocity": 0.3858267716535433
        },
        {
          "duration": 1.8989583333333329,
          "durationTicks": 1823,
          "midi": 48,
          "name": "C3",
          "ticks": 11520,
          "time": 12,
          "velocity": 0.3858267716535433
        },
        {
          "duration": 1.8989583333333329,
          "durationTicks": 1823,
          "midi": 36,
          "name": "C2",
          "ticks": 13440,
          "time": 14,
          "velocity": 0.3858267716535433
        },
        {
          "duration": 1.8989583333333329,
          "durationTicks": 1823,
          "midi": 43,
          "name": "G2",
          "ticks": 13440,
          "time": 14,
          "velocity": 0.3858267716535433
        },
        {
          "duration": 1.8989583333333329,
          "durationTicks": 1823,
          "midi": 48,
          "name": "C3",
          "ticks": 13440,
          "time": 14,
          "velocity": 0.3858267716535433
        },
        {
          "duration": 1.8989583333333329,
          "durationTicks": 1823,
          "midi": 36,
          "name": "C2",
          "ticks": 15360,
          "time": 16,
          "velocity": 0.3858267716535433
        },
        {
          "duration": 1.8989583333333329,
          "durationTicks": 1823,
          "midi": 43,
          "name": "G2",
          "ticks": 15360,
          "time": 16,
          "velocity": 0.3858267716535433
        },
        {
          "duration": 1.8989583333333329,
          "durationTicks": 1823,
          "midi": 48,
          "name": "C3",
          "ticks": 15360,
          "time": 16,
          "velocity": 0.3858267716535433
        },
        {
          "duration": 1.8989583333333329,
          "durationTicks": 1823,
          "midi": 36,
          "name": "C2",
          "ticks": 17280,
          "time": 18,
          "velocity": 0.3858267716535433
        },
        {
          "duration": 1.8989583333333329,
          "durationTicks": 1823,
          "midi": 43,
          "name": "G2",
          "ticks": 17280,
          "time": 18,
          "velocity": 0.3858267716535433
        },
        {
          "duration": 1.8989583333333329,
          "durationTicks": 1823,
          "midi": 48,
          "name": "C3",
          "ticks": 17280,
          "time": 18,
          "velocity": 0.3858267716535433
        },
        {
          "duration": 0.47395833333333215,
          "durationTicks": 455,
          "midi": 36,
          "name": "C2",
          "ticks": 21120,
          "time": 22,
          "velocity": 0.3858267716535433
        },
        {
          "duration": 0.47395833333333215,
          "durationTicks": 455,
          "midi": 38,
          "name": "D2",
          "ticks": 21600,
          "time": 22.5,
          "velocity": 0.3858267716535433
        },
        {
          "duration": 0.47395833333333215,
          "durationTicks": 455,
          "midi": 40,
          "name": "E2",
          "ticks": 22080,
          "time": 23,
          "velocity": 0.3858267716535433
        },
        {
          "duration": 0.47395833333333215,
          "durationTicks": 455,
          "midi": 36,
          "name": "C2",
          "ticks": 22560,
          "time": 23.5,
          "velocity": 0.3858267716535433
        },
        {
          "duration": 0.9489583333333336,
          "durationTicks": 911,
          "midi": 48,
          "name": "C3",
          "ticks": 23040,
          "time": 24,
          "velocity": 0.3858267716535433
        },
        {
          "duration": 0.9489583333333336,
          "durationTicks": 911,
          "midi": 45,
          "name": "A2",
          "ticks": 24000,
          "time": 25,
          "velocity": 0.3858267716535433
        },
        {
          "duration": 0.9489583333333336,
          "durationTicks": 911,
          "midi": 50,
          "name": "D3",
          "ticks": 24960,
          "time": 26,
          "velocity": 0.3858267716535433
        },
        {
          "duration": 0.9489583333333336,
          "durationTicks": 911,
          "midi": 43,
          "name": "G2",
          "ticks": 25920,
          "time": 27,
          "velocity": 0.3858267716535433
        },
        {
          "duration": 1.8989583333333329,
          "durationTicks": 1823,
          "midi": 36,
          "name": "C2",
          "ticks": 26880,
          "time": 28,
          "velocity": 0.3858267716535433
        },
        {
          "duration": 1.8989583333333329,
          "durationTicks": 1823,
          "midi": 43,
          "name": "G2",
          "ticks": 26880,
          "time": 28,
          "velocity": 0.3858267716535433
        },
        {
          "duration": 1.8989583333333329,
          "durationTicks": 1823,
          "midi": 48,
          "name": "C3",
          "ticks": 26880,
          "time": 28,
          "velocity": 0.3858267716535433
        },
        {
          "duration": 1.8989583333333329,
          "durationTicks": 1823,
          "midi": 36,
          "name": "C2",
          "ticks": 28800,
          "time": 30,
          "velocity": 0.3858267716535433
        },
        {
          "duration": 1.8989583333333329,
          "durationTicks": 1823,
          "midi": 43,
          "name": "G2",
          "ticks": 28800,
          "time": 30,
          "velocity": 0.3858267716535433
        },
        {
          "duration": 1.8989583333333329,
          "durationTicks": 1823,
          "midi": 48,
          "name": "C3",
          "ticks": 28800,
          "time": 30,
          "velocity": 0.3858267716535433
        },
        {
          "duration": 0.94895833333333,
          "durationTicks": 911,
          "midi": 41,
          "name": "F2",
          "ticks": 30720,
          "time": 32,
          "velocity": 0.3858267716535433
        },
        {
          "duration": 0.94895833333333,
          "durationTicks": 911,
          "midi": 48,
          "name": "C3",
          "ticks": 30720,
          "time": 32,
          "velocity": 0.3858267716535433
        },
        {
          "duration": 0.94895833333333,
          "durationTicks": 911,
          "midi": 36,
          "name": "C2",
          "ticks": 31680,
          "time": 33,
          "velocity": 0.3858267716535433
        },
        {
          "duration": 0.94895833333333,
          "durationTicks": 911,
          "midi": 43,
          "name": "G2",
          "ticks": 31680,
          "time": 33,
          "velocity": 0.3858267716535433
        },
        {
          "duration": 0.94895833333333,
          "durationTicks": 911,
          "midi": 48,
          "name": "C3",
          "ticks": 31680,
          "time": 33,
          "velocity": 0.3858267716535433
        },
        {
          "duration": 0.94895833333333,
          "durationTicks": 911,
          "midi": 43,
          "name": "G2",
          "ticks": 32640,
          "time": 34,
          "velocity": 0.3858267716535433
        },
        {
          "duration": 0.94895833333333,
          "durationTicks": 911,
          "midi": 36,
          "name": "C2",
          "ticks": 33600,
          "time": 35,
          "velocity": 0.3858267716535433
        },
        {
          "duration": 0.94895833333333,
          "durationTicks": 911,
          "midi": 43,
          "name": "G2",
          "ticks": 33600,
          "time": 35,
          "velocity": 0.3858267716535433
        }
      ]
    }
  ]
}