{
    "header": {
      "keySignatures": [
        {
          "key": "Ab",
          "scale": "major",
          "ticks": 0
        },
        {
          "key": "Ab",
          "scale": "major",
          "ticks": 0
        },
        {
          "key": "Ab",
          "scale": "major",
          "ticks": 0
        }
      ],
      "meta": [],
      "name": "Piano\u0000",
      "ppq": 480,
      "tempos": [
        {
          "bpm": 120,
          "ticks": 0
        }
      ],
      "timeSignatures": [
        {
          "ticks": 0,
          "timeSignature": [
            12,
            8
          ],
          "measures": 0
        }
      ]
    },
    "tracks": [
      {
        "channel": 0,
        "controlChanges": {
          "7": [
            {
              "number": 7,
              "ticks": 0,
              "time": 0,
              "value": 0.7874015748031497
            }
          ],
          "10": [
            {
              "number": 10,
              "ticks": 0,
              "time": 0,
              "value": 0.5039370078740157
            }
          ],
          "91": [
            {
              "number": 91,
              "ticks": 0,
              "time": 0,
              "value": 0
            }
          ],
          "93": [
            {
              "number": 93,
              "ticks": 0,
              "time": 0,
              "value": 0
            }
          ],
          "121": [
            {
              "number": 121,
              "ticks": 0,
              "time": 0,
              "value": 0
            }
          ]
        },
        "pitchBends": [],
        "instrument": {
          "family": "piano",
          "name": "acoustic grand piano",
          "number": 0
        },
        "name": "Piano\u0000",
        "regularStartNote": 60,
        "smallStartNote": 60,
        "notes": [
          {
            "duration": 0.23645833333333321,
            "durationTicks": 227,
            "midi": 63,
            "name": "D#4",
            "ticks": 2160,
            "time": 2.25,
            "velocity": 0.6299212598425197
          },
          {
            "duration": 0.23645833333333321,
            "durationTicks": 227,
            "midi": 65,
            "name": "F4",
            "ticks": 2400,
            "time": 2.5,
            "velocity": 0.6299212598425197
          },
          {
            "duration": 0.1177083333333333,
            "durationTicks": 113,
            "midi": 68,
            "name": "G#4",
            "ticks": 2640,
            "time": 2.75,
            "velocity": 0.6299212598425197
          },
          {
            "duration": 0.12395833333333339,
            "durationTicks": 119,
            "midi": 68,
            "name": "G#4",
            "ticks": 2760,
            "time": 2.875,
            "velocity": 0.6299212598425197
          },
          {
            "duration": 0.7114583333333333,
            "durationTicks": 683,
            "midi": 68,
            "name": "G#4",
            "ticks": 2880,
            "time": 3,
            "velocity": 0.6299212598425197
          },
          {
            "duration": 0.35520833333333357,
            "durationTicks": 341,
            "midi": 72,
            "name": "C5",
            "ticks": 4800,
            "time": 5,
            "velocity": 0.6299212598425197
          },
          {
            "duration": 0.11770833333333375,
            "durationTicks": 113,
            "midi": 70,
            "name": "A#4",
            "ticks": 5160,
            "time": 5.375,
            "velocity": 0.6299212598425197
          },
          {
            "duration": 0.23645833333333321,
            "durationTicks": 227,
            "midi": 68,
            "name": "G#4",
            "ticks": 5280,
            "time": 5.5,
            "velocity": 0.6299212598425197
          },
          {
            "duration": 0.9489583333333336,
            "durationTicks": 911,
            "midi": 72,
            "name": "C5",
            "ticks": 5520,
            "time": 5.75,
            "velocity": 0.6299212598425197
          },
          {
            "duration": 0.23645833333333321,
            "durationTicks": 227,
            "midi": 70,
            "name": "A#4",
            "ticks": 7920,
            "time": 8.25,
            "velocity": 0.6299212598425197
          },
          {
            "duration": 0.23645833333333321,
            "durationTicks": 227,
            "midi": 72,
            "name": "C5",
            "ticks": 8160,
            "time": 8.5,
            "velocity": 0.6299212598425197
          },
          {
            "duration": 0.23645833333333321,
            "durationTicks": 227,
            "midi": 72,
            "name": "C5",
            "ticks": 8400,
            "time": 8.75,
            "velocity": 0.6299212598425197
          },
          {
            "duration": 0.11770833333333286,
            "durationTicks": 113,
            "midi": 72,
            "name": "C5",
            "ticks": 8640,
            "time": 9,
            "velocity": 0.6299212598425197
          },
          {
            "duration": 0.11770833333333286,
            "durationTicks": 113,
            "midi": 70,
            "name": "A#4",
            "ticks": 8760,
            "time": 9.125,
            "velocity": 0.6299212598425197
          },
          {
            "duration": 0.23645833333333321,
            "durationTicks": 227,
            "midi": 68,
            "name": "G#4",
            "ticks": 8880,
            "time": 9.25,
            "velocity": 0.6299212598425197
          },
          {
            "duration": 0.23645833333333321,
            "durationTicks": 227,
            "midi": 68,
            "name": "G#4",
            "ticks": 9120,
            "time": 9.5,
            "velocity": 0.6299212598425197
          },
          {
            "duration": 0.7114583333333329,
            "durationTicks": 683,
            "midi": 68,
            "name": "G#4",
            "ticks": 9360,
            "time": 9.75,
            "velocity": 0.6299212598425197
          },
          {
            "duration": 0.23645833333333321,
            "durationTicks": 227,
            "midi": 68,
            "name": "G#4",
            "ticks": 10800,
            "time": 11.25,
            "velocity": 0.6299212598425197
          },
          {
            "duration": 0.23645833333333321,
            "durationTicks": 227,
            "midi": 70,
            "name": "A#4",
            "ticks": 11040,
            "time": 11.5,
            "velocity": 0.6299212598425197
          },
          {
            "duration": 0.23645833333333321,
            "durationTicks": 227,
            "midi": 72,
            "name": "C5",
            "ticks": 11280,
            "time": 11.75,
            "velocity": 0.6299212598425197
          },
          {
            "duration": 0.7114583333333329,
            "durationTicks": 683,
            "midi": 70,
            "name": "A#4",
            "ticks": 11520,
            "time": 12,
            "velocity": 0.6299212598425197
          },
          {
            "duration": 0.11770833333333286,
            "durationTicks": 113,
            "midi": 68,
            "name": "G#4",
            "ticks": 13560,
            "time": 14.125,
            "velocity": 0.6299212598425197
          },
          {
            "duration": 0.23645833333333321,
            "durationTicks": 227,
            "midi": 72,
            "name": "C5",
            "ticks": 13680,
            "time": 14.25,
            "velocity": 0.6299212598425197
          },
          {
            "duration": 0.23645833333333321,
            "durationTicks": 227,
            "midi": 70,
            "name": "A#4",
            "ticks": 13920,
            "time": 14.5,
            "velocity": 0.6299212598425197
          },
          {
            "duration": 0.11770833333333286,
            "durationTicks": 113,
            "midi": 68,
            "name": "G#4",
            "ticks": 14160,
            "time": 14.75,
            "velocity": 0.6299212598425197
          },
          {
            "duration": 0.8302083333333332,
            "durationTicks": 797,
            "midi": 72,
            "name": "C5",
            "ticks": 14280,
            "time": 14.875,
            "velocity": 0.6299212598425197
          },
          {
            "duration": 0.47395833333333215,
            "durationTicks": 455,
            "midi": 75,
            "name": "D#5",
            "ticks": 16560,
            "time": 17.25,
            "velocity": 0.6299212598425197
          },
          {
            "duration": 0.236458333333335,
            "durationTicks": 227,
            "midi": 72,
            "name": "C5",
            "ticks": 17040,
            "time": 17.75,
            "velocity": 0.6299212598425197
          },
          {
            "duration": 0.236458333333335,
            "durationTicks": 227,
            "midi": 68,
            "name": "G#4",
            "ticks": 17280,
            "time": 18,
            "velocity": 0.6299212598425197
          },
          {
            "duration": 0.47395833333333215,
            "durationTicks": 455,
            "midi": 68,
            "name": "G#4",
            "ticks": 17520,
            "time": 18.25,
            "velocity": 0.6299212598425197
          },
          {
            "duration": 0.7114583333333329,
            "durationTicks": 683,
            "midi": 68,
            "name": "G#4",
            "ticks": 18000,
            "time": 18.75,
            "velocity": 0.6299212598425197
          },
          {
            "duration": 0.11770833333333286,
            "durationTicks": 113,
            "midi": 68,
            "name": "G#4",
            "ticks": 19320,
            "time": 20.125,
            "velocity": 0.6299212598425197
          },
          {
            "duration": 0.236458333333335,
            "durationTicks": 227,
            "midi": 68,
            "name": "G#4",
            "ticks": 19440,
            "time": 20.25,
            "velocity": 0.6299212598425197
          },
          {
            "duration": 0.236458333333335,
            "durationTicks": 227,
            "midi": 70,
            "name": "A#4",
            "ticks": 19680,
            "time": 20.5,
            "velocity": 0.6299212598425197
          },
          {
            "duration": 0.236458333333335,
            "durationTicks": 227,
            "midi": 72,
            "name": "C5",
            "ticks": 19920,
            "time": 20.75,
            "velocity": 0.6299212598425197
          },
          {
            "duration": 0.47395833333333215,
            "durationTicks": 455,
            "midi": 73,
            "name": "C#5",
            "ticks": 20160,
            "time": 21,
            "velocity": 0.6299212598425197
          },
          {
            "duration": 0.236458333333335,
            "durationTicks": 227,
            "midi": 73,
            "name": "C#5",
            "ticks": 20640,
            "time": 21.5,
            "velocity": 0.6299212598425197
          },
          {
            "duration": 0.236458333333335,
            "durationTicks": 227,
            "midi": 72,
            "name": "C5",
            "ticks": 20880,
            "time": 21.75,
            "velocity": 0.6299212598425197
          },
          {
            "duration": 0.236458333333335,
            "durationTicks": 227,
            "midi": 70,
            "name": "A#4",
            "ticks": 21120,
            "time": 22,
            "velocity": 0.6299212598425197
          },
          {
            "duration": 0.236458333333335,
            "durationTicks": 227,
            "midi": 70,
            "name": "A#4",
            "ticks": 21360,
            "time": 22.25,
            "velocity": 0.6299212598425197
          },
          {
            "duration": 0.236458333333335,
            "durationTicks": 227,
            "midi": 70,
            "name": "A#4",
            "ticks": 21600,
            "time": 22.5,
            "velocity": 0.6299212598425197
          },
          {
            "duration": 0.47395833333333215,
            "durationTicks": 455,
            "midi": 68,
            "name": "G#4",
            "ticks": 21840,
            "time": 22.75,
            "velocity": 0.6299212598425197
          },
          {
            "duration": 0.236458333333335,
            "durationTicks": 227,
            "midi": 68,
            "name": "G#4",
            "ticks": 22320,
            "time": 23.25,
            "velocity": 0.6299212598425197
          },
          {
            "duration": 0.236458333333335,
            "durationTicks": 227,
            "midi": 70,
            "name": "A#4",
            "ticks": 22560,
            "time": 23.5,
            "velocity": 0.6299212598425197
          },
          {
            "duration": 0.236458333333335,
            "durationTicks": 227,
            "midi": 72,
            "name": "C5",
            "ticks": 22800,
            "time": 23.75,
            "velocity": 0.6299212598425197
          },
          {
            "duration": 1.3052083333333329,
            "durationTicks": 1253,
            "midi": 70,
            "name": "A#4",
            "ticks": 23040,
            "time": 24,
            "velocity": 0.6299212598425197
          },
          {
            "duration": 0.11770833333333286,
            "durationTicks": 113,
            "midi": 68,
            "name": "G#4",
            "ticks": 24360,
            "time": 25.375,
            "velocity": 0.6299212598425197
          },
          {
            "duration": 0.236458333333335,
            "durationTicks": 227,
            "midi": 75,
            "name": "D#5",
            "ticks": 24480,
            "time": 25.5,
            "velocity": 0.6299212598425197
          },
          {
            "duration": 0.236458333333335,
            "durationTicks": 227,
            "midi": 75,
            "name": "D#5",
            "ticks": 24720,
            "time": 25.75,
            "velocity": 0.6299212598425197
          },
          {
            "duration": 0.236458333333335,
            "durationTicks": 227,
            "midi": 75,
            "name": "D#5",
            "ticks": 24960,
            "time": 26,
            "velocity": 0.6299212598425197
          },
          {
            "duration": 0.236458333333335,
            "durationTicks": 227,
            "midi": 77,
            "name": "F5",
            "ticks": 25200,
            "time": 26.25,
            "velocity": 0.6299212598425197
          },
          {
            "duration": 0.236458333333335,
            "durationTicks": 227,
            "midi": 70,
            "name": "A#4",
            "ticks": 25440,
            "time": 26.5,
            "velocity": 0.6299212598425197
          },
          {
            "duration": 0.236458333333335,
            "durationTicks": 227,
            "midi": 70,
            "name": "A#4",
            "ticks": 25680,
            "time": 26.75,
            "velocity": 0.6299212598425197
          },
          {
            "duration": 0.47395833333333215,
            "durationTicks": 455,
            "midi": 72,
            "name": "C5",
            "ticks": 25920,
            "time": 27,
            "velocity": 0.6299212598425197
          },
          {
            "duration": 0.236458333333335,
            "durationTicks": 227,
            "midi": 70,
            "name": "A#4",
            "ticks": 26400,
            "time": 27.5,
            "velocity": 0.6299212598425197
          },
          {
            "duration": 0.47395833333333215,
            "durationTicks": 455,
            "midi": 72,
            "name": "C5",
            "ticks": 26640,
            "time": 27.75,
            "velocity": 0.6299212598425197
          },
          {
            "duration": 0.236458333333335,
            "durationTicks": 227,
            "midi": 70,
            "name": "A#4",
            "ticks": 27120,
            "time": 28.25,
            "velocity": 0.6299212598425197
          },
          {
            "duration": 0.7114583333333329,
            "durationTicks": 683,
            "midi": 72,
            "name": "C5",
            "ticks": 27360,
            "time": 28.5,
            "velocity": 0.6299212598425197
          },
          {
            "duration": 0.236458333333335,
            "durationTicks": 227,
            "midi": 72,
            "name": "C5",
            "ticks": 28080,
            "time": 29.25,
            "velocity": 0.6299212598425197
          },
          {
            "duration": 0.236458333333335,
            "durationTicks": 227,
            "midi": 70,
            "name": "A#4",
            "ticks": 28320,
            "time": 29.5,
            "velocity": 0.6299212598425197
          },
          {
            "duration": 0.236458333333335,
            "durationTicks": 227,
            "midi": 68,
            "name": "G#4",
            "ticks": 28560,
            "time": 29.75,
            "velocity": 0.6299212598425197
          },
          {
            "duration": 0.47395833333333215,
            "durationTicks": 455,
            "midi": 72,
            "name": "C5",
            "ticks": 28800,
            "time": 30,
            "velocity": 0.6299212598425197
          },
          {
            "duration": 0.236458333333335,
            "durationTicks": 227,
            "midi": 70,
            "name": "A#4",
            "ticks": 29280,
            "time": 30.5,
            "velocity": 0.6299212598425197
          },
          {
            "duration": 0.7114583333333329,
            "durationTicks": 683,
            "midi": 72,
            "name": "C5",
            "ticks": 29520,
            "time": 30.75,
            "velocity": 0.6299212598425197
          },
          {
            "duration": 0.7114583333333329,
            "durationTicks": 683,
            "midi": 72,
            "name": "C5",
            "ticks": 30240,
            "time": 31.5,
            "velocity": 0.6299212598425197
          },
          {
            "duration": 0.23645833333333144,
            "durationTicks": 227,
            "midi": 72,
            "name": "C5",
            "ticks": 30960,
            "time": 32.25,
            "velocity": 0.6299212598425197
          },
          {
            "duration": 0.23645833333333144,
            "durationTicks": 227,
            "midi": 70,
            "name": "A#4",
            "ticks": 31200,
            "time": 32.5,
            "velocity": 0.6299212598425197
          },
          {
            "duration": 0.23645833333333144,
            "durationTicks": 227,
            "midi": 68,
            "name": "G#4",
            "ticks": 31440,
            "time": 32.75,
            "velocity": 0.6299212598425197
          },
          {
            "duration": 0.7114583333333329,
            "durationTicks": 683,
            "midi": 73,
            "name": "C#5",
            "ticks": 31680,
            "time": 33,
            "velocity": 0.6299212598425197
          },
          {
            "duration": 0.35520833333333,
            "durationTicks": 341,
            "midi": 72,
            "name": "C5",
            "ticks": 32400,
            "time": 33.75,
            "velocity": 0.6299212598425197
          },
          {
            "duration": 0.11770833333333286,
            "durationTicks": 113,
            "midi": 70,
            "name": "A#4",
            "ticks": 32760,
            "time": 34.125,
            "velocity": 0.6299212598425197
          },
          {
            "duration": 0.23645833333333144,
            "durationTicks": 227,
            "midi": 68,
            "name": "G#4",
            "ticks": 32880,
            "time": 34.25,
            "velocity": 0.6299212598425197
          },
          {
            "duration": 0.7114583333333329,
            "durationTicks": 683,
            "midi": 68,
            "name": "G#4",
            "ticks": 33120,
            "time": 34.5,
            "velocity": 0.6299212598425197
          },
          {
            "duration": 0.7114583333333329,
            "durationTicks": 683,
            "midi": 63,
            "name": "D#4",
            "ticks": 33840,
            "time": 35.25,
            "velocity": 0.6299212598425197
          },
          {
            "duration": 0.94895833333333,
            "durationTicks": 911,
            "midi": 72,
            "name": "C5",
            "ticks": 34560,
            "time": 36,
            "velocity": 0.6299212598425197
          },
          {
            "duration": 0.23645833333333144,
            "durationTicks": 227,
            "midi": 73,
            "name": "C#5",
            "ticks": 35520,
            "time": 37,
            "velocity": 0.6299212598425197
          },
          {
            "duration": 0.23645833333333144,
            "durationTicks": 227,
            "midi": 72,
            "name": "C5",
            "ticks": 35760,
            "time": 37.25,
            "velocity": 0.6299212598425197
          },
          {
            "duration": 0.7114583333333329,
            "durationTicks": 683,
            "midi": 70,
            "name": "A#4",
            "ticks": 36000,
            "time": 37.5,
            "velocity": 0.6299212598425197
          },
          {
            "duration": 0.23645833333333144,
            "durationTicks": 227,
            "midi": 72,
            "name": "C5",
            "ticks": 36720,
            "time": 38.25,
            "velocity": 0.6299212598425197
          },
          {
            "duration": 0.23645833333333144,
            "durationTicks": 227,
            "midi": 70,
            "name": "A#4",
            "ticks": 36960,
            "time": 38.5,
            "velocity": 0.6299212598425197
          },
          {
            "duration": 0.23645833333333144,
            "durationTicks": 227,
            "midi": 68,
            "name": "G#4",
            "ticks": 37200,
            "time": 38.75,
            "velocity": 0.6299212598425197
          },
          {
            "duration": 0.7114583333333329,
            "durationTicks": 683,
            "midi": 72,
            "name": "C5",
            "ticks": 37440,
            "time": 39,
            "velocity": 0.6299212598425197
          },
          {
            "duration": 0.7114583333333329,
            "durationTicks": 683,
            "midi": 72,
            "name": "C5",
            "ticks": 38160,
            "time": 39.75,
            "velocity": 0.6299212598425197
          },
          {
            "duration": 0.7114583333333329,
            "durationTicks": 683,
            "midi": 72,
            "name": "C5",
            "ticks": 38880,
            "time": 40.5,
            "velocity": 0.6299212598425197
          },
          {
            "duration": 0.23645833333333144,
            "durationTicks": 227,
            "midi": 72,
            "name": "C5",
            "ticks": 39600,
            "time": 41.25,
            "velocity": 0.6299212598425197
          },
          {
            "duration": 0.23645833333333144,
            "durationTicks": 227,
            "midi": 70,
            "name": "A#4",
            "ticks": 39840,
            "time": 41.5,
            "velocity": 0.6299212598425197
          },
          {
            "duration": 0.23645833333333144,
            "durationTicks": 227,
            "midi": 68,
            "name": "G#4",
            "ticks": 40080,
            "time": 41.75,
            "velocity": 0.6299212598425197
          },
          {
            "duration": 0.4739583333333357,
            "durationTicks": 455,
            "midi": 72,
            "name": "C5",
            "ticks": 40320,
            "time": 42,
            "velocity": 0.6299212598425197
          },
          {
            "duration": 0.23645833333333144,
            "durationTicks": 227,
            "midi": 70,
            "name": "A#4",
            "ticks": 40800,
            "time": 42.5,
            "velocity": 0.6299212598425197
          },
          {
            "duration": 0.4739583333333357,
            "durationTicks": 455,
            "midi": 72,
            "name": "C5",
            "ticks": 41040,
            "time": 42.75,
            "velocity": 0.6299212598425197
          },
          {
            "duration": 0.23645833333333144,
            "durationTicks": 227,
            "midi": 70,
            "name": "A#4",
            "ticks": 41520,
            "time": 43.25,
            "velocity": 0.6299212598425197
          },
          {
            "duration": 0.7114583333333329,
            "durationTicks": 683,
            "midi": 72,
            "name": "C5",
            "ticks": 41760,
            "time": 43.5,
            "velocity": 0.6299212598425197
          },
          {
            "duration": 0.23645833333333144,
            "durationTicks": 227,
            "midi": 72,
            "name": "C5",
            "ticks": 42480,
            "time": 44.25,
            "velocity": 0.6299212598425197
          },
          {
            "duration": 0.23645833333333144,
            "durationTicks": 227,
            "midi": 70,
            "name": "A#4",
            "ticks": 42720,
            "time": 44.5,
            "velocity": 0.6299212598425197
          },
          {
            "duration": 0.23645833333333144,
            "durationTicks": 227,
            "midi": 68,
            "name": "G#4",
            "ticks": 42960,
            "time": 44.75,
            "velocity": 0.6299212598425197
          },
          {
            "duration": 0.7114583333333329,
            "durationTicks": 683,
            "midi": 73,
            "name": "C#5",
            "ticks": 43200,
            "time": 45,
            "velocity": 0.6299212598425197
          },
          {
            "duration": 0.35520833333333,
            "durationTicks": 341,
            "midi": 72,
            "name": "C5",
            "ticks": 43920,
            "time": 45.75,
            "velocity": 0.6299212598425197
          },
          {
            "duration": 0.11770833333333286,
            "durationTicks": 113,
            "midi": 70,
            "name": "A#4",
            "ticks": 44280,
            "time": 46.125,
            "velocity": 0.6299212598425197
          },
          {
            "duration": 0.23645833333333144,
            "durationTicks": 227,
            "midi": 68,
            "name": "G#4",
            "ticks": 44400,
            "time": 46.25,
            "velocity": 0.6299212598425197
          },
          {
            "duration": 0.7114583333333329,
            "durationTicks": 683,
            "midi": 68,
            "name": "G#4",
            "ticks": 44640,
            "time": 46.5,
            "velocity": 0.6299212598425197
          },
          {
            "duration": 0.23645833333333144,
            "durationTicks": 227,
            "midi": 63,
            "name": "D#4",
            "ticks": 45360,
            "time": 47.25,
            "velocity": 0.6299212598425197
          },
          {
            "duration": 1.1864583333333343,
            "durationTicks": 1139,
            "midi": 70,
            "name": "A#4",
            "ticks": 45600,
            "time": 47.5,
            "velocity": 0.6299212598425197
          },
          {
            "duration": 0.11770833333333286,
            "durationTicks": 113,
            "midi": 72,
            "name": "C5",
            "ticks": 47520,
            "time": 49.5,
            "velocity": 0.6299212598425197
          },
          {
            "duration": 0.5927083333333343,
            "durationTicks": 569,
            "midi": 75,
            "name": "D#5",
            "ticks": 47640,
            "time": 49.625,
            "velocity": 0.6299212598425197
          },
          {
            "duration": 0.11770833333333286,
            "durationTicks": 113,
            "midi": 72,
            "name": "C5",
            "ticks": 48240,
            "time": 50.25,
            "velocity": 0.6299212598425197
          },
          {
            "duration": 0.11770833333333286,
            "durationTicks": 113,
            "midi": 70,
            "name": "A#4",
            "ticks": 48360,
            "time": 50.375,
            "velocity": 0.6299212598425197
          },
          {
            "duration": 0.11770833333333286,
            "durationTicks": 113,
            "midi": 72,
            "name": "C5",
            "ticks": 48480,
            "time": 50.5,
            "velocity": 0.6299212598425197
          },
          {
            "duration": 0.11770833333333286,
            "durationTicks": 113,
            "midi": 70,
            "name": "A#4",
            "ticks": 48600,
            "time": 50.625,
            "velocity": 0.6299212598425197
          },
          {
            "duration": 0.23645833333333144,
            "durationTicks": 227,
            "midi": 68,
            "name": "G#4",
            "ticks": 48720,
            "time": 50.75,
            "velocity": 0.6299212598425197
          },
          {
            "duration": 0.7114583333333329,
            "durationTicks": 683,
            "midi": 68,
            "name": "G#4",
            "ticks": 48960,
            "time": 51,
            "velocity": 0.6299212598425197
          },
          {
            "duration": 0.4739583333333357,
            "durationTicks": 455,
            "midi": 80,
            "name": "G#5",
            "ticks": 50400,
            "time": 52.5,
            "velocity": 0.6299212598425197
          },
          {
            "duration": 0.23645833333333144,
            "durationTicks": 227,
            "midi": 79,
            "name": "G5",
            "ticks": 50880,
            "time": 53,
            "velocity": 0.6299212598425197
          },
          {
            "duration": 0.4739583333333357,
            "durationTicks": 455,
            "midi": 77,
            "name": "F5",
            "ticks": 51120,
            "time": 53.25,
            "velocity": 0.6299212598425197
          },
          {
            "duration": 0.23645833333333144,
            "durationTicks": 227,
            "midi": 79,
            "name": "G5",
            "ticks": 51600,
            "time": 53.75,
            "velocity": 0.6299212598425197
          },
          {
            "duration": 0.7114583333333329,
            "durationTicks": 683,
            "midi": 72,
            "name": "C5",
            "ticks": 51840,
            "time": 54,
            "velocity": 0.6299212598425197
          },
          {
            "duration": 0.23645833333333144,
            "durationTicks": 227,
            "midi": 68,
            "name": "G#4",
            "ticks": 53040,
            "time": 55.25,
            "velocity": 0.6299212598425197
          },
          {
            "duration": 0.4739583333333357,
            "durationTicks": 455,
            "midi": 75,
            "name": "D#5",
            "ticks": 53280,
            "time": 55.5,
            "velocity": 0.6299212598425197
          },
          {
            "duration": 0.23645833333333144,
            "durationTicks": 227,
            "midi": 73,
            "name": "C#5",
            "ticks": 53760,
            "time": 56,
            "velocity": 0.6299212598425197
          },
          {
            "duration": 0.4739583333333357,
            "durationTicks": 455,
            "midi": 72,
            "name": "C5",
            "ticks": 54000,
            "time": 56.25,
            "velocity": 0.6299212598425197
          },
          {
            "duration": 0.23645833333333144,
            "durationTicks": 227,
            "midi": 70,
            "name": "A#4",
            "ticks": 54480,
            "time": 56.75,
            "velocity": 0.6299212598425197
          },
          {
            "duration": 0.7114583333333329,
            "durationTicks": 683,
            "midi": 68,
            "name": "G#4",
            "ticks": 54720,
            "time": 57,
            "velocity": 0.6299212598425197
          },
          {
            "duration": 0.4739583333333357,
            "durationTicks": 455,
            "midi": 80,
            "name": "G#5",
            "ticks": 56160,
            "time": 58.5,
            "velocity": 0.6299212598425197
          },
          {
            "duration": 0.23645833333333144,
            "durationTicks": 227,
            "midi": 79,
            "name": "G5",
            "ticks": 56640,
            "time": 59,
            "velocity": 0.6299212598425197
          },
          {
            "duration": 0.4739583333333357,
            "durationTicks": 455,
            "midi": 77,
            "name": "F5",
            "ticks": 56880,
            "time": 59.25,
            "velocity": 0.6299212598425197
          },
          {
            "duration": 0.23645833333333144,
            "durationTicks": 227,
            "midi": 68,
            "name": "G#4",
            "ticks": 57360,
            "time": 59.75,
            "velocity": 0.6299212598425197
          },
          {
            "duration": 0.7114583333333329,
            "durationTicks": 683,
            "midi": 72,
            "name": "C5",
            "ticks": 57600,
            "time": 60,
            "velocity": 0.6299212598425197
          },
          {
            "duration": 0.23645833333333144,
            "durationTicks": 227,
            "midi": 75,
            "name": "D#5",
            "ticks": 59040,
            "time": 61.5,
            "velocity": 0.6299212598425197
          },
          {
            "duration": 0.23645833333333144,
            "durationTicks": 227,
            "midi": 75,
            "name": "D#5",
            "ticks": 59280,
            "time": 61.75,
            "velocity": 0.6299212598425197
          },
          {
            "duration": 0.23645833333333144,
            "durationTicks": 227,
            "midi": 75,
            "name": "D#5",
            "ticks": 59520,
            "time": 62,
            "velocity": 0.6299212598425197
          },
          {
            "duration": 0.35520833333333,
            "durationTicks": 341,
            "midi": 75,
            "name": "D#5",
            "ticks": 59760,
            "time": 62.25,
            "velocity": 0.6299212598425197
          },
          {
            "duration": 0.35520833333333,
            "durationTicks": 341,
            "midi": 77,
            "name": "F5",
            "ticks": 60120,
            "time": 62.625,
            "velocity": 0.6299212598425197
          },
          {
            "duration": 0.23645833333333144,
            "durationTicks": 227,
            "midi": 72,
            "name": "C5",
            "ticks": 60480,
            "time": 63,
            "velocity": 0.6299212598425197
          },
          {
            "duration": 0.23645833333333144,
            "durationTicks": 227,
            "midi": 70,
            "name": "A#4",
            "ticks": 60720,
            "time": 63.25,
            "velocity": 0.6299212598425197
          },
          {
            "duration": 0.23645833333333144,
            "durationTicks": 227,
            "midi": 68,
            "name": "G#4",
            "ticks": 60960,
            "time": 63.5,
            "velocity": 0.6299212598425197
          },
          {
            "duration": 0.23645833333333144,
            "durationTicks": 227,
            "midi": 72,
            "name": "C5",
            "ticks": 61440,
            "time": 64,
            "velocity": 0.6299212598425197
          },
          {
            "duration": 0.23645833333333144,
            "durationTicks": 227,
            "midi": 75,
            "name": "D#5",
            "ticks": 61680,
            "time": 64.25,
            "velocity": 0.6299212598425197
          },
          {
            "duration": 0.4739583333333286,
            "durationTicks": 455,
            "midi": 80,
            "name": "G#5",
            "ticks": 61920,
            "time": 64.5,
            "velocity": 0.6299212598425197
          },
          {
            "duration": 0.23645833333333144,
            "durationTicks": 227,
            "midi": 79,
            "name": "G5",
            "ticks": 62400,
            "time": 65,
            "velocity": 0.6299212598425197
          },
          {
            "duration": 0.4739583333333286,
            "durationTicks": 455,
            "midi": 77,
            "name": "F5",
            "ticks": 62640,
            "time": 65.25,
            "velocity": 0.6299212598425197
          },
          {
            "duration": 0.23645833333333144,
            "durationTicks": 227,
            "midi": 79,
            "name": "G5",
            "ticks": 63120,
            "time": 65.75,
            "velocity": 0.6299212598425197
          },
          {
            "duration": 0.71145833333334,
            "durationTicks": 683,
            "midi": 72,
            "name": "C5",
            "ticks": 63360,
            "time": 66,
            "velocity": 0.6299212598425197
          },
          {
            "duration": 0.23645833333333144,
            "durationTicks": 227,
            "midi": 68,
            "name": "G#4",
            "ticks": 64080,
            "time": 66.75,
            "velocity": 0.6299212598425197
          },
          {
            "duration": 0.23645833333333144,
            "durationTicks": 227,
            "midi": 70,
            "name": "A#4",
            "ticks": 64320,
            "time": 67,
            "velocity": 0.6299212598425197
          },
          {
            "duration": 0.23645833333333144,
            "durationTicks": 227,
            "midi": 72,
            "name": "C5",
            "ticks": 64560,
            "time": 67.25,
            "velocity": 0.6299212598425197
          },
          {
            "duration": 0.4739583333333286,
            "durationTicks": 455,
            "midi": 75,
            "name": "D#5",
            "ticks": 64800,
            "time": 67.5,
            "velocity": 0.6299212598425197
          },
          {
            "duration": 0.23645833333333144,
            "durationTicks": 227,
            "midi": 73,
            "name": "C#5",
            "ticks": 65280,
            "time": 68,
            "velocity": 0.6299212598425197
          },
          {
            "duration": 0.4739583333333286,
            "durationTicks": 455,
            "midi": 72,
            "name": "C5",
            "ticks": 65520,
            "time": 68.25,
            "velocity": 0.6299212598425197
          },
          {
            "duration": 0.23645833333333144,
            "durationTicks": 227,
            "midi": 73,
            "name": "C#5",
            "ticks": 66000,
            "time": 68.75,
            "velocity": 0.6299212598425197
          },
          {
            "duration": 0.4739583333333286,
            "durationTicks": 455,
            "midi": 72,
            "name": "C5",
            "ticks": 66240,
            "time": 69,
            "velocity": 0.6299212598425197
          },
          {
            "duration": 0.23645833333333144,
            "durationTicks": 227,
            "midi": 68,
            "name": "G#4",
            "ticks": 66720,
            "time": 69.5,
            "velocity": 0.6299212598425197
          },
          {
            "duration": 0.71145833333334,
            "durationTicks": 683,
            "midi": 70,
            "name": "A#4",
            "ticks": 66960,
            "time": 69.75,
            "velocity": 0.6299212598425197
          },
          {
            "duration": 0.71145833333334,
            "durationTicks": 683,
            "midi": 73,
            "name": "C#5",
            "ticks": 67680,
            "time": 70.5,
            "velocity": 0.6299212598425197
          },
          {
            "duration": 0.4739583333333286,
            "durationTicks": 455,
            "midi": 72,
            "name": "C5",
            "ticks": 68400,
            "time": 71.25,
            "velocity": 0.6299212598425197
          },
          {
            "duration": 0.11770833333333997,
            "durationTicks": 113,
            "midi": 68,
            "name": "G#4",
            "ticks": 68880,
            "time": 71.75,
            "velocity": 0.6299212598425197
          },
          {
            "duration": 0.11770833333333997,
            "durationTicks": 113,
            "midi": 70,
            "name": "A#4",
            "ticks": 69000,
            "time": 71.875,
            "velocity": 0.6299212598425197
          },
          {
            "duration": 0.71145833333334,
            "durationTicks": 683,
            "midi": 72,
            "name": "C5",
            "ticks": 69120,
            "time": 72,
            "velocity": 0.6299212598425197
          },
          {
            "duration": 0.71145833333334,
            "durationTicks": 683,
            "midi": 70,
            "name": "A#4",
            "ticks": 69840,
            "time": 72.75,
            "velocity": 0.6299212598425197
          },
          {
            "duration": 0.71145833333334,
            "durationTicks": 683,
            "midi": 70,
            "name": "A#4",
            "ticks": 70560,
            "time": 73.5,
            "velocity": 0.6299212598425197
          },
          {
            "duration": 0.4739583333333286,
            "durationTicks": 455,
            "midi": 68,
            "name": "G#4",
            "ticks": 71280,
            "time": 74.25,
            "velocity": 0.6299212598425197
          },
          {
            "duration": 0.11770833333333997,
            "durationTicks": 113,
            "midi": 68,
            "name": "G#4",
            "ticks": 71760,
            "time": 74.75,
            "velocity": 0.6299212598425197
          },
          {
            "duration": 0.11770833333333997,
            "durationTicks": 113,
            "midi": 68,
            "name": "G#4",
            "ticks": 71880,
            "time": 74.875,
            "velocity": 0.6299212598425197
          },
          {
            "duration": 1.4239583333333314,
            "durationTicks": 1367,
            "midi": 72,
            "name": "C5",
            "ticks": 72000,
            "time": 75,
            "velocity": 0.6299212598425197
          },
          {
            "duration": 0.71145833333334,
            "durationTicks": 683,
            "midi": 72,
            "name": "C5",
            "ticks": 73440,
            "time": 76.5,
            "velocity": 0.6299212598425197
          },
          {
            "duration": 0.23645833333333144,
            "durationTicks": 227,
            "midi": 72,
            "name": "C5",
            "ticks": 74160,
            "time": 77.25,
            "velocity": 0.6299212598425197
          },
          {
            "duration": 0.23645833333333144,
            "durationTicks": 227,
            "midi": 70,
            "name": "A#4",
            "ticks": 74400,
            "time": 77.5,
            "velocity": 0.6299212598425197
          },
          {
            "duration": 0.23645833333333144,
            "durationTicks": 227,
            "midi": 68,
            "name": "G#4",
            "ticks": 74640,
            "time": 77.75,
            "velocity": 0.6299212598425197
          },
          {
            "duration": 0.4739583333333286,
            "durationTicks": 455,
            "midi": 70,
            "name": "A#4",
            "ticks": 74880,
            "time": 78,
            "velocity": 0.6299212598425197
          },
          {
            "duration": 0.23645833333333144,
            "durationTicks": 227,
            "midi": 68,
            "name": "G#4",
            "ticks": 75360,
            "time": 78.5,
            "velocity": 0.6299212598425197
          },
          {
            "duration": 1.4239583333333314,
            "durationTicks": 1367,
            "midi": 68,
            "name": "G#4",
            "ticks": 75600,
            "time": 78.75,
            "velocity": 0.6299212598425197
          },
          {
            "duration": 0.11770833333333997,
            "durationTicks": 113,
            "midi": 63,
            "name": "D#4",
            "ticks": 77040,
            "time": 80.25,
            "velocity": 0.6299212598425197
          },
          {
            "duration": 0.11770833333333997,
            "durationTicks": 113,
            "midi": 65,
            "name": "F4",
            "ticks": 77160,
            "time": 80.375,
            "velocity": 0.6299212598425197
          },
          {
            "duration": 0.23645833333333144,
            "durationTicks": 227,
            "midi": 68,
            "name": "G#4",
            "ticks": 77280,
            "time": 80.5,
            "velocity": 0.6299212598425197
          },
          {
            "duration": 0.23645833333333144,
            "durationTicks": 227,
            "midi": 70,
            "name": "A#4",
            "ticks": 77520,
            "time": 80.75,
            "velocity": 0.6299212598425197
          },
          {
            "duration": 0.71145833333334,
            "durationTicks": 683,
            "midi": 72,
            "name": "C5",
            "ticks": 77760,
            "time": 81,
            "velocity": 0.6299212598425197
          },
          {
            "duration": 0.23645833333333144,
            "durationTicks": 227,
            "midi": 70,
            "name": "A#4",
            "ticks": 78480,
            "time": 81.75,
            "velocity": 0.6299212598425197
          },
          {
            "duration": 0.23645833333333144,
            "durationTicks": 227,
            "midi": 68,
            "name": "G#4",
            "ticks": 78720,
            "time": 82,
            "velocity": 0.6299212598425197
          },
          {
            "duration": 0.23645833333333144,
            "durationTicks": 227,
            "midi": 70,
            "name": "A#4",
            "ticks": 78960,
            "time": 82.25,
            "velocity": 0.6299212598425197
          },
          {
            "duration": 0.71145833333334,
            "durationTicks": 683,
            "midi": 73,
            "name": "C#5",
            "ticks": 79200,
            "time": 82.5,
            "velocity": 0.6299212598425197
          },
          {
            "duration": 0.23645833333333144,
            "durationTicks": 227,
            "midi": 72,
            "name": "C5",
            "ticks": 79920,
            "time": 83.25,
            "velocity": 0.6299212598425197
          },
          {
            "duration": 0.23645833333333144,
            "durationTicks": 227,
            "midi": 70,
            "name": "A#4",
            "ticks": 80160,
            "time": 83.5,
            "velocity": 0.6299212598425197
          },
          {
            "duration": 0.23645833333333144,
            "durationTicks": 227,
            "midi": 68,
            "name": "G#4",
            "ticks": 80400,
            "time": 83.75,
            "velocity": 0.6299212598425197
          },
          {
            "duration": 0.71145833333334,
            "durationTicks": 683,
            "midi": 70,
            "name": "A#4",
            "ticks": 80640,
            "time": 84,
            "velocity": 0.6299212598425197
          },
          {
            "duration": 0.71145833333334,
            "durationTicks": 683,
            "midi": 68,
            "name": "G#4",
            "ticks": 81360,
            "time": 84.75,
            "velocity": 0.6299212598425197
          },
          {
            "duration": 0.23645833333333144,
            "durationTicks": 227,
            "midi": 73,
            "name": "C#5",
            "ticks": 82080,
            "time": 85.5,
            "velocity": 0.6299212598425197
          },
          {
            "duration": 0.4739583333333286,
            "durationTicks": 455,
            "midi": 75,
            "name": "D#5",
            "ticks": 82320,
            "time": 85.75,
            "velocity": 0.6299212598425197
          },
          {
            "duration": 0.23645833333333144,
            "durationTicks": 227,
            "midi": 77,
            "name": "F5",
            "ticks": 82800,
            "time": 86.25,
            "velocity": 0.6299212598425197
          },
          {
            "duration": 0.23645833333333144,
            "durationTicks": 227,
            "midi": 75,
            "name": "D#5",
            "ticks": 83040,
            "time": 86.5,
            "velocity": 0.6299212598425197
          },
          {
            "duration": 0.23645833333333144,
            "durationTicks": 227,
            "midi": 72,
            "name": "C5",
            "ticks": 83280,
            "time": 86.75,
            "velocity": 0.6299212598425197
          },
          {
            "duration": 0.3552083333333371,
            "durationTicks": 341,
            "midi": 72,
            "name": "C5",
            "ticks": 83520,
            "time": 87,
            "velocity": 0.6299212598425197
          },
          {
            "duration": 0.11770833333333997,
            "durationTicks": 113,
            "midi": 70,
            "name": "A#4",
            "ticks": 83880,
            "time": 87.375,
            "velocity": 0.6299212598425197
          },
          {
            "duration": 0.11770833333333997,
            "durationTicks": 113,
            "midi": 68,
            "name": "G#4",
            "ticks": 84000,
            "time": 87.5,
            "velocity": 0.6299212598425197
          },
          {
            "duration": 0.11770833333333997,
            "durationTicks": 113,
            "midi": 70,
            "name": "A#4",
            "ticks": 84120,
            "time": 87.625,
            "velocity": 0.6299212598425197
          },
          {
            "duration": 0.71145833333334,
            "durationTicks": 683,
            "midi": 68,
            "name": "G#4",
            "ticks": 84240,
            "time": 87.75,
            "velocity": 0.6299212598425197
          },
          {
            "duration": 0.4739583333333286,
            "durationTicks": 455,
            "midi": 80,
            "name": "G#5",
            "ticks": 84960,
            "time": 88.5,
            "velocity": 0.6299212598425197
          },
          {
            "duration": 0.23645833333333144,
            "durationTicks": 227,
            "midi": 79,
            "name": "G5",
            "ticks": 85440,
            "time": 89,
            "velocity": 0.6299212598425197
          },
          {
            "duration": 0.4739583333333286,
            "durationTicks": 455,
            "midi": 77,
            "name": "F5",
            "ticks": 85680,
            "time": 89.25,
            "velocity": 0.6299212598425197
          },
          {
            "duration": 0.23645833333333144,
            "durationTicks": 227,
            "midi": 79,
            "name": "G5",
            "ticks": 86160,
            "time": 89.75,
            "velocity": 0.6299212598425197
          },
          {
            "duration": 0.71145833333334,
            "durationTicks": 683,
            "midi": 72,
            "name": "C5",
            "ticks": 86400,
            "time": 90,
            "velocity": 0.6299212598425197
          },
          {
            "duration": 0.23645833333333144,
            "durationTicks": 227,
            "midi": 68,
            "name": "G#4",
            "ticks": 87600,
            "time": 91.25,
            "velocity": 0.6299212598425197
          },
          {
            "duration": 0.4739583333333286,
            "durationTicks": 455,
            "midi": 75,
            "name": "D#5",
            "ticks": 87840,
            "time": 91.5,
            "velocity": 0.6299212598425197
          },
          {
            "duration": 0.23645833333333144,
            "durationTicks": 227,
            "midi": 73,
            "name": "C#5",
            "ticks": 88320,
            "time": 92,
            "velocity": 0.6299212598425197
          },
          {
            "duration": 0.4739583333333286,
            "durationTicks": 455,
            "midi": 72,
            "name": "C5",
            "ticks": 88560,
            "time": 92.25,
            "velocity": 0.6299212598425197
          },
          {
            "duration": 0.23645833333333144,
            "durationTicks": 227,
            "midi": 70,
            "name": "A#4",
            "ticks": 89040,
            "time": 92.75,
            "velocity": 0.6299212598425197
          },
          {
            "duration": 0.71145833333334,
            "durationTicks": 683,
            "midi": 68,
            "name": "G#4",
            "ticks": 89280,
            "time": 93,
            "velocity": 0.6299212598425197
          },
          {
            "duration": 0.4739583333333286,
            "durationTicks": 455,
            "midi": 80,
            "name": "G#5",
            "ticks": 90720,
            "time": 94.5,
            "velocity": 0.6299212598425197
          },
          {
            "duration": 0.23645833333333144,
            "durationTicks": 227,
            "midi": 79,
            "name": "G5",
            "ticks": 91200,
            "time": 95,
            "velocity": 0.6299212598425197
          },
          {
            "duration": 0.4739583333333286,
            "durationTicks": 455,
            "midi": 77,
            "name": "F5",
            "ticks": 91440,
            "time": 95.25,
            "velocity": 0.6299212598425197
          },
          {
            "duration": 0.23645833333333144,
            "durationTicks": 227,
            "midi": 68,
            "name": "G#4",
            "ticks": 91920,
            "time": 95.75,
            "velocity": 0.6299212598425197
          },
          {
            "duration": 0.71145833333334,
            "durationTicks": 683,
            "midi": 72,
            "name": "C5",
            "ticks": 92160,
            "time": 96,
            "velocity": 0.6299212598425197
          },
          {
            "duration": 0.23645833333333144,
            "durationTicks": 227,
            "midi": 75,
            "name": "D#5",
            "ticks": 93600,
            "time": 97.5,
            "velocity": 0.6299212598425197
          },
          {
            "duration": 0.23645833333333144,
            "durationTicks": 227,
            "midi": 75,
            "name": "D#5",
            "ticks": 93840,
            "time": 97.75,
            "velocity": 0.6299212598425197
          },
          {
            "duration": 0.23645833333333144,
            "durationTicks": 227,
            "midi": 75,
            "name": "D#5",
            "ticks": 94080,
            "time": 98,
            "velocity": 0.6299212598425197
          },
          {
            "duration": 0.3552083333333371,
            "durationTicks": 341,
            "midi": 75,
            "name": "D#5",
            "ticks": 94320,
            "time": 98.25,
            "velocity": 0.6299212598425197
          },
          {
            "duration": 0.3552083333333371,
            "durationTicks": 341,
            "midi": 77,
            "name": "F5",
            "ticks": 94680,
            "time": 98.625,
            "velocity": 0.6299212598425197
          },
          {
            "duration": 0.23645833333333144,
            "durationTicks": 227,
            "midi": 72,
            "name": "C5",
            "ticks": 95040,
            "time": 99,
            "velocity": 0.6299212598425197
          },
          {
            "duration": 0.23645833333333144,
            "durationTicks": 227,
            "midi": 70,
            "name": "A#4",
            "ticks": 95280,
            "time": 99.25,
            "velocity": 0.6299212598425197
          },
          {
            "duration": 0.23645833333333144,
            "durationTicks": 227,
            "midi": 68,
            "name": "G#4",
            "ticks": 95520,
            "time": 99.5,
            "velocity": 0.6299212598425197
          },
          {
            "duration": 0.23645833333333144,
            "durationTicks": 227,
            "midi": 72,
            "name": "C5",
            "ticks": 96000,
            "time": 100,
            "velocity": 0.6299212598425197
          },
          {
            "duration": 0.23645833333333144,
            "durationTicks": 227,
            "midi": 75,
            "name": "D#5",
            "ticks": 96240,
            "time": 100.25,
            "velocity": 0.6299212598425197
          },
          {
            "duration": 0.4739583333333286,
            "durationTicks": 455,
            "midi": 77,
            "name": "F5",
            "ticks": 96480,
            "time": 100.5,
            "velocity": 0.6299212598425197
          },
          {
            "duration": 0.23645833333333144,
            "durationTicks": 227,
            "midi": 77,
            "name": "F5",
            "ticks": 96960,
            "time": 101,
            "velocity": 0.6299212598425197
          },
          {
            "duration": 0.23645833333333144,
            "durationTicks": 227,
            "midi": 77,
            "name": "F5",
            "ticks": 97200,
            "time": 101.25,
            "velocity": 0.6299212598425197
          },
          {
            "duration": 0.23645833333333144,
            "durationTicks": 227,
            "midi": 75,
            "name": "D#5",
            "ticks": 97440,
            "time": 101.5,
            "velocity": 0.6299212598425197
          },
          {
            "duration": 0.23645833333333144,
            "durationTicks": 227,
            "midi": 75,
            "name": "D#5",
            "ticks": 97680,
            "time": 101.75,
            "velocity": 0.6299212598425197
          },
          {
            "duration": 0.71145833333334,
            "durationTicks": 683,
            "midi": 72,
            "name": "C5",
            "ticks": 97920,
            "time": 102,
            "velocity": 0.6299212598425197
          },
          {
            "duration": 0.23645833333333144,
            "durationTicks": 227,
            "midi": 68,
            "name": "G#4",
            "ticks": 98640,
            "time": 102.75,
            "velocity": 0.6299212598425197
          },
          {
            "duration": 0.23645833333333144,
            "durationTicks": 227,
            "midi": 70,
            "name": "A#4",
            "ticks": 98880,
            "time": 103,
            "velocity": 0.6299212598425197
          },
          {
            "duration": 0.23645833333333144,
            "durationTicks": 227,
            "midi": 72,
            "name": "C5",
            "ticks": 99120,
            "time": 103.25,
            "velocity": 0.6299212598425197
          },
          {
            "duration": 0.4739583333333286,
            "durationTicks": 455,
            "midi": 75,
            "name": "D#5",
            "ticks": 99360,
            "time": 103.5,
            "velocity": 0.6299212598425197
          },
          {
            "duration": 0.23645833333333144,
            "durationTicks": 227,
            "midi": 73,
            "name": "C#5",
            "ticks": 99840,
            "time": 104,
            "velocity": 0.6299212598425197
          },
          {
            "duration": 0.4739583333333286,
            "durationTicks": 455,
            "midi": 72,
            "name": "C5",
            "ticks": 100080,
            "time": 104.25,
            "velocity": 0.6299212598425197
          },
          {
            "duration": 0.23645833333333144,
            "durationTicks": 227,
            "midi": 73,
            "name": "C#5",
            "ticks": 100560,
            "time": 104.75,
            "velocity": 0.6299212598425197
          },
          {
            "duration": 0.71145833333334,
            "durationTicks": 683,
            "midi": 72,
            "name": "C5",
            "ticks": 100800,
            "time": 105,
            "velocity": 0.6299212598425197
          },
          {
            "duration": 0.4739583333333286,
            "durationTicks": 455,
            "midi": 70,
            "name": "A#4",
            "ticks": 101520,
            "time": 105.75,
            "velocity": 0.6299212598425197
          },
          {
            "duration": 0.23645833333333144,
            "durationTicks": 227,
            "midi": 68,
            "name": "G#4",
            "ticks": 102000,
            "time": 106.25,
            "velocity": 0.6299212598425197
          },
          {
            "duration": 0.71145833333334,
            "durationTicks": 683,
            "midi": 73,
            "name": "C#5",
            "ticks": 102240,
            "time": 106.5,
            "velocity": 0.6299212598425197
          },
          {
            "duration": 0.4739583333333286,
            "durationTicks": 455,
            "midi": 72,
            "name": "C5",
            "ticks": 102960,
            "time": 107.25,
            "velocity": 0.6299212598425197
          },
          {
            "duration": 0.23645833333333144,
            "durationTicks": 227,
            "midi": 68,
            "name": "G#4",
            "ticks": 103440,
            "time": 107.75,
            "velocity": 0.6299212598425197
          },
          {
            "duration": 0.71145833333334,
            "durationTicks": 683,
            "midi": 72,
            "name": "C5",
            "ticks": 103680,
            "time": 108,
            "velocity": 0.6299212598425197
          },
          {
            "duration": 0.71145833333334,
            "durationTicks": 683,
            "midi": 70,
            "name": "A#4",
            "ticks": 104400,
            "time": 108.75,
            "velocity": 0.6299212598425197
          },
          {
            "duration": 0.71145833333334,
            "durationTicks": 683,
            "midi": 70,
            "name": "A#4",
            "ticks": 105120,
            "time": 109.5,
            "velocity": 0.6299212598425197
          },
          {
            "duration": 0.4739583333333286,
            "durationTicks": 455,
            "midi": 68,
            "name": "G#4",
            "ticks": 105840,
            "time": 110.25,
            "velocity": 0.6299212598425197
          },
          {
            "duration": 0.23645833333333144,
            "durationTicks": 227,
            "midi": 68,
            "name": "G#4",
            "ticks": 106320,
            "time": 110.75,
            "velocity": 0.6299212598425197
          },
          {
            "duration": 0.71145833333334,
            "durationTicks": 683,
            "midi": 72,
            "name": "C5",
            "ticks": 106560,
            "time": 111,
            "velocity": 0.6299212598425197
          },
          {
            "duration": 0.71145833333334,
            "durationTicks": 683,
            "midi": 70,
            "name": "A#4",
            "ticks": 107280,
            "time": 111.75,
            "velocity": 0.5984251968503937
          },
          {
            "duration": 0.71145833333334,
            "durationTicks": 683,
            "midi": 73,
            "name": "C#5",
            "ticks": 108000,
            "time": 112.5,
            "velocity": 0.5669291338582677
          },
          {
            "duration": 0.71145833333334,
            "durationTicks": 683,
            "midi": 72,
            "name": "C5",
            "ticks": 108720,
            "time": 113.25,
            "velocity": 0.5354330708661418
          },
          {
            "duration": 0.71145833333334,
            "durationTicks": 683,
            "midi": 72,
            "name": "C5",
            "ticks": 109440,
            "time": 114,
            "velocity": 0.5039370078740157
          },
          {
            "duration": 0.71145833333334,
            "durationTicks": 683,
            "midi": 70,
            "name": "A#4",
            "ticks": 110160,
            "time": 114.75,
            "velocity": 0.5039370078740157
          },
          {
            "duration": 0.71145833333334,
            "durationTicks": 683,
            "midi": 70,
            "name": "A#4",
            "ticks": 110880,
            "time": 115.5,
            "velocity": 0.5039370078740157
          },
          {
            "duration": 0.4739583333333286,
            "durationTicks": 455,
            "midi": 68,
            "name": "G#4",
            "ticks": 111600,
            "time": 116.25,
            "velocity": 0.5039370078740157
          },
          {
            "duration": 0.11770833333333997,
            "durationTicks": 113,
            "midi": 67,
            "name": "G4",
            "ticks": 112080,
            "time": 116.75,
            "velocity": 0.5039370078740157
          },
          {
            "duration": 0.11770833333333997,
            "durationTicks": 113,
            "midi": 68,
            "name": "G#4",
            "ticks": 112200,
            "time": 116.875,
            "velocity": 0.5039370078740157
          },
          {
            "duration": 0.71145833333334,
            "durationTicks": 683,
            "midi": 72,
            "name": "C5",
            "ticks": 112320,
            "time": 117,
            "velocity": 0.5039370078740157
          },
          {
            "duration": 0.71145833333334,
            "durationTicks": 683,
            "midi": 70,
            "name": "A#4",
            "ticks": 113040,
            "time": 117.75,
            "velocity": 0.48031496062992124
          },
          {
            "duration": 0.71145833333334,
            "durationTicks": 683,
            "midi": 68,
            "name": "G#4",
            "ticks": 113760,
            "time": 118.5,
            "velocity": 0.44881889763779526
          },
          {
            "duration": 0.71145833333334,
            "durationTicks": 683,
            "midi": 67,
            "name": "G4",
            "ticks": 114480,
            "time": 119.25,
            "velocity": 0.41732283464566927
          },
          {
            "duration": 1.4239583333333314,
            "durationTicks": 1367,
            "midi": 65,
            "name": "F4",
            "ticks": 115200,
            "time": 120,
            "velocity": 0.3858267716535433
          },
          {
            "duration": 1.4239583333333314,
            "durationTicks": 1367,
            "midi": 67,
            "name": "G4",
            "ticks": 116640,
            "time": 121.5,
            "velocity": 0.3858267716535433
          },
          {
            "duration": 2.8489583333333286,
            "durationTicks": 2735,
            "midi": 60,
            "name": "C4",
            "ticks": 118080,
            "time": 123,
            "velocity": 0.25984251968503935
          },
          {
            "duration": 2.8489583333333286,
            "durationTicks": 2735,
            "midi": 72,
            "name": "C5",
            "ticks": 118080,
            "time": 123,
            "velocity": 0.25984251968503935
          }
        ]
      },
      {
        "channel": 1,
        "controlChanges": {
          "7": [
            {
              "number": 7,
              "ticks": 0,
              "time": 0,
              "value": 0.7874015748031497
            }
          ],
          "10": [
            {
              "number": 10,
              "ticks": 0,
              "time": 0,
              "value": 0.5039370078740157
            }
          ],
          "91": [
            {
              "number": 91,
              "ticks": 0,
              "time": 0,
              "value": 0
            }
          ],
          "93": [
            {
              "number": 93,
              "ticks": 0,
              "time": 0,
              "value": 0
            }
          ],
          "121": [
            {
              "number": 121,
              "ticks": 0,
              "time": 0,
              "value": 0
            }
          ]
        },
        "pitchBends": [],
        "instrument": {
          "family": "piano",
          "name": "acoustic grand piano",
          "number": 0
        },
        "name": "Piano\u0000",
        "notes": [
          {
            "duration": 2.136458333333333,
            "durationTicks": 2051,
            "midi": 60,
            "name": "C4",
            "ticks": 0,
            "time": 0,
            "velocity": 0.3858267716535433
          },
          {
            "duration": 2.136458333333333,
            "durationTicks": 2051,
            "midi": 63,
            "name": "D#4",
            "ticks": 0,
            "time": 0,
            "velocity": 0.3858267716535433
          },
          {
            "duration": 2.136458333333333,
            "durationTicks": 2051,
            "midi": 68,
            "name": "G#4",
            "ticks": 0,
            "time": 0,
            "velocity": 0.3858267716535433
          },
          {
            "duration": 0.3552083333333331,
            "durationTicks": 341,
            "midi": 56,
            "name": "G#3",
            "ticks": 2760,
            "time": 2.875,
            "velocity": 0.3858267716535433
          },
          {
            "duration": 0.3552083333333331,
            "durationTicks": 341,
            "midi": 63,
            "name": "D#4",
            "ticks": 2760,
            "time": 2.875,
            "velocity": 0.3858267716535433
          },
          {
            "duration": 0.23645833333333321,
            "durationTicks": 227,
            "midi": 56,
            "name": "G#3",
            "ticks": 3120,
            "time": 3.25,
            "velocity": 0.3858267716535433
          },
          {
            "duration": 0.23645833333333321,
            "durationTicks": 227,
            "midi": 63,
            "name": "D#4",
            "ticks": 3120,
            "time": 3.25,
            "velocity": 0.3858267716535433
          },
          {
            "duration": 0.23645833333333321,
            "durationTicks": 227,
            "midi": 56,
            "name": "G#3",
            "ticks": 3360,
            "time": 3.5,
            "velocity": 0.3858267716535433
          },
          {
            "duration": 0.23645833333333321,
            "durationTicks": 227,
            "midi": 63,
            "name": "D#4",
            "ticks": 3360,
            "time": 3.5,
            "velocity": 0.3858267716535433
          },
          {
            "duration": 0.23645833333333321,
            "durationTicks": 227,
            "midi": 56,
            "name": "G#3",
            "ticks": 3600,
            "time": 3.75,
            "velocity": 0.3858267716535433
          },
          {
            "duration": 0.23645833333333321,
            "durationTicks": 227,
            "midi": 63,
            "name": "D#4",
            "ticks": 3600,
            "time": 3.75,
            "velocity": 0.3858267716535433
          },
          {
            "duration": 0.23645833333333321,
            "durationTicks": 227,
            "midi": 56,
            "name": "G#3",
            "ticks": 3840,
            "time": 4,
            "velocity": 0.3858267716535433
          },
          {
            "duration": 0.23645833333333321,
            "durationTicks": 227,
            "midi": 63,
            "name": "D#4",
            "ticks": 3840,
            "time": 4,
            "velocity": 0.3858267716535433
          },
          {
            "duration": 0.23645833333333321,
            "durationTicks": 227,
            "midi": 56,
            "name": "G#3",
            "ticks": 4080,
            "time": 4.25,
            "velocity": 0.3858267716535433
          },
          {
            "duration": 0.23645833333333321,
            "durationTicks": 227,
            "midi": 63,
            "name": "D#4",
            "ticks": 4080,
            "time": 4.25,
            "velocity": 0.3858267716535433
          },
          {
            "duration": 0.23645833333333321,
            "durationTicks": 227,
            "midi": 56,
            "name": "G#3",
            "ticks": 4320,
            "time": 4.5,
            "velocity": 0.3858267716535433
          },
          {
            "duration": 0.23645833333333321,
            "durationTicks": 227,
            "midi": 63,
            "name": "D#4",
            "ticks": 4320,
            "time": 4.5,
            "velocity": 0.3858267716535433
          },
          {
            "duration": 0.23645833333333321,
            "durationTicks": 227,
            "midi": 56,
            "name": "G#3",
            "ticks": 4560,
            "time": 4.75,
            "velocity": 0.3858267716535433
          },
          {
            "duration": 0.23645833333333321,
            "durationTicks": 227,
            "midi": 63,
            "name": "D#4",
            "ticks": 4560,
            "time": 4.75,
            "velocity": 0.3858267716535433
          },
          {
            "duration": 0.23645833333333321,
            "durationTicks": 227,
            "midi": 63,
            "name": "D#4",
            "ticks": 4800,
            "time": 5,
            "velocity": 0.3858267716535433
          },
          {
            "duration": 0.23645833333333321,
            "durationTicks": 227,
            "midi": 68,
            "name": "G#4",
            "ticks": 4800,
            "time": 5,
            "velocity": 0.3858267716535433
          },
          {
            "duration": 0.23645833333333321,
            "durationTicks": 227,
            "midi": 63,
            "name": "D#4",
            "ticks": 5040,
            "time": 5.25,
            "velocity": 0.3858267716535433
          },
          {
            "duration": 0.23645833333333321,
            "durationTicks": 227,
            "midi": 68,
            "name": "G#4",
            "ticks": 5040,
            "time": 5.25,
            "velocity": 0.3858267716535433
          },
          {
            "duration": 0.23645833333333321,
            "durationTicks": 227,
            "midi": 63,
            "name": "D#4",
            "ticks": 5280,
            "time": 5.5,
            "velocity": 0.3858267716535433
          },
          {
            "duration": 0.47395833333333304,
            "durationTicks": 455,
            "midi": 63,
            "name": "D#4",
            "ticks": 5520,
            "time": 5.75,
            "velocity": 0.3858267716535433
          },
          {
            "duration": 0.47395833333333304,
            "durationTicks": 455,
            "midi": 68,
            "name": "G#4",
            "ticks": 5520,
            "time": 5.75,
            "velocity": 0.3858267716535433
          },
          {
            "duration": 0.23645833333333321,
            "durationTicks": 227,
            "midi": 63,
            "name": "D#4",
            "ticks": 6000,
            "time": 6.25,
            "velocity": 0.3858267716535433
          },
          {
            "duration": 0.23645833333333321,
            "durationTicks": 227,
            "midi": 68,
            "name": "G#4",
            "ticks": 6000,
            "time": 6.25,
            "velocity": 0.3858267716535433
          },
          {
            "duration": 0.23645833333333321,
            "durationTicks": 227,
            "midi": 63,
            "name": "D#4",
            "ticks": 6240,
            "time": 6.5,
            "velocity": 0.3858267716535433
          },
          {
            "duration": 0.23645833333333321,
            "durationTicks": 227,
            "midi": 68,
            "name": "G#4",
            "ticks": 6240,
            "time": 6.5,
            "velocity": 0.3858267716535433
          },
          {
            "duration": 0.23645833333333321,
            "durationTicks": 227,
            "midi": 63,
            "name": "D#4",
            "ticks": 6480,
            "time": 6.75,
            "velocity": 0.3858267716535433
          },
          {
            "duration": 0.23645833333333321,
            "durationTicks": 227,
            "midi": 68,
            "name": "G#4",
            "ticks": 6480,
            "time": 6.75,
            "velocity": 0.3858267716535433
          },
          {
            "duration": 0.23645833333333321,
            "durationTicks": 227,
            "midi": 63,
            "name": "D#4",
            "ticks": 6720,
            "time": 7,
            "velocity": 0.3858267716535433
          },
          {
            "duration": 0.23645833333333321,
            "durationTicks": 227,
            "midi": 68,
            "name": "G#4",
            "ticks": 6720,
            "time": 7,
            "velocity": 0.3858267716535433
          },
          {
            "duration": 0.23645833333333321,
            "durationTicks": 227,
            "midi": 63,
            "name": "D#4",
            "ticks": 6960,
            "time": 7.25,
            "velocity": 0.3858267716535433
          },
          {
            "duration": 0.23645833333333321,
            "durationTicks": 227,
            "midi": 68,
            "name": "G#4",
            "ticks": 6960,
            "time": 7.25,
            "velocity": 0.3858267716535433
          },
          {
            "duration": 0.23645833333333321,
            "durationTicks": 227,
            "midi": 63,
            "name": "D#4",
            "ticks": 7200,
            "time": 7.5,
            "velocity": 0.3858267716535433
          },
          {
            "duration": 0.23645833333333321,
            "durationTicks": 227,
            "midi": 68,
            "name": "G#4",
            "ticks": 7200,
            "time": 7.5,
            "velocity": 0.3858267716535433
          },
          {
            "duration": 0.23645833333333321,
            "durationTicks": 227,
            "midi": 63,
            "name": "D#4",
            "ticks": 7440,
            "time": 7.75,
            "velocity": 0.3858267716535433
          },
          {
            "duration": 0.23645833333333321,
            "durationTicks": 227,
            "midi": 68,
            "name": "G#4",
            "ticks": 7440,
            "time": 7.75,
            "velocity": 0.3858267716535433
          },
          {
            "duration": 0.23645833333333321,
            "durationTicks": 227,
            "midi": 63,
            "name": "D#4",
            "ticks": 7680,
            "time": 8,
            "velocity": 0.3858267716535433
          },
          {
            "duration": 0.23645833333333321,
            "durationTicks": 227,
            "midi": 68,
            "name": "G#4",
            "ticks": 7680,
            "time": 8,
            "velocity": 0.3858267716535433
          },
          {
            "duration": 0.23645833333333321,
            "durationTicks": 227,
            "midi": 63,
            "name": "D#4",
            "ticks": 7920,
            "time": 8.25,
            "velocity": 0.3858267716535433
          },
          {
            "duration": 0.23645833333333321,
            "durationTicks": 227,
            "midi": 63,
            "name": "D#4",
            "ticks": 8160,
            "time": 8.5,
            "velocity": 0.3858267716535433
          },
          {
            "duration": 0.23645833333333321,
            "durationTicks": 227,
            "midi": 63,
            "name": "D#4",
            "ticks": 8400,
            "time": 8.75,
            "velocity": 0.3858267716535433
          },
          {
            "duration": 0.23645833333333321,
            "durationTicks": 227,
            "midi": 63,
            "name": "D#4",
            "ticks": 8640,
            "time": 9,
            "velocity": 0.3858267716535433
          },
          {
            "duration": 0.23645833333333321,
            "durationTicks": 227,
            "midi": 68,
            "name": "G#4",
            "ticks": 8640,
            "time": 9,
            "velocity": 0.3858267716535433
          },
          {
            "duration": 0.23645833333333321,
            "durationTicks": 227,
            "midi": 63,
            "name": "D#4",
            "ticks": 8880,
            "time": 9.25,
            "velocity": 0.3858267716535433
          },
          {
            "duration": 0.23645833333333321,
            "durationTicks": 227,
            "midi": 68,
            "name": "G#4",
            "ticks": 8880,
            "time": 9.25,
            "velocity": 0.3858267716535433
          },
          {
            "duration": 0.23645833333333321,
            "durationTicks": 227,
            "midi": 63,
            "name": "D#4",
            "ticks": 9120,
            "time": 9.5,
            "velocity": 0.3858267716535433
          },
          {
            "duration": 0.23645833333333321,
            "durationTicks": 227,
            "midi": 68,
            "name": "G#4",
            "ticks": 9120,
            "time": 9.5,
            "velocity": 0.3858267716535433
          },
          {
            "duration": 0.23645833333333321,
            "durationTicks": 227,
            "midi": 56,
            "name": "G#3",
            "ticks": 9360,
            "time": 9.75,
            "velocity": 0.3858267716535433
          },
          {
            "duration": 0.23645833333333321,
            "durationTicks": 227,
            "midi": 63,
            "name": "D#4",
            "ticks": 9360,
            "time": 9.75,
            "velocity": 0.3858267716535433
          },
          {
            "duration": 0.23645833333333321,
            "durationTicks": 227,
            "midi": 56,
            "name": "G#3",
            "ticks": 9600,
            "time": 10,
            "velocity": 0.3858267716535433
          },
          {
            "duration": 0.23645833333333321,
            "durationTicks": 227,
            "midi": 63,
            "name": "D#4",
            "ticks": 9600,
            "time": 10,
            "velocity": 0.3858267716535433
          },
          {
            "duration": 0.23645833333333321,
            "durationTicks": 227,
            "midi": 56,
            "name": "G#3",
            "ticks": 9840,
            "time": 10.25,
            "velocity": 0.3858267716535433
          },
          {
            "duration": 0.23645833333333321,
            "durationTicks": 227,
            "midi": 63,
            "name": "D#4",
            "ticks": 9840,
            "time": 10.25,
            "velocity": 0.3858267716535433
          },
          {
            "duration": 0.23645833333333321,
            "durationTicks": 227,
            "midi": 56,
            "name": "G#3",
            "ticks": 10080,
            "time": 10.5,
            "velocity": 0.3858267716535433
          },
          {
            "duration": 0.23645833333333321,
            "durationTicks": 227,
            "midi": 63,
            "name": "D#4",
            "ticks": 10080,
            "time": 10.5,
            "velocity": 0.3858267716535433
          },
          {
            "duration": 0.23645833333333321,
            "durationTicks": 227,
            "midi": 56,
            "name": "G#3",
            "ticks": 10320,
            "time": 10.75,
            "velocity": 0.3858267716535433
          },
          {
            "duration": 0.23645833333333321,
            "durationTicks": 227,
            "midi": 63,
            "name": "D#4",
            "ticks": 10320,
            "time": 10.75,
            "velocity": 0.3858267716535433
          },
          {
            "duration": 0.23645833333333321,
            "durationTicks": 227,
            "midi": 56,
            "name": "G#3",
            "ticks": 10560,
            "time": 11,
            "velocity": 0.3858267716535433
          },
          {
            "duration": 0.23645833333333321,
            "durationTicks": 227,
            "midi": 63,
            "name": "D#4",
            "ticks": 10560,
            "time": 11,
            "velocity": 0.3858267716535433
          },
          {
            "duration": 0.23645833333333321,
            "durationTicks": 227,
            "midi": 63,
            "name": "D#4",
            "ticks": 10800,
            "time": 11.25,
            "velocity": 0.3858267716535433
          },
          {
            "duration": 0.23645833333333321,
            "durationTicks": 227,
            "midi": 63,
            "name": "D#4",
            "ticks": 11040,
            "time": 11.5,
            "velocity": 0.3858267716535433
          },
          {
            "duration": 0.23645833333333321,
            "durationTicks": 227,
            "midi": 63,
            "name": "D#4",
            "ticks": 11280,
            "time": 11.75,
            "velocity": 0.3858267716535433
          },
          {
            "duration": 0.23645833333333321,
            "durationTicks": 227,
            "midi": 63,
            "name": "D#4",
            "ticks": 11520,
            "time": 12,
            "velocity": 0.3858267716535433
          },
          {
            "duration": 0.23645833333333321,
            "durationTicks": 227,
            "midi": 67,
            "name": "G4",
            "ticks": 11520,
            "time": 12,
            "velocity": 0.3858267716535433
          },
          {
            "duration": 0.23645833333333321,
            "durationTicks": 227,
            "midi": 63,
            "name": "D#4",
            "ticks": 11760,
            "time": 12.25,
            "velocity": 0.3858267716535433
          },
          {
            "duration": 0.23645833333333321,
            "durationTicks": 227,
            "midi": 67,
            "name": "G4",
            "ticks": 11760,
            "time": 12.25,
            "velocity": 0.3858267716535433
          },
          {
            "duration": 0.23645833333333321,
            "durationTicks": 227,
            "midi": 63,
            "name": "D#4",
            "ticks": 12000,
            "time": 12.5,
            "velocity": 0.3858267716535433
          },
          {
            "duration": 0.23645833333333321,
            "durationTicks": 227,
            "midi": 67,
            "name": "G4",
            "ticks": 12000,
            "time": 12.5,
            "velocity": 0.3858267716535433
          },
          {
            "duration": 0.23645833333333321,
            "durationTicks": 227,
            "midi": 63,
            "name": "D#4",
            "ticks": 12240,
            "time": 12.75,
            "velocity": 0.3858267716535433
          },
          {
            "duration": 0.23645833333333321,
            "durationTicks": 227,
            "midi": 67,
            "name": "G4",
            "ticks": 12240,
            "time": 12.75,
            "velocity": 0.3858267716535433
          },
          {
            "duration": 0.23645833333333321,
            "durationTicks": 227,
            "midi": 63,
            "name": "D#4",
            "ticks": 12480,
            "time": 13,
            "velocity": 0.3858267716535433
          },
          {
            "duration": 0.23645833333333321,
            "durationTicks": 227,
            "midi": 67,
            "name": "G4",
            "ticks": 12480,
            "time": 13,
            "velocity": 0.3858267716535433
          },
          {
            "duration": 0.23645833333333321,
            "durationTicks": 227,
            "midi": 63,
            "name": "D#4",
            "ticks": 12720,
            "time": 13.25,
            "velocity": 0.3858267716535433
          },
          {
            "duration": 0.23645833333333321,
            "durationTicks": 227,
            "midi": 67,
            "name": "G4",
            "ticks": 12720,
            "time": 13.25,
            "velocity": 0.3858267716535433
          },
          {
            "duration": 0.11770833333333286,
            "durationTicks": 113,
            "midi": 63,
            "name": "D#4",
            "ticks": 12960,
            "time": 13.5,
            "velocity": 0.3858267716535433
          },
          {
            "duration": 0.11770833333333286,
            "durationTicks": 113,
            "midi": 67,
            "name": "G4",
            "ticks": 12960,
            "time": 13.5,
            "velocity": 0.3858267716535433
          },
          {
            "duration": 0.11770833333333286,
            "durationTicks": 113,
            "midi": 68,
            "name": "G#4",
            "ticks": 13080,
            "time": 13.625,
            "velocity": 0.3858267716535433
          },
          {
            "duration": 0.23645833333333321,
            "durationTicks": 227,
            "midi": 63,
            "name": "D#4",
            "ticks": 13200,
            "time": 13.75,
            "velocity": 0.3858267716535433
          },
          {
            "duration": 0.23645833333333321,
            "durationTicks": 227,
            "midi": 67,
            "name": "G4",
            "ticks": 13200,
            "time": 13.75,
            "velocity": 0.3858267716535433
          },
          {
            "duration": 0.11770833333333286,
            "durationTicks": 113,
            "midi": 63,
            "name": "D#4",
            "ticks": 13440,
            "time": 14,
            "velocity": 0.3858267716535433
          },
          {
            "duration": 0.11770833333333286,
            "durationTicks": 113,
            "midi": 68,
            "name": "G#4",
            "ticks": 13440,
            "time": 14,
            "velocity": 0.3858267716535433
          },
          {
            "duration": 0.23645833333333321,
            "durationTicks": 227,
            "midi": 63,
            "name": "D#4",
            "ticks": 13680,
            "time": 14.25,
            "velocity": 0.3858267716535433
          },
          {
            "duration": 0.23645833333333321,
            "durationTicks": 227,
            "midi": 68,
            "name": "G#4",
            "ticks": 13680,
            "time": 14.25,
            "velocity": 0.3858267716535433
          },
          {
            "duration": 0.23645833333333321,
            "durationTicks": 227,
            "midi": 63,
            "name": "D#4",
            "ticks": 13920,
            "time": 14.5,
            "velocity": 0.3858267716535433
          },
          {
            "duration": 0.23645833333333321,
            "durationTicks": 227,
            "midi": 68,
            "name": "G#4",
            "ticks": 13920,
            "time": 14.5,
            "velocity": 0.3858267716535433
          },
          {
            "duration": 0.35520833333333357,
            "durationTicks": 341,
            "midi": 63,
            "name": "D#4",
            "ticks": 14280,
            "time": 14.875,
            "velocity": 0.3858267716535433
          },
          {
            "duration": 0.35520833333333357,
            "durationTicks": 341,
            "midi": 68,
            "name": "G#4",
            "ticks": 14280,
            "time": 14.875,
            "velocity": 0.3858267716535433
          },
          {
            "duration": 0.23645833333333321,
            "durationTicks": 227,
            "midi": 63,
            "name": "D#4",
            "ticks": 14640,
            "time": 15.25,
            "velocity": 0.3858267716535433
          },
          {
            "duration": 0.23645833333333321,
            "durationTicks": 227,
            "midi": 68,
            "name": "G#4",
            "ticks": 14640,
            "time": 15.25,
            "velocity": 0.3858267716535433
          },
          {
            "duration": 0.23645833333333321,
            "durationTicks": 227,
            "midi": 63,
            "name": "D#4",
            "ticks": 14880,
            "time": 15.5,
            "velocity": 0.3858267716535433
          },
          {
            "duration": 0.23645833333333321,
            "durationTicks": 227,
            "midi": 68,
            "name": "G#4",
            "ticks": 14880,
            "time": 15.5,
            "velocity": 0.3858267716535433
          },
          {
            "duration": 0.23645833333333321,
            "durationTicks": 227,
            "midi": 63,
            "name": "D#4",
            "ticks": 15120,
            "time": 15.75,
            "velocity": 0.3858267716535433
          },
          {
            "duration": 0.23645833333333321,
            "durationTicks": 227,
            "midi": 68,
            "name": "G#4",
            "ticks": 15120,
            "time": 15.75,
            "velocity": 0.3858267716535433
          },
          {
            "duration": 0.236458333333335,
            "durationTicks": 227,
            "midi": 63,
            "name": "D#4",
            "ticks": 15360,
            "time": 16,
            "velocity": 0.3858267716535433
          },
          {
            "duration": 0.236458333333335,
            "durationTicks": 227,
            "midi": 68,
            "name": "G#4",
            "ticks": 15360,
            "time": 16,
            "velocity": 0.3858267716535433
          },
          {
            "duration": 0.236458333333335,
            "durationTicks": 227,
            "midi": 63,
            "name": "D#4",
            "ticks": 15600,
            "time": 16.25,
            "velocity": 0.3858267716535433
          },
          {
            "duration": 0.236458333333335,
            "durationTicks": 227,
            "midi": 68,
            "name": "G#4",
            "ticks": 15600,
            "time": 16.25,
            "velocity": 0.3858267716535433
          },
          {
            "duration": 0.236458333333335,
            "durationTicks": 227,
            "midi": 63,
            "name": "D#4",
            "ticks": 15840,
            "time": 16.5,
            "velocity": 0.3858267716535433
          },
          {
            "duration": 0.236458333333335,
            "durationTicks": 227,
            "midi": 68,
            "name": "G#4",
            "ticks": 15840,
            "time": 16.5,
            "velocity": 0.3858267716535433
          },
          {
            "duration": 0.236458333333335,
            "durationTicks": 227,
            "midi": 63,
            "name": "D#4",
            "ticks": 16080,
            "time": 16.75,
            "velocity": 0.3858267716535433
          },
          {
            "duration": 0.236458333333335,
            "durationTicks": 227,
            "midi": 68,
            "name": "G#4",
            "ticks": 16080,
            "time": 16.75,
            "velocity": 0.3858267716535433
          },
          {
            "duration": 0.236458333333335,
            "durationTicks": 227,
            "midi": 63,
            "name": "D#4",
            "ticks": 16320,
            "time": 17,
            "velocity": 0.3858267716535433
          },
          {
            "duration": 0.236458333333335,
            "durationTicks": 227,
            "midi": 68,
            "name": "G#4",
            "ticks": 16320,
            "time": 17,
            "velocity": 0.3858267716535433
          },
          {
            "duration": 0.236458333333335,
            "durationTicks": 227,
            "midi": 63,
            "name": "D#4",
            "ticks": 16560,
            "time": 17.25,
            "velocity": 0.3858267716535433
          },
          {
            "duration": 0.236458333333335,
            "durationTicks": 227,
            "midi": 68,
            "name": "G#4",
            "ticks": 16560,
            "time": 17.25,
            "velocity": 0.3858267716535433
          },
          {
            "duration": 0.236458333333335,
            "durationTicks": 227,
            "midi": 63,
            "name": "D#4",
            "ticks": 16800,
            "time": 17.5,
            "velocity": 0.3858267716535433
          },
          {
            "duration": 0.236458333333335,
            "durationTicks": 227,
            "midi": 68,
            "name": "G#4",
            "ticks": 16800,
            "time": 17.5,
            "velocity": 0.3858267716535433
          },
          {
            "duration": 0.236458333333335,
            "durationTicks": 227,
            "midi": 63,
            "name": "D#4",
            "ticks": 17040,
            "time": 17.75,
            "velocity": 0.3858267716535433
          },
          {
            "duration": 0.236458333333335,
            "durationTicks": 227,
            "midi": 68,
            "name": "G#4",
            "ticks": 17040,
            "time": 17.75,
            "velocity": 0.3858267716535433
          },
          {
            "duration": 0.236458333333335,
            "durationTicks": 227,
            "midi": 56,
            "name": "G#3",
            "ticks": 17280,
            "time": 18,
            "velocity": 0.3858267716535433
          },
          {
            "duration": 0.236458333333335,
            "durationTicks": 227,
            "midi": 63,
            "name": "D#4",
            "ticks": 17280,
            "time": 18,
            "velocity": 0.3858267716535433
          },
          {
            "duration": 0.236458333333335,
            "durationTicks": 227,
            "midi": 56,
            "name": "G#3",
            "ticks": 17520,
            "time": 18.25,
            "velocity": 0.3858267716535433
          },
          {
            "duration": 0.236458333333335,
            "durationTicks": 227,
            "midi": 63,
            "name": "D#4",
            "ticks": 17520,
            "time": 18.25,
            "velocity": 0.3858267716535433
          },
          {
            "duration": 0.236458333333335,
            "durationTicks": 227,
            "midi": 56,
            "name": "G#3",
            "ticks": 17760,
            "time": 18.5,
            "velocity": 0.3858267716535433
          },
          {
            "duration": 0.236458333333335,
            "durationTicks": 227,
            "midi": 63,
            "name": "D#4",
            "ticks": 17760,
            "time": 18.5,
            "velocity": 0.3858267716535433
          },
          {
            "duration": 0.236458333333335,
            "durationTicks": 227,
            "midi": 56,
            "name": "G#3",
            "ticks": 18000,
            "time": 18.75,
            "velocity": 0.3858267716535433
          },
          {
            "duration": 0.236458333333335,
            "durationTicks": 227,
            "midi": 63,
            "name": "D#4",
            "ticks": 18000,
            "time": 18.75,
            "velocity": 0.3858267716535433
          },
          {
            "duration": 0.236458333333335,
            "durationTicks": 227,
            "midi": 56,
            "name": "G#3",
            "ticks": 18240,
            "time": 19,
            "velocity": 0.3858267716535433
          },
          {
            "duration": 0.236458333333335,
            "durationTicks": 227,
            "midi": 63,
            "name": "D#4",
            "ticks": 18240,
            "time": 19,
            "velocity": 0.3858267716535433
          },
          {
            "duration": 0.236458333333335,
            "durationTicks": 227,
            "midi": 56,
            "name": "G#3",
            "ticks": 18480,
            "time": 19.25,
            "velocity": 0.3858267716535433
          },
          {
            "duration": 0.236458333333335,
            "durationTicks": 227,
            "midi": 63,
            "name": "D#4",
            "ticks": 18480,
            "time": 19.25,
            "velocity": 0.3858267716535433
          },
          {
            "duration": 0.236458333333335,
            "durationTicks": 227,
            "midi": 56,
            "name": "G#3",
            "ticks": 18720,
            "time": 19.5,
            "velocity": 0.3858267716535433
          },
          {
            "duration": 0.236458333333335,
            "durationTicks": 227,
            "midi": 63,
            "name": "D#4",
            "ticks": 18720,
            "time": 19.5,
            "velocity": 0.3858267716535433
          },
          {
            "duration": 0.236458333333335,
            "durationTicks": 227,
            "midi": 56,
            "name": "G#3",
            "ticks": 18960,
            "time": 19.75,
            "velocity": 0.3858267716535433
          },
          {
            "duration": 0.236458333333335,
            "durationTicks": 227,
            "midi": 63,
            "name": "D#4",
            "ticks": 18960,
            "time": 19.75,
            "velocity": 0.3858267716535433
          },
          {
            "duration": 0.236458333333335,
            "durationTicks": 227,
            "midi": 56,
            "name": "G#3",
            "ticks": 19200,
            "time": 20,
            "velocity": 0.3858267716535433
          },
          {
            "duration": 0.236458333333335,
            "durationTicks": 227,
            "midi": 63,
            "name": "D#4",
            "ticks": 19200,
            "time": 20,
            "velocity": 0.3858267716535433
          },
          {
            "duration": 0.236458333333335,
            "durationTicks": 227,
            "midi": 63,
            "name": "D#4",
            "ticks": 19440,
            "time": 20.25,
            "velocity": 0.3858267716535433
          },
          {
            "duration": 0.236458333333335,
            "durationTicks": 227,
            "midi": 63,
            "name": "D#4",
            "ticks": 19680,
            "time": 20.5,
            "velocity": 0.3858267716535433
          },
          {
            "duration": 0.236458333333335,
            "durationTicks": 227,
            "midi": 63,
            "name": "D#4",
            "ticks": 19920,
            "time": 20.75,
            "velocity": 0.3858267716535433
          },
          {
            "duration": 0.236458333333335,
            "durationTicks": 227,
            "midi": 63,
            "name": "D#4",
            "ticks": 20160,
            "time": 21,
            "velocity": 0.3858267716535433
          },
          {
            "duration": 0.236458333333335,
            "durationTicks": 227,
            "midi": 68,
            "name": "G#4",
            "ticks": 20160,
            "time": 21,
            "velocity": 0.3858267716535433
          },
          {
            "duration": 0.236458333333335,
            "durationTicks": 227,
            "midi": 63,
            "name": "D#4",
            "ticks": 20400,
            "time": 21.25,
            "velocity": 0.3858267716535433
          },
          {
            "duration": 0.236458333333335,
            "durationTicks": 227,
            "midi": 68,
            "name": "G#4",
            "ticks": 20400,
            "time": 21.25,
            "velocity": 0.3858267716535433
          },
          {
            "duration": 0.236458333333335,
            "durationTicks": 227,
            "midi": 63,
            "name": "D#4",
            "ticks": 20640,
            "time": 21.5,
            "velocity": 0.3858267716535433
          },
          {
            "duration": 0.236458333333335,
            "durationTicks": 227,
            "midi": 68,
            "name": "G#4",
            "ticks": 20640,
            "time": 21.5,
            "velocity": 0.3858267716535433
          },
          {
            "duration": 0.236458333333335,
            "durationTicks": 227,
            "midi": 63,
            "name": "D#4",
            "ticks": 20880,
            "time": 21.75,
            "velocity": 0.3858267716535433
          },
          {
            "duration": 0.236458333333335,
            "durationTicks": 227,
            "midi": 68,
            "name": "G#4",
            "ticks": 20880,
            "time": 21.75,
            "velocity": 0.3858267716535433
          },
          {
            "duration": 0.236458333333335,
            "durationTicks": 227,
            "midi": 63,
            "name": "D#4",
            "ticks": 21120,
            "time": 22,
            "velocity": 0.3858267716535433
          },
          {
            "duration": 0.236458333333335,
            "durationTicks": 227,
            "midi": 68,
            "name": "G#4",
            "ticks": 21120,
            "time": 22,
            "velocity": 0.3858267716535433
          },
          {
            "duration": 0.236458333333335,
            "durationTicks": 227,
            "midi": 63,
            "name": "D#4",
            "ticks": 21360,
            "time": 22.25,
            "velocity": 0.3858267716535433
          },
          {
            "duration": 0.236458333333335,
            "durationTicks": 227,
            "midi": 68,
            "name": "G#4",
            "ticks": 21360,
            "time": 22.25,
            "velocity": 0.3858267716535433
          },
          {
            "duration": 0.236458333333335,
            "durationTicks": 227,
            "midi": 63,
            "name": "D#4",
            "ticks": 21600,
            "time": 22.5,
            "velocity": 0.3858267716535433
          },
          {
            "duration": 0.236458333333335,
            "durationTicks": 227,
            "midi": 63,
            "name": "D#4",
            "ticks": 21840,
            "time": 22.75,
            "velocity": 0.3858267716535433
          },
          {
            "duration": 0.236458333333335,
            "durationTicks": 227,
            "midi": 63,
            "name": "D#4",
            "ticks": 22080,
            "time": 23,
            "velocity": 0.3858267716535433
          },
          {
            "duration": 0.236458333333335,
            "durationTicks": 227,
            "midi": 63,
            "name": "D#4",
            "ticks": 22320,
            "time": 23.25,
            "velocity": 0.3858267716535433
          },
          {
            "duration": 0.236458333333335,
            "durationTicks": 227,
            "midi": 63,
            "name": "D#4",
            "ticks": 22560,
            "time": 23.5,
            "velocity": 0.3858267716535433
          },
          {
            "duration": 0.236458333333335,
            "durationTicks": 227,
            "midi": 68,
            "name": "G#4",
            "ticks": 22560,
            "time": 23.5,
            "velocity": 0.3858267716535433
          },
          {
            "duration": 0.236458333333335,
            "durationTicks": 227,
            "midi": 63,
            "name": "D#4",
            "ticks": 22800,
            "time": 23.75,
            "velocity": 0.3858267716535433
          },
          {
            "duration": 0.236458333333335,
            "durationTicks": 227,
            "midi": 68,
            "name": "G#4",
            "ticks": 22800,
            "time": 23.75,
            "velocity": 0.3858267716535433
          },
          {
            "duration": 0.236458333333335,
            "durationTicks": 227,
            "midi": 63,
            "name": "D#4",
            "ticks": 23040,
            "time": 24,
            "velocity": 0.3858267716535433
          },
          {
            "duration": 0.236458333333335,
            "durationTicks": 227,
            "midi": 67,
            "name": "G4",
            "ticks": 23040,
            "time": 24,
            "velocity": 0.3858267716535433
          },
          {
            "duration": 0.236458333333335,
            "durationTicks": 227,
            "midi": 63,
            "name": "D#4",
            "ticks": 23280,
            "time": 24.25,
            "velocity": 0.3858267716535433
          },
          {
            "duration": 0.236458333333335,
            "durationTicks": 227,
            "midi": 67,
            "name": "G4",
            "ticks": 23280,
            "time": 24.25,
            "velocity": 0.3858267716535433
          },
          {
            "duration": 0.236458333333335,
            "durationTicks": 227,
            "midi": 63,
            "name": "D#4",
            "ticks": 23520,
            "time": 24.5,
            "velocity": 0.3858267716535433
          },
          {
            "duration": 0.236458333333335,
            "durationTicks": 227,
            "midi": 67,
            "name": "G4",
            "ticks": 23520,
            "time": 24.5,
            "velocity": 0.3858267716535433
          },
          {
            "duration": 0.236458333333335,
            "durationTicks": 227,
            "midi": 63,
            "name": "D#4",
            "ticks": 23760,
            "time": 24.75,
            "velocity": 0.3858267716535433
          },
          {
            "duration": 0.236458333333335,
            "durationTicks": 227,
            "midi": 68,
            "name": "G#4",
            "ticks": 23760,
            "time": 24.75,
            "velocity": 0.3858267716535433
          },
          {
            "duration": 0.236458333333335,
            "durationTicks": 227,
            "midi": 63,
            "name": "D#4",
            "ticks": 24000,
            "time": 25,
            "velocity": 0.3858267716535433
          },
          {
            "duration": 0.236458333333335,
            "durationTicks": 227,
            "midi": 68,
            "name": "G#4",
            "ticks": 24000,
            "time": 25,
            "velocity": 0.3858267716535433
          },
          {
            "duration": 0.236458333333335,
            "durationTicks": 227,
            "midi": 63,
            "name": "D#4",
            "ticks": 24240,
            "time": 25.25,
            "velocity": 0.3858267716535433
          },
          {
            "duration": 0.236458333333335,
            "durationTicks": 227,
            "midi": 68,
            "name": "G#4",
            "ticks": 24240,
            "time": 25.25,
            "velocity": 0.3858267716535433
          },
          {
            "duration": 1.423958333333335,
            "durationTicks": 1367,
            "midi": 67,
            "name": "G4",
            "ticks": 24480,
            "time": 25.5,
            "velocity": 0.3858267716535433
          },
          {
            "duration": 1.423958333333335,
            "durationTicks": 1367,
            "midi": 70,
            "name": "A#4",
            "ticks": 24480,
            "time": 25.5,
            "velocity": 0.3858267716535433
          },
          {
            "duration": 0.7114583333333329,
            "durationTicks": 683,
            "midi": 63,
            "name": "D#4",
            "ticks": 25920,
            "time": 27,
            "velocity": 0.3858267716535433
          },
          {
            "duration": 0.7114583333333329,
            "durationTicks": 683,
            "midi": 68,
            "name": "G#4",
            "ticks": 25920,
            "time": 27,
            "velocity": 0.3858267716535433
          },
          {
            "duration": 0.7114583333333329,
            "durationTicks": 683,
            "midi": 63,
            "name": "D#4",
            "ticks": 26640,
            "time": 27.75,
            "velocity": 0.3858267716535433
          },
          {
            "duration": 0.7114583333333329,
            "durationTicks": 683,
            "midi": 68,
            "name": "G#4",
            "ticks": 26640,
            "time": 27.75,
            "velocity": 0.3858267716535433
          },
          {
            "duration": 0.7114583333333329,
            "durationTicks": 683,
            "midi": 63,
            "name": "D#4",
            "ticks": 27360,
            "time": 28.5,
            "velocity": 0.3858267716535433
          },
          {
            "duration": 0.7114583333333329,
            "durationTicks": 683,
            "midi": 68,
            "name": "G#4",
            "ticks": 27360,
            "time": 28.5,
            "velocity": 0.3858267716535433
          },
          {
            "duration": 0.7114583333333329,
            "durationTicks": 683,
            "midi": 63,
            "name": "D#4",
            "ticks": 28080,
            "time": 29.25,
            "velocity": 0.3858267716535433
          },
          {
            "duration": 0.7114583333333329,
            "durationTicks": 683,
            "midi": 68,
            "name": "G#4",
            "ticks": 28080,
            "time": 29.25,
            "velocity": 0.3858267716535433
          },
          {
            "duration": 0.7114583333333329,
            "durationTicks": 683,
            "midi": 63,
            "name": "D#4",
            "ticks": 28800,
            "time": 30,
            "velocity": 0.3858267716535433
          },
          {
            "duration": 0.7114583333333329,
            "durationTicks": 683,
            "midi": 68,
            "name": "G#4",
            "ticks": 28800,
            "time": 30,
            "velocity": 0.3858267716535433
          },
          {
            "duration": 0.7114583333333329,
            "durationTicks": 683,
            "midi": 63,
            "name": "D#4",
            "ticks": 29520,
            "time": 30.75,
            "velocity": 0.3858267716535433
          },
          {
            "duration": 0.7114583333333329,
            "durationTicks": 683,
            "midi": 68,
            "name": "G#4",
            "ticks": 29520,
            "time": 30.75,
            "velocity": 0.3858267716535433
          },
          {
            "duration": 0.7114583333333329,
            "durationTicks": 683,
            "midi": 63,
            "name": "D#4",
            "ticks": 30240,
            "time": 31.5,
            "velocity": 0.3858267716535433
          },
          {
            "duration": 0.7114583333333329,
            "durationTicks": 683,
            "midi": 68,
            "name": "G#4",
            "ticks": 30240,
            "time": 31.5,
            "velocity": 0.3858267716535433
          },
          {
            "duration": 0.7114583333333329,
            "durationTicks": 683,
            "midi": 63,
            "name": "D#4",
            "ticks": 30960,
            "time": 32.25,
            "velocity": 0.3858267716535433
          },
          {
            "duration": 0.7114583333333329,
            "durationTicks": 683,
            "midi": 68,
            "name": "G#4",
            "ticks": 30960,
            "time": 32.25,
            "velocity": 0.3858267716535433
          },
          {
            "duration": 0.7114583333333329,
            "durationTicks": 683,
            "midi": 65,
            "name": "F4",
            "ticks": 31680,
            "time": 33,
            "velocity": 0.3858267716535433
          },
          {
            "duration": 0.7114583333333329,
            "durationTicks": 683,
            "midi": 68,
            "name": "G#4",
            "ticks": 31680,
            "time": 33,
            "velocity": 0.3858267716535433
          },
          {
            "duration": 0.7114583333333329,
            "durationTicks": 683,
            "midi": 65,
            "name": "F4",
            "ticks": 32400,
            "time": 33.75,
            "velocity": 0.3858267716535433
          },
          {
            "duration": 0.7114583333333329,
            "durationTicks": 683,
            "midi": 68,
            "name": "G#4",
            "ticks": 32400,
            "time": 33.75,
            "velocity": 0.3858267716535433
          },
          {
            "duration": 0.7114583333333329,
            "durationTicks": 683,
            "midi": 61,
            "name": "C#4",
            "ticks": 33120,
            "time": 34.5,
            "velocity": 0.3858267716535433
          },
          {
            "duration": 0.7114583333333329,
            "durationTicks": 683,
            "midi": 65,
            "name": "F4",
            "ticks": 33120,
            "time": 34.5,
            "velocity": 0.3858267716535433
          },
          {
            "duration": 0.7114583333333329,
            "durationTicks": 683,
            "midi": 56,
            "name": "G#3",
            "ticks": 33840,
            "time": 35.25,
            "velocity": 0.3858267716535433
          },
          {
            "duration": 0.7114583333333329,
            "durationTicks": 683,
            "midi": 61,
            "name": "C#4",
            "ticks": 33840,
            "time": 35.25,
            "velocity": 0.3858267716535433
          },
          {
            "duration": 1.4239583333333314,
            "durationTicks": 1367,
            "midi": 63,
            "name": "D#4",
            "ticks": 34560,
            "time": 36,
            "velocity": 0.3858267716535433
          },
          {
            "duration": 1.4239583333333314,
            "durationTicks": 1367,
            "midi": 68,
            "name": "G#4",
            "ticks": 34560,
            "time": 36,
            "velocity": 0.3858267716535433
          },
          {
            "duration": 0.7114583333333329,
            "durationTicks": 683,
            "midi": 63,
            "name": "D#4",
            "ticks": 36000,
            "time": 37.5,
            "velocity": 0.3858267716535433
          },
          {
            "duration": 0.7114583333333329,
            "durationTicks": 683,
            "midi": 67,
            "name": "G4",
            "ticks": 36000,
            "time": 37.5,
            "velocity": 0.3858267716535433
          },
          {
            "duration": 0.7114583333333329,
            "durationTicks": 683,
            "midi": 63,
            "name": "D#4",
            "ticks": 36720,
            "time": 38.25,
            "velocity": 0.3858267716535433
          },
          {
            "duration": 0.7114583333333329,
            "durationTicks": 683,
            "midi": 67,
            "name": "G4",
            "ticks": 36720,
            "time": 38.25,
            "velocity": 0.3858267716535433
          },
          {
            "duration": 0.7114583333333329,
            "durationTicks": 683,
            "midi": 63,
            "name": "D#4",
            "ticks": 37440,
            "time": 39,
            "velocity": 0.3858267716535433
          },
          {
            "duration": 0.7114583333333329,
            "durationTicks": 683,
            "midi": 68,
            "name": "G#4",
            "ticks": 37440,
            "time": 39,
            "velocity": 0.3858267716535433
          },
          {
            "duration": 0.7114583333333329,
            "durationTicks": 683,
            "midi": 63,
            "name": "D#4",
            "ticks": 38160,
            "time": 39.75,
            "velocity": 0.3858267716535433
          },
          {
            "duration": 0.7114583333333329,
            "durationTicks": 683,
            "midi": 68,
            "name": "G#4",
            "ticks": 38160,
            "time": 39.75,
            "velocity": 0.3858267716535433
          },
          {
            "duration": 0.7114583333333329,
            "durationTicks": 683,
            "midi": 63,
            "name": "D#4",
            "ticks": 38880,
            "time": 40.5,
            "velocity": 0.3858267716535433
          },
          {
            "duration": 0.7114583333333329,
            "durationTicks": 683,
            "midi": 68,
            "name": "G#4",
            "ticks": 38880,
            "time": 40.5,
            "velocity": 0.3858267716535433
          },
          {
            "duration": 0.7114583333333329,
            "durationTicks": 683,
            "midi": 63,
            "name": "D#4",
            "ticks": 39600,
            "time": 41.25,
            "velocity": 0.3858267716535433
          },
          {
            "duration": 0.7114583333333329,
            "durationTicks": 683,
            "midi": 68,
            "name": "G#4",
            "ticks": 39600,
            "time": 41.25,
            "velocity": 0.3858267716535433
          },
          {
            "duration": 0.7114583333333329,
            "durationTicks": 683,
            "midi": 63,
            "name": "D#4",
            "ticks": 40320,
            "time": 42,
            "velocity": 0.3858267716535433
          },
          {
            "duration": 0.7114583333333329,
            "durationTicks": 683,
            "midi": 68,
            "name": "G#4",
            "ticks": 40320,
            "time": 42,
            "velocity": 0.3858267716535433
          },
          {
            "duration": 0.7114583333333329,
            "durationTicks": 683,
            "midi": 63,
            "name": "D#4",
            "ticks": 41040,
            "time": 42.75,
            "velocity": 0.3858267716535433
          },
          {
            "duration": 0.7114583333333329,
            "durationTicks": 683,
            "midi": 68,
            "name": "G#4",
            "ticks": 41040,
            "time": 42.75,
            "velocity": 0.3858267716535433
          },
          {
            "duration": 0.7114583333333329,
            "durationTicks": 683,
            "midi": 63,
            "name": "D#4",
            "ticks": 41760,
            "time": 43.5,
            "velocity": 0.3858267716535433
          },
          {
            "duration": 0.7114583333333329,
            "durationTicks": 683,
            "midi": 68,
            "name": "G#4",
            "ticks": 41760,
            "time": 43.5,
            "velocity": 0.3858267716535433
          },
          {
            "duration": 0.7114583333333329,
            "durationTicks": 683,
            "midi": 63,
            "name": "D#4",
            "ticks": 42480,
            "time": 44.25,
            "velocity": 0.3858267716535433
          },
          {
            "duration": 0.7114583333333329,
            "durationTicks": 683,
            "midi": 68,
            "name": "G#4",
            "ticks": 42480,
            "time": 44.25,
            "velocity": 0.3858267716535433
          },
          {
            "duration": 0.7114583333333329,
            "durationTicks": 683,
            "midi": 65,
            "name": "F4",
            "ticks": 43200,
            "time": 45,
            "velocity": 0.3858267716535433
          },
          {
            "duration": 0.7114583333333329,
            "durationTicks": 683,
            "midi": 68,
            "name": "G#4",
            "ticks": 43200,
            "time": 45,
            "velocity": 0.3858267716535433
          },
          {
            "duration": 0.7114583333333329,
            "durationTicks": 683,
            "midi": 65,
            "name": "F4",
            "ticks": 43920,
            "time": 45.75,
            "velocity": 0.3858267716535433
          },
          {
            "duration": 0.7114583333333329,
            "durationTicks": 683,
            "midi": 68,
            "name": "G#4",
            "ticks": 43920,
            "time": 45.75,
            "velocity": 0.3858267716535433
          },
          {
            "duration": 0.7114583333333329,
            "durationTicks": 683,
            "midi": 61,
            "name": "C#4",
            "ticks": 44640,
            "time": 46.5,
            "velocity": 0.3858267716535433
          },
          {
            "duration": 0.7114583333333329,
            "durationTicks": 683,
            "midi": 65,
            "name": "F4",
            "ticks": 44640,
            "time": 46.5,
            "velocity": 0.3858267716535433
          },
          {
            "duration": 0.23645833333333144,
            "durationTicks": 227,
            "midi": 63,
            "name": "D#4",
            "ticks": 45360,
            "time": 47.25,
            "velocity": 0.3858267716535433
          },
          {
            "duration": 0.4739583333333357,
            "durationTicks": 455,
            "midi": 63,
            "name": "D#4",
            "ticks": 45600,
            "time": 47.5,
            "velocity": 0.3858267716535433
          },
          {
            "duration": 0.4739583333333357,
            "durationTicks": 455,
            "midi": 68,
            "name": "G#4",
            "ticks": 45600,
            "time": 47.5,
            "velocity": 0.3858267716535433
          },
          {
            "duration": 0.7114583333333329,
            "durationTicks": 683,
            "midi": 63,
            "name": "D#4",
            "ticks": 46080,
            "time": 48,
            "velocity": 0.3858267716535433
          },
          {
            "duration": 0.7114583333333329,
            "durationTicks": 683,
            "midi": 67,
            "name": "G4",
            "ticks": 46080,
            "time": 48,
            "velocity": 0.3858267716535433
          },
          {
            "duration": 0.7114583333333329,
            "durationTicks": 683,
            "midi": 63,
            "name": "D#4",
            "ticks": 46800,
            "time": 48.75,
            "velocity": 0.3858267716535433
          },
          {
            "duration": 0.7114583333333329,
            "durationTicks": 683,
            "midi": 68,
            "name": "G#4",
            "ticks": 46800,
            "time": 48.75,
            "velocity": 0.3858267716535433
          },
          {
            "duration": 0.7114583333333329,
            "durationTicks": 683,
            "midi": 70,
            "name": "A#4",
            "ticks": 46800,
            "time": 48.75,
            "velocity": 0.3858267716535433
          },
          {
            "duration": 0.7114583333333329,
            "durationTicks": 683,
            "midi": 67,
            "name": "G4",
            "ticks": 47520,
            "time": 49.5,
            "velocity": 0.3858267716535433
          },
          {
            "duration": 0.7114583333333329,
            "durationTicks": 683,
            "midi": 60,
            "name": "C4",
            "ticks": 48960,
            "time": 51,
            "velocity": 0.3858267716535433
          },
          {
            "duration": 0.7114583333333329,
            "durationTicks": 683,
            "midi": 65,
            "name": "F4",
            "ticks": 48960,
            "time": 51,
            "velocity": 0.3858267716535433
          },
          {
            "duration": 0.7114583333333329,
            "durationTicks": 683,
            "midi": 60,
            "name": "C4",
            "ticks": 49680,
            "time": 51.75,
            "velocity": 0.3858267716535433
          },
          {
            "duration": 0.7114583333333329,
            "durationTicks": 683,
            "midi": 65,
            "name": "F4",
            "ticks": 49680,
            "time": 51.75,
            "velocity": 0.3858267716535433
          },
          {
            "duration": 0.7114583333333329,
            "durationTicks": 683,
            "midi": 68,
            "name": "G#4",
            "ticks": 49680,
            "time": 51.75,
            "velocity": 0.3858267716535433
          },
          {
            "duration": 0.4739583333333357,
            "durationTicks": 455,
            "midi": 73,
            "name": "C#5",
            "ticks": 50400,
            "time": 52.5,
            "velocity": 0.3858267716535433
          },
          {
            "duration": 0.4739583333333357,
            "durationTicks": 455,
            "midi": 77,
            "name": "F5",
            "ticks": 50400,
            "time": 52.5,
            "velocity": 0.3858267716535433
          },
          {
            "duration": 0.4739583333333357,
            "durationTicks": 455,
            "midi": 68,
            "name": "G#4",
            "ticks": 51120,
            "time": 53.25,
            "velocity": 0.3858267716535433
          },
          {
            "duration": 0.4739583333333357,
            "durationTicks": 455,
            "midi": 73,
            "name": "C#5",
            "ticks": 51120,
            "time": 53.25,
            "velocity": 0.3858267716535433
          },
          {
            "duration": 0.7114583333333329,
            "durationTicks": 683,
            "midi": 63,
            "name": "D#4",
            "ticks": 51840,
            "time": 54,
            "velocity": 0.3858267716535433
          },
          {
            "duration": 0.7114583333333329,
            "durationTicks": 683,
            "midi": 68,
            "name": "G#4",
            "ticks": 51840,
            "time": 54,
            "velocity": 0.3858267716535433
          },
          {
            "duration": 0.7114583333333329,
            "durationTicks": 683,
            "midi": 63,
            "name": "D#4",
            "ticks": 52560,
            "time": 54.75,
            "velocity": 0.3858267716535433
          },
          {
            "duration": 0.7114583333333329,
            "durationTicks": 683,
            "midi": 68,
            "name": "G#4",
            "ticks": 52560,
            "time": 54.75,
            "velocity": 0.3858267716535433
          },
          {
            "duration": 0.7114583333333329,
            "durationTicks": 683,
            "midi": 67,
            "name": "G4",
            "ticks": 53280,
            "time": 55.5,
            "velocity": 0.3858267716535433
          },
          {
            "duration": 0.7114583333333329,
            "durationTicks": 683,
            "midi": 70,
            "name": "A#4",
            "ticks": 53280,
            "time": 55.5,
            "velocity": 0.3858267716535433
          },
          {
            "duration": 0.7114583333333329,
            "durationTicks": 683,
            "midi": 63,
            "name": "D#4",
            "ticks": 54000,
            "time": 56.25,
            "velocity": 0.3858267716535433
          },
          {
            "duration": 0.7114583333333329,
            "durationTicks": 683,
            "midi": 67,
            "name": "G4",
            "ticks": 54000,
            "time": 56.25,
            "velocity": 0.3858267716535433
          },
          {
            "duration": 0.7114583333333329,
            "durationTicks": 683,
            "midi": 60,
            "name": "C4",
            "ticks": 54720,
            "time": 57,
            "velocity": 0.3858267716535433
          },
          {
            "duration": 0.7114583333333329,
            "durationTicks": 683,
            "midi": 65,
            "name": "F4",
            "ticks": 54720,
            "time": 57,
            "velocity": 0.3858267716535433
          },
          {
            "duration": 0.7114583333333329,
            "durationTicks": 683,
            "midi": 60,
            "name": "C4",
            "ticks": 55440,
            "time": 57.75,
            "velocity": 0.3858267716535433
          },
          {
            "duration": 0.7114583333333329,
            "durationTicks": 683,
            "midi": 65,
            "name": "F4",
            "ticks": 55440,
            "time": 57.75,
            "velocity": 0.3858267716535433
          },
          {
            "duration": 0.7114583333333329,
            "durationTicks": 683,
            "midi": 73,
            "name": "C#5",
            "ticks": 56160,
            "time": 58.5,
            "velocity": 0.3858267716535433
          },
          {
            "duration": 0.7114583333333329,
            "durationTicks": 683,
            "midi": 77,
            "name": "F5",
            "ticks": 56160,
            "time": 58.5,
            "velocity": 0.3858267716535433
          },
          {
            "duration": 0.7114583333333329,
            "durationTicks": 683,
            "midi": 68,
            "name": "G#4",
            "ticks": 56880,
            "time": 59.25,
            "velocity": 0.3858267716535433
          },
          {
            "duration": 0.7114583333333329,
            "durationTicks": 683,
            "midi": 73,
            "name": "C#5",
            "ticks": 56880,
            "time": 59.25,
            "velocity": 0.3858267716535433
          },
          {
            "duration": 0.7114583333333329,
            "durationTicks": 683,
            "midi": 63,
            "name": "D#4",
            "ticks": 57600,
            "time": 60,
            "velocity": 0.3858267716535433
          },
          {
            "duration": 0.7114583333333329,
            "durationTicks": 683,
            "midi": 68,
            "name": "G#4",
            "ticks": 57600,
            "time": 60,
            "velocity": 0.3858267716535433
          },
          {
            "duration": 0.7114583333333329,
            "durationTicks": 683,
            "midi": 63,
            "name": "D#4",
            "ticks": 58320,
            "time": 60.75,
            "velocity": 0.3858267716535433
          },
          {
            "duration": 0.7114583333333329,
            "durationTicks": 683,
            "midi": 68,
            "name": "G#4",
            "ticks": 58320,
            "time": 60.75,
            "velocity": 0.3858267716535433
          },
          {
            "duration": 0.7114583333333329,
            "durationTicks": 683,
            "midi": 67,
            "name": "G4",
            "ticks": 59040,
            "time": 61.5,
            "velocity": 0.3858267716535433
          },
          {
            "duration": 0.7114583333333329,
            "durationTicks": 683,
            "midi": 70,
            "name": "A#4",
            "ticks": 59040,
            "time": 61.5,
            "velocity": 0.3858267716535433
          },
          {
            "duration": 0.7114583333333329,
            "durationTicks": 683,
            "midi": 67,
            "name": "G4",
            "ticks": 59760,
            "time": 62.25,
            "velocity": 0.3858267716535433
          },
          {
            "duration": 0.7114583333333329,
            "durationTicks": 683,
            "midi": 70,
            "name": "A#4",
            "ticks": 59760,
            "time": 62.25,
            "velocity": 0.3858267716535433
          },
          {
            "duration": 1.4239583333333314,
            "durationTicks": 1367,
            "midi": 65,
            "name": "F4",
            "ticks": 60480,
            "time": 63,
            "velocity": 0.3858267716535433
          },
          {
            "duration": 1.4239583333333314,
            "durationTicks": 1367,
            "midi": 68,
            "name": "G#4",
            "ticks": 60480,
            "time": 63,
            "velocity": 0.3858267716535433
          },
          {
            "duration": 0.71145833333334,
            "durationTicks": 683,
            "midi": 73,
            "name": "C#5",
            "ticks": 61920,
            "time": 64.5,
            "velocity": 0.3858267716535433
          },
          {
            "duration": 0.71145833333334,
            "durationTicks": 683,
            "midi": 77,
            "name": "F5",
            "ticks": 61920,
            "time": 64.5,
            "velocity": 0.3858267716535433
          },
          {
            "duration": 0.71145833333334,
            "durationTicks": 683,
            "midi": 68,
            "name": "G#4",
            "ticks": 62640,
            "time": 65.25,
            "velocity": 0.3858267716535433
          },
          {
            "duration": 0.71145833333334,
            "durationTicks": 683,
            "midi": 73,
            "name": "C#5",
            "ticks": 62640,
            "time": 65.25,
            "velocity": 0.3858267716535433
          },
          {
            "duration": 0.71145833333334,
            "durationTicks": 683,
            "midi": 63,
            "name": "D#4",
            "ticks": 63360,
            "time": 66,
            "velocity": 0.3858267716535433
          },
          {
            "duration": 0.71145833333334,
            "durationTicks": 683,
            "midi": 68,
            "name": "G#4",
            "ticks": 63360,
            "time": 66,
            "velocity": 0.3858267716535433
          },
          {
            "duration": 0.71145833333334,
            "durationTicks": 683,
            "midi": 63,
            "name": "D#4",
            "ticks": 64080,
            "time": 66.75,
            "velocity": 0.3858267716535433
          },
          {
            "duration": 0.71145833333334,
            "durationTicks": 683,
            "midi": 68,
            "name": "G#4",
            "ticks": 64080,
            "time": 66.75,
            "velocity": 0.3858267716535433
          },
          {
            "duration": 0.71145833333334,
            "durationTicks": 683,
            "midi": 67,
            "name": "G4",
            "ticks": 64800,
            "time": 67.5,
            "velocity": 0.3858267716535433
          },
          {
            "duration": 0.71145833333334,
            "durationTicks": 683,
            "midi": 70,
            "name": "A#4",
            "ticks": 64800,
            "time": 67.5,
            "velocity": 0.3858267716535433
          },
          {
            "duration": 0.71145833333334,
            "durationTicks": 683,
            "midi": 63,
            "name": "D#4",
            "ticks": 65520,
            "time": 68.25,
            "velocity": 0.3858267716535433
          },
          {
            "duration": 0.71145833333334,
            "durationTicks": 683,
            "midi": 67,
            "name": "G4",
            "ticks": 65520,
            "time": 68.25,
            "velocity": 0.3858267716535433
          },
          {
            "duration": 0.71145833333334,
            "durationTicks": 683,
            "midi": 65,
            "name": "F4",
            "ticks": 66240,
            "time": 69,
            "velocity": 0.3858267716535433
          },
          {
            "duration": 0.71145833333334,
            "durationTicks": 683,
            "midi": 68,
            "name": "G#4",
            "ticks": 66240,
            "time": 69,
            "velocity": 0.3858267716535433
          },
          {
            "duration": 0.71145833333334,
            "durationTicks": 683,
            "midi": 60,
            "name": "C4",
            "ticks": 66960,
            "time": 69.75,
            "velocity": 0.3858267716535433
          },
          {
            "duration": 0.71145833333334,
            "durationTicks": 683,
            "midi": 65,
            "name": "F4",
            "ticks": 66960,
            "time": 69.75,
            "velocity": 0.3858267716535433
          },
          {
            "duration": 0.71145833333334,
            "durationTicks": 683,
            "midi": 65,
            "name": "F4",
            "ticks": 67680,
            "time": 70.5,
            "velocity": 0.3858267716535433
          },
          {
            "duration": 0.71145833333334,
            "durationTicks": 683,
            "midi": 68,
            "name": "G#4",
            "ticks": 67680,
            "time": 70.5,
            "velocity": 0.3858267716535433
          },
          {
            "duration": 0.71145833333334,
            "durationTicks": 683,
            "midi": 65,
            "name": "F4",
            "ticks": 68400,
            "time": 71.25,
            "velocity": 0.3858267716535433
          },
          {
            "duration": 0.71145833333334,
            "durationTicks": 683,
            "midi": 68,
            "name": "G#4",
            "ticks": 68400,
            "time": 71.25,
            "velocity": 0.3858267716535433
          },
          {
            "duration": 0.71145833333334,
            "durationTicks": 683,
            "midi": 63,
            "name": "D#4",
            "ticks": 69120,
            "time": 72,
            "velocity": 0.3858267716535433
          },
          {
            "duration": 0.71145833333334,
            "durationTicks": 683,
            "midi": 68,
            "name": "G#4",
            "ticks": 69120,
            "time": 72,
            "velocity": 0.3858267716535433
          },
          {
            "duration": 0.71145833333334,
            "durationTicks": 683,
            "midi": 63,
            "name": "D#4",
            "ticks": 69840,
            "time": 72.75,
            "velocity": 0.3858267716535433
          },
          {
            "duration": 0.71145833333334,
            "durationTicks": 683,
            "midi": 68,
            "name": "G#4",
            "ticks": 69840,
            "time": 72.75,
            "velocity": 0.3858267716535433
          },
          {
            "duration": 0.71145833333334,
            "durationTicks": 683,
            "midi": 63,
            "name": "D#4",
            "ticks": 70560,
            "time": 73.5,
            "velocity": 0.3858267716535433
          },
          {
            "duration": 0.71145833333334,
            "durationTicks": 683,
            "midi": 67,
            "name": "G4",
            "ticks": 70560,
            "time": 73.5,
            "velocity": 0.3858267716535433
          },
          {
            "duration": 0.11770833333333997,
            "durationTicks": 113,
            "midi": 63,
            "name": "D#4",
            "ticks": 71280,
            "time": 74.25,
            "velocity": 0.3858267716535433
          },
          {
            "duration": 0.11770833333333997,
            "durationTicks": 113,
            "midi": 65,
            "name": "F4",
            "ticks": 71400,
            "time": 74.375,
            "velocity": 0.3858267716535433
          },
          {
            "duration": 0.23645833333333144,
            "durationTicks": 227,
            "midi": 68,
            "name": "G#4",
            "ticks": 71520,
            "time": 74.5,
            "velocity": 0.3858267716535433
          },
          {
            "duration": 0.23645833333333144,
            "durationTicks": 227,
            "midi": 70,
            "name": "A#4",
            "ticks": 71760,
            "time": 74.75,
            "velocity": 0.3858267716535433
          },
          {
            "duration": 0.23645833333333144,
            "durationTicks": 227,
            "midi": 63,
            "name": "D#4",
            "ticks": 72000,
            "time": 75,
            "velocity": 0.3858267716535433
          },
          {
            "duration": 0.23645833333333144,
            "durationTicks": 227,
            "midi": 68,
            "name": "G#4",
            "ticks": 72000,
            "time": 75,
            "velocity": 0.3858267716535433
          },
          {
            "duration": 0.23645833333333144,
            "durationTicks": 227,
            "midi": 63,
            "name": "D#4",
            "ticks": 72240,
            "time": 75.25,
            "velocity": 0.3858267716535433
          },
          {
            "duration": 0.23645833333333144,
            "durationTicks": 227,
            "midi": 68,
            "name": "G#4",
            "ticks": 72240,
            "time": 75.25,
            "velocity": 0.3858267716535433
          },
          {
            "duration": 0.23645833333333144,
            "durationTicks": 227,
            "midi": 63,
            "name": "D#4",
            "ticks": 72480,
            "time": 75.5,
            "velocity": 0.3858267716535433
          },
          {
            "duration": 0.23645833333333144,
            "durationTicks": 227,
            "midi": 68,
            "name": "G#4",
            "ticks": 72480,
            "time": 75.5,
            "velocity": 0.3858267716535433
          },
          {
            "duration": 0.23645833333333144,
            "durationTicks": 227,
            "midi": 63,
            "name": "D#4",
            "ticks": 72720,
            "time": 75.75,
            "velocity": 0.3858267716535433
          },
          {
            "duration": 0.23645833333333144,
            "durationTicks": 227,
            "midi": 68,
            "name": "G#4",
            "ticks": 72720,
            "time": 75.75,
            "velocity": 0.3858267716535433
          },
          {
            "duration": 0.23645833333333144,
            "durationTicks": 227,
            "midi": 63,
            "name": "D#4",
            "ticks": 72960,
            "time": 76,
            "velocity": 0.3858267716535433
          },
          {
            "duration": 0.23645833333333144,
            "durationTicks": 227,
            "midi": 68,
            "name": "G#4",
            "ticks": 72960,
            "time": 76,
            "velocity": 0.3858267716535433
          },
          {
            "duration": 0.23645833333333144,
            "durationTicks": 227,
            "midi": 63,
            "name": "D#4",
            "ticks": 73200,
            "time": 76.25,
            "velocity": 0.3858267716535433
          },
          {
            "duration": 0.23645833333333144,
            "durationTicks": 227,
            "midi": 68,
            "name": "G#4",
            "ticks": 73200,
            "time": 76.25,
            "velocity": 0.3858267716535433
          },
          {
            "duration": 0.23645833333333144,
            "durationTicks": 227,
            "midi": 63,
            "name": "D#4",
            "ticks": 73440,
            "time": 76.5,
            "velocity": 0.3858267716535433
          },
          {
            "duration": 0.23645833333333144,
            "durationTicks": 227,
            "midi": 68,
            "name": "G#4",
            "ticks": 73440,
            "time": 76.5,
            "velocity": 0.3858267716535433
          },
          {
            "duration": 0.23645833333333144,
            "durationTicks": 227,
            "midi": 63,
            "name": "D#4",
            "ticks": 73680,
            "time": 76.75,
            "velocity": 0.3858267716535433
          },
          {
            "duration": 0.23645833333333144,
            "durationTicks": 227,
            "midi": 68,
            "name": "G#4",
            "ticks": 73680,
            "time": 76.75,
            "velocity": 0.3858267716535433
          },
          {
            "duration": 0.23645833333333144,
            "durationTicks": 227,
            "midi": 63,
            "name": "D#4",
            "ticks": 73920,
            "time": 77,
            "velocity": 0.3858267716535433
          },
          {
            "duration": 0.23645833333333144,
            "durationTicks": 227,
            "midi": 68,
            "name": "G#4",
            "ticks": 73920,
            "time": 77,
            "velocity": 0.3858267716535433
          },
          {
            "duration": 0.23645833333333144,
            "durationTicks": 227,
            "midi": 63,
            "name": "D#4",
            "ticks": 74160,
            "time": 77.25,
            "velocity": 0.3858267716535433
          },
          {
            "duration": 0.23645833333333144,
            "durationTicks": 227,
            "midi": 68,
            "name": "G#4",
            "ticks": 74160,
            "time": 77.25,
            "velocity": 0.3858267716535433
          },
          {
            "duration": 0.23645833333333144,
            "durationTicks": 227,
            "midi": 63,
            "name": "D#4",
            "ticks": 74400,
            "time": 77.5,
            "velocity": 0.3858267716535433
          },
          {
            "duration": 0.23645833333333144,
            "durationTicks": 227,
            "midi": 68,
            "name": "G#4",
            "ticks": 74400,
            "time": 77.5,
            "velocity": 0.3858267716535433
          },
          {
            "duration": 0.23645833333333144,
            "durationTicks": 227,
            "midi": 63,
            "name": "D#4",
            "ticks": 74640,
            "time": 77.75,
            "velocity": 0.3858267716535433
          },
          {
            "duration": 0.23645833333333144,
            "durationTicks": 227,
            "midi": 68,
            "name": "G#4",
            "ticks": 74640,
            "time": 77.75,
            "velocity": 0.3858267716535433
          },
          {
            "duration": 0.23645833333333144,
            "durationTicks": 227,
            "midi": 63,
            "name": "D#4",
            "ticks": 74880,
            "time": 78,
            "velocity": 0.3858267716535433
          },
          {
            "duration": 0.23645833333333144,
            "durationTicks": 227,
            "midi": 67,
            "name": "G4",
            "ticks": 74880,
            "time": 78,
            "velocity": 0.3858267716535433
          },
          {
            "duration": 0.23645833333333144,
            "durationTicks": 227,
            "midi": 63,
            "name": "D#4",
            "ticks": 75120,
            "time": 78.25,
            "velocity": 0.3858267716535433
          },
          {
            "duration": 0.23645833333333144,
            "durationTicks": 227,
            "midi": 67,
            "name": "G4",
            "ticks": 75120,
            "time": 78.25,
            "velocity": 0.3858267716535433
          },
          {
            "duration": 0.23645833333333144,
            "durationTicks": 227,
            "midi": 63,
            "name": "D#4",
            "ticks": 75360,
            "time": 78.5,
            "velocity": 0.3858267716535433
          },
          {
            "duration": 0.23645833333333144,
            "durationTicks": 227,
            "midi": 67,
            "name": "G4",
            "ticks": 75360,
            "time": 78.5,
            "velocity": 0.3858267716535433
          },
          {
            "duration": 0.23645833333333144,
            "durationTicks": 227,
            "midi": 63,
            "name": "D#4",
            "ticks": 75600,
            "time": 78.75,
            "velocity": 0.3858267716535433
          },
          {
            "duration": 0.23645833333333144,
            "durationTicks": 227,
            "midi": 67,
            "name": "G4",
            "ticks": 75600,
            "time": 78.75,
            "velocity": 0.3858267716535433
          },
          {
            "duration": 0.23645833333333144,
            "durationTicks": 227,
            "midi": 63,
            "name": "D#4",
            "ticks": 75840,
            "time": 79,
            "velocity": 0.3858267716535433
          },
          {
            "duration": 0.23645833333333144,
            "durationTicks": 227,
            "midi": 67,
            "name": "G4",
            "ticks": 75840,
            "time": 79,
            "velocity": 0.3858267716535433
          },
          {
            "duration": 0.23645833333333144,
            "durationTicks": 227,
            "midi": 63,
            "name": "D#4",
            "ticks": 76080,
            "time": 79.25,
            "velocity": 0.3858267716535433
          },
          {
            "duration": 0.23645833333333144,
            "durationTicks": 227,
            "midi": 67,
            "name": "G4",
            "ticks": 76080,
            "time": 79.25,
            "velocity": 0.3858267716535433
          },
          {
            "duration": 0.23645833333333144,
            "durationTicks": 227,
            "midi": 63,
            "name": "D#4",
            "ticks": 76320,
            "time": 79.5,
            "velocity": 0.3858267716535433
          },
          {
            "duration": 0.23645833333333144,
            "durationTicks": 227,
            "midi": 67,
            "name": "G4",
            "ticks": 76320,
            "time": 79.5,
            "velocity": 0.3858267716535433
          },
          {
            "duration": 0.23645833333333144,
            "durationTicks": 227,
            "midi": 63,
            "name": "D#4",
            "ticks": 76560,
            "time": 79.75,
            "velocity": 0.3858267716535433
          },
          {
            "duration": 0.23645833333333144,
            "durationTicks": 227,
            "midi": 67,
            "name": "G4",
            "ticks": 76560,
            "time": 79.75,
            "velocity": 0.3858267716535433
          },
          {
            "duration": 0.23645833333333144,
            "durationTicks": 227,
            "midi": 63,
            "name": "D#4",
            "ticks": 76800,
            "time": 80,
            "velocity": 0.3858267716535433
          },
          {
            "duration": 0.23645833333333144,
            "durationTicks": 227,
            "midi": 67,
            "name": "G4",
            "ticks": 76800,
            "time": 80,
            "velocity": 0.3858267716535433
          },
          {
            "duration": 0.71145833333334,
            "durationTicks": 683,
            "midi": 61,
            "name": "C#4",
            "ticks": 77760,
            "time": 81,
            "velocity": 0.3858267716535433
          },
          {
            "duration": 0.71145833333334,
            "durationTicks": 683,
            "midi": 65,
            "name": "F4",
            "ticks": 77760,
            "time": 81,
            "velocity": 0.3858267716535433
          },
          {
            "duration": 0.71145833333334,
            "durationTicks": 683,
            "midi": 61,
            "name": "C#4",
            "ticks": 78480,
            "time": 81.75,
            "velocity": 0.3858267716535433
          },
          {
            "duration": 0.71145833333334,
            "durationTicks": 683,
            "midi": 65,
            "name": "F4",
            "ticks": 78480,
            "time": 81.75,
            "velocity": 0.3858267716535433
          },
          {
            "duration": 0.71145833333334,
            "durationTicks": 683,
            "midi": 65,
            "name": "F4",
            "ticks": 79200,
            "time": 82.5,
            "velocity": 0.3858267716535433
          },
          {
            "duration": 0.71145833333334,
            "durationTicks": 683,
            "midi": 68,
            "name": "G#4",
            "ticks": 79200,
            "time": 82.5,
            "velocity": 0.3858267716535433
          },
          {
            "duration": 0.71145833333334,
            "durationTicks": 683,
            "midi": 65,
            "name": "F4",
            "ticks": 79920,
            "time": 83.25,
            "velocity": 0.3858267716535433
          },
          {
            "duration": 0.71145833333334,
            "durationTicks": 683,
            "midi": 68,
            "name": "G#4",
            "ticks": 79920,
            "time": 83.25,
            "velocity": 0.3858267716535433
          },
          {
            "duration": 0.71145833333334,
            "durationTicks": 683,
            "midi": 63,
            "name": "D#4",
            "ticks": 80640,
            "time": 84,
            "velocity": 0.3858267716535433
          },
          {
            "duration": 0.71145833333334,
            "durationTicks": 683,
            "midi": 67,
            "name": "G4",
            "ticks": 80640,
            "time": 84,
            "velocity": 0.3858267716535433
          },
          {
            "duration": 0.71145833333334,
            "durationTicks": 683,
            "midi": 63,
            "name": "D#4",
            "ticks": 81360,
            "time": 84.75,
            "velocity": 0.3858267716535433
          },
          {
            "duration": 0.23645833333333144,
            "durationTicks": 227,
            "midi": 67,
            "name": "G4",
            "ticks": 82080,
            "time": 85.5,
            "velocity": 0.3858267716535433
          },
          {
            "duration": 0.23645833333333144,
            "durationTicks": 227,
            "midi": 70,
            "name": "A#4",
            "ticks": 82080,
            "time": 85.5,
            "velocity": 0.3858267716535433
          },
          {
            "duration": 0.4739583333333286,
            "durationTicks": 455,
            "midi": 67,
            "name": "G4",
            "ticks": 82320,
            "time": 85.75,
            "velocity": 0.3858267716535433
          },
          {
            "duration": 0.4739583333333286,
            "durationTicks": 455,
            "midi": 70,
            "name": "A#4",
            "ticks": 82320,
            "time": 85.75,
            "velocity": 0.3858267716535433
          },
          {
            "duration": 0.23645833333333144,
            "durationTicks": 227,
            "midi": 67,
            "name": "G4",
            "ticks": 82800,
            "time": 86.25,
            "velocity": 0.3858267716535433
          },
          {
            "duration": 0.23645833333333144,
            "durationTicks": 227,
            "midi": 70,
            "name": "A#4",
            "ticks": 82800,
            "time": 86.25,
            "velocity": 0.3858267716535433
          },
          {
            "duration": 0.23645833333333144,
            "durationTicks": 227,
            "midi": 67,
            "name": "G4",
            "ticks": 83040,
            "time": 86.5,
            "velocity": 0.3858267716535433
          },
          {
            "duration": 0.23645833333333144,
            "durationTicks": 227,
            "midi": 70,
            "name": "A#4",
            "ticks": 83040,
            "time": 86.5,
            "velocity": 0.3858267716535433
          },
          {
            "duration": 0.23645833333333144,
            "durationTicks": 227,
            "midi": 63,
            "name": "D#4",
            "ticks": 83280,
            "time": 86.75,
            "velocity": 0.3858267716535433
          },
          {
            "duration": 0.23645833333333144,
            "durationTicks": 227,
            "midi": 67,
            "name": "G4",
            "ticks": 83280,
            "time": 86.75,
            "velocity": 0.3858267716535433
          },
          {
            "duration": 0.71145833333334,
            "durationTicks": 683,
            "midi": 65,
            "name": "F4",
            "ticks": 83520,
            "time": 87,
            "velocity": 0.3858267716535433
          },
          {
            "duration": 0.71145833333334,
            "durationTicks": 683,
            "midi": 68,
            "name": "G#4",
            "ticks": 83520,
            "time": 87,
            "velocity": 0.3858267716535433
          },
          {
            "duration": 0.71145833333334,
            "durationTicks": 683,
            "midi": 60,
            "name": "C4",
            "ticks": 84240,
            "time": 87.75,
            "velocity": 0.3858267716535433
          },
          {
            "duration": 0.71145833333334,
            "durationTicks": 683,
            "midi": 65,
            "name": "F4",
            "ticks": 84240,
            "time": 87.75,
            "velocity": 0.3858267716535433
          },
          {
            "duration": 0.71145833333334,
            "durationTicks": 683,
            "midi": 73,
            "name": "C#5",
            "ticks": 84960,
            "time": 88.5,
            "velocity": 0.3858267716535433
          },
          {
            "duration": 0.71145833333334,
            "durationTicks": 683,
            "midi": 77,
            "name": "F5",
            "ticks": 84960,
            "time": 88.5,
            "velocity": 0.3858267716535433
          },
          {
            "duration": 0.71145833333334,
            "durationTicks": 683,
            "midi": 68,
            "name": "G#4",
            "ticks": 85680,
            "time": 89.25,
            "velocity": 0.3858267716535433
          },
          {
            "duration": 0.71145833333334,
            "durationTicks": 683,
            "midi": 73,
            "name": "C#5",
            "ticks": 85680,
            "time": 89.25,
            "velocity": 0.3858267716535433
          },
          {
            "duration": 0.71145833333334,
            "durationTicks": 683,
            "midi": 63,
            "name": "D#4",
            "ticks": 86400,
            "time": 90,
            "velocity": 0.3858267716535433
          },
          {
            "duration": 0.71145833333334,
            "durationTicks": 683,
            "midi": 68,
            "name": "G#4",
            "ticks": 86400,
            "time": 90,
            "velocity": 0.3858267716535433
          },
          {
            "duration": 0.71145833333334,
            "durationTicks": 683,
            "midi": 63,
            "name": "D#4",
            "ticks": 87120,
            "time": 90.75,
            "velocity": 0.3858267716535433
          },
          {
            "duration": 0.71145833333334,
            "durationTicks": 683,
            "midi": 68,
            "name": "G#4",
            "ticks": 87120,
            "time": 90.75,
            "velocity": 0.3858267716535433
          },
          {
            "duration": 0.71145833333334,
            "durationTicks": 683,
            "midi": 67,
            "name": "G4",
            "ticks": 87840,
            "time": 91.5,
            "velocity": 0.3858267716535433
          },
          {
            "duration": 0.71145833333334,
            "durationTicks": 683,
            "midi": 70,
            "name": "A#4",
            "ticks": 87840,
            "time": 91.5,
            "velocity": 0.3858267716535433
          },
          {
            "duration": 0.71145833333334,
            "durationTicks": 683,
            "midi": 63,
            "name": "D#4",
            "ticks": 88560,
            "time": 92.25,
            "velocity": 0.3858267716535433
          },
          {
            "duration": 0.71145833333334,
            "durationTicks": 683,
            "midi": 67,
            "name": "G4",
            "ticks": 88560,
            "time": 92.25,
            "velocity": 0.3858267716535433
          },
          {
            "duration": 0.71145833333334,
            "durationTicks": 683,
            "midi": 60,
            "name": "C4",
            "ticks": 89280,
            "time": 93,
            "velocity": 0.3858267716535433
          },
          {
            "duration": 0.71145833333334,
            "durationTicks": 683,
            "midi": 65,
            "name": "F4",
            "ticks": 89280,
            "time": 93,
            "velocity": 0.3858267716535433
          },
          {
            "duration": 0.71145833333334,
            "durationTicks": 683,
            "midi": 60,
            "name": "C4",
            "ticks": 90000,
            "time": 93.75,
            "velocity": 0.3858267716535433
          },
          {
            "duration": 0.71145833333334,
            "durationTicks": 683,
            "midi": 65,
            "name": "F4",
            "ticks": 90000,
            "time": 93.75,
            "velocity": 0.3858267716535433
          },
          {
            "duration": 0.71145833333334,
            "durationTicks": 683,
            "midi": 73,
            "name": "C#5",
            "ticks": 90720,
            "time": 94.5,
            "velocity": 0.3858267716535433
          },
          {
            "duration": 0.71145833333334,
            "durationTicks": 683,
            "midi": 77,
            "name": "F5",
            "ticks": 90720,
            "time": 94.5,
            "velocity": 0.3858267716535433
          },
          {
            "duration": 0.71145833333334,
            "durationTicks": 683,
            "midi": 68,
            "name": "G#4",
            "ticks": 91440,
            "time": 95.25,
            "velocity": 0.3858267716535433
          },
          {
            "duration": 0.71145833333334,
            "durationTicks": 683,
            "midi": 73,
            "name": "C#5",
            "ticks": 91440,
            "time": 95.25,
            "velocity": 0.3858267716535433
          },
          {
            "duration": 0.71145833333334,
            "durationTicks": 683,
            "midi": 63,
            "name": "D#4",
            "ticks": 92160,
            "time": 96,
            "velocity": 0.3858267716535433
          },
          {
            "duration": 0.71145833333334,
            "durationTicks": 683,
            "midi": 68,
            "name": "G#4",
            "ticks": 92160,
            "time": 96,
            "velocity": 0.3858267716535433
          },
          {
            "duration": 0.71145833333334,
            "durationTicks": 683,
            "midi": 63,
            "name": "D#4",
            "ticks": 92880,
            "time": 96.75,
            "velocity": 0.3858267716535433
          },
          {
            "duration": 0.71145833333334,
            "durationTicks": 683,
            "midi": 68,
            "name": "G#4",
            "ticks": 92880,
            "time": 96.75,
            "velocity": 0.3858267716535433
          },
          {
            "duration": 0.71145833333334,
            "durationTicks": 683,
            "midi": 67,
            "name": "G4",
            "ticks": 93600,
            "time": 97.5,
            "velocity": 0.3858267716535433
          },
          {
            "duration": 0.71145833333334,
            "durationTicks": 683,
            "midi": 70,
            "name": "A#4",
            "ticks": 93600,
            "time": 97.5,
            "velocity": 0.3858267716535433
          },
          {
            "duration": 0.3552083333333371,
            "durationTicks": 341,
            "midi": 67,
            "name": "G4",
            "ticks": 94320,
            "time": 98.25,
            "velocity": 0.3858267716535433
          },
          {
            "duration": 0.3552083333333371,
            "durationTicks": 341,
            "midi": 70,
            "name": "A#4",
            "ticks": 94320,
            "time": 98.25,
            "velocity": 0.3858267716535433
          },
          {
            "duration": 0.3552083333333371,
            "durationTicks": 341,
            "midi": 67,
            "name": "G4",
            "ticks": 94680,
            "time": 98.625,
            "velocity": 0.3858267716535433
          },
          {
            "duration": 0.3552083333333371,
            "durationTicks": 341,
            "midi": 70,
            "name": "A#4",
            "ticks": 94680,
            "time": 98.625,
            "velocity": 0.3858267716535433
          },
          {
            "duration": 0.4739583333333286,
            "durationTicks": 455,
            "midi": 65,
            "name": "F4",
            "ticks": 95040,
            "time": 99,
            "velocity": 0.3858267716535433
          },
          {
            "duration": 0.4739583333333286,
            "durationTicks": 455,
            "midi": 68,
            "name": "G#4",
            "ticks": 95040,
            "time": 99,
            "velocity": 0.3858267716535433
          },
          {
            "duration": 0.9489583333333371,
            "durationTicks": 911,
            "midi": 60,
            "name": "C4",
            "ticks": 95520,
            "time": 99.5,
            "velocity": 0.3858267716535433
          },
          {
            "duration": 0.9489583333333371,
            "durationTicks": 911,
            "midi": 65,
            "name": "F4",
            "ticks": 95520,
            "time": 99.5,
            "velocity": 0.3858267716535433
          },
          {
            "duration": 0.71145833333334,
            "durationTicks": 683,
            "midi": 68,
            "name": "G#4",
            "ticks": 96480,
            "time": 100.5,
            "velocity": 0.3858267716535433
          },
          {
            "duration": 0.71145833333334,
            "durationTicks": 683,
            "midi": 73,
            "name": "C#5",
            "ticks": 96480,
            "time": 100.5,
            "velocity": 0.3858267716535433
          },
          {
            "duration": 0.71145833333334,
            "durationTicks": 683,
            "midi": 68,
            "name": "G#4",
            "ticks": 97200,
            "time": 101.25,
            "velocity": 0.3858267716535433
          },
          {
            "duration": 0.71145833333334,
            "durationTicks": 683,
            "midi": 73,
            "name": "C#5",
            "ticks": 97200,
            "time": 101.25,
            "velocity": 0.3858267716535433
          },
          {
            "duration": 0.71145833333334,
            "durationTicks": 683,
            "midi": 63,
            "name": "D#4",
            "ticks": 97920,
            "time": 102,
            "velocity": 0.3858267716535433
          },
          {
            "duration": 0.71145833333334,
            "durationTicks": 683,
            "midi": 68,
            "name": "G#4",
            "ticks": 97920,
            "time": 102,
            "velocity": 0.3858267716535433
          },
          {
            "duration": 0.71145833333334,
            "durationTicks": 683,
            "midi": 63,
            "name": "D#4",
            "ticks": 98640,
            "time": 102.75,
            "velocity": 0.3858267716535433
          },
          {
            "duration": 0.71145833333334,
            "durationTicks": 683,
            "midi": 68,
            "name": "G#4",
            "ticks": 98640,
            "time": 102.75,
            "velocity": 0.3858267716535433
          },
          {
            "duration": 0.71145833333334,
            "durationTicks": 683,
            "midi": 67,
            "name": "G4",
            "ticks": 99360,
            "time": 103.5,
            "velocity": 0.3858267716535433
          },
          {
            "duration": 0.71145833333334,
            "durationTicks": 683,
            "midi": 70,
            "name": "A#4",
            "ticks": 99360,
            "time": 103.5,
            "velocity": 0.3858267716535433
          },
          {
            "duration": 0.71145833333334,
            "durationTicks": 683,
            "midi": 63,
            "name": "D#4",
            "ticks": 100080,
            "time": 104.25,
            "velocity": 0.3858267716535433
          },
          {
            "duration": 0.71145833333334,
            "durationTicks": 683,
            "midi": 67,
            "name": "G4",
            "ticks": 100080,
            "time": 104.25,
            "velocity": 0.3858267716535433
          },
          {
            "duration": 0.71145833333334,
            "durationTicks": 683,
            "midi": 65,
            "name": "F4",
            "ticks": 100800,
            "time": 105,
            "velocity": 0.3858267716535433
          },
          {
            "duration": 0.71145833333334,
            "durationTicks": 683,
            "midi": 68,
            "name": "G#4",
            "ticks": 100800,
            "time": 105,
            "velocity": 0.3858267716535433
          },
          {
            "duration": 0.71145833333334,
            "durationTicks": 683,
            "midi": 65,
            "name": "F4",
            "ticks": 101520,
            "time": 105.75,
            "velocity": 0.3858267716535433
          },
          {
            "duration": 0.71145833333334,
            "durationTicks": 683,
            "midi": 65,
            "name": "F4",
            "ticks": 102240,
            "time": 106.5,
            "velocity": 0.3858267716535433
          },
          {
            "duration": 0.71145833333334,
            "durationTicks": 683,
            "midi": 68,
            "name": "G#4",
            "ticks": 102240,
            "time": 106.5,
            "velocity": 0.3858267716535433
          },
          {
            "duration": 0.71145833333334,
            "durationTicks": 683,
            "midi": 65,
            "name": "F4",
            "ticks": 102960,
            "time": 107.25,
            "velocity": 0.3858267716535433
          },
          {
            "duration": 0.71145833333334,
            "durationTicks": 683,
            "midi": 68,
            "name": "G#4",
            "ticks": 102960,
            "time": 107.25,
            "velocity": 0.3858267716535433
          },
          {
            "duration": 0.71145833333334,
            "durationTicks": 683,
            "midi": 63,
            "name": "D#4",
            "ticks": 103680,
            "time": 108,
            "velocity": 0.3858267716535433
          },
          {
            "duration": 0.71145833333334,
            "durationTicks": 683,
            "midi": 68,
            "name": "G#4",
            "ticks": 103680,
            "time": 108,
            "velocity": 0.3858267716535433
          },
          {
            "duration": 0,
            "durationTicks": 0,
            "midi": 63,
            "name": "D#4",
            "ticks": 104400,
            "time": 108.75,
            "velocity": 0.3858267716535433
          },
          {
            "duration": 0.71145833333334,
            "durationTicks": 683,
            "midi": 68,
            "name": "G#4",
            "ticks": 104400,
            "time": 108.75,
            "velocity": 0.3858267716535433
          },
          {
            "duration": 0.71145833333334,
            "durationTicks": 683,
            "midi": 63,
            "name": "D#4",
            "ticks": 105120,
            "time": 109.5,
            "velocity": 0.3858267716535433
          },
          {
            "duration": 0.71145833333334,
            "durationTicks": 683,
            "midi": 67,
            "name": "G4",
            "ticks": 105120,
            "time": 109.5,
            "velocity": 0.3858267716535433
          },
          {
            "duration": 0.71145833333334,
            "durationTicks": 683,
            "midi": 58,
            "name": "A#3",
            "ticks": 105840,
            "time": 110.25,
            "velocity": 0.3858267716535433
          },
          {
            "duration": 0.71145833333334,
            "durationTicks": 683,
            "midi": 63,
            "name": "D#4",
            "ticks": 105840,
            "time": 110.25,
            "velocity": 0.3858267716535433
          },
          {
            "duration": 2.8489583333333286,
            "durationTicks": 2735,
            "midi": 65,
            "name": "F4",
            "ticks": 106560,
            "time": 111,
            "velocity": 0.3858267716535433
          },
          {
            "duration": 2.8489583333333286,
            "durationTicks": 2735,
            "midi": 68,
            "name": "G#4",
            "ticks": 106560,
            "time": 111,
            "velocity": 0.3858267716535433
          },
          {
            "duration": 1.4239583333333314,
            "durationTicks": 1367,
            "midi": 67,
            "name": "G4",
            "ticks": 109440,
            "time": 114,
            "velocity": 0.3858267716535433
          },
          {
            "duration": 1.4239583333333314,
            "durationTicks": 1367,
            "midi": 63,
            "name": "D#4",
            "ticks": 110880,
            "time": 115.5,
            "velocity": 0.3858267716535433
          },
          {
            "duration": 0.23645833333333144,
            "durationTicks": 227,
            "midi": 63,
            "name": "D#4",
            "ticks": 112320,
            "time": 117,
            "velocity": 0.3858267716535433
          },
          {
            "duration": 0.23645833333333144,
            "durationTicks": 227,
            "midi": 68,
            "name": "G#4",
            "ticks": 112320,
            "time": 117,
            "velocity": 0.3858267716535433
          },
          {
            "duration": 0.23645833333333144,
            "durationTicks": 227,
            "midi": 60,
            "name": "C4",
            "ticks": 112560,
            "time": 117.25,
            "velocity": 0.3858267716535433
          },
          {
            "duration": 0.23645833333333144,
            "durationTicks": 227,
            "midi": 63,
            "name": "D#4",
            "ticks": 112800,
            "time": 117.5,
            "velocity": 0.3858267716535433
          },
          {
            "duration": 0.23645833333333144,
            "durationTicks": 227,
            "midi": 63,
            "name": "D#4",
            "ticks": 113040,
            "time": 117.75,
            "velocity": 0.3858267716535433
          },
          {
            "duration": 0.23645833333333144,
            "durationTicks": 227,
            "midi": 68,
            "name": "G#4",
            "ticks": 113040,
            "time": 117.75,
            "velocity": 0.3858267716535433
          },
          {
            "duration": 0.23645833333333144,
            "durationTicks": 227,
            "midi": 60,
            "name": "C4",
            "ticks": 113280,
            "time": 118,
            "velocity": 0.3858267716535433
          },
          {
            "duration": 0.23645833333333144,
            "durationTicks": 227,
            "midi": 63,
            "name": "D#4",
            "ticks": 113520,
            "time": 118.25,
            "velocity": 0.3858267716535433
          },
          {
            "duration": 0.23645833333333144,
            "durationTicks": 227,
            "midi": 63,
            "name": "D#4",
            "ticks": 113760,
            "time": 118.5,
            "velocity": 0.3858267716535433
          },
          {
            "duration": 0.23645833333333144,
            "durationTicks": 227,
            "midi": 68,
            "name": "G#4",
            "ticks": 113760,
            "time": 118.5,
            "velocity": 0.3858267716535433
          },
          {
            "duration": 0.23645833333333144,
            "durationTicks": 227,
            "midi": 60,
            "name": "C4",
            "ticks": 114000,
            "time": 118.75,
            "velocity": 0.3858267716535433
          },
          {
            "duration": 0.23645833333333144,
            "durationTicks": 227,
            "midi": 63,
            "name": "D#4",
            "ticks": 114240,
            "time": 119,
            "velocity": 0.3858267716535433
          },
          {
            "duration": 0.23645833333333144,
            "durationTicks": 227,
            "midi": 63,
            "name": "D#4",
            "ticks": 114480,
            "time": 119.25,
            "velocity": 0.3858267716535433
          },
          {
            "duration": 0.23645833333333144,
            "durationTicks": 227,
            "midi": 68,
            "name": "G#4",
            "ticks": 114480,
            "time": 119.25,
            "velocity": 0.3858267716535433
          },
          {
            "duration": 0.23645833333333144,
            "durationTicks": 227,
            "midi": 60,
            "name": "C4",
            "ticks": 114720,
            "time": 119.5,
            "velocity": 0.3858267716535433
          },
          {
            "duration": 0.23645833333333144,
            "durationTicks": 227,
            "midi": 63,
            "name": "D#4",
            "ticks": 114960,
            "time": 119.75,
            "velocity": 0.3858267716535433
          },
          {
            "duration": 0.23645833333333144,
            "durationTicks": 227,
            "midi": 53,
            "name": "F3",
            "ticks": 115200,
            "time": 120,
            "velocity": 0.3858267716535433
          },
          {
            "duration": 0.23645833333333144,
            "durationTicks": 227,
            "midi": 56,
            "name": "G#3",
            "ticks": 115200,
            "time": 120,
            "velocity": 0.3858267716535433
          },
          {
            "duration": 0.23645833333333144,
            "durationTicks": 227,
            "midi": 61,
            "name": "C#4",
            "ticks": 115200,
            "time": 120,
            "velocity": 0.3858267716535433
          },
          {
            "duration": 0.23645833333333144,
            "durationTicks": 227,
            "midi": 56,
            "name": "G#3",
            "ticks": 115440,
            "time": 120.25,
            "velocity": 0.3858267716535433
          },
          {
            "duration": 0.23645833333333144,
            "durationTicks": 227,
            "midi": 61,
            "name": "C#4",
            "ticks": 115680,
            "time": 120.5,
            "velocity": 0.3858267716535433
          },
          {
            "duration": 0.23645833333333144,
            "durationTicks": 227,
            "midi": 53,
            "name": "F3",
            "ticks": 115920,
            "time": 120.75,
            "velocity": 0.3858267716535433
          },
          {
            "duration": 0.23645833333333144,
            "durationTicks": 227,
            "midi": 56,
            "name": "G#3",
            "ticks": 116160,
            "time": 121,
            "velocity": 0.3858267716535433
          },
          {
            "duration": 0.23645833333333144,
            "durationTicks": 227,
            "midi": 61,
            "name": "C#4",
            "ticks": 116400,
            "time": 121.25,
            "velocity": 0.3858267716535433
          },
          {
            "duration": 0.71145833333334,
            "durationTicks": 683,
            "midi": 55,
            "name": "G3",
            "ticks": 116640,
            "time": 121.5,
            "velocity": 0.3858267716535433
          },
          {
            "duration": 0.71145833333334,
            "durationTicks": 683,
            "midi": 58,
            "name": "A#3",
            "ticks": 116640,
            "time": 121.5,
            "velocity": 0.3858267716535433
          },
          {
            "duration": 0.71145833333334,
            "durationTicks": 683,
            "midi": 63,
            "name": "D#4",
            "ticks": 116640,
            "time": 121.5,
            "velocity": 0.3858267716535433
          },
          {
            "duration": 0.23645833333333144,
            "durationTicks": 227,
            "midi": 63,
            "name": "D#4",
            "ticks": 117360,
            "time": 122.25,
            "velocity": 0.3858267716535433
          },
          {
            "duration": 0.23645833333333144,
            "durationTicks": 227,
            "midi": 58,
            "name": "A#3",
            "ticks": 117600,
            "time": 122.5,
            "velocity": 0.3858267716535433
          },
          {
            "duration": 0.23645833333333144,
            "durationTicks": 227,
            "midi": 55,
            "name": "G3",
            "ticks": 117840,
            "time": 122.75,
            "velocity": 0.3858267716535433
          },
          {
            "duration": 2.8489583333333286,
            "durationTicks": 2735,
            "midi": 63,
            "name": "D#4",
            "ticks": 118080,
            "time": 123,
            "velocity": 0.3858267716535433
          },
          {
            "duration": 2.8489583333333286,
            "durationTicks": 2735,
            "midi": 68,
            "name": "G#4",
            "ticks": 118080,
            "time": 123,
            "velocity": 0.3858267716535433
          }
        ]
      },
      {
        "channel": 1,
        "controlChanges": {},
        "pitchBends": [],
        "instrument": {
          "family": "piano",
          "name": "acoustic grand piano",
          "number": 0
        },
        "name": "Piano\u0000",
        "notes": [
          {
            "duration": 2.8489583333333335,
            "durationTicks": 2735,
            "midi": 44,
            "name": "G#2",
            "ticks": 0,
            "time": 0,
            "velocity": 0.3858267716535433
          },
          {
            "duration": 2.848958333333333,
            "durationTicks": 2735,
            "midi": 44,
            "name": "G#2",
            "ticks": 2880,
            "time": 3,
            "velocity": 0.3858267716535433
          },
          {
            "duration": 2.848958333333334,
            "durationTicks": 2735,
            "midi": 41,
            "name": "F2",
            "ticks": 5760,
            "time": 6,
            "velocity": 0.3858267716535433
          },
          {
            "duration": 2.848958333333334,
            "durationTicks": 2735,
            "midi": 49,
            "name": "C#3",
            "ticks": 8640,
            "time": 9,
            "velocity": 0.3858267716535433
          },
          {
            "duration": 2.848958333333334,
            "durationTicks": 2735,
            "midi": 51,
            "name": "D#3",
            "ticks": 11520,
            "time": 12,
            "velocity": 0.3858267716535433
          },
          {
            "duration": 2.848958333333332,
            "durationTicks": 2735,
            "midi": 44,
            "name": "G#2",
            "ticks": 14400,
            "time": 15,
            "velocity": 0.3858267716535433
          },
          {
            "duration": 2.848958333333332,
            "durationTicks": 2735,
            "midi": 41,
            "name": "F2",
            "ticks": 17280,
            "time": 18,
            "velocity": 0.3858267716535433
          },
          {
            "duration": 2.848958333333332,
            "durationTicks": 2735,
            "midi": 49,
            "name": "C#3",
            "ticks": 20160,
            "time": 21,
            "velocity": 0.3858267716535433
          },
          {
            "duration": 1.423958333333335,
            "durationTicks": 1367,
            "midi": 51,
            "name": "D#3",
            "ticks": 23040,
            "time": 24,
            "velocity": 0.3858267716535433
          },
          {
            "duration": 0.236458333333335,
            "durationTicks": 227,
            "midi": 51,
            "name": "D#3",
            "ticks": 24480,
            "time": 25.5,
            "velocity": 0.3858267716535433
          },
          {
            "duration": 1.1864583333333343,
            "durationTicks": 1139,
            "midi": 44,
            "name": "G#2",
            "ticks": 25920,
            "time": 27,
            "velocity": 0.3858267716535433
          },
          {
            "duration": 0.236458333333335,
            "durationTicks": 227,
            "midi": 44,
            "name": "G#2",
            "ticks": 27120,
            "time": 28.25,
            "velocity": 0.3858267716535433
          },
          {
            "duration": 1.423958333333335,
            "durationTicks": 1367,
            "midi": 44,
            "name": "G#2",
            "ticks": 27360,
            "time": 28.5,
            "velocity": 0.3858267716535433
          },
          {
            "duration": 1.1864583333333343,
            "durationTicks": 1139,
            "midi": 41,
            "name": "F2",
            "ticks": 28800,
            "time": 30,
            "velocity": 0.3858267716535433
          },
          {
            "duration": 0.236458333333335,
            "durationTicks": 227,
            "midi": 41,
            "name": "F2",
            "ticks": 30000,
            "time": 31.25,
            "velocity": 0.3858267716535433
          },
          {
            "duration": 1.4239583333333314,
            "durationTicks": 1367,
            "midi": 41,
            "name": "F2",
            "ticks": 30240,
            "time": 31.5,
            "velocity": 0.3858267716535433
          },
          {
            "duration": 1.1864583333333343,
            "durationTicks": 1139,
            "midi": 37,
            "name": "C#2",
            "ticks": 31680,
            "time": 33,
            "velocity": 0.3858267716535433
          },
          {
            "duration": 0.23645833333333144,
            "durationTicks": 227,
            "midi": 37,
            "name": "C#2",
            "ticks": 32880,
            "time": 34.25,
            "velocity": 0.3858267716535433
          },
          {
            "duration": 1.4239583333333314,
            "durationTicks": 1367,
            "midi": 37,
            "name": "C#2",
            "ticks": 33120,
            "time": 34.5,
            "velocity": 0.3858267716535433
          },
          {
            "duration": 1.1864583333333343,
            "durationTicks": 1139,
            "midi": 44,
            "name": "G#2",
            "ticks": 34560,
            "time": 36,
            "velocity": 0.3858267716535433
          },
          {
            "duration": 0.23645833333333144,
            "durationTicks": 227,
            "midi": 46,
            "name": "A#2",
            "ticks": 35760,
            "time": 37.25,
            "velocity": 0.3858267716535433
          },
          {
            "duration": 1.4239583333333314,
            "durationTicks": 1367,
            "midi": 51,
            "name": "D#3",
            "ticks": 36000,
            "time": 37.5,
            "velocity": 0.3858267716535433
          },
          {
            "duration": 1.1864583333333343,
            "durationTicks": 1139,
            "midi": 44,
            "name": "G#2",
            "ticks": 37440,
            "time": 39,
            "velocity": 0.3858267716535433
          },
          {
            "duration": 0.23645833333333144,
            "durationTicks": 227,
            "midi": 44,
            "name": "G#2",
            "ticks": 38640,
            "time": 40.25,
            "velocity": 0.3858267716535433
          },
          {
            "duration": 0.7114583333333329,
            "durationTicks": 683,
            "midi": 44,
            "name": "G#2",
            "ticks": 38880,
            "time": 40.5,
            "velocity": 0.3858267716535433
          },
          {
            "duration": 0.23645833333333144,
            "durationTicks": 227,
            "midi": 44,
            "name": "G#2",
            "ticks": 39600,
            "time": 41.25,
            "velocity": 0.3858267716535433
          },
          {
            "duration": 0.23645833333333144,
            "durationTicks": 227,
            "midi": 46,
            "name": "A#2",
            "ticks": 39840,
            "time": 41.5,
            "velocity": 0.3858267716535433
          },
          {
            "duration": 0.23645833333333144,
            "durationTicks": 227,
            "midi": 44,
            "name": "G#2",
            "ticks": 40080,
            "time": 41.75,
            "velocity": 0.3858267716535433
          },
          {
            "duration": 1.1864583333333343,
            "durationTicks": 1139,
            "midi": 41,
            "name": "F2",
            "ticks": 40320,
            "time": 42,
            "velocity": 0.3858267716535433
          },
          {
            "duration": 0.23645833333333144,
            "durationTicks": 227,
            "midi": 41,
            "name": "F2",
            "ticks": 41520,
            "time": 43.25,
            "velocity": 0.3858267716535433
          },
          {
            "duration": 1.4239583333333314,
            "durationTicks": 1367,
            "midi": 41,
            "name": "F2",
            "ticks": 41760,
            "time": 43.5,
            "velocity": 0.3858267716535433
          },
          {
            "duration": 1.1864583333333343,
            "durationTicks": 1139,
            "midi": 37,
            "name": "C#2",
            "ticks": 43200,
            "time": 45,
            "velocity": 0.3858267716535433
          },
          {
            "duration": 0.23645833333333144,
            "durationTicks": 227,
            "midi": 37,
            "name": "C#2",
            "ticks": 44400,
            "time": 46.25,
            "velocity": 0.3858267716535433
          },
          {
            "duration": 1.4239583333333314,
            "durationTicks": 1367,
            "midi": 37,
            "name": "C#2",
            "ticks": 44640,
            "time": 46.5,
            "velocity": 0.3858267716535433
          },
          {
            "duration": 0.7114583333333329,
            "durationTicks": 683,
            "midi": 39,
            "name": "D#2",
            "ticks": 46080,
            "time": 48,
            "velocity": 0.3858267716535433
          },
          {
            "duration": 0.7114583333333329,
            "durationTicks": 683,
            "midi": 39,
            "name": "D#2",
            "ticks": 46800,
            "time": 48.75,
            "velocity": 0.3858267716535433
          },
          {
            "duration": 0.23645833333333144,
            "durationTicks": 227,
            "midi": 39,
            "name": "D#2",
            "ticks": 47520,
            "time": 49.5,
            "velocity": 0.3858267716535433
          },
          {
            "duration": 0.7114583333333329,
            "durationTicks": 683,
            "midi": 41,
            "name": "F2",
            "ticks": 48960,
            "time": 51,
            "velocity": 0.3858267716535433
          },
          {
            "duration": 0.4739583333333357,
            "durationTicks": 455,
            "midi": 41,
            "name": "F2",
            "ticks": 49680,
            "time": 51.75,
            "velocity": 0.3858267716535433
          },
          {
            "duration": 0.23645833333333144,
            "durationTicks": 227,
            "midi": 41,
            "name": "F2",
            "ticks": 50160,
            "time": 52.25,
            "velocity": 0.3858267716535433
          },
          {
            "duration": 1.4239583333333314,
            "durationTicks": 1367,
            "midi": 37,
            "name": "C#2",
            "ticks": 50400,
            "time": 52.5,
            "velocity": 0.3858267716535433
          },
          {
            "duration": 0.94895833333333,
            "durationTicks": 911,
            "midi": 44,
            "name": "G#2",
            "ticks": 51840,
            "time": 54,
            "velocity": 0.3858267716535433
          },
          {
            "duration": 0.23645833333333144,
            "durationTicks": 227,
            "midi": 46,
            "name": "A#2",
            "ticks": 52800,
            "time": 55,
            "velocity": 0.3858267716535433
          },
          {
            "duration": 0.23645833333333144,
            "durationTicks": 227,
            "midi": 48,
            "name": "C3",
            "ticks": 53040,
            "time": 55.25,
            "velocity": 0.3858267716535433
          },
          {
            "duration": 1.4239583333333314,
            "durationTicks": 1367,
            "midi": 51,
            "name": "D#3",
            "ticks": 53280,
            "time": 55.5,
            "velocity": 0.3858267716535433
          },
          {
            "duration": 0.7489583333333343,
            "durationTicks": 719,
            "midi": 53,
            "name": "F3",
            "ticks": 54720,
            "time": 57,
            "velocity": 0.3858267716535433
          },
          {
            "duration": 0.23645833333333144,
            "durationTicks": 227,
            "midi": 53,
            "name": "F3",
            "ticks": 55440,
            "time": 57.75,
            "velocity": 0.3858267716535433
          },
          {
            "duration": 0.23645833333333144,
            "durationTicks": 227,
            "midi": 44,
            "name": "G#2",
            "ticks": 55680,
            "time": 58,
            "velocity": 0.3858267716535433
          },
          {
            "duration": 0.23645833333333144,
            "durationTicks": 227,
            "midi": 48,
            "name": "C3",
            "ticks": 55920,
            "time": 58.25,
            "velocity": 0.3858267716535433
          },
          {
            "duration": 0.7489583333333343,
            "durationTicks": 719,
            "midi": 49,
            "name": "C#3",
            "ticks": 56160,
            "time": 58.5,
            "velocity": 0.3858267716535433
          },
          {
            "duration": 0.4739583333333357,
            "durationTicks": 455,
            "midi": 49,
            "name": "C#3",
            "ticks": 56880,
            "time": 59.25,
            "velocity": 0.3858267716535433
          },
          {
            "duration": 0.23645833333333144,
            "durationTicks": 227,
            "midi": 51,
            "name": "D#3",
            "ticks": 57360,
            "time": 59.75,
            "velocity": 0.3858267716535433
          },
          {
            "duration": 0.94895833333333,
            "durationTicks": 911,
            "midi": 44,
            "name": "G#2",
            "ticks": 57600,
            "time": 60,
            "velocity": 0.3858267716535433
          },
          {
            "duration": 0.23645833333333144,
            "durationTicks": 227,
            "midi": 46,
            "name": "A#2",
            "ticks": 58560,
            "time": 61,
            "velocity": 0.3858267716535433
          },
          {
            "duration": 0.23645833333333144,
            "durationTicks": 227,
            "midi": 48,
            "name": "C3",
            "ticks": 58800,
            "time": 61.25,
            "velocity": 0.3858267716535433
          },
          {
            "duration": 1.4239583333333314,
            "durationTicks": 1367,
            "midi": 51,
            "name": "D#3",
            "ticks": 59040,
            "time": 61.5,
            "velocity": 0.3858267716535433
          },
          {
            "duration": 1.1864583333333343,
            "durationTicks": 1139,
            "midi": 53,
            "name": "F3",
            "ticks": 60480,
            "time": 63,
            "velocity": 0.3858267716535433
          },
          {
            "duration": 0.23645833333333144,
            "durationTicks": 227,
            "midi": 48,
            "name": "C3",
            "ticks": 61680,
            "time": 64.25,
            "velocity": 0.3858267716535433
          },
          {
            "duration": 1.1864583333333343,
            "durationTicks": 1139,
            "midi": 49,
            "name": "C#3",
            "ticks": 61920,
            "time": 64.5,
            "velocity": 0.3858267716535433
          },
          {
            "duration": 0.23645833333333144,
            "durationTicks": 227,
            "midi": 51,
            "name": "D#3",
            "ticks": 63120,
            "time": 65.75,
            "velocity": 0.3858267716535433
          },
          {
            "duration": 0.7489583333333343,
            "durationTicks": 719,
            "midi": 44,
            "name": "G#2",
            "ticks": 63360,
            "time": 66,
            "velocity": 0.3858267716535433
          },
          {
            "duration": 0.23645833333333144,
            "durationTicks": 227,
            "midi": 44,
            "name": "G#2",
            "ticks": 64080,
            "time": 66.75,
            "velocity": 0.3858267716535433
          },
          {
            "duration": 0.23645833333333144,
            "durationTicks": 227,
            "midi": 46,
            "name": "A#2",
            "ticks": 64320,
            "time": 67,
            "velocity": 0.3858267716535433
          },
          {
            "duration": 0.23645833333333144,
            "durationTicks": 227,
            "midi": 48,
            "name": "C3",
            "ticks": 64560,
            "time": 67.25,
            "velocity": 0.3858267716535433
          },
          {
            "duration": 1.4239583333333314,
            "durationTicks": 1367,
            "midi": 51,
            "name": "D#3",
            "ticks": 64800,
            "time": 67.5,
            "velocity": 0.3858267716535433
          },
          {
            "duration": 0.71145833333334,
            "durationTicks": 683,
            "midi": 41,
            "name": "F2",
            "ticks": 66240,
            "time": 69,
            "velocity": 0.3858267716535433
          },
          {
            "duration": 0.71145833333334,
            "durationTicks": 683,
            "midi": 41,
            "name": "F2",
            "ticks": 66960,
            "time": 69.75,
            "velocity": 0.3858267716535433
          },
          {
            "duration": 0.7489583333333343,
            "durationTicks": 719,
            "midi": 49,
            "name": "C#3",
            "ticks": 67680,
            "time": 70.5,
            "velocity": 0.3858267716535433
          },
          {
            "duration": 0.4739583333333286,
            "durationTicks": 455,
            "midi": 49,
            "name": "C#3",
            "ticks": 68400,
            "time": 71.25,
            "velocity": 0.3858267716535433
          },
          {
            "duration": 0.23645833333333144,
            "durationTicks": 227,
            "midi": 51,
            "name": "D#3",
            "ticks": 68880,
            "time": 71.75,
            "velocity": 0.3858267716535433
          },
          {
            "duration": 0.71145833333334,
            "durationTicks": 683,
            "midi": 44,
            "name": "G#2",
            "ticks": 69120,
            "time": 72,
            "velocity": 0.3858267716535433
          },
          {
            "duration": 0.4739583333333286,
            "durationTicks": 455,
            "midi": 56,
            "name": "G#3",
            "ticks": 69840,
            "time": 72.75,
            "velocity": 0.3858267716535433
          },
          {
            "duration": 0.23645833333333144,
            "durationTicks": 227,
            "midi": 48,
            "name": "C3",
            "ticks": 70320,
            "time": 73.25,
            "velocity": 0.3858267716535433
          },
          {
            "duration": 0.71145833333334,
            "durationTicks": 683,
            "midi": 51,
            "name": "D#3",
            "ticks": 70560,
            "time": 73.5,
            "velocity": 0.3858267716535433
          },
          {
            "duration": 0.71145833333334,
            "durationTicks": 683,
            "midi": 51,
            "name": "D#3",
            "ticks": 71280,
            "time": 74.25,
            "velocity": 0.3858267716535433
          },
          {
            "duration": 1.1864583333333343,
            "durationTicks": 1139,
            "midi": 44,
            "name": "G#2",
            "ticks": 72000,
            "time": 75,
            "velocity": 0.3858267716535433
          },
          {
            "duration": 0.23645833333333144,
            "durationTicks": 227,
            "midi": 44,
            "name": "G#2",
            "ticks": 73200,
            "time": 76.25,
            "velocity": 0.3858267716535433
          },
          {
            "duration": 0.71145833333334,
            "durationTicks": 683,
            "midi": 44,
            "name": "G#2",
            "ticks": 73440,
            "time": 76.5,
            "velocity": 0.3858267716535433
          },
          {
            "duration": 0.23645833333333144,
            "durationTicks": 227,
            "midi": 44,
            "name": "G#2",
            "ticks": 74160,
            "time": 77.25,
            "velocity": 0.3858267716535433
          },
          {
            "duration": 0.23645833333333144,
            "durationTicks": 227,
            "midi": 46,
            "name": "A#2",
            "ticks": 74400,
            "time": 77.5,
            "velocity": 0.3858267716535433
          },
          {
            "duration": 0.23645833333333144,
            "durationTicks": 227,
            "midi": 44,
            "name": "G#2",
            "ticks": 74640,
            "time": 77.75,
            "velocity": 0.3858267716535433
          },
          {
            "duration": 1.1864583333333343,
            "durationTicks": 1139,
            "midi": 41,
            "name": "F2",
            "ticks": 74880,
            "time": 78,
            "velocity": 0.3858267716535433
          },
          {
            "duration": 0.23645833333333144,
            "durationTicks": 227,
            "midi": 41,
            "name": "F2",
            "ticks": 76080,
            "time": 79.25,
            "velocity": 0.3858267716535433
          },
          {
            "duration": 0.71145833333334,
            "durationTicks": 683,
            "midi": 41,
            "name": "F2",
            "ticks": 76320,
            "time": 79.5,
            "velocity": 0.3858267716535433
          },
          {
            "duration": 0.23645833333333144,
            "durationTicks": 227,
            "midi": 41,
            "name": "F2",
            "ticks": 77040,
            "time": 80.25,
            "velocity": 0.3858267716535433
          },
          {
            "duration": 0.23645833333333144,
            "durationTicks": 227,
            "midi": 44,
            "name": "G#2",
            "ticks": 77280,
            "time": 80.5,
            "velocity": 0.3858267716535433
          },
          {
            "duration": 1.1864583333333343,
            "durationTicks": 1139,
            "midi": 49,
            "name": "C#3",
            "ticks": 77760,
            "time": 81,
            "velocity": 0.3858267716535433
          },
          {
            "duration": 0.23645833333333144,
            "durationTicks": 227,
            "midi": 49,
            "name": "C#3",
            "ticks": 78960,
            "time": 82.25,
            "velocity": 0.3858267716535433
          },
          {
            "duration": 0.71145833333334,
            "durationTicks": 683,
            "midi": 49,
            "name": "C#3",
            "ticks": 79200,
            "time": 82.5,
            "velocity": 0.3858267716535433
          },
          {
            "duration": 0.23645833333333144,
            "durationTicks": 227,
            "midi": 49,
            "name": "C#3",
            "ticks": 79920,
            "time": 83.25,
            "velocity": 0.3858267716535433
          },
          {
            "duration": 0.23645833333333144,
            "durationTicks": 227,
            "midi": 51,
            "name": "D#3",
            "ticks": 80160,
            "time": 83.5,
            "velocity": 0.3858267716535433
          },
          {
            "duration": 0.23645833333333144,
            "durationTicks": 227,
            "midi": 53,
            "name": "F3",
            "ticks": 80400,
            "time": 83.75,
            "velocity": 0.3858267716535433
          },
          {
            "duration": 0.7489583333333343,
            "durationTicks": 719,
            "midi": 51,
            "name": "D#3",
            "ticks": 80640,
            "time": 84,
            "velocity": 0.3858267716535433
          },
          {
            "duration": 0.4739583333333286,
            "durationTicks": 455,
            "midi": 51,
            "name": "D#3",
            "ticks": 81360,
            "time": 84.75,
            "velocity": 0.3858267716535433
          },
          {
            "duration": 0.23645833333333144,
            "durationTicks": 227,
            "midi": 46,
            "name": "A#2",
            "ticks": 81840,
            "time": 85.25,
            "velocity": 0.3858267716535433
          },
          {
            "duration": 0.71145833333334,
            "durationTicks": 683,
            "midi": 51,
            "name": "D#3",
            "ticks": 82080,
            "time": 85.5,
            "velocity": 0.3858267716535433
          },
          {
            "duration": 0.23645833333333144,
            "durationTicks": 227,
            "midi": 51,
            "name": "D#3",
            "ticks": 82800,
            "time": 86.25,
            "velocity": 0.3858267716535433
          },
          {
            "duration": 0.23645833333333144,
            "durationTicks": 227,
            "midi": 46,
            "name": "A#2",
            "ticks": 83040,
            "time": 86.5,
            "velocity": 0.3858267716535433
          },
          {
            "duration": 0.23645833333333144,
            "durationTicks": 227,
            "midi": 39,
            "name": "D#2",
            "ticks": 83280,
            "time": 86.75,
            "velocity": 0.3858267716535433
          },
          {
            "duration": 0.71145833333334,
            "durationTicks": 683,
            "midi": 41,
            "name": "F2",
            "ticks": 83520,
            "time": 87,
            "velocity": 0.3858267716535433
          },
          {
            "duration": 0.4739583333333286,
            "durationTicks": 455,
            "midi": 53,
            "name": "F3",
            "ticks": 84240,
            "time": 87.75,
            "velocity": 0.3858267716535433
          },
          {
            "duration": 0.23645833333333144,
            "durationTicks": 227,
            "midi": 36,
            "name": "C2",
            "ticks": 84720,
            "time": 88.25,
            "velocity": 0.3858267716535433
          },
          {
            "duration": 0.71145833333334,
            "durationTicks": 683,
            "midi": 37,
            "name": "C#2",
            "ticks": 84960,
            "time": 88.5,
            "velocity": 0.3858267716535433
          },
          {
            "duration": 0.4739583333333286,
            "durationTicks": 455,
            "midi": 49,
            "name": "C#3",
            "ticks": 85680,
            "time": 89.25,
            "velocity": 0.3858267716535433
          },
          {
            "duration": 0.23645833333333144,
            "durationTicks": 227,
            "midi": 51,
            "name": "D#3",
            "ticks": 86160,
            "time": 89.75,
            "velocity": 0.3858267716535433
          },
          {
            "duration": 0.71145833333334,
            "durationTicks": 683,
            "midi": 44,
            "name": "G#2",
            "ticks": 86400,
            "time": 90,
            "velocity": 0.3858267716535433
          },
          {
            "duration": 0.23645833333333144,
            "durationTicks": 227,
            "midi": 44,
            "name": "G#2",
            "ticks": 87120,
            "time": 90.75,
            "velocity": 0.3858267716535433
          },
          {
            "duration": 0.23645833333333144,
            "durationTicks": 227,
            "midi": 32,
            "name": "G#1",
            "ticks": 87360,
            "time": 91,
            "velocity": 0.3858267716535433
          },
          {
            "duration": 0.23645833333333144,
            "durationTicks": 227,
            "midi": 36,
            "name": "C2",
            "ticks": 87600,
            "time": 91.25,
            "velocity": 0.3858267716535433
          },
          {
            "duration": 0.71145833333334,
            "durationTicks": 683,
            "midi": 39,
            "name": "D#2",
            "ticks": 87840,
            "time": 91.5,
            "velocity": 0.3858267716535433
          },
          {
            "duration": 0.23645833333333144,
            "durationTicks": 227,
            "midi": 51,
            "name": "D#3",
            "ticks": 88560,
            "time": 92.25,
            "velocity": 0.3858267716535433
          },
          {
            "duration": 0.23645833333333144,
            "durationTicks": 227,
            "midi": 48,
            "name": "C3",
            "ticks": 88800,
            "time": 92.5,
            "velocity": 0.3858267716535433
          },
          {
            "duration": 0.23645833333333144,
            "durationTicks": 227,
            "midi": 51,
            "name": "D#3",
            "ticks": 89040,
            "time": 92.75,
            "velocity": 0.3858267716535433
          },
          {
            "duration": 0.71145833333334,
            "durationTicks": 683,
            "midi": 41,
            "name": "F2",
            "ticks": 89280,
            "time": 93,
            "velocity": 0.3858267716535433
          },
          {
            "duration": 0.23645833333333144,
            "durationTicks": 227,
            "midi": 53,
            "name": "F3",
            "ticks": 90000,
            "time": 93.75,
            "velocity": 0.3858267716535433
          },
          {
            "duration": 0.23645833333333144,
            "durationTicks": 227,
            "midi": 41,
            "name": "F2",
            "ticks": 90240,
            "time": 94,
            "velocity": 0.3858267716535433
          },
          {
            "duration": 0.23645833333333144,
            "durationTicks": 227,
            "midi": 44,
            "name": "G#2",
            "ticks": 90480,
            "time": 94.25,
            "velocity": 0.3858267716535433
          },
          {
            "duration": 0.71145833333334,
            "durationTicks": 683,
            "midi": 37,
            "name": "C#2",
            "ticks": 90720,
            "time": 94.5,
            "velocity": 0.3858267716535433
          },
          {
            "duration": 0.4739583333333286,
            "durationTicks": 455,
            "midi": 49,
            "name": "C#3",
            "ticks": 91440,
            "time": 95.25,
            "velocity": 0.3858267716535433
          },
          {
            "duration": 0.23645833333333144,
            "durationTicks": 227,
            "midi": 51,
            "name": "D#3",
            "ticks": 91920,
            "time": 95.75,
            "velocity": 0.3858267716535433
          },
          {
            "duration": 0.71145833333334,
            "durationTicks": 683,
            "midi": 44,
            "name": "G#2",
            "ticks": 92160,
            "time": 96,
            "velocity": 0.3858267716535433
          },
          {
            "duration": 0.23645833333333144,
            "durationTicks": 227,
            "midi": 56,
            "name": "G#3",
            "ticks": 92880,
            "time": 96.75,
            "velocity": 0.3858267716535433
          },
          {
            "duration": 0.23645833333333144,
            "durationTicks": 227,
            "midi": 44,
            "name": "G#2",
            "ticks": 93120,
            "time": 97,
            "velocity": 0.3858267716535433
          },
          {
            "duration": 0.23645833333333144,
            "durationTicks": 227,
            "midi": 48,
            "name": "C3",
            "ticks": 93360,
            "time": 97.25,
            "velocity": 0.3858267716535433
          },
          {
            "duration": 0.71145833333334,
            "durationTicks": 683,
            "midi": 39,
            "name": "D#2",
            "ticks": 93600,
            "time": 97.5,
            "velocity": 0.3858267716535433
          },
          {
            "duration": 0.23645833333333144,
            "durationTicks": 227,
            "midi": 51,
            "name": "D#3",
            "ticks": 94320,
            "time": 98.25,
            "velocity": 0.3858267716535433
          },
          {
            "duration": 0.23645833333333144,
            "durationTicks": 227,
            "midi": 46,
            "name": "A#2",
            "ticks": 94560,
            "time": 98.5,
            "velocity": 0.3858267716535433
          },
          {
            "duration": 0.23645833333333144,
            "durationTicks": 227,
            "midi": 39,
            "name": "D#2",
            "ticks": 94800,
            "time": 98.75,
            "velocity": 0.3858267716535433
          },
          {
            "duration": 0.71145833333334,
            "durationTicks": 683,
            "midi": 41,
            "name": "F2",
            "ticks": 95040,
            "time": 99,
            "velocity": 0.3858267716535433
          },
          {
            "duration": 0.23645833333333144,
            "durationTicks": 227,
            "midi": 53,
            "name": "F3",
            "ticks": 95760,
            "time": 99.75,
            "velocity": 0.3858267716535433
          },
          {
            "duration": 0.23645833333333144,
            "durationTicks": 227,
            "midi": 44,
            "name": "G#2",
            "ticks": 96000,
            "time": 100,
            "velocity": 0.3858267716535433
          },
          {
            "duration": 0.23645833333333144,
            "durationTicks": 227,
            "midi": 48,
            "name": "C3",
            "ticks": 96240,
            "time": 100.25,
            "velocity": 0.3858267716535433
          },
          {
            "duration": 0.71145833333334,
            "durationTicks": 683,
            "midi": 37,
            "name": "C#2",
            "ticks": 96480,
            "time": 100.5,
            "velocity": 0.3858267716535433
          },
          {
            "duration": 0.4739583333333286,
            "durationTicks": 455,
            "midi": 49,
            "name": "C#3",
            "ticks": 97200,
            "time": 101.25,
            "velocity": 0.3858267716535433
          },
          {
            "duration": 0.23645833333333144,
            "durationTicks": 227,
            "midi": 51,
            "name": "D#3",
            "ticks": 97680,
            "time": 101.75,
            "velocity": 0.3858267716535433
          },
          {
            "duration": 0.4739583333333286,
            "durationTicks": 455,
            "midi": 44,
            "name": "G#2",
            "ticks": 97920,
            "time": 102,
            "velocity": 0.3858267716535433
          },
          {
            "duration": 0.23645833333333144,
            "durationTicks": 227,
            "midi": 51,
            "name": "D#3",
            "ticks": 98400,
            "time": 102.5,
            "velocity": 0.3858267716535433
          },
          {
            "duration": 0.71145833333334,
            "durationTicks": 683,
            "midi": 56,
            "name": "G#3",
            "ticks": 98640,
            "time": 102.75,
            "velocity": 0.3858267716535433
          },
          {
            "duration": 0.71145833333334,
            "durationTicks": 683,
            "midi": 39,
            "name": "D#2",
            "ticks": 99360,
            "time": 103.5,
            "velocity": 0.3858267716535433
          },
          {
            "duration": 0.71145833333334,
            "durationTicks": 683,
            "midi": 51,
            "name": "D#3",
            "ticks": 100080,
            "time": 104.25,
            "velocity": 0.3858267716535433
          },
          {
            "duration": 0.7489583333333343,
            "durationTicks": 719,
            "midi": 49,
            "name": "C#3",
            "ticks": 100800,
            "time": 105,
            "velocity": 0.3858267716535433
          },
          {
            "duration": 0.24895833333333428,
            "durationTicks": 239,
            "midi": 53,
            "name": "F3",
            "ticks": 101040,
            "time": 105.25,
            "velocity": 0.3858267716535433
          },
          {
            "duration": 0.24895833333333428,
            "durationTicks": 239,
            "midi": 56,
            "name": "G#3",
            "ticks": 101280,
            "time": 105.5,
            "velocity": 0.3858267716535433
          },
          {
            "duration": 0.23645833333333144,
            "durationTicks": 227,
            "midi": 61,
            "name": "C#4",
            "ticks": 101520,
            "time": 105.75,
            "velocity": 0.3858267716535433
          },
          {
            "duration": 0.4739583333333286,
            "durationTicks": 455,
            "midi": 49,
            "name": "C#3",
            "ticks": 101520,
            "time": 105.75,
            "velocity": 0.3858267716535433
          },
          {
            "duration": 0.4739583333333286,
            "durationTicks": 455,
            "midi": 56,
            "name": "G#3",
            "ticks": 101760,
            "time": 106,
            "velocity": 0.3858267716535433
          },
          {
            "duration": 0.23645833333333144,
            "durationTicks": 227,
            "midi": 49,
            "name": "C#3",
            "ticks": 102000,
            "time": 106.25,
            "velocity": 0.3858267716535433
          },
          {
            "duration": 1.4239583333333314,
            "durationTicks": 1367,
            "midi": 49,
            "name": "C#3",
            "ticks": 102240,
            "time": 106.5,
            "velocity": 0.3858267716535433
          },
          {
            "duration": 0.23645833333333144,
            "durationTicks": 227,
            "midi": 53,
            "name": "F3",
            "ticks": 102480,
            "time": 106.75,
            "velocity": 0.3858267716535433
          },
          {
            "duration": 0.23645833333333144,
            "durationTicks": 227,
            "midi": 56,
            "name": "G#3",
            "ticks": 102720,
            "time": 107,
            "velocity": 0.3858267716535433
          },
          {
            "duration": 0.23645833333333144,
            "durationTicks": 227,
            "midi": 61,
            "name": "C#4",
            "ticks": 102960,
            "time": 107.25,
            "velocity": 0.3858267716535433
          },
          {
            "duration": 0.23645833333333144,
            "durationTicks": 227,
            "midi": 56,
            "name": "G#3",
            "ticks": 103200,
            "time": 107.5,
            "velocity": 0.3858267716535433
          },
          {
            "duration": 0.23645833333333144,
            "durationTicks": 227,
            "midi": 53,
            "name": "F3",
            "ticks": 103440,
            "time": 107.75,
            "velocity": 0.3858267716535433
          },
          {
            "duration": 2.8489583333333286,
            "durationTicks": 2735,
            "midi": 51,
            "name": "D#3",
            "ticks": 103680,
            "time": 108,
            "velocity": 0.3858267716535433
          },
          {
            "duration": 0.23645833333333144,
            "durationTicks": 227,
            "midi": 55,
            "name": "G3",
            "ticks": 103920,
            "time": 108.25,
            "velocity": 0.3858267716535433
          },
          {
            "duration": 0.23645833333333144,
            "durationTicks": 227,
            "midi": 58,
            "name": "A#3",
            "ticks": 104160,
            "time": 108.5,
            "velocity": 0.3858267716535433
          },
          {
            "duration": 0.71145833333334,
            "durationTicks": 683,
            "midi": 63,
            "name": "D#4",
            "ticks": 104400,
            "time": 108.75,
            "velocity": 0.3858267716535433
          },
          {
            "duration": 0.23645833333333144,
            "durationTicks": 227,
            "midi": 58,
            "name": "A#3",
            "ticks": 104640,
            "time": 109,
            "velocity": 0.3858267716535433
          },
          {
            "duration": 0.23645833333333144,
            "durationTicks": 227,
            "midi": 55,
            "name": "G3",
            "ticks": 104880,
            "time": 109.25,
            "velocity": 0.3858267716535433
          },
          {
            "duration": 0.75,
            "durationTicks": 720,
            "midi": 58,
            "name": "A#3",
            "ticks": 105120,
            "time": 109.5,
            "velocity": 0.3858267716535433
          },
          {
            "duration": 0.71145833333334,
            "durationTicks": 683,
            "midi": 51,
            "name": "D#3",
            "ticks": 106560,
            "time": 111,
            "velocity": 0.3858267716535433
          },
          {
            "duration": 0.4739583333333286,
            "durationTicks": 455,
            "midi": 49,
            "name": "C#3",
            "ticks": 107280,
            "time": 111.75,
            "velocity": 0.3858267716535433
          },
          {
            "duration": 0.23645833333333144,
            "durationTicks": 227,
            "midi": 49,
            "name": "C#3",
            "ticks": 107760,
            "time": 112.25,
            "velocity": 0.3858267716535433
          },
          {
            "duration": 1.4239583333333314,
            "durationTicks": 1367,
            "midi": 49,
            "name": "C#3",
            "ticks": 108000,
            "time": 112.5,
            "velocity": 0.3858267716535433
          },
          {
            "duration": 2.8489583333333286,
            "durationTicks": 2735,
            "midi": 51,
            "name": "D#3",
            "ticks": 109440,
            "time": 114,
            "velocity": 0.3858267716535433
          },
          {
            "duration": 0.71145833333334,
            "durationTicks": 683,
            "midi": 56,
            "name": "G#3",
            "ticks": 112320,
            "time": 117,
            "velocity": 0.3858267716535433
          },
          {
            "duration": 0.71145833333334,
            "durationTicks": 683,
            "midi": 55,
            "name": "G3",
            "ticks": 113040,
            "time": 117.75,
            "velocity": 0.3858267716535433
          },
          {
            "duration": 0.71145833333334,
            "durationTicks": 683,
            "midi": 53,
            "name": "F3",
            "ticks": 113760,
            "time": 118.5,
            "velocity": 0.3858267716535433
          },
          {
            "duration": 0.71145833333334,
            "durationTicks": 683,
            "midi": 51,
            "name": "D#3",
            "ticks": 114480,
            "time": 119.25,
            "velocity": 0.3858267716535433
          },
          {
            "duration": 1.4239583333333314,
            "durationTicks": 1367,
            "midi": 49,
            "name": "C#3",
            "ticks": 115200,
            "time": 120,
            "velocity": 0.3858267716535433
          },
          {
            "duration": 1.4239583333333314,
            "durationTicks": 1367,
            "midi": 51,
            "name": "D#3",
            "ticks": 116640,
            "time": 121.5,
            "velocity": 0.3858267716535433
          },
          {
            "duration": 2.8489583333333286,
            "durationTicks": 2735,
            "midi": 44,
            "name": "G#2",
            "ticks": 118080,
            "time": 123,
            "velocity": 0.3858267716535433
          }
        ]
      }
    ]
  }